<?xml version="1.0" encoding="UTF-8" standalone="no"?>
<!-- Created with Inkscape (http://www.inkscape.org/) -->

<svg
   xmlns:dc="http://purl.org/dc/elements/1.1/"
   xmlns:cc="http://creativecommons.org/ns#"
   xmlns:rdf="http://www.w3.org/1999/02/22-rdf-syntax-ns#"
   xmlns:svg="http://www.w3.org/2000/svg"
   xmlns="http://www.w3.org/2000/svg"
   xmlns:sodipodi="http://sodipodi.sourceforge.net/DTD/sodipodi-0.dtd"
   xmlns:inkscape="http://www.inkscape.org/namespaces/inkscape"
   id="svg3374"
   version="1.1"
   inkscape:version="0.91 r13725"
   xml:space="preserve"
   width="200mm"
   height="129.17805mm"
   viewBox="0 0 708.66146 457.71753"
   sodipodi:docname="Tsunami wave.svg"><metadata
     id="metadata3380"><rdf:RDF><cc:Work
         rdf:about=""><dc:format>image/svg+xml</dc:format><dc:type
           rdf:resource="http://purl.org/dc/dcmitype/StillImage" /><dc:title></dc:title></cc:Work></rdf:RDF></metadata><defs
     id="defs3378"><clipPath
       clipPathUnits="userSpaceOnUse"
       id="clipPath3388"><path
         d="m 0,459 678.999,0 0,-459 L 0,0 0,459 Z"
         id="path3390"
         inkscape:connector-curvature="0" /></clipPath></defs><sodipodi:namedview
     pagecolor="#ffffff"
     bordercolor="#666666"
     borderopacity="1"
     objecttolerance="10"
     gridtolerance="10"
     guidetolerance="10"
     inkscape:pageopacity="0"
     inkscape:pageshadow="2"
     inkscape:window-width="1440"
     inkscape:window-height="851"
     id="namedview3376"
     showgrid="false"
     fit-margin-top="0"
     fit-margin-left="0"
     fit-margin-right="0"
     fit-margin-bottom="0"
     inkscape:zoom="1.4179051"
     inkscape:cx="354.3307"
     inkscape:cy="228.85875"
     inkscape:window-x="0"
     inkscape:window-y="0"
     inkscape:window-maximized="1"
     inkscape:current-layer="g3382"
     units="mm"
     inkscape:document-units="mm" /><g
     id="g3382"
     inkscape:groupmode="layer"
     inkscape:label="Tsunami"
     transform="matrix(1.25,0,0,-1.25,-318.36395,692.44054)"><g
       id="g3420"
       transform="matrix(3.207151,0,0,3.207151,254.69115,382.5198)"><path
         d="m 0,0 c 1.482,-1.021 3.289,0.031 4.826,-0.306 1.395,-0.303 2.567,-1.834 3.975,-2.124 4.043,-0.836 8.068,0.21 12.01,1.814 6.619,2.691 14.267,9.988 19.269,18.226 2.358,3.883 6.721,6.532 9.883,7.587 2.699,3.797 6.078,5.833 9.213,8.16 6.951,5.164 14.138,9.87 21.412,13.631 6.488,3.354 12.568,4.693 19.258,4.646 3.422,-0.025 6.789,2.081 10.482,1.792 4.106,-0.321 9.09,-0.159 12.92,-2.77 2.842,-1.936 5.922,-2.414 8.84,-3.842 2.248,-1.099 5.267,-2.114 7.141,-4.04 2.437,-2.505 5.361,-2.941 7.808,-5.413 4.746,-4.788 -1.564,-3.986 -1.693,-5.181 1.07,-3.006 3.742,-2.493 4.994,-5.162 2.363,-5.04 -3.867,-1.658 -3.574,-1.518 -1.291,-0.216 -0.625,-2.781 -0.244,-3.794 1.037,-2.749 3.908,-0.967 5.355,-0.278 3.621,1.721 6.531,-1.89 10.127,-2.378 1.527,-0.21 3.137,-0.07 4.641,-0.697 2.873,-1.203 0.306,-3.821 1.697,-6.515 1.389,-0.995 3.576,-1.293 4.517,-3.668 0.877,-2.212 1.782,-1.704 2.932,-3.862 1.516,-2.853 1.4,-7.665 -1.228,-7.86 -3.047,-0.226 -0.352,3.201 -2.247,4.765 -1.572,0.306 -3.64,-0.059 -4.189,-3.25 -1.049,-6.062 4.887,-3.101 5.609,-8.591 1.11,-8.442 -5.802,1.425 -5.963,-4.251 2.598,-1.574 1.768,-6.212 -0.494,-7.313 -1.201,-0.585 -2.4,0.148 -3.197,1.849 -1.074,-1.52 -2.578,-2.04 -3.91,-2.073 -1.496,-0.034 -2.176,-0.161 -2.4,2.238 -0.155,1.629 -3.061,0.657 -3.887,1.271 -3.078,2.282 2.021,3.67 1.965,5.243 -1.332,0.274 -5.811,0.078 -3.69,4.554 -1.447,-0.273 -2.793,-1.827 -4.26,-0.607 0.215,-3.074 -1.375,-4.307 -2.777,-4.803 -2.666,-0.941 -1.996,4.047 -3.934,3.052 -1.804,-0.927 -3.687,-2.446 -5.47,-0.183 -3.158,4.005 1.845,2.262 1.394,4.968 -1.205,-0.173 -2.369,0.073 -3.336,1.442 -1.289,1.825 0.448,2.814 -0.072,3.418 -2.111,-0.359 -4,-2.247 -6.092,-2.767 -2.662,-0.659 -3.482,0.776 -5.965,-2.014 -1.771,-1.995 -2.953,-4.379 -2.722,-8.315 0.285,-4.85 -2.377,-6.975 -2.174,-11.761 0.592,-14.011 10.916,-30.254 17.807,-34.041 l -107.024,0 c 0.975,0.661 0.053,3.122 1.137,3.642 -0.385,0.697 -0.858,0.9 -1.42,0.607 1.762,1.402 3.65,-5.484 3.689,0.608 1.344,0.909 2.29,0.301 2.84,-1.823 2.467,3.815 -6.634,3.103 -7.236,2.986 -1.807,-0.355 -3.861,-0.08 -5.539,1.266 -0.141,4.586 4.342,5.099 3.691,1.821 3.475,2.204 -4.396,6.974 -3.691,2.428 -0.422,8.947 -7.871,1.681 -9.934,1.216 -2.045,-0.458 -3.748,0.506 -5.677,1.519 0.306,5 -2.213,1.871 -2.272,2.731 0.469,1.458 2.217,0.162 2.557,1.822 -0.571,1.391 -2.287,2.422 -3.125,1.215 0.013,-0.096 3.636,2.706 3.125,-2.735 2.566,-2.235 1.035,4.56 1.134,5.162 2.995,1.591 3.502,-0.602 3.973,-4.249 2.039,-0.668 1.287,2.885 1.703,4.858 2.584,0.396 1.512,-1.865 2.764,2.206 0.725,2.348 4.65,0.103 3.482,-2.815 2.76,2.512 -2.488,3.721 -2.271,6.376 0.318,-0.353 0.508,-0.86 0.568,-1.518 1.069,0.011 0.094,2.147 1.418,1.821 -1.646,-4.015 5.014,-5.983 3.408,-10.02 1.414,0.245 1.254,2.547 0.569,3.949 0.685,1.305 3.777,1.663 4.256,-0.305 0.304,-1.137 -1.065,-0.477 -0.85,-1.519 1.182,-2.544 1.498,2.414 2.272,2.734 -0.356,0.794 -0.829,1.096 -1.422,0.911 0.599,0.451 1.168,0.349 1.703,-0.305 -0.354,-1.021 -0.541,-2.136 -0.567,-3.34 1.196,0.023 1.905,1.616 2.731,-0.516 0.904,-2.333 1.012,-4.625 -1.028,-4.643 0.159,-3.515 2.756,0.952 3.124,1.212 -1.254,2.931 -1.565,7.197 0.849,7.591 0.045,-0.771 -0.049,-1.478 -0.283,-2.125 1.535,-0.803 1.904,3.651 3.922,2.977 2.24,-0.748 0.781,-2.784 1.756,-3.889 1.267,0.15 1.668,2.276 0.826,3.732 -1.293,2.232 -3.465,2.637 -5.156,2.853 -2.465,0.318 -2.623,-0.584 -3.334,3.741 -0.44,0.512 -3.393,1.183 -2.555,3.034 1.307,0.532 2.064,-0.431 3.121,-1.518 1.102,1.546 -1.207,2.065 -0.283,3.642 -1.682,-0.943 -3.436,0.462 -5.11,-0.304 1.858,0.936 5.747,3.299 5.393,6.074 0.643,-0.417 1.305,-0.619 1.988,-0.607 -0.353,-0.328 -0.734,-0.43 -1.136,-0.305 -0.502,-2.845 1.755,-2.555 2.556,-2.429 -1.492,-0.727 1.24,-2.949 2.555,-1.821 0.994,-4.053 -1.191,-1.91 -2.272,-2.732 2.061,-5.041 5.563,4.388 7.95,0.607 0.302,-1.798 -1.377,-1.055 -1.703,-0.911 0.314,-1.894 3.337,-0.798 3.121,0.911 1.734,-3.47 -0.293,-5.813 -2.27,-5.161 0.029,-1.833 2.428,-1.3 2.977,-1.325 3.002,-0.129 1.351,-4.715 -0.707,-3.838 -0.434,-2.998 5.164,2.758 5.111,2.735 -1.324,-3.98 -5.527,-10.37 -8.232,-7.59 0.314,-2.334 3.191,-1.552 3.974,-0.912 -1.086,-2.872 1.965,-3.532 -1.142,-4.778 -0.846,-0.338 -2.979,-0.743 -3.065,-0.055 0.361,-2.888 5.26,-1.9 6.477,-1.846 1.769,-3.4 -2.559,-4.749 -3.69,-3.644 -1.299,-1.856 3.209,-1.595 2.953,-1.692 1.547,0.578 2.69,2.519 3.577,4.73 -0.807,0.452 -1.374,1.362 -1.704,2.731 0.727,0.707 1.485,0.808 2.272,0.304 0.344,-1.374 -0.785,-1.158 -0.568,-2.429 1.97,-0.009 2.841,4.551 0.283,4.554 1.67,1.277 8.359,1.625 5.677,-3.946 1.254,-0.434 3.866,4.038 1.989,4.858 0.343,0.45 7.228,4.006 5.111,5.767 1.613,1.002 1.131,-2.823 0,-3.037 2.484,-3.334 0.158,-1.677 0.283,-4.552 1.49,-0.502 2.301,2.02 3.121,3.643 -0.838,-3.02 0.43,-5.435 -1.986,-6.679 1.73,-1.226 2.91,2.884 4.348,-0.511 0.908,-2.145 -0.807,-4.478 -2.076,-4.65 2.517,-2.739 3.597,3.665 5.958,3.644 1.372,-0.014 2.241,-1.319 2.874,-3.349 1.214,-3.886 -0.393,-0.708 -0.602,-3.635 2.193,-1.75 2.541,3.656 1.422,5.772 -0.619,0.917 -1.092,2.03 -1.422,3.337 -0.584,-0.237 -1.172,-0.391 -1.766,-0.459 0.483,-0.422 2.161,2.448 2.051,3.493 1.479,0.107 5.582,-1.014 3.973,-5.464 1.724,0.442 1.871,4.296 0.535,5.569 -3.754,3.575 1.684,3.307 0.316,0.502 2.258,-0.171 -0.136,3.386 1.873,4.075 0.885,0.266 1.762,0.19 2.631,-0.23 1.672,-0.874 0.086,-3.137 1.174,-3.845 1.742,1.732 0.047,4.118 -0.912,5.053 -2.109,2.064 -4.658,-0.041 -6.752,-1.408 1.932,0.467 2.752,4.304 0,4.249 2.752,0.606 1.596,3.945 -0.285,4.859 -2.166,0.222 -3.11,-2.89 -5.356,-2.327 -1.445,0.362 -5.38,1.443 -5.875,3.814 -0.425,2.024 -0.066,4.043 -0.125,6.103 0.538,-0.299 2.385,1.327 2.327,0.626 -0.147,-0.512 -0.352,-0.923 -0.623,-1.234 -0.034,-0.009 2.31,-0.42 2.023,0.247 -0.453,0.22 -0.561,0.542 -0.318,0.969 1.203,0.519 0.345,-0.734 1.134,-0.913 0.17,-1.222 -1.187,-0.834 -1.418,-1.517 0.432,-1.723 2.401,-0.866 2.27,0.91 0.684,-1.848 2.867,-4.25 -0.283,-4.25 1.441,-1.592 2.195,-0.442 3.207,1.404 1.402,2.569 4.916,1.071 3.039,-1.1 5.572,0.047 -1.326,7.35 4.256,7.287 -0.44,-1.32 -2.924,-0.513 -2.27,-3.036 2.026,1.214 3.705,-0.403 5.678,-0.911 0.351,-2.723 -1.764,-4.513 -1.703,-4.859 2.193,-1.277 4.744,5.218 6.529,1.822 -0.525,0.538 -1.094,0.742 -1.703,0.609 0.361,-0.771 0.834,-1.073 1.418,-0.912 0.711,-2.729 -0.473,-3.878 -1.418,-5.466 1.912,-1.043 2.826,1.646 4.541,2.125 2.926,-0.552 0.504,-4.094 0.285,-5.159 3.17,-1.274 2,5.054 4.988,4.628 3.647,-0.518 1.432,-1.967 2.393,-4.628 4.832,-0.317 -1.041,7.177 -3.123,7.59 -0.315,1.391 0.969,0.912 0.851,2.125 -0.466,0.198 -2.244,-1.008 -2.554,-0.609 0.41,3.678 3.613,-0.602 3.974,-1.819 1.743,-0.502 1.151,2.877 -0.283,3.335 0.059,1.431 10.074,3.44 7.096,-2.73 4.035,0.902 0.332,5.998 -1.42,6.982 1.822,-1.453 4.252,5.682 5.963,-0.608 1.846,2.956 -5.045,4.566 -6.133,3.673 -1.764,-1.445 -3.473,1.491 -5.508,0.882 -0.752,-0.73 -1.508,-1.439 -2.271,-2.125 -0.944,0.332 -1.891,0.637 -2.838,0.912 1.717,0.175 1.799,3.809 0,3.947 1.683,1.628 5.256,2.884 6.529,-0.609 0.475,5.255 -6.654,3.007 -7.949,2.429 -0.172,3.446 1.609,1.233 2.555,1.215 -0.422,4.257 -8.024,-2.121 -10,-1.49 -0.705,0.226 -2.745,0.862 -2.84,2.65 -0.063,1.123 1,1.712 1.381,1.93 2.257,1.296 0.908,-0.451 2.091,-2.177 2.932,0.931 0.336,5.276 -1.419,5.159 -0.559,4.688 3.13,1.828 4.257,1.215 -0.158,-0.469 -0.25,-0.975 -0.283,-1.52 3.303,1.242 -1.887,4.278 -3.033,4.199 -0.686,-0.045 -6.17,-2.548 -5.484,0.66 l 2.271,0 c -0.992,2.448 -5.172,2.095 -6.244,0 -2.775,-0.49 -5.568,0.989 -7.451,4.478 -1.006,1.866 -4.198,7.088 -2.592,9.904 1.482,2.604 6.566,1.813 3.514,-2.543 2.63,-1.567 3.773,3.72 1.703,6.376 0.642,-0.356 1.115,-1.065 1.418,-2.126 0.783,1.048 1.656,1.395 2.623,1.038 3.437,-0.916 1.269,-2.55 1.351,-5.288 1.672,-1.243 2.752,1.578 1.971,3.928 -1.381,4.163 1.518,2.484 2.572,3.359 -0.586,1.644 -2.217,0.761 -2.99,0.423 -1.279,-0.56 -2.861,1.727 -4.391,2.308 1.17,0.583 7.75,-1.369 7.948,-3.643 2.781,2.635 -5.369,3.934 -5.393,3.947 0.66,0.257 1.322,0.257 1.986,0 -0.185,0.985 -0.281,1.996 -0.283,3.036 1.067,-0.275 0.199,-1.12 0.283,-2.126 1.463,0.558 8.186,-5.055 7.381,-8.805 2.922,-0.464 -1.103,6.643 -1.418,7.59 2.559,2.424 3.678,-0.796 4.826,-2.731 2.592,3.91 -6.685,5.434 -7.097,6.374 5.92,-3.1 -1.006,0.654 2.879,2.087 1.349,0.498 8.021,1.126 6.205,-4.515 3.594,-0.004 -0.131,4.761 -0.283,6.376 0.365,-1.309 2.222,-4.219 2.775,-3.576 1.727,2.004 4.074,-3.844 2.051,-6.141 1.795,-0.628 2.998,3.01 3.584,4.317 -0.41,-0.29 -0.565,-0.817 -0.461,-1.584 1.019,0.472 6.439,-1.147 4.258,-4.858 1.148,-0.805 1.593,1.178 1.703,2.734 -1.108,2.828 -3.088,3.958 -4.258,6.678 0.225,0.8 0.602,1.103 1.135,0.911 0.217,2.53 -2.869,1.112 -2.459,1.765 0.478,0.772 1.982,0.352 2.459,-0.247 0.22,2.902 -3.36,2.482 -4.258,3.036 0.894,0.185 5.91,-0.535 4.258,-3.947 2.371,-0.091 0.9,4.736 -0.569,5.161 2.239,0.801 2.051,-2.916 1.989,-4.554 0.834,-0.447 1.687,-0.752 2.554,-0.911 0.19,-1.012 0.379,-2.024 0.569,-3.035 1.781,0.776 0.81,3.36 0.283,5.161 1.746,1.878 4.883,1.179 4.543,-2.431 1.182,-0.39 0.668,1.381 1.701,1.216 -0.689,-1.379 1.375,-1.724 1.137,-3.341 -0.485,-0.132 -0.957,-0.334 -1.42,-0.606 0.674,-0.86 6.709,5.78 6.244,-0.911 -1.529,4.094 -4.66,1.068 -3.699,0.141 2.326,-2.242 -2.383,-2.528 -2.828,-2.57 -0.817,-0.765 2.843,-1.989 3.683,-1.41 1.117,0.769 2.26,0.559 3.127,-1.022 1.227,-2.234 -0.154,-1.873 -0.849,-3.335 1.73,-1.651 2.136,2.101 3.406,3.036 -0.258,-4.707 -4.647,-5.216 -6.529,-5.161 1.146,-3.811 10.533,3.642 7.38,-3.037 0.506,-1.389 1.825,0.393 2.555,-0.304 1.785,-2.942 -0.537,-2.674 -1.135,-4.251 2.141,-1.287 3.586,3.468 5.678,0 -0.793,-0.015 -1.553,0.289 -2.271,0.912 2.345,-3.944 -4.858,-4.973 -4.827,-5.464 1.411,-1.364 6.502,0.969 5.678,-3.036 -0.568,0.168 -1.137,0.168 -1.701,0 -0.477,-3.702 5.603,0.705 3.689,3.642 0.022,0.065 3.829,-1.6 4.623,-1.886 4.258,-1.534 -0.214,-3.297 -0.648,-4.489 0.965,-1.766 3.094,-0.377 3.689,1.518 -0.648,-1.51 2.903,-7.743 -1.419,-6.982 1.427,-1.692 3.154,0.128 4.544,0.91 2.651,1.488 2.6,-0.653 2.553,-3.645 4.133,0.233 -0.066,5.439 0.797,7.626 1.922,4.877 6.928,-2.239 4.598,-3.069 1.564,-2.061 2.674,4.318 2.759,4.102 0.092,-0.618 0.022,-1.177 -0.205,-1.674 1.588,-0.234 3.789,-4.168 1.135,-5.466 1.485,-1.593 2.858,2.329 4.543,1.822 -0.361,-0.428 -1.973,-0.05 -1.988,-1.216 0.894,-1.565 1.736,0.923 1.984,-2.205 0.252,-3.137 -1.328,-4.362 -2.836,-4.169 0.186,-1.208 8.694,1.206 4.826,-3.947 0.717,-0.068 4.028,2.21 2.272,3.341 0.211,-0.151 6.15,-0.804 4.258,-2.732 3.162,3.725 -7.049,7.029 -3.854,8.691 1.58,0.821 4.16,-1.838 4.414,-0.334 0.569,3.377 4.836,2.654 4.549,-0.768 2.348,3.044 -6.223,6.558 -7.664,5.768 1.549,0.451 2.473,2.11 2.311,4.948 -0.276,4.833 -1.709,1.194 -2.895,3.814 -0.322,0.712 3.367,-0.498 3.031,-1.105 -0.345,-0.201 -0.498,-0.628 -0.459,-1.281 0.543,0.066 3.524,2.836 1.702,3.946 2.035,-1.932 6.888,3.239 7.382,-3.339 2.887,5.637 -7.601,3.991 -7.097,7.589 1.068,0.256 2.109,0.054 3.121,-0.607 0.496,4.882 -8.852,1.362 -9.934,1.517 -0.232,1.24 -4.006,4.539 -0.869,4.57 1.375,0.013 2.92,-3.694 3.139,0.896 -0.369,0.324 -0.748,0.324 -1.135,0 0.852,1.389 4.918,1.441 5.043,0.722 -0.514,2.936 -4.182,3.345 -5.697,3.442 -2.459,0.156 -5.084,0.968 -7.578,2.515 -3.926,-2.761 -8.004,-0.358 -11.639,-0.305 1.865,1.732 3.767,11.79 6.527,4.858 -0.414,5.716 -8.082,4.761 -10.219,4.857 -0.539,1.697 1.198,1.22 1.104,1.119 -0.418,-0.049 -0.598,-0.423 -0.537,-1.119 0.74,-0.199 1.371,0.136 1.898,1.006 0.914,1.846 1.151,-0.032 2.645,0.209 0.295,1.089 -1.074,2.025 -0.963,3.216 0.262,2.792 3.154,0.125 3.803,-0.483 1.068,3.199 -7.151,5.549 -7.95,5.463 -2.238,2.763 -4.724,4.94 -7.33,6.348 -1.843,0.998 -3.759,1.597 -5.689,1.669 -2.75,0.102 -2.195,2.804 -4.721,2.916 -3.209,0.141 -6.316,1.38 -9.51,1.958 -4.134,0.747 -7.144,-1.507 -11.072,-2.264 C 92.91,48.627 86.229,48.873 78.834,44.406 72.209,40.407 65.471,36.689 59.027,31.823 56.129,29.634 53.498,26.846 50.74,24.189 47.631,21.198 44.053,20.124 41.16,16.388 29.49,1.311 14.738,-13.827 0,-14.877 c 0,4.645 7.178,2.638 9.652,4.556 C 7.76,-10.399 5.867,-10.552 3.975,-10.624 0.512,-10.76 0,-11.735 0,-5.466 3.674,-7.364 8.051,-6.127 11.777,-5.491 14.754,-4.983 20.35,-5.752 22.711,-1.822 19.91,-3.273 0,-6.866 0,0"
         style="fill:#102c56;fill-opacity:1;fill-rule:nonzero;stroke:none"
         id="path3422"
         inkscape:connector-curvature="0" /></g></g></svg>