G04 DipTrace 2.4.0.1*
%INtsunami.inner1.g2*%
%MOIN*%
%ADD15C,0.02*%
%ADD20C,0.025*%
%ADD27C,0.0512*%
%ADD34C,0.0236*%
%ADD45C,0.0945*%
%FSLAX44Y44*%
G04*
G70*
G90*
G75*
G01*
%LNInner1_Plane*%
%LPD*%
X20562Y14937D2*
D15*
Y14812D1*
X13062Y10812D2*
X12937D1*
X11937Y13937D2*
X11812D1*
X11187Y15437D2*
X11062D1*
X14562Y14937D2*
X14437D1*
X15352Y13687D2*
X15187D1*
X17812Y10812D2*
X17687D1*
X18772Y12687D2*
X18687D1*
X11312Y16937D2*
X11187D1*
X9937Y18312D2*
X9812D1*
X12812Y18937D2*
X12937D1*
X7687Y15687D2*
X7562D1*
X17062Y16062D2*
Y16187D1*
X8687Y18687D2*
Y18937D1*
X8562D1*
X9562Y24187D2*
X9437D1*
X16876Y22187D2*
X16687D1*
X5688Y34688D2*
X5687Y34687D1*
X10000Y34318D2*
Y34250D1*
X7062Y32812D2*
Y32375D1*
X10812Y32812D2*
Y32375D1*
X12437Y28687D2*
Y28812D1*
X15062Y27937D2*
Y28062D1*
X13312Y27562D2*
X13187D1*
X16125Y29062D2*
X16062D1*
X17584Y26937D2*
X17687D1*
X20750Y24687D2*
Y24625D1*
D34*
X14562Y10812D3*
X18062Y11937D3*
X11312Y16187D3*
X9937Y18937D3*
X14562D3*
X9011Y16789D3*
X11750Y32750D3*
X12437Y20937D3*
X20562Y14937D3*
X9562Y26562D3*
X15812Y27937D3*
X12062Y25562D3*
X16625Y27687D3*
X11081Y24062D3*
X16812Y13312D3*
X13187Y14937D3*
X9687D3*
X18437Y17562D3*
Y22125D3*
X18187Y17750D3*
Y22312D3*
X13062Y16375D3*
X12437Y22687D3*
X11937Y19562D3*
X13187Y23687D3*
X17000Y26406D3*
X13062Y10812D3*
X11937Y13937D3*
X11187Y15437D3*
X14562Y14937D3*
X15352Y13687D3*
X17812Y10812D3*
X18772Y12687D3*
X11312Y16937D3*
X9937Y18312D3*
X12812Y18937D3*
X7687Y15687D3*
X17062Y16062D3*
X8687Y18687D3*
X9562Y24187D3*
X16876Y22187D3*
X5688Y34688D3*
X10000Y34318D3*
X7062Y32812D3*
X10812D3*
X12437Y28687D3*
X15062Y27937D3*
X13312Y27562D3*
X16125Y29062D3*
X17584Y26937D3*
X20750Y24687D3*
X17437Y22125D3*
Y17500D3*
X17687Y22312D3*
Y17750D3*
X17937Y22125D3*
Y17562D3*
X10937Y22437D3*
X13562Y20187D3*
X17687Y16937D3*
X13562D3*
X10687Y23062D3*
X16437Y12687D3*
Y15312D3*
X13937Y12687D3*
X16687Y15562D3*
X14062Y29562D3*
X10562Y15437D3*
X10937Y21562D3*
X10187D3*
X17687Y16562D3*
X13312Y19937D3*
Y16562D3*
X17312Y15812D3*
X22937D3*
X13812Y26062D3*
X10187Y17687D3*
X15875Y19437D3*
X13500Y21562D3*
X14062Y21375D3*
X16562Y18750D3*
X19562Y18687D3*
X16250Y18187D3*
X19375D3*
X20062Y17937D3*
X19375Y14125D3*
X20000Y13625D3*
X15187Y20125D3*
X14750Y19687D3*
X14625Y20687D3*
X14187Y20250D3*
X13625Y20812D3*
X15437Y19000D3*
X17187Y18187D3*
Y18687D3*
X18750D3*
Y18187D3*
X19375Y16312D3*
Y17250D3*
Y15312D3*
X20000D3*
X18062Y13625D3*
X9750Y13312D3*
Y13812D3*
X9312Y13062D3*
X8812D3*
Y10312D3*
X9312D3*
X8812Y11812D3*
X9312D3*
X10125Y10375D3*
X10625D3*
X12062Y8875D3*
Y8375D3*
X11187Y9687D3*
X10812Y9312D3*
X18250Y8875D3*
Y8375D3*
X15187Y8875D3*
Y8375D3*
X16750Y8875D3*
Y8375D3*
X13562Y8875D3*
Y8375D3*
X4347Y34800D2*
D20*
X23213D1*
X4347Y34551D2*
X23213D1*
X4347Y34302D2*
X23213D1*
X4347Y34053D2*
X23213D1*
X4347Y33805D2*
X23213D1*
X4347Y33556D2*
X23213D1*
X4347Y33307D2*
X23213D1*
X4347Y33059D2*
X11553D1*
X11946D2*
X16193D1*
X17349D2*
X20209D1*
X21364D2*
X23213D1*
X4347Y32810D2*
X11377D1*
X12122D2*
X16049D1*
X17493D2*
X20064D1*
X21509D2*
X23213D1*
X4347Y32561D2*
X11428D1*
X12071D2*
X16010D1*
X17532D2*
X20025D1*
X21548D2*
X23213D1*
X4347Y32313D2*
X16057D1*
X17489D2*
X20072D1*
X21505D2*
X23213D1*
X4347Y32064D2*
X16209D1*
X17333D2*
X20225D1*
X21349D2*
X23213D1*
X4347Y31815D2*
X23213D1*
X4347Y31567D2*
X23213D1*
X4347Y31318D2*
X23213D1*
X4347Y31069D2*
X23213D1*
X4347Y30821D2*
X18385D1*
X19173D2*
X23213D1*
X4347Y30572D2*
X18303D1*
X19255D2*
X23213D1*
X4347Y30323D2*
X18373D1*
X19189D2*
X23213D1*
X4347Y30074D2*
X23213D1*
X4347Y29826D2*
X13850D1*
X14275D2*
X23213D1*
X4347Y29577D2*
X13713D1*
X14411D2*
X21002D1*
X22302D2*
X23213D1*
X4347Y29328D2*
X13814D1*
X14310D2*
X20564D1*
X22743D2*
X23213D1*
X4347Y29080D2*
X20303D1*
X23005D2*
X23213D1*
X4347Y28831D2*
X20127D1*
X4347Y28582D2*
X20006D1*
X4347Y28334D2*
X19932D1*
X4347Y28085D2*
X15467D1*
X16157D2*
X19893D1*
X4347Y27836D2*
X15447D1*
X16177D2*
X16278D1*
X16970D2*
X19893D1*
X4347Y27588D2*
X15736D1*
X15888D2*
X16260D1*
X16989D2*
X19928D1*
X4347Y27339D2*
X16541D1*
X16708D2*
X20002D1*
X4347Y27090D2*
X20115D1*
X4347Y26842D2*
X9322D1*
X9802D2*
X20291D1*
X23017D2*
X23213D1*
X4347Y26593D2*
X9186D1*
X9939D2*
X16709D1*
X17290D2*
X20541D1*
X22763D2*
X23213D1*
X4347Y26344D2*
X9260D1*
X9864D2*
X13627D1*
X13997D2*
X16658D1*
X17341D2*
X20963D1*
X22341D2*
X23213D1*
X4347Y26095D2*
X13467D1*
X14157D2*
X16881D1*
X17118D2*
X23213D1*
X4347Y25847D2*
X11830D1*
X12294D2*
X13545D1*
X14079D2*
X23213D1*
X4347Y25598D2*
X11686D1*
X12439D2*
X23213D1*
X4347Y25349D2*
X11756D1*
X12368D2*
X23213D1*
X4347Y25101D2*
X23213D1*
X4347Y24852D2*
X23213D1*
X4347Y24603D2*
X23213D1*
X4347Y24355D2*
X10857D1*
X11302D2*
X23213D1*
X4347Y24106D2*
X10705D1*
X11458D2*
X23213D1*
X4347Y23857D2*
X6498D1*
X6876D2*
X7498D1*
X7876D2*
X8498D1*
X8876D2*
X10768D1*
X11392D2*
X12885D1*
X13486D2*
X23213D1*
X4347Y23609D2*
X6244D1*
X7130D2*
X7246D1*
X8130D2*
X8246D1*
X9130D2*
X12850D1*
X13525D2*
X23213D1*
X4347Y23360D2*
X6217D1*
X9157D2*
X10533D1*
X10837D2*
X19162D1*
X19712D2*
X21162D1*
X21712D2*
X23213D1*
X4347Y23111D2*
X6350D1*
X7025D2*
X7350D1*
X8025D2*
X8350D1*
X9025D2*
X10342D1*
X11032D2*
X18955D1*
X19919D2*
X20955D1*
X21919D2*
X23213D1*
X4347Y22863D2*
X7514D1*
X7861D2*
X8416D1*
X8958D2*
X10408D1*
X10966D2*
X12139D1*
X12736D2*
X18928D1*
X19946D2*
X20928D1*
X21946D2*
X23213D1*
X4347Y22614D2*
X7248D1*
X8126D2*
X8204D1*
X9169D2*
X10643D1*
X11232D2*
X12096D1*
X12778D2*
X17545D1*
X17829D2*
X18045D1*
X18329D2*
X19041D1*
X19833D2*
X21041D1*
X21833D2*
X23213D1*
X4347Y22365D2*
X7217D1*
X9196D2*
X10596D1*
X11278D2*
X12377D1*
X12499D2*
X17197D1*
X18677D2*
X19271D1*
X19603D2*
X21271D1*
X21603D2*
X23213D1*
X4347Y22116D2*
X7346D1*
X8028D2*
X8291D1*
X9083D2*
X10865D1*
X11009D2*
X17088D1*
X18786D2*
X18998D1*
X19876D2*
X20998D1*
X21876D2*
X23213D1*
X4347Y21868D2*
X10057D1*
X10321D2*
X10807D1*
X11071D2*
X17213D1*
X18661D2*
X18967D1*
X19907D2*
X20967D1*
X21907D2*
X23213D1*
X4347Y21619D2*
X9842D1*
X11282D2*
X19092D1*
X19782D2*
X21092D1*
X21782D2*
X23213D1*
X4347Y21370D2*
X9900D1*
X10474D2*
X10652D1*
X11224D2*
X19287D1*
X19587D2*
X21287D1*
X21587D2*
X23213D1*
X4347Y21122D2*
X12111D1*
X12763D2*
X19002D1*
X19872D2*
X21002D1*
X21872D2*
X23213D1*
X4347Y20873D2*
X12064D1*
X12810D2*
X18967D1*
X19907D2*
X20967D1*
X21907D2*
X23213D1*
X4347Y20624D2*
X12248D1*
X12626D2*
X19088D1*
X19786D2*
X21088D1*
X21786D2*
X23213D1*
X4347Y20376D2*
X13275D1*
X13849D2*
X23213D1*
X4347Y20127D2*
X13025D1*
X13903D2*
X23213D1*
X4347Y19878D2*
X11842D1*
X12030D2*
X12967D1*
X13685D2*
X23213D1*
X4347Y19630D2*
X11596D1*
X12278D2*
X13186D1*
X13439D2*
X23213D1*
X4347Y19381D2*
X11643D1*
X12232D2*
X23213D1*
X4347Y19132D2*
X9619D1*
X10255D2*
X14244D1*
X14880D2*
X23213D1*
X4347Y18884D2*
X9564D1*
X10310D2*
X14189D1*
X14935D2*
X23213D1*
X4347Y18635D2*
X9728D1*
X10146D2*
X14353D1*
X14771D2*
X23213D1*
X4347Y18386D2*
X23213D1*
X4347Y18137D2*
X23213D1*
X4347Y17889D2*
X9908D1*
X10466D2*
X17369D1*
X18505D2*
X23213D1*
X4347Y17640D2*
X9842D1*
X10532D2*
X17119D1*
X18775D2*
X23213D1*
X4347Y17391D2*
X10029D1*
X10345D2*
X17107D1*
X18736D2*
X23213D1*
X4347Y17143D2*
X13287D1*
X13837D2*
X17412D1*
X17962D2*
X23213D1*
X4347Y16894D2*
X8650D1*
X9372D2*
X13217D1*
X13907D2*
X17342D1*
X18032D2*
X23213D1*
X4347Y16645D2*
X8662D1*
X9361D2*
X12861D1*
X13728D2*
X17350D1*
X18025D2*
X23213D1*
X4347Y16397D2*
X11002D1*
X11622D2*
X12713D1*
X13614D2*
X17385D1*
X17989D2*
X23213D1*
X4347Y16148D2*
X10936D1*
X11689D2*
X12807D1*
X13318D2*
X23213D1*
X4347Y15899D2*
X11084D1*
X11540D2*
X16975D1*
X17650D2*
X22600D1*
X4347Y15651D2*
X10295D1*
X10829D2*
X16350D1*
X17618D2*
X22631D1*
X4347Y15402D2*
X10217D1*
X10907D2*
X16100D1*
X16993D2*
X23213D1*
X4347Y15153D2*
X9385D1*
X9989D2*
X10381D1*
X10743D2*
X12885D1*
X13489D2*
X16131D1*
X16743D2*
X20260D1*
X20864D2*
X23213D1*
X4347Y14905D2*
X9311D1*
X10064D2*
X12811D1*
X13564D2*
X20186D1*
X20939D2*
X23213D1*
X4347Y14656D2*
X9447D1*
X9927D2*
X12947D1*
X13427D2*
X20240D1*
X20884D2*
X23213D1*
X4347Y14407D2*
X23213D1*
X4347Y14158D2*
X23213D1*
X4347Y13910D2*
X23213D1*
X4347Y13661D2*
X16736D1*
X16888D2*
X23213D1*
X4347Y13412D2*
X16447D1*
X17177D2*
X23213D1*
X4347Y13164D2*
X16467D1*
X17157D2*
X23213D1*
X4347Y12915D2*
X4994D1*
X6818D2*
X13682D1*
X14193D2*
X16182D1*
X16693D2*
X23213D1*
X4347Y12666D2*
X4670D1*
X7142D2*
X13588D1*
X14286D2*
X16088D1*
X16786D2*
X23213D1*
X4347Y12418D2*
X4455D1*
X7353D2*
X13732D1*
X14142D2*
X16232D1*
X16642D2*
X23213D1*
X7501Y12169D2*
X17771D1*
X18353D2*
X23213D1*
X7595Y11920D2*
X17686D1*
X18439D2*
X23213D1*
X7653Y11672D2*
X17803D1*
X18321D2*
X23213D1*
X7669Y11423D2*
X23213D1*
X7653Y11174D2*
X23213D1*
X7599Y10926D2*
X14201D1*
X14923D2*
X23213D1*
X7505Y10677D2*
X14213D1*
X14911D2*
X23213D1*
X4347Y10428D2*
X4447D1*
X7361D2*
X23213D1*
X4347Y10179D2*
X4658D1*
X7153D2*
X23213D1*
X4347Y9931D2*
X4975D1*
X6837D2*
X23213D1*
X4347Y9682D2*
X5748D1*
X6064D2*
X23213D1*
X4347Y9433D2*
X23213D1*
X4347Y9185D2*
X8502D1*
X9060D2*
X18502D1*
X19060D2*
X23213D1*
X4347Y8936D2*
X8322D1*
X9239D2*
X18322D1*
X19239D2*
X23213D1*
X4347Y8687D2*
X8322D1*
X9239D2*
X18322D1*
X19239D2*
X23213D1*
X4347Y8439D2*
X8502D1*
X9056D2*
X18502D1*
X19056D2*
X23213D1*
X4347Y8190D2*
X23213D1*
X4347Y7941D2*
X23213D1*
X4347Y7693D2*
X23213D1*
X4347Y7444D2*
X6381D1*
X7161D2*
X10396D1*
X11177D2*
X16381D1*
X17161D2*
X20396D1*
X21177D2*
X23213D1*
X4347Y7195D2*
X6123D1*
X7423D2*
X10139D1*
X11439D2*
X16123D1*
X17423D2*
X20139D1*
X21439D2*
X23213D1*
X4347Y6947D2*
X6021D1*
X7521D2*
X10041D1*
X11536D2*
X16021D1*
X17521D2*
X20041D1*
X21536D2*
X23213D1*
X4347Y6698D2*
X6018D1*
X7525D2*
X10033D1*
X11540D2*
X16018D1*
X17525D2*
X20033D1*
X21540D2*
X23213D1*
X4347Y6449D2*
X6100D1*
X7443D2*
X10115D1*
X11458D2*
X16100D1*
X17443D2*
X20115D1*
X21458D2*
X23213D1*
X4347Y6200D2*
X6322D1*
X7220D2*
X10338D1*
X11236D2*
X16322D1*
X17220D2*
X20338D1*
X21236D2*
X23213D1*
X4347Y5952D2*
X23213D1*
X4347Y5703D2*
X23213D1*
X4347Y5454D2*
X23213D1*
X4347Y5206D2*
X23213D1*
X4347Y4957D2*
X23213D1*
X4347Y4708D2*
X23213D1*
X4347Y4460D2*
X23213D1*
X9121Y23314D2*
X9070Y23200D1*
X8991Y23104D1*
X8888Y23033D1*
X8770Y22994D1*
X8645Y22988D1*
X8524Y23017D1*
X8415Y23077D1*
X8327Y23165D1*
X8267Y23274D1*
X8238Y23396D1*
X8244Y23520D1*
X8283Y23638D1*
X8354Y23741D1*
X8450Y23820D1*
X8564Y23871D1*
X8687Y23888D1*
X8811Y23871D1*
X8925Y23820D1*
X9020Y23741D1*
X9091Y23638D1*
X9130Y23520D1*
X9138Y23437D1*
X9121Y23314D1*
X9162Y22313D2*
X9116Y22198D1*
X9042Y22097D1*
X8945Y22019D1*
X8831Y21968D1*
X8708Y21947D1*
X8584Y21957D1*
X8466Y21999D1*
X8363Y22068D1*
X8281Y22162D1*
X8224Y22273D1*
X8198Y22395D1*
X8203Y22519D1*
X8239Y22639D1*
X8305Y22745D1*
X8395Y22831D1*
X8503Y22892D1*
X8624Y22924D1*
X8749D1*
X8869Y22893D1*
X8978Y22832D1*
X9068Y22746D1*
X9134Y22640D1*
X9171Y22521D1*
X9178Y22437D1*
X9162Y22313D1*
X8121Y23314D2*
X8070Y23200D1*
X7991Y23104D1*
X7888Y23033D1*
X7770Y22994D1*
X7645Y22988D1*
X7524Y23017D1*
X7415Y23077D1*
X7327Y23165D1*
X7267Y23274D1*
X7238Y23396D1*
X7244Y23520D1*
X7283Y23638D1*
X7354Y23741D1*
X7450Y23820D1*
X7564Y23871D1*
X7687Y23888D1*
X7811Y23871D1*
X7925Y23820D1*
X8020Y23741D1*
X8091Y23638D1*
X8130Y23520D1*
X8138Y23437D1*
X8121Y23314D1*
Y22314D2*
X8070Y22200D1*
X7991Y22104D1*
X7888Y22033D1*
X7770Y21994D1*
X7645Y21988D1*
X7524Y22017D1*
X7415Y22077D1*
X7327Y22165D1*
X7267Y22274D1*
X7238Y22396D1*
X7244Y22520D1*
X7283Y22638D1*
X7354Y22741D1*
X7450Y22820D1*
X7564Y22871D1*
X7687Y22888D1*
X7811Y22871D1*
X7925Y22820D1*
X8020Y22741D1*
X8091Y22638D1*
X8130Y22520D1*
X8138Y22437D1*
X8121Y22314D1*
X7121Y23314D2*
X7070Y23200D1*
X6991Y23104D1*
X6888Y23033D1*
X6770Y22994D1*
X6645Y22988D1*
X6524Y23017D1*
X6415Y23077D1*
X6327Y23165D1*
X6267Y23274D1*
X6238Y23396D1*
X6244Y23520D1*
X6283Y23638D1*
X6354Y23741D1*
X6450Y23820D1*
X6564Y23871D1*
X6687Y23888D1*
X6811Y23871D1*
X6925Y23820D1*
X7020Y23741D1*
X7091Y23638D1*
X7130Y23520D1*
X7138Y23437D1*
X7121Y23314D1*
X19213Y30439D2*
X19163Y30325D1*
X19083Y30229D1*
X18980Y30158D1*
X18862Y30119D1*
X18738Y30113D1*
X18617Y30142D1*
X18508Y30202D1*
X18420Y30290D1*
X18359Y30399D1*
X18331Y30521D1*
X18336Y30645D1*
X18376Y30763D1*
X18446Y30866D1*
X18542Y30945D1*
X18656Y30996D1*
X18780Y31013D1*
X18903Y30996D1*
X19017Y30945D1*
X19113Y30866D1*
X19183Y30763D1*
X19223Y30645D1*
X19230Y30562D1*
X19213Y30439D1*
X21514Y32445D2*
X21483Y32325D1*
X21431Y32211D1*
X21362Y32107D1*
X21275Y32017D1*
X21175Y31943D1*
X21064Y31886D1*
X20944Y31849D1*
X20821Y31833D1*
X20696Y31838D1*
X20574Y31864D1*
X20458Y31910D1*
X20351Y31975D1*
X20257Y32057D1*
X20178Y32154D1*
X20117Y32263D1*
X20075Y32381D1*
X20053Y32503D1*
X20052Y32628D1*
X20073Y32752D1*
X20114Y32869D1*
X20174Y32979D1*
X20252Y33076D1*
X20345Y33160D1*
X20451Y33226D1*
X20566Y33273D1*
X20688Y33301D1*
X20813Y33307D1*
X20937Y33292D1*
X21056Y33256D1*
X21168Y33201D1*
X21269Y33128D1*
X21357Y33039D1*
X21428Y32936D1*
X21480Y32823D1*
X21513Y32702D1*
X21525Y32570D1*
X21514Y32445D1*
X17498D2*
X17467Y32325D1*
X17416Y32211D1*
X17346Y32107D1*
X17260Y32017D1*
X17159Y31943D1*
X17048Y31886D1*
X16929Y31849D1*
X16805Y31833D1*
X16680Y31838D1*
X16558Y31864D1*
X16442Y31910D1*
X16335Y31975D1*
X16241Y32057D1*
X16163Y32154D1*
X16101Y32263D1*
X16059Y32381D1*
X16037Y32503D1*
Y32628D1*
X16057Y32752D1*
X16098Y32869D1*
X16158Y32979D1*
X16236Y33076D1*
X16329Y33160D1*
X16435Y33226D1*
X16550Y33273D1*
X16672Y33301D1*
X16797Y33307D1*
X16921Y33292D1*
X17041Y33256D1*
X17153Y33201D1*
X17254Y33128D1*
X17341Y33039D1*
X17412Y32936D1*
X17464Y32823D1*
X17497Y32702D1*
X17509Y32570D1*
X17498Y32445D1*
X19912Y22813D2*
X19866Y22698D1*
X19792Y22597D1*
X19695Y22519D1*
X19581Y22468D1*
X19458Y22447D1*
X19334Y22457D1*
X19216Y22499D1*
X19113Y22568D1*
X19031Y22662D1*
X18974Y22773D1*
X18948Y22895D1*
X18953Y23019D1*
X18989Y23139D1*
X19055Y23245D1*
X19145Y23331D1*
X19253Y23392D1*
X19374Y23424D1*
X19499D1*
X19619Y23393D1*
X19728Y23332D1*
X19818Y23246D1*
X19884Y23140D1*
X19921Y23021D1*
X19928Y22937D1*
X19912Y22813D1*
X19871Y21814D2*
X19820Y21700D1*
X19741Y21604D1*
X19638Y21533D1*
X19520Y21494D1*
X19395Y21488D1*
X19274Y21517D1*
X19165Y21577D1*
X19077Y21665D1*
X19017Y21774D1*
X18988Y21896D1*
X18994Y22020D1*
X19033Y22138D1*
X19104Y22241D1*
X19200Y22320D1*
X19314Y22371D1*
X19437Y22388D1*
X19561Y22371D1*
X19675Y22320D1*
X19770Y22241D1*
X19841Y22138D1*
X19880Y22020D1*
X19888Y21937D1*
X19871Y21814D1*
Y20814D2*
X19820Y20700D1*
X19741Y20604D1*
X19638Y20533D1*
X19520Y20494D1*
X19395Y20488D1*
X19274Y20517D1*
X19165Y20577D1*
X19077Y20665D1*
X19017Y20774D1*
X18988Y20896D1*
X18994Y21020D1*
X19033Y21138D1*
X19104Y21241D1*
X19200Y21320D1*
X19314Y21371D1*
X19437Y21388D1*
X19561Y21371D1*
X19675Y21320D1*
X19770Y21241D1*
X19841Y21138D1*
X19880Y21020D1*
X19888Y20937D1*
X19871Y20814D1*
X21912Y22813D2*
X21866Y22698D1*
X21792Y22597D1*
X21695Y22519D1*
X21581Y22468D1*
X21458Y22447D1*
X21334Y22457D1*
X21216Y22499D1*
X21113Y22568D1*
X21031Y22662D1*
X20974Y22773D1*
X20948Y22895D1*
X20953Y23019D1*
X20989Y23139D1*
X21055Y23245D1*
X21145Y23331D1*
X21253Y23392D1*
X21374Y23424D1*
X21499D1*
X21619Y23393D1*
X21728Y23332D1*
X21818Y23246D1*
X21884Y23140D1*
X21921Y23021D1*
X21928Y22937D1*
X21912Y22813D1*
X21871Y21814D2*
X21820Y21700D1*
X21741Y21604D1*
X21638Y21533D1*
X21520Y21494D1*
X21395Y21488D1*
X21274Y21517D1*
X21165Y21577D1*
X21077Y21665D1*
X21017Y21774D1*
X20988Y21896D1*
X20994Y22020D1*
X21033Y22138D1*
X21104Y22241D1*
X21200Y22320D1*
X21314Y22371D1*
X21437Y22388D1*
X21561Y22371D1*
X21675Y22320D1*
X21770Y22241D1*
X21841Y22138D1*
X21880Y22020D1*
X21888Y21937D1*
X21871Y21814D1*
Y20814D2*
X21820Y20700D1*
X21741Y20604D1*
X21638Y20533D1*
X21520Y20494D1*
X21395Y20488D1*
X21274Y20517D1*
X21165Y20577D1*
X21077Y20665D1*
X21017Y20774D1*
X20988Y20896D1*
X20994Y21020D1*
X21033Y21138D1*
X21104Y21241D1*
X21200Y21320D1*
X21314Y21371D1*
X21437Y21388D1*
X21561Y21371D1*
X21675Y21320D1*
X21770Y21241D1*
X21841Y21138D1*
X21880Y21020D1*
X21888Y20937D1*
X21871Y20814D1*
X9213Y8689D2*
X9163Y8575D1*
X9083Y8479D1*
X8980Y8408D1*
X8862Y8369D1*
X8738Y8363D1*
X8617Y8392D1*
X8508Y8452D1*
X8420Y8540D1*
X8359Y8649D1*
X8331Y8771D1*
X8336Y8895D1*
X8376Y9013D1*
X8446Y9116D1*
X8542Y9195D1*
X8656Y9246D1*
X8780Y9263D1*
X8903Y9246D1*
X9017Y9195D1*
X9113Y9116D1*
X9183Y9013D1*
X9223Y8895D1*
X9230Y8812D1*
X9213Y8689D1*
X7498Y6680D2*
X7467Y6559D1*
X7416Y6445D1*
X7346Y6342D1*
X7260Y6251D1*
X7159Y6177D1*
X7048Y6121D1*
X6929Y6084D1*
X6805Y6068D1*
X6680Y6072D1*
X6558Y6098D1*
X6442Y6145D1*
X6335Y6210D1*
X6241Y6292D1*
X6163Y6389D1*
X6101Y6497D1*
X6059Y6615D1*
X6037Y6738D1*
Y6863D1*
X6057Y6986D1*
X6098Y7104D1*
X6158Y7213D1*
X6236Y7311D1*
X6329Y7394D1*
X6435Y7460D1*
X6550Y7508D1*
X6672Y7535D1*
X6797Y7541D1*
X6921Y7526D1*
X7041Y7491D1*
X7153Y7436D1*
X7254Y7362D1*
X7341Y7273D1*
X7412Y7170D1*
X7464Y7057D1*
X7497Y6936D1*
X7509Y6804D1*
X7498Y6680D1*
X11514D2*
X11483Y6559D1*
X11431Y6445D1*
X11362Y6342D1*
X11275Y6251D1*
X11175Y6177D1*
X11064Y6121D1*
X10944Y6084D1*
X10821Y6068D1*
X10696Y6072D1*
X10574Y6098D1*
X10458Y6145D1*
X10351Y6210D1*
X10257Y6292D1*
X10178Y6389D1*
X10117Y6497D1*
X10075Y6615D1*
X10053Y6738D1*
X10052Y6863D1*
X10073Y6986D1*
X10114Y7104D1*
X10174Y7213D1*
X10252Y7311D1*
X10345Y7394D1*
X10451Y7460D1*
X10566Y7508D1*
X10688Y7535D1*
X10813Y7541D1*
X10937Y7526D1*
X11056Y7491D1*
X11168Y7436D1*
X11269Y7362D1*
X11357Y7273D1*
X11428Y7170D1*
X11480Y7057D1*
X11513Y6936D1*
X11525Y6804D1*
X11514Y6680D1*
X19213Y8689D2*
X19163Y8575D1*
X19083Y8479D1*
X18980Y8408D1*
X18862Y8369D1*
X18738Y8363D1*
X18617Y8392D1*
X18508Y8452D1*
X18420Y8540D1*
X18359Y8649D1*
X18331Y8771D1*
X18336Y8895D1*
X18376Y9013D1*
X18446Y9116D1*
X18542Y9195D1*
X18656Y9246D1*
X18780Y9263D1*
X18903Y9246D1*
X19017Y9195D1*
X19113Y9116D1*
X19183Y9013D1*
X19223Y8895D1*
X19230Y8812D1*
X19213Y8689D1*
X17498Y6680D2*
X17467Y6559D1*
X17416Y6445D1*
X17346Y6342D1*
X17260Y6251D1*
X17159Y6177D1*
X17048Y6121D1*
X16929Y6084D1*
X16805Y6068D1*
X16680Y6072D1*
X16558Y6098D1*
X16442Y6145D1*
X16335Y6210D1*
X16241Y6292D1*
X16163Y6389D1*
X16101Y6497D1*
X16059Y6615D1*
X16037Y6738D1*
Y6863D1*
X16057Y6986D1*
X16098Y7104D1*
X16158Y7213D1*
X16236Y7311D1*
X16329Y7394D1*
X16435Y7460D1*
X16550Y7508D1*
X16672Y7535D1*
X16797Y7541D1*
X16921Y7526D1*
X17041Y7491D1*
X17153Y7436D1*
X17254Y7362D1*
X17341Y7273D1*
X17412Y7170D1*
X17464Y7057D1*
X17497Y6936D1*
X17509Y6804D1*
X17498Y6680D1*
X21514D2*
X21483Y6559D1*
X21431Y6445D1*
X21362Y6342D1*
X21275Y6251D1*
X21175Y6177D1*
X21064Y6121D1*
X20944Y6084D1*
X20821Y6068D1*
X20696Y6072D1*
X20574Y6098D1*
X20458Y6145D1*
X20351Y6210D1*
X20257Y6292D1*
X20178Y6389D1*
X20117Y6497D1*
X20075Y6615D1*
X20053Y6738D1*
X20052Y6863D1*
X20073Y6986D1*
X20114Y7104D1*
X20174Y7213D1*
X20252Y7311D1*
X20345Y7394D1*
X20451Y7460D1*
X20566Y7508D1*
X20688Y7535D1*
X20813Y7541D1*
X20937Y7526D1*
X21056Y7491D1*
X21168Y7436D1*
X21269Y7362D1*
X21357Y7273D1*
X21428Y7170D1*
X21480Y7057D1*
X21513Y6936D1*
X21525Y6804D1*
X21514Y6680D1*
X23236Y27229D2*
X23115Y27007D1*
X22964Y26807D1*
X22787Y26632D1*
X22586Y26483D1*
X22366Y26365D1*
X22131Y26279D1*
X21887Y26228D1*
X21637Y26212D1*
X21389Y26233D1*
X21145Y26288D1*
X20912Y26378D1*
X20694Y26501D1*
X20496Y26653D1*
X20322Y26832D1*
X20175Y27034D1*
X20059Y27255D1*
X19976Y27490D1*
X19927Y27735D1*
X19913Y27985D1*
X19936Y28234D1*
X19994Y28477D1*
X20086Y28709D1*
X20210Y28925D1*
X20364Y29122D1*
X20545Y29295D1*
X20748Y29439D1*
X20971Y29554D1*
X21207Y29635D1*
X21452Y29682D1*
X21702Y29693D1*
X21950Y29668D1*
X22193Y29608D1*
X22424Y29513D1*
X22639Y29387D1*
X22835Y29231D1*
X23005Y29049D1*
X23148Y28844D1*
X23236Y28674D1*
X23237Y35048D1*
X4322D1*
Y12138D1*
X4396Y12284D1*
X4536Y12491D1*
X4704Y12676D1*
X4896Y12835D1*
X5109Y12965D1*
X5339Y13063D1*
X5581Y13127D1*
X5829Y13156D1*
X6078Y13149D1*
X6325Y13107D1*
X6562Y13029D1*
X6786Y12919D1*
X6992Y12777D1*
X7175Y12608D1*
X7333Y12414D1*
X7461Y12199D1*
X7556Y11968D1*
X7618Y11726D1*
X7645Y11478D1*
X7642Y11292D1*
X7606Y11045D1*
X7535Y10806D1*
X7431Y10579D1*
X7295Y10369D1*
X7131Y10181D1*
X6941Y10018D1*
X6730Y9885D1*
X6502Y9782D1*
X6262Y9714D1*
X6014Y9680D1*
X5765Y9683D1*
X5518Y9721D1*
X5279Y9794D1*
X5053Y9900D1*
X4844Y10038D1*
X4658Y10204D1*
X4497Y10395D1*
X4365Y10607D1*
X4323Y10695D1*
X4322Y4322D1*
X23237D1*
Y15690D1*
X23169Y15586D1*
X23067Y15515D1*
X22946Y15488D1*
X22823Y15509D1*
X22718Y15574D1*
X22644Y15674D1*
X22614Y15794D1*
X22631Y15917D1*
X22693Y16025D1*
X22791Y16101D1*
X22910Y16135D1*
X23034Y16121D1*
X23143Y16062D1*
X23222Y15966D1*
X23237Y15918D1*
Y27232D1*
X14893Y10690D2*
X14830Y10582D1*
X14734Y10504D1*
X14616Y10463D1*
X14492Y10466D1*
X14376Y10512D1*
X14284Y10595D1*
X14226Y10704D1*
X14209Y10828D1*
X14237Y10949D1*
X14304Y11053D1*
X14404Y11128D1*
X14523Y11163D1*
X14647Y11155D1*
X14761Y11104D1*
X14850Y11017D1*
X14903Y10905D1*
X14915Y10812D1*
X14893Y10690D1*
X18393Y11815D2*
X18330Y11707D1*
X18234Y11629D1*
X18116Y11588D1*
X17992Y11591D1*
X17876Y11637D1*
X17784Y11720D1*
X17726Y11829D1*
X17709Y11953D1*
X17737Y12074D1*
X17804Y12178D1*
X17904Y12253D1*
X18023Y12288D1*
X18147Y12280D1*
X18261Y12229D1*
X18350Y12142D1*
X18403Y12030D1*
X18415Y11937D1*
X18393Y11815D1*
X11643Y16065D2*
X11580Y15957D1*
X11484Y15879D1*
X11366Y15838D1*
X11242Y15841D1*
X11126Y15887D1*
X11034Y15970D1*
X10976Y16079D1*
X10959Y16203D1*
X10987Y16324D1*
X11054Y16428D1*
X11154Y16503D1*
X11273Y16538D1*
X11397Y16530D1*
X11511Y16479D1*
X11600Y16392D1*
X11653Y16280D1*
X11665Y16187D1*
X11643Y16065D1*
X10268Y18815D2*
X10205Y18707D1*
X10109Y18629D1*
X9991Y18588D1*
X9867Y18591D1*
X9751Y18637D1*
X9659Y18720D1*
X9601Y18829D1*
X9584Y18953D1*
X9612Y19074D1*
X9679Y19178D1*
X9779Y19253D1*
X9898Y19288D1*
X10022Y19280D1*
X10136Y19229D1*
X10225Y19142D1*
X10278Y19030D1*
X10290Y18937D1*
X10268Y18815D1*
X14893D2*
X14830Y18707D1*
X14734Y18629D1*
X14616Y18588D1*
X14492Y18591D1*
X14376Y18637D1*
X14284Y18720D1*
X14226Y18829D1*
X14209Y18953D1*
X14237Y19074D1*
X14304Y19178D1*
X14404Y19253D1*
X14523Y19288D1*
X14647Y19280D1*
X14761Y19229D1*
X14850Y19142D1*
X14903Y19030D1*
X14915Y18937D1*
X14893Y18815D1*
X9343Y16666D2*
X9280Y16559D1*
X9183Y16480D1*
X9066Y16440D1*
X8941Y16443D1*
X8826Y16488D1*
X8733Y16571D1*
X8675Y16681D1*
X8659Y16805D1*
X8686Y16926D1*
X8754Y17030D1*
X8853Y17105D1*
X8972Y17140D1*
X9096Y17132D1*
X9210Y17081D1*
X9299Y16994D1*
X9352Y16881D1*
X9364Y16789D1*
X9343Y16666D1*
X12081Y32627D2*
X12018Y32520D1*
X11922Y32441D1*
X11804Y32401D1*
X11680Y32403D1*
X11564Y32449D1*
X11471Y32532D1*
X11413Y32642D1*
X11397Y32765D1*
X11424Y32886D1*
X11492Y32991D1*
X11591Y33065D1*
X11711Y33100D1*
X11835Y33092D1*
X11948Y33041D1*
X12037Y32954D1*
X12090Y32842D1*
X12103Y32750D1*
X12081Y32627D1*
X12768Y20815D2*
X12705Y20707D1*
X12609Y20629D1*
X12491Y20588D1*
X12367Y20591D1*
X12251Y20637D1*
X12159Y20720D1*
X12101Y20829D1*
X12084Y20953D1*
X12112Y21074D1*
X12179Y21178D1*
X12279Y21253D1*
X12398Y21288D1*
X12522Y21280D1*
X12636Y21229D1*
X12725Y21142D1*
X12778Y21030D1*
X12790Y20937D1*
X12768Y20815D1*
X20897Y14826D2*
X20887Y14730D1*
X20856Y14652D1*
X20808Y14585D1*
X20744Y14531D1*
X20670Y14495D1*
X20588Y14478D1*
X20505Y14482D1*
X20426Y14506D1*
X20355Y14549D1*
X20296Y14608D1*
X20254Y14680D1*
X20231Y14760D1*
X20209Y14953D1*
X20237Y15074D1*
X20304Y15178D1*
X20404Y15253D1*
X20523Y15288D1*
X20647Y15280D1*
X20761Y15229D1*
X20850Y15142D1*
X20903Y15030D1*
X20915Y14937D1*
X20897Y14834D1*
X9893Y26440D2*
X9830Y26332D1*
X9734Y26254D1*
X9616Y26213D1*
X9492Y26216D1*
X9376Y26262D1*
X9284Y26345D1*
X9226Y26454D1*
X9209Y26578D1*
X9237Y26699D1*
X9304Y26803D1*
X9404Y26878D1*
X9523Y26913D1*
X9647Y26905D1*
X9761Y26854D1*
X9850Y26767D1*
X9903Y26655D1*
X9915Y26562D1*
X9893Y26440D1*
X16143Y27815D2*
X16080Y27707D1*
X15984Y27629D1*
X15866Y27588D1*
X15742Y27591D1*
X15626Y27637D1*
X15534Y27720D1*
X15476Y27829D1*
X15459Y27953D1*
X15487Y28074D1*
X15554Y28178D1*
X15654Y28253D1*
X15773Y28288D1*
X15897Y28280D1*
X16011Y28229D1*
X16100Y28142D1*
X16153Y28030D1*
X16165Y27937D1*
X16143Y27815D1*
X12393Y25440D2*
X12330Y25332D1*
X12234Y25254D1*
X12116Y25213D1*
X11992Y25216D1*
X11876Y25262D1*
X11784Y25345D1*
X11726Y25454D1*
X11709Y25578D1*
X11737Y25699D1*
X11804Y25803D1*
X11904Y25878D1*
X12023Y25913D1*
X12147Y25905D1*
X12261Y25854D1*
X12350Y25767D1*
X12403Y25655D1*
X12415Y25562D1*
X12393Y25440D1*
X16956Y27565D2*
X16893Y27457D1*
X16797Y27379D1*
X16679Y27338D1*
X16555Y27341D1*
X16439Y27387D1*
X16346Y27470D1*
X16288Y27579D1*
X16272Y27703D1*
X16299Y27824D1*
X16367Y27928D1*
X16466Y28003D1*
X16586Y28038D1*
X16710Y28030D1*
X16823Y27979D1*
X16912Y27892D1*
X16965Y27780D1*
X16978Y27687D1*
X16956Y27565D1*
X11412Y23940D2*
X11349Y23832D1*
X11253Y23754D1*
X11136Y23713D1*
X11011Y23716D1*
X10896Y23762D1*
X10803Y23845D1*
X10745Y23954D1*
X10728Y24078D1*
X10756Y24199D1*
X10823Y24303D1*
X10923Y24378D1*
X11042Y24413D1*
X11166Y24405D1*
X11280Y24354D1*
X11369Y24267D1*
X11422Y24155D1*
X11434Y24062D1*
X11412Y23940D1*
X17143Y13190D2*
X17080Y13082D1*
X16984Y13004D1*
X16866Y12963D1*
X16742Y12966D1*
X16626Y13012D1*
X16534Y13095D1*
X16476Y13204D1*
X16459Y13328D1*
X16487Y13449D1*
X16554Y13553D1*
X16654Y13628D1*
X16773Y13663D1*
X16897Y13655D1*
X17011Y13604D1*
X17100Y13517D1*
X17153Y13405D1*
X17165Y13312D1*
X17143Y13190D1*
X13518Y14815D2*
X13455Y14707D1*
X13359Y14629D1*
X13241Y14588D1*
X13117Y14591D1*
X13001Y14637D1*
X12909Y14720D1*
X12851Y14829D1*
X12834Y14953D1*
X12862Y15074D1*
X12929Y15178D1*
X13029Y15253D1*
X13148Y15288D1*
X13272Y15280D1*
X13386Y15229D1*
X13475Y15142D1*
X13528Y15030D1*
X13540Y14937D1*
X13518Y14815D1*
X10018D2*
X9955Y14707D1*
X9859Y14629D1*
X9741Y14588D1*
X9617Y14591D1*
X9501Y14637D1*
X9409Y14720D1*
X9351Y14829D1*
X9334Y14953D1*
X9362Y15074D1*
X9429Y15178D1*
X9529Y15253D1*
X9648Y15288D1*
X9772Y15280D1*
X9886Y15229D1*
X9975Y15142D1*
X10028Y15030D1*
X10040Y14937D1*
X10018Y14815D1*
X18737Y17440D2*
X18669Y17336D1*
X18567Y17265D1*
X18446Y17238D1*
X18323Y17259D1*
X18218Y17324D1*
X18192Y17358D1*
X18067Y17265D1*
X17946Y17238D1*
X17823Y17259D1*
X17711Y17333D1*
X17669Y17274D1*
X17647Y17258D1*
X17784Y17246D1*
X17893Y17187D1*
X17972Y17091D1*
X18009Y16973D1*
X18011Y16937D1*
X17987Y16815D1*
X17947Y16753D1*
X17972Y16716D1*
X18009Y16598D1*
X18011Y16562D1*
X17987Y16440D1*
X17919Y16336D1*
X17817Y16265D1*
X17696Y16238D1*
X17573Y16259D1*
X17468Y16324D1*
X17394Y16424D1*
X17364Y16544D1*
X17381Y16667D1*
X17425Y16745D1*
X17394Y16799D1*
X17364Y16919D1*
X17381Y17042D1*
X17443Y17150D1*
X17483Y17181D1*
X17446Y17176D1*
X17323Y17196D1*
X17218Y17261D1*
X17144Y17361D1*
X17114Y17482D1*
X17131Y17605D1*
X17193Y17712D1*
X17291Y17789D1*
X17369Y17811D1*
X17381Y17855D1*
X17443Y17962D1*
X17541Y18039D1*
X17660Y18072D1*
X17784Y18059D1*
X17893Y18000D1*
X17935Y17949D1*
X18041Y18039D1*
X18160Y18072D1*
X18284Y18059D1*
X18393Y18000D1*
X18472Y17904D1*
X18478Y17885D1*
X18534Y17871D1*
X18643Y17812D1*
X18722Y17716D1*
X18759Y17598D1*
X18761Y17562D1*
X18737Y17440D1*
Y22003D2*
X18669Y21899D1*
X18567Y21828D1*
X18446Y21801D1*
X18323Y21821D1*
X18218Y21886D1*
X18192Y21921D1*
X18067Y21828D1*
X17946Y21801D1*
X17823Y21821D1*
X17718Y21886D1*
X17692Y21921D1*
X17567Y21828D1*
X17446Y21801D1*
X17323Y21821D1*
X17218Y21886D1*
X17144Y21986D1*
X17114Y22107D1*
X17131Y22230D1*
X17193Y22337D1*
X17291Y22414D1*
X17392Y22442D1*
X17443Y22525D1*
X17541Y22601D1*
X17660Y22635D1*
X17784Y22621D1*
X17893Y22562D1*
X17935Y22511D1*
X18041Y22601D1*
X18160Y22635D1*
X18284Y22621D1*
X18393Y22562D1*
X18472Y22466D1*
X18478Y22448D1*
X18534Y22434D1*
X18643Y22375D1*
X18722Y22279D1*
X18759Y22160D1*
X18761Y22125D1*
X18737Y22003D1*
X13356Y16243D2*
X13294Y16149D1*
X13192Y16078D1*
X13071Y16051D1*
X12948Y16071D1*
X12843Y16136D1*
X12769Y16236D1*
X12739Y16357D1*
X12756Y16480D1*
X12818Y16587D1*
X12916Y16664D1*
X13017Y16692D1*
X13068Y16775D1*
X13166Y16851D1*
X13244Y16873D1*
X13239Y16919D1*
X13256Y17042D1*
X13318Y17150D1*
X13416Y17226D1*
X13535Y17260D1*
X13659Y17246D1*
X13768Y17187D1*
X13847Y17091D1*
X13884Y16973D1*
X13886Y16937D1*
X13862Y16815D1*
X13794Y16711D1*
X13692Y16640D1*
X13628Y16626D1*
X13636Y16562D1*
X13612Y16440D1*
X13544Y16336D1*
X13442Y16265D1*
X13363Y16247D1*
X12737Y22565D2*
X12669Y22461D1*
X12567Y22390D1*
X12446Y22363D1*
X12323Y22384D1*
X12218Y22449D1*
X12144Y22549D1*
X12114Y22669D1*
X12131Y22792D1*
X12193Y22900D1*
X12291Y22976D1*
X12410Y23010D1*
X12534Y22996D1*
X12643Y22937D1*
X12722Y22841D1*
X12759Y22723D1*
X12761Y22687D1*
X12737Y22565D1*
X12237Y19440D2*
X12169Y19336D1*
X12067Y19265D1*
X11946Y19238D1*
X11823Y19259D1*
X11718Y19324D1*
X11644Y19424D1*
X11614Y19544D1*
X11631Y19667D1*
X11693Y19775D1*
X11791Y19851D1*
X11910Y19885D1*
X12034Y19871D1*
X12143Y19812D1*
X12222Y19716D1*
X12259Y19598D1*
X12261Y19562D1*
X12237Y19440D1*
X13487Y23565D2*
X13419Y23461D1*
X13317Y23390D1*
X13196Y23363D1*
X13073Y23384D1*
X12968Y23449D1*
X12894Y23549D1*
X12864Y23669D1*
X12881Y23792D1*
X12943Y23900D1*
X13041Y23976D1*
X13160Y24010D1*
X13284Y23996D1*
X13393Y23937D1*
X13472Y23841D1*
X13509Y23723D1*
X13511Y23687D1*
X13487Y23565D1*
X17300Y26284D2*
X17232Y26180D1*
X17130Y26109D1*
X17008Y26082D1*
X16886Y26102D1*
X16780Y26167D1*
X16706Y26267D1*
X16676Y26388D1*
X16693Y26511D1*
X16755Y26618D1*
X16853Y26695D1*
X16973Y26728D1*
X17096Y26715D1*
X17206Y26656D1*
X17284Y26560D1*
X17322Y26441D1*
X17323Y26406D1*
X17300Y26284D1*
X11237Y22315D2*
X11169Y22211D1*
X11067Y22140D1*
X10946Y22113D1*
X10823Y22134D1*
X10718Y22199D1*
X10644Y22299D1*
X10614Y22419D1*
X10631Y22542D1*
X10693Y22650D1*
X10791Y22726D1*
X10910Y22760D1*
X11034Y22746D1*
X11143Y22687D1*
X11222Y22591D1*
X11259Y22473D1*
X11261Y22437D1*
X11237Y22315D1*
X13862Y20065D2*
X13794Y19961D1*
X13692Y19890D1*
X13628Y19876D1*
X13612Y19815D1*
X13544Y19711D1*
X13442Y19640D1*
X13321Y19613D1*
X13198Y19634D1*
X13093Y19699D1*
X13019Y19799D1*
X12989Y19919D1*
X13006Y20042D1*
X13068Y20150D1*
X13166Y20226D1*
X13244Y20248D1*
X13256Y20292D1*
X13318Y20400D1*
X13416Y20476D1*
X13535Y20510D1*
X13659Y20496D1*
X13768Y20437D1*
X13847Y20341D1*
X13884Y20223D1*
X13886Y20187D1*
X13862Y20065D1*
X10987Y22940D2*
X10919Y22836D1*
X10817Y22765D1*
X10696Y22738D1*
X10573Y22759D1*
X10468Y22824D1*
X10394Y22924D1*
X10364Y23044D1*
X10381Y23167D1*
X10443Y23275D1*
X10541Y23351D1*
X10660Y23385D1*
X10784Y23371D1*
X10893Y23312D1*
X10972Y23216D1*
X11009Y23098D1*
X11011Y23062D1*
X10987Y22940D1*
X16737Y12565D2*
X16669Y12461D1*
X16567Y12390D1*
X16446Y12363D1*
X16323Y12384D1*
X16218Y12449D1*
X16144Y12549D1*
X16114Y12669D1*
X16131Y12792D1*
X16193Y12900D1*
X16291Y12976D1*
X16410Y13010D1*
X16534Y12996D1*
X16643Y12937D1*
X16722Y12841D1*
X16759Y12723D1*
X16761Y12687D1*
X16737Y12565D1*
X16748Y15247D2*
X16737Y15190D1*
X16669Y15086D1*
X16567Y15015D1*
X16446Y14988D1*
X16323Y15009D1*
X16218Y15074D1*
X16144Y15174D1*
X16114Y15294D1*
X16131Y15417D1*
X16193Y15525D1*
X16291Y15601D1*
X16369Y15623D1*
X16381Y15667D1*
X16443Y15775D1*
X16541Y15851D1*
X16660Y15885D1*
X16784Y15871D1*
X16893Y15812D1*
X16972Y15716D1*
X17009Y15598D1*
X17011Y15562D1*
X16987Y15440D1*
X16919Y15336D1*
X16817Y15265D1*
X16753Y15251D1*
X14237Y12565D2*
X14169Y12461D1*
X14067Y12390D1*
X13946Y12363D1*
X13823Y12384D1*
X13718Y12449D1*
X13644Y12549D1*
X13614Y12669D1*
X13631Y12792D1*
X13693Y12900D1*
X13791Y12976D1*
X13910Y13010D1*
X14034Y12996D1*
X14143Y12937D1*
X14222Y12841D1*
X14259Y12723D1*
X14261Y12687D1*
X14237Y12565D1*
X14362Y29440D2*
X14294Y29336D1*
X14192Y29265D1*
X14071Y29238D1*
X13948Y29259D1*
X13843Y29324D1*
X13769Y29424D1*
X13739Y29544D1*
X13756Y29667D1*
X13818Y29775D1*
X13916Y29851D1*
X14035Y29885D1*
X14159Y29871D1*
X14268Y29812D1*
X14347Y29716D1*
X14384Y29598D1*
X14386Y29562D1*
X14362Y29440D1*
X10862Y15315D2*
X10794Y15211D1*
X10692Y15140D1*
X10571Y15113D1*
X10448Y15134D1*
X10343Y15199D1*
X10269Y15299D1*
X10239Y15419D1*
X10256Y15542D1*
X10318Y15650D1*
X10416Y15726D1*
X10535Y15760D1*
X10659Y15746D1*
X10768Y15687D1*
X10847Y15591D1*
X10884Y15473D1*
X10886Y15437D1*
X10862Y15315D1*
X11237Y21440D2*
X11169Y21336D1*
X11067Y21265D1*
X10946Y21238D1*
X10823Y21259D1*
X10718Y21324D1*
X10644Y21424D1*
X10614Y21544D1*
X10631Y21667D1*
X10693Y21775D1*
X10791Y21851D1*
X10910Y21885D1*
X11034Y21871D1*
X11143Y21812D1*
X11222Y21716D1*
X11259Y21598D1*
X11261Y21562D1*
X11237Y21440D1*
X10487D2*
X10419Y21336D1*
X10317Y21265D1*
X10196Y21238D1*
X10073Y21259D1*
X9968Y21324D1*
X9894Y21424D1*
X9864Y21544D1*
X9881Y21667D1*
X9943Y21775D1*
X10041Y21851D1*
X10160Y21885D1*
X10284Y21871D1*
X10393Y21812D1*
X10472Y21716D1*
X10509Y21598D1*
X10511Y21562D1*
X10487Y21440D1*
X17612Y15690D2*
X17544Y15586D1*
X17442Y15515D1*
X17321Y15488D1*
X17198Y15509D1*
X17093Y15574D1*
X17019Y15674D1*
X16989Y15794D1*
X17006Y15917D1*
X17068Y16025D1*
X17166Y16101D1*
X17285Y16135D1*
X17409Y16121D1*
X17518Y16062D1*
X17597Y15966D1*
X17634Y15848D1*
X17636Y15812D1*
X17612Y15690D1*
X14112Y25940D2*
X14044Y25836D1*
X13942Y25765D1*
X13821Y25738D1*
X13698Y25759D1*
X13593Y25824D1*
X13519Y25924D1*
X13489Y26044D1*
X13506Y26167D1*
X13568Y26275D1*
X13666Y26351D1*
X13785Y26385D1*
X13909Y26371D1*
X14018Y26312D1*
X14097Y26216D1*
X14134Y26098D1*
X14136Y26062D1*
X14112Y25940D1*
X10487Y17565D2*
X10419Y17461D1*
X10317Y17390D1*
X10196Y17363D1*
X10073Y17384D1*
X9968Y17449D1*
X9894Y17549D1*
X9864Y17669D1*
X9881Y17792D1*
X9943Y17900D1*
X10041Y17976D1*
X10160Y18010D1*
X10284Y17996D1*
X10393Y17937D1*
X10472Y17841D1*
X10509Y17723D1*
X10511Y17687D1*
X10487Y17565D1*
D27*
X8687Y23437D3*
Y22437D3*
X7687Y23437D3*
Y22437D3*
X6687Y23437D3*
Y22437D3*
X18780Y30562D3*
X17795D3*
D45*
X20787Y32570D3*
X16772D3*
D27*
X19437Y23937D3*
Y22937D3*
Y21937D3*
Y20937D3*
X21437Y23937D3*
Y22937D3*
Y21937D3*
Y20937D3*
X8780Y8812D3*
X9764D3*
D45*
X6772Y6804D3*
X10787D3*
D27*
X18780Y8812D3*
X19764D3*
D45*
X16772Y6804D3*
X20787D3*
D27*
X14062Y33877D3*
M02*
