M48
INCH
T01C0.0118
T02C0.0197
T03C0.0354
T04C0.0394
T05C0.0433
T06C0.0512
T07C0.0787
T08C0.1378
%
T01
X+015875Y+019437
X+015437Y+019000
X+014750Y+019687
X+015187Y+020125
X+014625Y+020687
X+014187Y+020250
X+013562Y+020187
X+013312Y+019937
X+013625Y+020812
X+012937Y+020812
X+012187Y+020812
X+011062Y+021937
X+010937Y+022437
X+010687Y+023062
X+011081Y+024062
X+012312Y+024562
X+012375Y+023750
X+012312Y+022812
X+014062Y+021375
X+015312Y+023000
X+016625Y+023750
X+016876Y+022187
X+017437Y+022125
X+017687Y+022312
X+018187Y+021812
X+018437Y+022125
X+018750Y+018687
X+018750Y+018187
X+019375Y+018187
X+019562Y+018687
X+020062Y+017937
X+019375Y+017250
X+019375Y+016312
X+019375Y+015312
X+020000Y+015312
X+020562Y+014937
X+021272Y+014937
X+020000Y+013625
X+019375Y+014125
X+018062Y+013625
X+016812Y+013272
X+016312Y+012687
X+015352Y+013687
X+014562Y+014937
X+016312Y+014937
X+016687Y+015562
X+017062Y+016062
X+017375Y+015750
X+017687Y+016562
X+017687Y+016937
X+017437Y+017500
X+017687Y+017750
X+017937Y+017500
X+018187Y+017750
X+018437Y+017562
X+017187Y+018187
X+017187Y+018687
X+016562Y+018750
X+016250Y+018187
X+015937Y+017687
X+015437Y+017687
X+013562Y+017568
X+013312Y+017312
X+013062Y+017062
X+012937Y+016312
X+013312Y+016300
X+012312Y+015437
X+011687Y+014687
X+011937Y+013937
X+011187Y+015812
X+011187Y+016562
X+011187Y+017312
X+009011Y+016789
X+007687Y+015687
X+009750Y+013812
X+009750Y+013312
X+009312Y+013062
X+008812Y+013062
X+008812Y+011812
X+009312Y+011812
X+009312Y+010312
X+008812Y+010312
X+009062Y+009312
X+008437Y+009312
X+009062Y+008312
X+008437Y+008062
X+008437Y+007062
X+009062Y+007062
X+009062Y+006062
X+008437Y+006062
X+011062Y+009187
X+011812Y+009187
X+012062Y+008187
X+012812Y+008187
X+012812Y+007437
X+013812Y+007437
X+014812Y+007687
X+014812Y+008187
X+015812Y+008187
X+015812Y+007687
X+016812Y+007687
X+016812Y+008187
X+017812Y+008187
X+017812Y+007687
X+018437Y+007062
X+019062Y+007062
X+019062Y+008062
X+019062Y+006062
X+018437Y+006062
X+017812Y+010812
X+018062Y+011812
X+018812Y+012562
X+014562Y+010812
X+013062Y+010812
X+013437Y+012437
X+013937Y+012687
X+010812Y+010187
X+010062Y+010187
X+010062Y+021937
X+009562Y+024187
X+009562Y+026562
X+010690Y+028315
X+012397Y+027949
X+012062Y+029437
X+012125Y+029812
X+012125Y+030562
X+013501Y+029440
X+014187Y+028687
X+014094Y+027500
X+015039Y+026125
X+015737Y+026999
X+016250Y+028312
X+016687Y+028062
X+017063Y+028065
X+017063Y+027690
X+016938Y+028690
X+016875Y+029437
X+016562Y+029437
X+017187Y+029437
X+017500Y+029437
X+018375Y+028375
X+015188Y+030752
X+015188Y+032282
X+010563Y+032815
X+010187Y+030937
X+007312Y+032815
X+006871Y+033937
X+012062Y+025562
X+020812Y+024937
T02
X+010079Y+034867G85X+010079Y+035143
X+007480Y+034867G85X+007480Y+035143
T03
X+018780Y+030562
X+017795Y+030562
X+019937Y+023937
X+020937Y+023937
X+020937Y+022937
X+019937Y+022937
X+019937Y+021937
X+020937Y+021937
X+020937Y+020937
X+019937Y+020937
X+019764Y+008812
X+018780Y+008812
X+009764Y+008812
X+008780Y+008812
X+007000Y+030752
T04
X+012926Y+034687
X+014698Y+034687
T05
X+008687Y+023437
X+007687Y+023437
X+006687Y+023437
X+006687Y+022437
X+007687Y+022437
X+008687Y+022437
T06
X+012434Y+033703
X+015190Y+033703
T07
X+020787Y+032570
X+016772Y+032570
X+016772Y+006804
X+020787Y+006804
X+010787Y+006804
X+006772Y+006804
T08
X+005906Y+027953
X+021654Y+027953
X+021654Y+011417
X+005906Y+011417
T00
M30
