G04 DipTrace 2.4.0.1*
%INtsunami.frontsilk.gto*%
%MOIN*%
%ADD10C,0.0098*%
%ADD22C,0.006*%
%ADD31C,0.0154*%
%ADD36C,0.0236*%
%ADD128C,0.0109*%
%FSLAX44Y44*%
G04*
G70*
G90*
G75*
G01*
%LNTopSilk*%
%LPD*%
X7992Y17615D2*
D10*
Y16986D1*
X8066Y17615D2*
Y16986D1*
Y17615D2*
X7831D1*
X8066Y16986D2*
X7831D1*
X5509Y15719D2*
X6138D1*
X5509Y15793D2*
X6138D1*
X5509D2*
Y15558D1*
X6138Y15793D2*
Y15558D1*
X7905Y13736D2*
Y14365D1*
X7831Y13736D2*
Y14365D1*
Y13736D2*
X8066D1*
X7831Y14365D2*
X8066D1*
X8104Y23937D2*
X6187D1*
X9187D2*
X6187D1*
X9187Y21937D2*
X6187D1*
X9187Y23937D2*
Y21937D1*
X6187Y23937D2*
Y21937D1*
D31*
X16255Y27337D3*
X16347Y27839D2*
D10*
X17528D1*
Y28035D1*
X16347D1*
Y27839D1*
X21028Y25529D2*
Y25096D1*
X9557Y31505D2*
Y30755D1*
X10817Y31505D2*
Y30755D1*
D31*
X13544Y31614D3*
X13596Y32155D2*
D10*
X14778D1*
X13596Y32470D2*
X14778D1*
Y32155D2*
Y32470D1*
X13596Y32155D2*
Y32470D1*
D31*
X14830Y31135D3*
X14778Y30594D2*
D10*
X13596D1*
X14778Y30279D2*
X13596D1*
Y30594D2*
Y30279D1*
X14778Y30594D2*
Y30279D1*
X12067Y26084D2*
X15492D1*
Y22660D1*
X12067D1*
Y26084D1*
D36*
X11417Y26262D3*
G36*
X12075Y26069D2*
X12449Y26061D1*
X12075Y26069D1*
G37*
G36*
X12126Y26104D2*
X12598D1*
X12047Y25553D1*
X12126Y26104D1*
G37*
X14796Y17567D2*
D10*
X12828D1*
X14796Y16307D2*
X12828D1*
Y17567D2*
Y16307D1*
X14796Y17567D2*
Y17134D1*
Y16740D2*
Y16307D1*
Y17134D2*
G03X14796Y16740I0J-197D01*
G01*
D31*
X20239Y17012D3*
X20780Y16959D2*
D10*
Y15778D1*
X21095Y16959D2*
Y15778D1*
X20780D2*
X21095D1*
X20780Y16959D2*
X21095D1*
X7436Y16660D2*
Y14691D1*
X8460Y16660D2*
Y14691D1*
X7436D2*
X8460D1*
X7751Y16660D2*
X7436D1*
X8145D2*
X8460D1*
X7751D2*
G03X8145Y16660I197J0D01*
G01*
X16846Y13837D2*
X16650Y14034D1*
X18224Y13837D2*
Y14034D1*
Y13837D2*
X18027D1*
X18224Y15215D2*
Y15412D1*
X18027D1*
X16650D2*
X16847D1*
X16650D2*
Y15215D1*
X17041Y13606D3*
X12828Y12386D2*
X14796D1*
X12828Y13488D2*
X14796D1*
Y12386D2*
Y13488D1*
X12828Y12386D2*
Y12740D1*
Y13134D2*
Y13488D1*
Y12740D2*
G03X12828Y13134I0J197D01*
G01*
X18780Y41548D2*
G02X18780Y41548I0J392D01*
G01*
X15866Y29814D2*
X21693D1*
X15866Y35365D2*
Y29814D1*
Y35365D2*
X16321D1*
Y38869D2*
Y35365D1*
Y38869D2*
X16892D1*
Y43554D2*
Y38869D1*
Y43554D2*
X20667D1*
Y38869D1*
X21238D1*
Y35365D1*
X21693D1*
Y29814D1*
X16321Y35365D2*
X21238D1*
X16892Y38869D2*
X20667D1*
X21238D2*
X16321Y38470D1*
X21238D2*
X16321Y38086D1*
X21238D2*
X16321Y37687D1*
X21238D2*
X16321Y37289D1*
X21238D2*
X16321Y36904D1*
X21238D2*
X16321Y36505D1*
X21238D2*
X16321Y36107D1*
X21238D2*
X16321Y35722D1*
X16455Y34898D2*
X21104D1*
Y33312D1*
X16455Y31738D2*
X21104D1*
X16455Y34898D2*
Y33312D1*
X15866Y35365D2*
X16321D1*
X15866D2*
Y29814D1*
X21693D1*
Y35365D2*
Y29814D1*
X21238Y35365D2*
X21693D1*
X16321Y38869D2*
X16892D1*
X16321D2*
Y35365D1*
X21238D1*
Y38869D2*
Y35365D1*
X20667Y38869D2*
X21238D1*
X20667Y43554D2*
Y38869D1*
X16892D2*
X20667D1*
X16892Y43554D2*
Y38869D1*
Y43554D2*
X20667D1*
X19437Y20437D2*
X20437D1*
X19437Y24437D2*
Y20437D1*
X20437Y24437D2*
Y20437D1*
X19437Y24437D2*
X20437D1*
Y20437D2*
X21437D1*
X20437Y24437D2*
Y20437D1*
X21437Y24437D2*
Y20437D1*
X20437Y24437D2*
X21437D1*
X8780Y-2174D2*
G02X8780Y-2174I0J-392D01*
G01*
X11693Y9560D2*
X5866D1*
X11693Y4009D2*
Y9560D1*
Y4009D2*
X11238D1*
Y505D2*
Y4009D1*
Y505D2*
X10667D1*
Y-4180D2*
Y505D1*
Y-4180D2*
X6892D1*
Y505D1*
X6321D1*
Y4009D1*
X5866D1*
Y9560D1*
X11238Y4009D2*
X6321D1*
X10667Y505D2*
X6892D1*
X6321D2*
X11238Y904D1*
X6321D2*
X11238Y1288D1*
X6321D2*
X11238Y1687D1*
X6321D2*
X11238Y2085D1*
X6321D2*
X11238Y2470D1*
X6321D2*
X11238Y2869D1*
X6321D2*
X11238Y3267D1*
X6321D2*
X11238Y3652D1*
X11104Y4476D2*
X6455D1*
Y6062D1*
X11104Y7636D2*
X6455D1*
X11104Y4476D2*
Y6062D1*
X11693Y4009D2*
X11238D1*
X11693D2*
Y9560D1*
X5866D1*
Y4009D2*
Y9560D1*
X6321Y4009D2*
X5866D1*
X11238Y505D2*
X10667D1*
X11238D2*
Y4009D1*
X6321D1*
Y505D2*
Y4009D1*
X6892Y505D2*
X6321D1*
X6892Y-4180D2*
Y505D1*
X10667D2*
X6892D1*
X10667Y-4180D2*
Y505D1*
Y-4180D2*
X6892D1*
X18780Y-2174D2*
G02X18780Y-2174I0J-392D01*
G01*
X21693Y9560D2*
X15866D1*
X21693Y4009D2*
Y9560D1*
Y4009D2*
X21238D1*
Y505D2*
Y4009D1*
Y505D2*
X20667D1*
Y-4180D2*
Y505D1*
Y-4180D2*
X16892D1*
Y505D1*
X16321D1*
Y4009D1*
X15866D1*
Y9560D1*
X21238Y4009D2*
X16321D1*
X20667Y505D2*
X16892D1*
X16321D2*
X21238Y904D1*
X16321D2*
X21238Y1288D1*
X16321D2*
X21238Y1687D1*
X16321D2*
X21238Y2085D1*
X16321D2*
X21238Y2470D1*
X16321D2*
X21238Y2869D1*
X16321D2*
X21238Y3267D1*
X16321D2*
X21238Y3652D1*
X21104Y4476D2*
X16455D1*
Y6062D1*
X21104Y7636D2*
X16455D1*
X21104Y4476D2*
Y6062D1*
X21693Y4009D2*
X21238D1*
X21693D2*
Y9560D1*
X15866D1*
Y4009D2*
Y9560D1*
X16321Y4009D2*
X15866D1*
X21238Y505D2*
X20667D1*
X21238D2*
Y4009D1*
X16321D1*
Y505D2*
Y4009D1*
X16892Y505D2*
X16321D1*
X16892Y-4180D2*
Y505D1*
X20667D2*
X16892D1*
X20667Y-4180D2*
Y505D1*
Y-4180D2*
X16892D1*
X15190Y33112D2*
Y33211D1*
Y34136D2*
Y34234D1*
Y33112D2*
X15091D1*
Y33211D1*
X12591Y35415D2*
X15033D1*
X12434Y33112D2*
Y33211D1*
Y33112D2*
X12533D1*
Y33211D1*
X12434Y34136D2*
Y34234D1*
X15033Y35415D2*
Y35002D1*
Y34392D2*
Y34234D1*
X15190D1*
X12434D2*
X12591D1*
Y35169D2*
Y35415D1*
X12533Y34136D2*
Y34215D1*
X15091Y34136D2*
Y34215D1*
X12591Y34234D2*
X15033D1*
X13104Y35927D2*
X14521D1*
Y35415D1*
X13104Y35907D2*
Y35415D1*
X13812Y35228D2*
Y34461D1*
Y34441D2*
X13714Y34638D1*
X13812Y34441D2*
X13910Y34638D1*
X13812Y35287D2*
X13714Y35071D1*
X13812Y35287D2*
X13910Y35071D1*
X15105Y31425D2*
D22*
X15086Y31415D1*
X15067Y31396D1*
X15058Y31377D1*
Y31339D1*
X15067Y31320D1*
X15086Y31301D1*
X15105Y31291D1*
X15134Y31281D1*
X15182D1*
X15211Y31291D1*
X15230Y31301D1*
X15249Y31320D1*
X15259Y31339D1*
Y31377D1*
X15249Y31396D1*
X15230Y31415D1*
X15211Y31425D1*
X15096Y31545D2*
X15086Y31564D1*
X15058Y31593D1*
X15259D1*
X12757Y31706D2*
X12747Y31725D1*
X12728Y31744D1*
X12709Y31754D1*
X12671D1*
X12652Y31744D1*
X12633Y31725D1*
X12623Y31706D1*
X12613Y31677D1*
Y31629D1*
X12623Y31601D1*
X12633Y31582D1*
X12652Y31563D1*
X12671Y31553D1*
X12709D1*
X12728Y31563D1*
X12747Y31582D1*
X12757Y31601D1*
X12886Y31706D2*
Y31715D1*
X12896Y31735D1*
X12906Y31744D1*
X12925Y31754D1*
X12963D1*
X12982Y31744D1*
X12992Y31735D1*
X13001Y31715D1*
Y31696D1*
X12992Y31677D1*
X12972Y31649D1*
X12877Y31553D1*
X13011D1*
X15105Y29507D2*
X15086Y29497D1*
X15067Y29478D1*
X15058Y29459D1*
Y29421D1*
X15067Y29402D1*
X15086Y29383D1*
X15105Y29373D1*
X15134Y29363D1*
X15182D1*
X15211Y29373D1*
X15230Y29383D1*
X15249Y29402D1*
X15259Y29421D1*
Y29459D1*
X15249Y29478D1*
X15230Y29497D1*
X15211Y29507D1*
X15058Y29646D2*
Y29751D1*
X15134Y29694D1*
Y29722D1*
X15144Y29742D1*
X15153Y29751D1*
X15182Y29761D1*
X15201D1*
X15230Y29751D1*
X15249Y29732D1*
X15259Y29703D1*
Y29675D1*
X15249Y29646D1*
X15239Y29636D1*
X15220Y29627D1*
X14127Y29456D2*
X14118Y29475D1*
X14098Y29494D1*
X14079Y29504D1*
X14041D1*
X14022Y29494D1*
X14003Y29475D1*
X13993Y29456D1*
X13984Y29427D1*
Y29379D1*
X13993Y29351D1*
X14003Y29332D1*
X14022Y29313D1*
X14041Y29303D1*
X14079D1*
X14098Y29313D1*
X14118Y29332D1*
X14127Y29351D1*
X14343Y29303D2*
Y29504D1*
X14247Y29370D1*
X14390D1*
X15507Y29519D2*
X15497Y29538D1*
X15478Y29557D1*
X15459Y29566D1*
X15421D1*
X15402Y29557D1*
X15383Y29538D1*
X15373Y29519D1*
X15363Y29490D1*
Y29442D1*
X15373Y29413D1*
X15383Y29394D1*
X15402Y29375D1*
X15421Y29365D1*
X15459D1*
X15478Y29375D1*
X15497Y29394D1*
X15507Y29413D1*
X15742Y29566D2*
X15646D1*
X15636Y29480D1*
X15646Y29490D1*
X15675Y29499D1*
X15703D1*
X15732Y29490D1*
X15751Y29471D1*
X15761Y29442D1*
Y29423D1*
X15751Y29394D1*
X15732Y29375D1*
X15703Y29365D1*
X15675D1*
X15646Y29375D1*
X15636Y29385D1*
X15627Y29404D1*
X12762Y28831D2*
X12752Y28850D1*
X12733Y28869D1*
X12714Y28879D1*
X12676D1*
X12656Y28869D1*
X12637Y28850D1*
X12628Y28831D1*
X12618Y28802D1*
Y28754D1*
X12628Y28726D1*
X12637Y28707D1*
X12656Y28688D1*
X12676Y28678D1*
X12714D1*
X12733Y28688D1*
X12752Y28707D1*
X12762Y28726D1*
X12996Y28850D2*
X12987Y28869D1*
X12958Y28879D1*
X12939D1*
X12910Y28869D1*
X12891Y28840D1*
X12882Y28793D1*
Y28745D1*
X12891Y28707D1*
X12910Y28687D1*
X12939Y28678D1*
X12949D1*
X12977Y28687D1*
X12996Y28707D1*
X13006Y28735D1*
Y28745D1*
X12996Y28774D1*
X12977Y28793D1*
X12949Y28802D1*
X12939D1*
X12910Y28793D1*
X12891Y28774D1*
X12882Y28745D1*
X18257Y28769D2*
X18247Y28788D1*
X18228Y28807D1*
X18209Y28816D1*
X18171D1*
X18152Y28807D1*
X18133Y28788D1*
X18123Y28769D1*
X18113Y28740D1*
Y28692D1*
X18123Y28663D1*
X18133Y28644D1*
X18152Y28625D1*
X18171Y28615D1*
X18209D1*
X18228Y28625D1*
X18247Y28644D1*
X18257Y28663D1*
X18415Y28615D2*
X18511Y28816D1*
X18377D1*
X11757Y28083D2*
X11747Y28102D1*
X11728Y28122D1*
X11709Y28131D1*
X11671D1*
X11652Y28122D1*
X11633Y28102D1*
X11623Y28083D1*
X11613Y28055D1*
Y28007D1*
X11623Y27978D1*
X11633Y27959D1*
X11652Y27940D1*
X11671Y27930D1*
X11709D1*
X11728Y27940D1*
X11747Y27959D1*
X11757Y27978D1*
X11925Y28131D2*
X11896Y28121D1*
X11886Y28102D1*
Y28083D1*
X11896Y28064D1*
X11915Y28054D1*
X11953Y28045D1*
X11982Y28035D1*
X12001Y28016D1*
X12011Y27997D1*
Y27968D1*
X12001Y27949D1*
X11992Y27940D1*
X11963Y27930D1*
X11925D1*
X11896Y27940D1*
X11886Y27949D1*
X11877Y27968D1*
Y27997D1*
X11886Y28016D1*
X11906Y28035D1*
X11934Y28045D1*
X11972Y28054D1*
X11992Y28064D1*
X12001Y28083D1*
Y28102D1*
X11992Y28121D1*
X11963Y28131D1*
X11925D1*
X15512Y28019D2*
X15502Y28038D1*
X15483Y28057D1*
X15464Y28066D1*
X15426D1*
X15406Y28057D1*
X15387Y28038D1*
X15378Y28019D1*
X15368Y27990D1*
Y27942D1*
X15378Y27913D1*
X15387Y27894D1*
X15406Y27875D1*
X15426Y27865D1*
X15464D1*
X15483Y27875D1*
X15502Y27894D1*
X15512Y27913D1*
X15756Y27999D2*
X15746Y27971D1*
X15727Y27951D1*
X15699Y27942D1*
X15689D1*
X15660Y27951D1*
X15641Y27971D1*
X15632Y27999D1*
Y28009D1*
X15641Y28038D1*
X15660Y28057D1*
X15689Y28066D1*
X15699D1*
X15727Y28057D1*
X15746Y28038D1*
X15756Y27999D1*
Y27951D1*
X15746Y27904D1*
X15727Y27875D1*
X15699Y27865D1*
X15679D1*
X15651Y27875D1*
X15641Y27894D1*
X9088Y24268D2*
X9079Y24287D1*
X9059Y24307D1*
X9040Y24316D1*
X9002D1*
X8983Y24307D1*
X8964Y24287D1*
X8954Y24268D1*
X8945Y24240D1*
Y24192D1*
X8954Y24163D1*
X8964Y24144D1*
X8983Y24125D1*
X9002Y24115D1*
X9040D1*
X9059Y24125D1*
X9079Y24144D1*
X9088Y24163D1*
X9208Y24278D2*
X9227Y24287D1*
X9256Y24316D1*
Y24115D1*
X9434Y24316D2*
X9405Y24306D1*
X9386Y24278D1*
X9376Y24230D1*
Y24201D1*
X9386Y24154D1*
X9405Y24125D1*
X9434Y24115D1*
X9453D1*
X9481Y24125D1*
X9500Y24154D1*
X9510Y24201D1*
Y24230D1*
X9500Y24278D1*
X9481Y24306D1*
X9453Y24316D1*
X9434D1*
X9500Y24278D2*
X9386Y24154D1*
X17232Y22821D2*
X17213Y22811D1*
X17194Y22792D1*
X17185Y22773D1*
Y22735D1*
X17194Y22715D1*
X17213Y22696D1*
X17232Y22687D1*
X17261Y22677D1*
X17309D1*
X17338Y22687D1*
X17357Y22696D1*
X17376Y22715D1*
X17386Y22735D1*
Y22773D1*
X17376Y22792D1*
X17357Y22811D1*
X17338Y22821D1*
X17223Y22941D2*
X17213Y22960D1*
X17185Y22989D1*
X17386D1*
X17223Y23109D2*
X17213Y23128D1*
X17185Y23157D1*
X17386D1*
X11446Y21145D2*
X11437Y21164D1*
X11418Y21184D1*
X11399Y21193D1*
X11360D1*
X11341Y21184D1*
X11322Y21164D1*
X11312Y21145D1*
X11303Y21117D1*
Y21069D1*
X11312Y21040D1*
X11322Y21021D1*
X11341Y21002D1*
X11360Y20992D1*
X11399D1*
X11418Y21002D1*
X11437Y21021D1*
X11446Y21040D1*
X11566Y21155D2*
X11586Y21164D1*
X11614Y21193D1*
Y20992D1*
X11744Y21145D2*
Y21155D1*
X11754Y21174D1*
X11763Y21183D1*
X11782Y21193D1*
X11821D1*
X11840Y21183D1*
X11849Y21174D1*
X11859Y21155D1*
Y21136D1*
X11849Y21116D1*
X11830Y21088D1*
X11734Y20992D1*
X11868D1*
X20798Y17950D2*
X20788Y17969D1*
X20769Y17988D1*
X20750Y17998D1*
X20712D1*
X20693Y17988D1*
X20674Y17969D1*
X20664Y17950D1*
X20654Y17921D1*
Y17873D1*
X20664Y17845D1*
X20674Y17826D1*
X20693Y17807D1*
X20712Y17797D1*
X20750D1*
X20769Y17807D1*
X20788Y17826D1*
X20798Y17845D1*
X20918Y17959D2*
X20937Y17969D1*
X20966Y17998D1*
Y17797D1*
X21105Y17998D2*
X21210D1*
X21153Y17921D1*
X21181D1*
X21200Y17912D1*
X21210Y17902D1*
X21220Y17873D1*
Y17854D1*
X21210Y17826D1*
X21191Y17806D1*
X21162Y17797D1*
X21134D1*
X21105Y17806D1*
X21095Y17816D1*
X21086Y17835D1*
X7804Y17915D2*
X7795Y17934D1*
X7776Y17953D1*
X7757Y17962D1*
X7718D1*
X7699Y17953D1*
X7680Y17934D1*
X7670Y17915D1*
X7661Y17886D1*
Y17838D1*
X7670Y17809D1*
X7680Y17790D1*
X7699Y17771D1*
X7718Y17762D1*
X7757D1*
X7776Y17771D1*
X7795Y17790D1*
X7804Y17809D1*
X7924Y17924D2*
X7944Y17934D1*
X7972Y17962D1*
Y17762D1*
X8188D2*
Y17962D1*
X8092Y17828D1*
X8236D1*
X11798Y17769D2*
X11788Y17788D1*
X11769Y17807D1*
X11750Y17816D1*
X11712D1*
X11693Y17807D1*
X11674Y17788D1*
X11664Y17769D1*
X11654Y17740D1*
Y17692D1*
X11664Y17663D1*
X11674Y17644D1*
X11693Y17625D1*
X11712Y17615D1*
X11750D1*
X11769Y17625D1*
X11788Y17644D1*
X11798Y17663D1*
X11918Y17778D2*
X11937Y17788D1*
X11966Y17816D1*
Y17615D1*
X12200Y17816D2*
X12105D1*
X12095Y17730D1*
X12105Y17740D1*
X12134Y17749D1*
X12162D1*
X12191Y17740D1*
X12210Y17721D1*
X12220Y17692D1*
Y17673D1*
X12210Y17644D1*
X12191Y17625D1*
X12162Y17615D1*
X12134D1*
X12105Y17625D1*
X12095Y17635D1*
X12086Y17654D1*
X15553Y17769D2*
X15543Y17788D1*
X15524Y17807D1*
X15505Y17816D1*
X15467D1*
X15447Y17807D1*
X15428Y17788D1*
X15419Y17769D1*
X15409Y17740D1*
Y17692D1*
X15419Y17663D1*
X15428Y17644D1*
X15447Y17625D1*
X15467Y17615D1*
X15505D1*
X15524Y17625D1*
X15543Y17644D1*
X15553Y17663D1*
X15673Y17778D2*
X15692Y17788D1*
X15721Y17816D1*
Y17615D1*
X15955Y17788D2*
X15946Y17807D1*
X15917Y17816D1*
X15898D1*
X15869Y17807D1*
X15850Y17778D1*
X15841Y17730D1*
Y17682D1*
X15850Y17644D1*
X15869Y17625D1*
X15898Y17615D1*
X15908D1*
X15936Y17625D1*
X15955Y17644D1*
X15965Y17673D1*
Y17682D1*
X15955Y17711D1*
X15936Y17730D1*
X15908Y17740D1*
X15898D1*
X15869Y17730D1*
X15850Y17711D1*
X15841Y17682D1*
X5684Y16802D2*
X5675Y16821D1*
X5655Y16840D1*
X5636Y16849D1*
X5598D1*
X5579Y16840D1*
X5560Y16821D1*
X5550Y16802D1*
X5541Y16773D1*
Y16725D1*
X5550Y16696D1*
X5560Y16677D1*
X5579Y16658D1*
X5598Y16648D1*
X5636D1*
X5655Y16658D1*
X5675Y16677D1*
X5684Y16696D1*
X5804Y16811D2*
X5823Y16821D1*
X5852Y16849D1*
Y16648D1*
X6010D2*
X6106Y16849D1*
X5972D1*
X21914Y15274D2*
X21904Y15293D1*
X21885Y15312D1*
X21866Y15322D1*
X21828D1*
X21808Y15312D1*
X21789Y15293D1*
X21780Y15274D1*
X21770Y15245D1*
Y15197D1*
X21780Y15169D1*
X21789Y15149D1*
X21808Y15130D1*
X21828Y15121D1*
X21866D1*
X21885Y15130D1*
X21904Y15149D1*
X21914Y15169D1*
X22034Y15283D2*
X22053Y15293D1*
X22082Y15321D1*
Y15121D1*
X22249Y15321D2*
X22221Y15312D1*
X22211Y15293D1*
Y15274D1*
X22221Y15255D1*
X22240Y15245D1*
X22278Y15235D1*
X22307Y15226D1*
X22326Y15207D1*
X22335Y15188D1*
Y15159D1*
X22326Y15140D1*
X22316Y15130D1*
X22288Y15121D1*
X22249D1*
X22221Y15130D1*
X22211Y15140D1*
X22202Y15159D1*
Y15188D1*
X22211Y15207D1*
X22230Y15226D1*
X22259Y15235D1*
X22297Y15245D1*
X22316Y15255D1*
X22326Y15274D1*
Y15293D1*
X22316Y15312D1*
X22288Y15321D1*
X22249D1*
X13718Y15331D2*
X13708Y15350D1*
X13689Y15369D1*
X13670Y15379D1*
X13632D1*
X13613Y15369D1*
X13594Y15350D1*
X13584Y15331D1*
X13574Y15302D1*
Y15254D1*
X13584Y15226D1*
X13594Y15207D1*
X13613Y15188D1*
X13632Y15178D1*
X13670D1*
X13689Y15188D1*
X13708Y15207D1*
X13718Y15226D1*
X13838Y15340D2*
X13857Y15350D1*
X13886Y15379D1*
Y15178D1*
X14130Y15312D2*
X14121Y15283D1*
X14102Y15264D1*
X14073Y15254D1*
X14063D1*
X14035Y15264D1*
X14016Y15283D1*
X14006Y15312D1*
Y15321D1*
X14016Y15350D1*
X14035Y15369D1*
X14063Y15379D1*
X14073D1*
X14102Y15369D1*
X14121Y15350D1*
X14130Y15312D1*
Y15264D1*
X14121Y15216D1*
X14102Y15187D1*
X14073Y15178D1*
X14054D1*
X14025Y15187D1*
X14016Y15207D1*
X10380Y14706D2*
X10370Y14725D1*
X10351Y14744D1*
X10332Y14754D1*
X10294D1*
X10275Y14744D1*
X10256Y14725D1*
X10246Y14706D1*
X10236Y14677D1*
Y14629D1*
X10246Y14601D1*
X10256Y14582D1*
X10275Y14563D1*
X10294Y14553D1*
X10332D1*
X10351Y14563D1*
X10370Y14582D1*
X10380Y14601D1*
X10510Y14706D2*
Y14715D1*
X10519Y14735D1*
X10529Y14744D1*
X10548Y14754D1*
X10586D1*
X10605Y14744D1*
X10615Y14735D1*
X10624Y14715D1*
Y14696D1*
X10615Y14677D1*
X10596Y14649D1*
X10500Y14553D1*
X10634D1*
X10811Y14754D2*
X10782Y14744D1*
X10763Y14715D1*
X10754Y14668D1*
Y14639D1*
X10763Y14591D1*
X10782Y14562D1*
X10811Y14553D1*
X10830D1*
X10859Y14562D1*
X10878Y14591D1*
X10888Y14639D1*
Y14668D1*
X10878Y14715D1*
X10859Y14744D1*
X10830Y14754D1*
X10811D1*
X10878Y14715D2*
X10763Y14591D1*
X7747Y13477D2*
X7737Y13496D1*
X7718Y13515D1*
X7699Y13525D1*
X7661D1*
X7641Y13515D1*
X7622Y13496D1*
X7613Y13477D1*
X7603Y13448D1*
Y13401D1*
X7613Y13372D1*
X7622Y13353D1*
X7641Y13334D1*
X7661Y13324D1*
X7699D1*
X7718Y13334D1*
X7737Y13353D1*
X7747Y13372D1*
X7876Y13477D2*
Y13487D1*
X7886Y13506D1*
X7895Y13515D1*
X7915Y13525D1*
X7953D1*
X7972Y13515D1*
X7981Y13506D1*
X7991Y13487D1*
Y13467D1*
X7981Y13448D1*
X7962Y13420D1*
X7867Y13324D1*
X8001D1*
X8121Y13487D2*
X8140Y13496D1*
X8169Y13525D1*
Y13324D1*
X15505Y14456D2*
X15495Y14475D1*
X15476Y14494D1*
X15457Y14504D1*
X15419D1*
X15400Y14494D1*
X15381Y14475D1*
X15371Y14456D1*
X15361Y14427D1*
Y14379D1*
X15371Y14351D1*
X15381Y14332D1*
X15400Y14313D1*
X15419Y14303D1*
X15457D1*
X15476Y14313D1*
X15495Y14332D1*
X15505Y14351D1*
X15635Y14456D2*
Y14465D1*
X15644Y14485D1*
X15654Y14494D1*
X15673Y14504D1*
X15711D1*
X15730Y14494D1*
X15740Y14485D1*
X15749Y14465D1*
Y14446D1*
X15740Y14427D1*
X15721Y14399D1*
X15625Y14303D1*
X15759D1*
X15888Y14456D2*
Y14465D1*
X15898Y14485D1*
X15907Y14494D1*
X15927Y14504D1*
X15965D1*
X15984Y14494D1*
X15993Y14485D1*
X16003Y14465D1*
Y14446D1*
X15993Y14427D1*
X15974Y14399D1*
X15879Y14303D1*
X16013D1*
X11755Y13956D2*
X11745Y13975D1*
X11726Y13994D1*
X11707Y14004D1*
X11669D1*
X11650Y13994D1*
X11631Y13975D1*
X11621Y13956D1*
X11611Y13927D1*
Y13879D1*
X11621Y13851D1*
X11631Y13832D1*
X11650Y13813D1*
X11669Y13803D1*
X11707D1*
X11726Y13813D1*
X11745Y13832D1*
X11755Y13851D1*
X11885Y13956D2*
Y13965D1*
X11894Y13985D1*
X11904Y13994D1*
X11923Y14004D1*
X11961D1*
X11980Y13994D1*
X11990Y13985D1*
X11999Y13965D1*
Y13946D1*
X11990Y13927D1*
X11971Y13899D1*
X11875Y13803D1*
X12009D1*
X12148Y14004D2*
X12253D1*
X12196Y13927D1*
X12224D1*
X12243Y13918D1*
X12253Y13908D1*
X12263Y13879D1*
Y13860D1*
X12253Y13832D1*
X12234Y13812D1*
X12205Y13803D1*
X12177D1*
X12148Y13812D1*
X12138Y13822D1*
X12129Y13841D1*
X15500Y13728D2*
X15491Y13747D1*
X15471Y13766D1*
X15452Y13776D1*
X15414D1*
X15395Y13766D1*
X15376Y13747D1*
X15366Y13728D1*
X15357Y13699D1*
Y13651D1*
X15366Y13623D1*
X15376Y13604D1*
X15395Y13585D1*
X15414Y13575D1*
X15452D1*
X15471Y13585D1*
X15491Y13604D1*
X15500Y13623D1*
X15630Y13728D2*
Y13737D1*
X15639Y13757D1*
X15649Y13766D1*
X15668Y13776D1*
X15706D1*
X15725Y13766D1*
X15735Y13757D1*
X15744Y13737D1*
Y13718D1*
X15735Y13699D1*
X15716Y13671D1*
X15620Y13575D1*
X15754D1*
X15970D2*
Y13776D1*
X15874Y13642D1*
X16017D1*
X18255Y13394D2*
X18245Y13413D1*
X18226Y13432D1*
X18207Y13441D1*
X18169D1*
X18150Y13432D1*
X18131Y13413D1*
X18121Y13394D1*
X18111Y13365D1*
Y13317D1*
X18121Y13288D1*
X18131Y13269D1*
X18150Y13250D1*
X18169Y13240D1*
X18207D1*
X18226Y13250D1*
X18245Y13269D1*
X18255Y13288D1*
X18385Y13393D2*
Y13403D1*
X18394Y13422D1*
X18404Y13432D1*
X18423Y13441D1*
X18461D1*
X18480Y13432D1*
X18490Y13422D1*
X18499Y13403D1*
Y13384D1*
X18490Y13365D1*
X18471Y13336D1*
X18375Y13240D1*
X18509D1*
X18743Y13441D2*
X18648D1*
X18638Y13355D1*
X18648Y13365D1*
X18677Y13374D1*
X18705D1*
X18734Y13365D1*
X18753Y13346D1*
X18763Y13317D1*
Y13298D1*
X18753Y13269D1*
X18734Y13250D1*
X18705Y13240D1*
X18677D1*
X18648Y13250D1*
X18638Y13260D1*
X18629Y13279D1*
X10385Y12706D2*
X10375Y12725D1*
X10356Y12744D1*
X10337Y12754D1*
X10299D1*
X10279Y12744D1*
X10260Y12725D1*
X10251Y12706D1*
X10241Y12677D1*
Y12629D1*
X10251Y12601D1*
X10260Y12582D1*
X10279Y12563D1*
X10299Y12553D1*
X10337D1*
X10356Y12563D1*
X10375Y12582D1*
X10385Y12601D1*
X10514Y12706D2*
Y12715D1*
X10524Y12735D1*
X10533Y12744D1*
X10553Y12754D1*
X10591D1*
X10610Y12744D1*
X10619Y12735D1*
X10629Y12715D1*
Y12696D1*
X10619Y12677D1*
X10600Y12649D1*
X10505Y12553D1*
X10639D1*
X10873Y12725D2*
X10864Y12744D1*
X10835Y12754D1*
X10816D1*
X10787Y12744D1*
X10768Y12715D1*
X10759Y12668D1*
Y12620D1*
X10768Y12582D1*
X10787Y12562D1*
X10816Y12553D1*
X10826D1*
X10854Y12562D1*
X10873Y12582D1*
X10883Y12610D1*
Y12620D1*
X10873Y12649D1*
X10854Y12668D1*
X10826Y12677D1*
X10816D1*
X10787Y12668D1*
X10768Y12649D1*
X10759Y12620D1*
X15505Y12706D2*
X15495Y12725D1*
X15476Y12744D1*
X15457Y12754D1*
X15419D1*
X15400Y12744D1*
X15381Y12725D1*
X15371Y12706D1*
X15361Y12677D1*
Y12629D1*
X15371Y12601D1*
X15381Y12582D1*
X15400Y12563D1*
X15419Y12553D1*
X15457D1*
X15476Y12563D1*
X15495Y12582D1*
X15505Y12601D1*
X15635Y12706D2*
Y12715D1*
X15644Y12735D1*
X15654Y12744D1*
X15673Y12754D1*
X15711D1*
X15730Y12744D1*
X15740Y12735D1*
X15749Y12715D1*
Y12696D1*
X15740Y12677D1*
X15721Y12649D1*
X15625Y12553D1*
X15759D1*
X15917D2*
X16013Y12754D1*
X15879D1*
X16880Y12706D2*
X16870Y12725D1*
X16851Y12744D1*
X16832Y12754D1*
X16794D1*
X16775Y12744D1*
X16756Y12725D1*
X16746Y12706D1*
X16736Y12677D1*
Y12629D1*
X16746Y12601D1*
X16756Y12582D1*
X16775Y12563D1*
X16794Y12553D1*
X16832D1*
X16851Y12563D1*
X16870Y12582D1*
X16880Y12601D1*
X17010Y12706D2*
Y12715D1*
X17019Y12735D1*
X17029Y12744D1*
X17048Y12754D1*
X17086D1*
X17105Y12744D1*
X17115Y12735D1*
X17124Y12715D1*
Y12696D1*
X17115Y12677D1*
X17096Y12649D1*
X17000Y12553D1*
X17134D1*
X17302Y12754D2*
X17273Y12744D1*
X17263Y12725D1*
Y12706D1*
X17273Y12687D1*
X17292Y12677D1*
X17330Y12668D1*
X17359Y12658D1*
X17378Y12639D1*
X17388Y12620D1*
Y12591D1*
X17378Y12572D1*
X17369Y12562D1*
X17340Y12553D1*
X17302D1*
X17273Y12562D1*
X17263Y12572D1*
X17254Y12591D1*
Y12620D1*
X17263Y12639D1*
X17283Y12658D1*
X17311Y12668D1*
X17349Y12677D1*
X17369Y12687D1*
X17378Y12706D1*
Y12725D1*
X17369Y12744D1*
X17340Y12754D1*
X17302D1*
X18157Y12581D2*
X18147Y12600D1*
X18128Y12619D1*
X18109Y12629D1*
X18071D1*
X18051Y12619D1*
X18032Y12600D1*
X18023Y12581D1*
X18013Y12552D1*
Y12504D1*
X18023Y12476D1*
X18032Y12457D1*
X18051Y12438D1*
X18071Y12428D1*
X18109D1*
X18128Y12438D1*
X18147Y12457D1*
X18157Y12476D1*
X18286Y12581D2*
Y12590D1*
X18296Y12610D1*
X18305Y12619D1*
X18325Y12629D1*
X18363D1*
X18382Y12619D1*
X18391Y12610D1*
X18401Y12590D1*
Y12571D1*
X18391Y12552D1*
X18372Y12524D1*
X18277Y12428D1*
X18411D1*
X18655Y12562D2*
X18645Y12533D1*
X18626Y12514D1*
X18598Y12504D1*
X18588D1*
X18559Y12514D1*
X18540Y12533D1*
X18531Y12562D1*
Y12571D1*
X18540Y12600D1*
X18559Y12619D1*
X18588Y12629D1*
X18598D1*
X18626Y12619D1*
X18645Y12600D1*
X18655Y12562D1*
Y12514D1*
X18645Y12466D1*
X18626Y12437D1*
X18598Y12428D1*
X18579D1*
X18550Y12437D1*
X18540Y12457D1*
X11750Y11956D2*
X11740Y11975D1*
X11721Y11994D1*
X11702Y12004D1*
X11664D1*
X11645Y11994D1*
X11626Y11975D1*
X11616Y11956D1*
X11606Y11927D1*
Y11879D1*
X11616Y11851D1*
X11626Y11832D1*
X11645Y11813D1*
X11664Y11803D1*
X11702D1*
X11721Y11813D1*
X11740Y11832D1*
X11750Y11851D1*
X11889Y12004D2*
X11994D1*
X11937Y11927D1*
X11966D1*
X11985Y11918D1*
X11994Y11908D1*
X12004Y11879D1*
Y11860D1*
X11994Y11832D1*
X11975Y11812D1*
X11946Y11803D1*
X11918D1*
X11889Y11812D1*
X11880Y11822D1*
X11870Y11841D1*
X12181Y12004D2*
X12152Y11994D1*
X12133Y11965D1*
X12124Y11918D1*
Y11889D1*
X12133Y11841D1*
X12152Y11812D1*
X12181Y11803D1*
X12200D1*
X12229Y11812D1*
X12248Y11841D1*
X12258Y11889D1*
Y11918D1*
X12248Y11965D1*
X12229Y11994D1*
X12200Y12004D1*
X12181D1*
X12248Y11965D2*
X12133Y11841D1*
X13673Y11206D2*
X13663Y11225D1*
X13644Y11244D1*
X13625Y11254D1*
X13587D1*
X13568Y11244D1*
X13549Y11225D1*
X13539Y11206D1*
X13529Y11177D1*
Y11129D1*
X13539Y11101D1*
X13549Y11082D1*
X13568Y11063D1*
X13587Y11053D1*
X13625D1*
X13644Y11063D1*
X13663Y11082D1*
X13673Y11101D1*
X13812Y11254D2*
X13917D1*
X13860Y11177D1*
X13889D1*
X13908Y11168D1*
X13917Y11158D1*
X13927Y11129D1*
Y11110D1*
X13917Y11082D1*
X13898Y11062D1*
X13869Y11053D1*
X13841D1*
X13812Y11062D1*
X13803Y11072D1*
X13793Y11091D1*
X14047Y11215D2*
X14066Y11225D1*
X14095Y11254D1*
Y11053D1*
X13630Y10456D2*
X13620Y10475D1*
X13601Y10494D1*
X13582Y10504D1*
X13544D1*
X13525Y10494D1*
X13506Y10475D1*
X13496Y10456D1*
X13486Y10427D1*
Y10379D1*
X13496Y10351D1*
X13506Y10332D1*
X13525Y10313D1*
X13544Y10303D1*
X13582D1*
X13601Y10313D1*
X13620Y10332D1*
X13630Y10351D1*
X13769Y10504D2*
X13874D1*
X13817Y10427D1*
X13846D1*
X13865Y10418D1*
X13874Y10408D1*
X13884Y10379D1*
Y10360D1*
X13874Y10332D1*
X13855Y10312D1*
X13826Y10303D1*
X13798D1*
X13769Y10312D1*
X13760Y10322D1*
X13750Y10341D1*
X14013Y10456D2*
Y10465D1*
X14023Y10485D1*
X14032Y10494D1*
X14052Y10504D1*
X14090D1*
X14109Y10494D1*
X14118Y10485D1*
X14128Y10465D1*
Y10446D1*
X14118Y10427D1*
X14099Y10399D1*
X14004Y10303D1*
X14138D1*
X13630Y9706D2*
X13620Y9725D1*
X13601Y9744D1*
X13582Y9754D1*
X13544D1*
X13525Y9744D1*
X13506Y9725D1*
X13496Y9706D1*
X13486Y9677D1*
Y9629D1*
X13496Y9601D1*
X13506Y9582D1*
X13525Y9563D1*
X13544Y9553D1*
X13582D1*
X13601Y9563D1*
X13620Y9582D1*
X13630Y9601D1*
X13769Y9754D2*
X13874D1*
X13817Y9677D1*
X13846D1*
X13865Y9668D1*
X13874Y9658D1*
X13884Y9629D1*
Y9610D1*
X13874Y9582D1*
X13855Y9562D1*
X13826Y9553D1*
X13798D1*
X13769Y9562D1*
X13760Y9572D1*
X13750Y9591D1*
X14023Y9754D2*
X14128D1*
X14071Y9677D1*
X14099D1*
X14118Y9668D1*
X14128Y9658D1*
X14138Y9629D1*
Y9610D1*
X14128Y9582D1*
X14109Y9562D1*
X14080Y9553D1*
X14052D1*
X14023Y9562D1*
X14013Y9572D1*
X14004Y9591D1*
X7548Y24197D2*
X7538Y24216D1*
X7519Y24235D1*
X7500Y24244D1*
X7462D1*
X7443Y24235D1*
X7424Y24216D1*
X7414Y24197D1*
X7404Y24168D1*
Y24120D1*
X7414Y24091D1*
X7424Y24072D1*
X7443Y24053D1*
X7462Y24044D1*
X7500D1*
X7519Y24053D1*
X7538Y24072D1*
X7548Y24091D1*
X7802Y24244D2*
Y24044D1*
X7668Y24244D1*
Y24044D1*
X7922Y24206D2*
X7941Y24216D1*
X7970Y24244D1*
Y24044D1*
X16702Y28904D2*
Y28703D1*
X16769D1*
X16797Y28713D1*
X16817Y28732D1*
X16826Y28751D1*
X16836Y28779D1*
Y28827D1*
X16826Y28856D1*
X16817Y28875D1*
X16797Y28894D1*
X16769Y28904D1*
X16702D1*
X16956Y28865D2*
X16975Y28875D1*
X17003Y28904D1*
Y28703D1*
X20240Y25875D2*
Y25674D1*
X20307D1*
X20335Y25684D1*
X20355Y25703D1*
X20364Y25722D1*
X20374Y25751D1*
Y25799D1*
X20364Y25828D1*
X20355Y25847D1*
X20335Y25866D1*
X20307Y25875D1*
X20240D1*
X20503Y25827D2*
Y25837D1*
X20513Y25856D1*
X20522Y25866D1*
X20542Y25875D1*
X20580D1*
X20599Y25866D1*
X20608Y25856D1*
X20618Y25837D1*
Y25818D1*
X20608Y25799D1*
X20589Y25770D1*
X20494Y25674D1*
X20628D1*
X10165Y29747D2*
X10041D1*
Y29546D1*
Y29651D2*
X10117D1*
X10285Y29708D2*
X10304Y29718D1*
X10333Y29747D1*
Y29546D1*
X13906Y33367D2*
Y33167D1*
X14170Y33320D2*
X14160Y33339D1*
X14141Y33358D1*
X14122Y33367D1*
X14084D1*
X14065Y33358D1*
X14046Y33339D1*
X14036Y33320D1*
X14026Y33291D1*
Y33243D1*
X14036Y33215D1*
X14046Y33195D1*
X14065Y33176D1*
X14084Y33167D1*
X14122D1*
X14141Y33176D1*
X14160Y33195D1*
X14170Y33215D1*
X14290Y33329D2*
X14309Y33339D1*
X14338Y33367D1*
Y33167D1*
X13868Y31457D2*
Y31256D1*
X14132Y31409D2*
X14122Y31428D1*
X14103Y31447D1*
X14084Y31457D1*
X14046D1*
X14026Y31447D1*
X14007Y31428D1*
X13998Y31409D1*
X13988Y31380D1*
Y31332D1*
X13998Y31304D1*
X14007Y31284D1*
X14026Y31265D1*
X14046Y31256D1*
X14084D1*
X14103Y31265D1*
X14122Y31284D1*
X14132Y31304D1*
X14261Y31409D2*
Y31418D1*
X14271Y31437D1*
X14280Y31447D1*
X14300Y31456D1*
X14338D1*
X14357Y31447D1*
X14366Y31437D1*
X14376Y31418D1*
Y31399D1*
X14366Y31380D1*
X14347Y31351D1*
X14252Y31256D1*
X14386D1*
X13521Y27278D2*
Y27077D1*
X13784Y27230D2*
X13775Y27249D1*
X13756Y27268D1*
X13737Y27278D1*
X13698D1*
X13679Y27268D1*
X13660Y27249D1*
X13650Y27230D1*
X13641Y27201D1*
Y27153D1*
X13650Y27125D1*
X13660Y27106D1*
X13679Y27087D1*
X13698Y27077D1*
X13737D1*
X13756Y27087D1*
X13775Y27106D1*
X13784Y27125D1*
X13924Y27278D2*
X14029D1*
X13971Y27201D1*
X14000D1*
X14019Y27192D1*
X14029Y27182D1*
X14038Y27153D1*
Y27134D1*
X14029Y27106D1*
X14010Y27086D1*
X13981Y27077D1*
X13952D1*
X13924Y27086D1*
X13914Y27096D1*
X13904Y27115D1*
X13549Y18741D2*
Y18540D1*
X13812Y18693D2*
X13803Y18712D1*
X13783Y18731D1*
X13764Y18741D1*
X13726D1*
X13707Y18731D1*
X13688Y18712D1*
X13678Y18693D1*
X13669Y18664D1*
Y18616D1*
X13678Y18588D1*
X13688Y18568D1*
X13707Y18549D1*
X13726Y18540D1*
X13764D1*
X13783Y18549D1*
X13803Y18568D1*
X13812Y18588D1*
X14028Y18540D2*
Y18740D1*
X13932Y18607D1*
X14075D1*
X21790Y16459D2*
Y16258D1*
X22053Y16411D2*
X22044Y16430D1*
X22025Y16449D1*
X22006Y16459D1*
X21967D1*
X21948Y16449D1*
X21929Y16430D1*
X21919Y16411D1*
X21910Y16382D1*
Y16334D1*
X21919Y16306D1*
X21929Y16286D1*
X21948Y16267D1*
X21967Y16258D1*
X22006D1*
X22025Y16267D1*
X22044Y16286D1*
X22053Y16306D1*
X22288Y16458D2*
X22193D1*
X22183Y16372D1*
X22193Y16382D1*
X22221Y16392D1*
X22250D1*
X22279Y16382D1*
X22298Y16363D1*
X22307Y16334D1*
Y16315D1*
X22298Y16286D1*
X22279Y16267D1*
X22250Y16258D1*
X22221D1*
X22193Y16267D1*
X22183Y16277D1*
X22173Y16296D1*
X6569Y16905D2*
Y16704D1*
X6833Y16857D2*
X6823Y16876D1*
X6804Y16895D1*
X6785Y16905D1*
X6747D1*
X6728Y16895D1*
X6709Y16876D1*
X6699Y16857D1*
X6689Y16828D1*
Y16780D1*
X6699Y16752D1*
X6709Y16733D1*
X6728Y16714D1*
X6747Y16704D1*
X6785D1*
X6804Y16714D1*
X6823Y16733D1*
X6833Y16752D1*
X7068Y16876D2*
X7058Y16895D1*
X7029Y16905D1*
X7010D1*
X6982Y16895D1*
X6962Y16866D1*
X6953Y16819D1*
Y16771D1*
X6962Y16733D1*
X6982Y16713D1*
X7010Y16704D1*
X7020D1*
X7048Y16713D1*
X7068Y16733D1*
X7077Y16761D1*
Y16771D1*
X7068Y16800D1*
X7048Y16819D1*
X7020Y16828D1*
X7010D1*
X6982Y16819D1*
X6962Y16800D1*
X6953Y16771D1*
X17178Y16222D2*
Y16021D1*
X17442Y16175D2*
X17432Y16194D1*
X17413Y16213D1*
X17394Y16222D1*
X17356D1*
X17337Y16213D1*
X17318Y16194D1*
X17308Y16175D1*
X17298Y16146D1*
Y16098D1*
X17308Y16069D1*
X17318Y16050D1*
X17337Y16031D1*
X17356Y16021D1*
X17394D1*
X17413Y16031D1*
X17432Y16050D1*
X17442Y16069D1*
X17600Y16021D2*
X17696Y16222D1*
X17562D1*
X13553Y14662D2*
Y14461D1*
X13817Y14614D2*
X13807Y14633D1*
X13788Y14652D1*
X13769Y14662D1*
X13731D1*
X13712Y14652D1*
X13693Y14633D1*
X13683Y14614D1*
X13673Y14585D1*
Y14537D1*
X13683Y14509D1*
X13693Y14490D1*
X13712Y14471D1*
X13731Y14461D1*
X13769D1*
X13788Y14471D1*
X13807Y14490D1*
X13817Y14509D1*
X13985Y14662D2*
X13956Y14652D1*
X13946Y14633D1*
Y14614D1*
X13956Y14595D1*
X13975Y14585D1*
X14013Y14576D1*
X14042Y14566D1*
X14061Y14547D1*
X14071Y14528D1*
Y14499D1*
X14061Y14480D1*
X14052Y14470D1*
X14023Y14461D1*
X13985D1*
X13956Y14470D1*
X13946Y14480D1*
X13937Y14499D1*
Y14528D1*
X13946Y14547D1*
X13966Y14566D1*
X13994Y14576D1*
X14032Y14585D1*
X14052Y14595D1*
X14061Y14614D1*
Y14633D1*
X14052Y14652D1*
X14023Y14662D1*
X13985D1*
X19368Y29612D2*
Y29459D1*
X19359Y29430D1*
X19349Y29420D1*
X19330Y29411D1*
X19311D1*
X19292Y29420D1*
X19282Y29430D1*
X19273Y29459D1*
Y29478D1*
X19488Y29573D2*
X19508Y29583D1*
X19536Y29611D1*
Y29411D1*
X8700Y32759D2*
Y32606D1*
X8691Y32578D1*
X8681Y32568D1*
X8662Y32558D1*
X8643D1*
X8624Y32568D1*
X8614Y32578D1*
X8605Y32606D1*
Y32625D1*
X8830Y32711D2*
Y32721D1*
X8840Y32740D1*
X8849Y32750D1*
X8868Y32759D1*
X8907D1*
X8926Y32750D1*
X8935Y32740D1*
X8945Y32721D1*
Y32702D1*
X8935Y32683D1*
X8916Y32654D1*
X8820Y32558D1*
X8954D1*
X19853Y24744D2*
Y24591D1*
X19844Y24563D1*
X19834Y24553D1*
X19815Y24544D1*
X19796D1*
X19777Y24553D1*
X19767Y24563D1*
X19757Y24591D1*
Y24610D1*
X20069Y24544D2*
Y24744D1*
X19973Y24610D1*
X20117D1*
X20858Y24744D2*
Y24591D1*
X20848Y24563D1*
X20839Y24553D1*
X20820Y24544D1*
X20800D1*
X20781Y24553D1*
X20772Y24563D1*
X20762Y24591D1*
Y24610D1*
X21093Y24744D2*
X20997D1*
X20988Y24658D1*
X20997Y24668D1*
X21026Y24677D1*
X21054D1*
X21083Y24668D1*
X21102Y24649D1*
X21112Y24620D1*
Y24601D1*
X21102Y24572D1*
X21083Y24553D1*
X21054Y24544D1*
X21026D1*
X20997Y24553D1*
X20988Y24563D1*
X20978Y24582D1*
X8393Y9930D2*
Y9777D1*
X8383Y9748D1*
X8374Y9739D1*
X8355Y9729D1*
X8335D1*
X8316Y9739D1*
X8307Y9748D1*
X8297Y9777D1*
Y9796D1*
X8628Y9901D2*
X8618Y9920D1*
X8589Y9930D1*
X8570D1*
X8542Y9920D1*
X8522Y9892D1*
X8513Y9844D1*
Y9796D1*
X8522Y9758D1*
X8542Y9739D1*
X8570Y9729D1*
X8580D1*
X8608Y9739D1*
X8628Y9758D1*
X8637Y9787D1*
Y9796D1*
X8628Y9825D1*
X8608Y9844D1*
X8580Y9853D1*
X8570D1*
X8542Y9844D1*
X8522Y9825D1*
X8513Y9796D1*
X18325Y9867D2*
Y9715D1*
X18316Y9686D1*
X18306Y9676D1*
X18287Y9667D1*
X18268D1*
X18249Y9676D1*
X18239Y9686D1*
X18230Y9715D1*
Y9734D1*
X18484Y9667D2*
X18579Y9867D1*
X18445D1*
X5921Y33414D2*
Y33213D1*
X6035D1*
X6155Y33375D2*
X6175Y33385D1*
X6203Y33414D1*
Y33213D1*
X9252Y26227D2*
Y26026D1*
X9366D1*
X9496Y26179D2*
Y26189D1*
X9506Y26208D1*
X9515Y26218D1*
X9534Y26227D1*
X9573D1*
X9592Y26218D1*
X9601Y26208D1*
X9611Y26189D1*
Y26170D1*
X9601Y26151D1*
X9582Y26122D1*
X9486Y26026D1*
X9620D1*
X12661Y32408D2*
X12747D1*
X12776Y32418D1*
X12786Y32427D1*
X12795Y32446D1*
Y32466D1*
X12786Y32485D1*
X12776Y32494D1*
X12747Y32504D1*
X12661D1*
Y32303D1*
X12728Y32408D2*
X12795Y32303D1*
X12915Y32465D2*
X12934Y32475D1*
X12963Y32504D1*
Y32303D1*
X12618Y30908D2*
X12704D1*
X12733Y30918D1*
X12743Y30927D1*
X12752Y30946D1*
Y30966D1*
X12743Y30985D1*
X12733Y30994D1*
X12704Y31004D1*
X12618D1*
Y30803D1*
X12685Y30908D2*
X12752Y30803D1*
X12882Y30956D2*
Y30965D1*
X12891Y30985D1*
X12901Y30994D1*
X12920Y31004D1*
X12958D1*
X12977Y30994D1*
X12987Y30985D1*
X12996Y30965D1*
Y30946D1*
X12987Y30927D1*
X12968Y30899D1*
X12872Y30803D1*
X13006D1*
X12618Y30158D2*
X12704D1*
X12733Y30168D1*
X12743Y30177D1*
X12752Y30196D1*
Y30216D1*
X12743Y30235D1*
X12733Y30244D1*
X12704Y30254D1*
X12618D1*
Y30053D1*
X12685Y30158D2*
X12752Y30053D1*
X12891Y30254D2*
X12996D1*
X12939Y30177D1*
X12968D1*
X12987Y30168D1*
X12996Y30158D1*
X13006Y30129D1*
Y30110D1*
X12996Y30082D1*
X12977Y30062D1*
X12949Y30053D1*
X12920D1*
X12891Y30062D1*
X12882Y30072D1*
X12872Y30091D1*
X12613Y29408D2*
X12699D1*
X12728Y29418D1*
X12738Y29427D1*
X12747Y29446D1*
Y29466D1*
X12738Y29485D1*
X12728Y29494D1*
X12699Y29504D1*
X12613D1*
Y29303D1*
X12680Y29408D2*
X12747Y29303D1*
X12963D2*
Y29504D1*
X12867Y29370D1*
X13011D1*
X13993Y28596D2*
X14079D1*
X14108Y28605D1*
X14118Y28615D1*
X14127Y28634D1*
Y28653D1*
X14118Y28672D1*
X14108Y28682D1*
X14079Y28691D1*
X13993D1*
Y28490D1*
X14060Y28596D2*
X14127Y28490D1*
X14362Y28691D2*
X14266D1*
X14257Y28605D1*
X14266Y28615D1*
X14295Y28624D1*
X14324D1*
X14352Y28615D1*
X14371Y28596D1*
X14381Y28567D1*
Y28548D1*
X14371Y28519D1*
X14352Y28500D1*
X14324Y28490D1*
X14295D1*
X14266Y28500D1*
X14257Y28510D1*
X14247Y28529D1*
X15373Y28721D2*
X15459D1*
X15488Y28730D1*
X15497Y28740D1*
X15507Y28759D1*
Y28778D1*
X15497Y28797D1*
X15488Y28807D1*
X15459Y28816D1*
X15373D1*
Y28615D1*
X15440Y28721D2*
X15507Y28615D1*
X15742Y28788D2*
X15732Y28807D1*
X15703Y28816D1*
X15684D1*
X15656Y28807D1*
X15636Y28778D1*
X15627Y28730D1*
Y28682D1*
X15636Y28644D1*
X15656Y28625D1*
X15684Y28615D1*
X15694D1*
X15722Y28625D1*
X15742Y28644D1*
X15751Y28673D1*
Y28682D1*
X15742Y28711D1*
X15722Y28730D1*
X15694Y28740D1*
X15684D1*
X15656Y28730D1*
X15636Y28711D1*
X15627Y28682D1*
X18118Y27971D2*
X18204D1*
X18233Y27980D1*
X18243Y27990D1*
X18252Y28009D1*
Y28028D1*
X18243Y28047D1*
X18233Y28057D1*
X18204Y28066D1*
X18118D1*
Y27865D1*
X18185Y27971D2*
X18252Y27865D1*
X18410D2*
X18506Y28066D1*
X18372D1*
X9181Y25408D2*
X9267D1*
X9295Y25418D1*
X9305Y25427D1*
X9315Y25446D1*
Y25466D1*
X9305Y25485D1*
X9295Y25494D1*
X9267Y25504D1*
X9181D1*
Y25303D1*
X9248Y25408D2*
X9315Y25303D1*
X9482Y25504D2*
X9454Y25494D1*
X9444Y25475D1*
Y25456D1*
X9454Y25437D1*
X9473Y25427D1*
X9511Y25418D1*
X9540Y25408D1*
X9559Y25389D1*
X9568Y25370D1*
Y25341D1*
X9559Y25322D1*
X9549Y25312D1*
X9521Y25303D1*
X9482D1*
X9454Y25312D1*
X9444Y25322D1*
X9435Y25341D1*
Y25370D1*
X9444Y25389D1*
X9463Y25408D1*
X9492Y25418D1*
X9530Y25427D1*
X9549Y25437D1*
X9559Y25456D1*
Y25475D1*
X9549Y25494D1*
X9521Y25504D1*
X9482D1*
X19060Y25721D2*
X19146D1*
X19175Y25730D1*
X19185Y25740D1*
X19194Y25759D1*
Y25778D1*
X19185Y25797D1*
X19175Y25807D1*
X19146Y25816D1*
X19060D1*
Y25615D1*
X19127Y25721D2*
X19194Y25615D1*
X19439Y25749D2*
X19429Y25721D1*
X19410Y25701D1*
X19381Y25692D1*
X19372D1*
X19343Y25701D1*
X19324Y25721D1*
X19314Y25749D1*
Y25759D1*
X19324Y25788D1*
X19343Y25807D1*
X19372Y25816D1*
X19381D1*
X19410Y25807D1*
X19429Y25788D1*
X19439Y25749D1*
Y25701D1*
X19429Y25654D1*
X19410Y25625D1*
X19381Y25615D1*
X19362D1*
X19334Y25625D1*
X19324Y25644D1*
X9097Y24846D2*
X9183D1*
X9211Y24855D1*
X9221Y24865D1*
X9231Y24884D1*
Y24903D1*
X9221Y24922D1*
X9211Y24932D1*
X9183Y24941D1*
X9097D1*
Y24740D1*
X9164Y24846D2*
X9231Y24740D1*
X9351Y24903D2*
X9370Y24913D1*
X9399Y24941D1*
Y24740D1*
X9576Y24941D2*
X9547Y24932D1*
X9528Y24903D1*
X9519Y24855D1*
Y24826D1*
X9528Y24779D1*
X9547Y24750D1*
X9576Y24740D1*
X9595D1*
X9624Y24750D1*
X9643Y24779D1*
X9652Y24826D1*
Y24855D1*
X9643Y24903D1*
X9624Y24932D1*
X9595Y24941D1*
X9576D1*
X9643Y24903D2*
X9528Y24779D1*
X11702Y16946D2*
X11788D1*
X11817Y16955D1*
X11827Y16965D1*
X11836Y16984D1*
Y17003D1*
X11827Y17022D1*
X11817Y17032D1*
X11788Y17041D1*
X11702D1*
Y16840D1*
X11769Y16946D2*
X11836Y16840D1*
X11956Y17003D2*
X11975Y17013D1*
X12004Y17041D1*
Y16840D1*
X12124Y17003D2*
X12143Y17013D1*
X12172Y17041D1*
Y16840D1*
X15409Y16946D2*
X15495D1*
X15524Y16955D1*
X15534Y16965D1*
X15543Y16984D1*
Y17003D1*
X15534Y17022D1*
X15524Y17032D1*
X15495Y17041D1*
X15409D1*
Y16840D1*
X15476Y16946D2*
X15543Y16840D1*
X15663Y17003D2*
X15682Y17013D1*
X15711Y17041D1*
Y16840D1*
X15841Y16993D2*
Y17003D1*
X15850Y17022D1*
X15860Y17032D1*
X15879Y17041D1*
X15917D1*
X15936Y17032D1*
X15946Y17022D1*
X15955Y17003D1*
Y16984D1*
X15946Y16965D1*
X15927Y16936D1*
X15831Y16840D1*
X15965D1*
X11659Y16221D2*
X11745D1*
X11774Y16230D1*
X11784Y16240D1*
X11793Y16259D1*
Y16278D1*
X11784Y16297D1*
X11774Y16307D1*
X11745Y16316D1*
X11659D1*
Y16115D1*
X11726Y16221D2*
X11793Y16115D1*
X11913Y16278D2*
X11932Y16288D1*
X11961Y16316D1*
Y16115D1*
X12100Y16316D2*
X12205D1*
X12148Y16240D1*
X12177D1*
X12196Y16230D1*
X12205Y16221D1*
X12215Y16192D1*
Y16173D1*
X12205Y16144D1*
X12186Y16125D1*
X12157Y16115D1*
X12129D1*
X12100Y16125D1*
X12091Y16135D1*
X12081Y16154D1*
X15404Y16158D2*
X15490D1*
X15519Y16168D1*
X15529Y16177D1*
X15538Y16196D1*
Y16216D1*
X15529Y16235D1*
X15519Y16244D1*
X15490Y16254D1*
X15404D1*
Y16053D1*
X15471Y16158D2*
X15538Y16053D1*
X15658Y16215D2*
X15678Y16225D1*
X15706Y16254D1*
Y16053D1*
X15922D2*
Y16254D1*
X15826Y16120D1*
X15970D1*
X11659Y14658D2*
X11745D1*
X11774Y14668D1*
X11784Y14677D1*
X11793Y14696D1*
Y14716D1*
X11784Y14735D1*
X11774Y14744D1*
X11745Y14754D1*
X11659D1*
Y14553D1*
X11726Y14658D2*
X11793Y14553D1*
X11913Y14715D2*
X11932Y14725D1*
X11961Y14754D1*
Y14553D1*
X12196Y14754D2*
X12100D1*
X12091Y14668D1*
X12100Y14677D1*
X12129Y14687D1*
X12157D1*
X12186Y14677D1*
X12205Y14658D1*
X12215Y14629D1*
Y14610D1*
X12205Y14582D1*
X12186Y14562D1*
X12157Y14553D1*
X12129D1*
X12100Y14562D1*
X12091Y14572D1*
X12081Y14591D1*
X10289Y13908D2*
X10375D1*
X10404Y13918D1*
X10413Y13927D1*
X10423Y13946D1*
Y13966D1*
X10413Y13985D1*
X10404Y13994D1*
X10375Y14004D1*
X10289D1*
Y13803D1*
X10356Y13908D2*
X10423Y13803D1*
X10543Y13965D2*
X10562Y13975D1*
X10591Y14004D1*
Y13803D1*
X10826Y13975D2*
X10816Y13994D1*
X10787Y14004D1*
X10768D1*
X10740Y13994D1*
X10720Y13965D1*
X10711Y13918D1*
Y13870D1*
X10720Y13832D1*
X10740Y13812D1*
X10768Y13803D1*
X10778D1*
X10806Y13812D1*
X10826Y13832D1*
X10835Y13860D1*
Y13870D1*
X10826Y13899D1*
X10806Y13918D1*
X10778Y13927D1*
X10768D1*
X10740Y13918D1*
X10720Y13899D1*
X10711Y13870D1*
X11659Y12658D2*
X11745D1*
X11774Y12668D1*
X11784Y12677D1*
X11793Y12696D1*
Y12716D1*
X11784Y12735D1*
X11774Y12744D1*
X11745Y12754D1*
X11659D1*
Y12553D1*
X11726Y12658D2*
X11793Y12553D1*
X11913Y12715D2*
X11932Y12725D1*
X11961Y12754D1*
Y12553D1*
X12119D2*
X12215Y12754D1*
X12081D1*
X10284Y11908D2*
X10370D1*
X10399Y11918D1*
X10409Y11927D1*
X10418Y11946D1*
Y11966D1*
X10409Y11985D1*
X10399Y11994D1*
X10370Y12004D1*
X10284D1*
Y11803D1*
X10351Y11908D2*
X10418Y11803D1*
X10538Y11965D2*
X10557Y11975D1*
X10586Y12004D1*
Y11803D1*
X10754Y12004D2*
X10725Y11994D1*
X10716Y11975D1*
Y11956D1*
X10725Y11937D1*
X10744Y11927D1*
X10783Y11918D1*
X10811Y11908D1*
X10830Y11889D1*
X10840Y11870D1*
Y11841D1*
X10830Y11822D1*
X10821Y11812D1*
X10792Y11803D1*
X10754D1*
X10725Y11812D1*
X10716Y11822D1*
X10706Y11841D1*
Y11870D1*
X10716Y11889D1*
X10735Y11908D1*
X10763Y11918D1*
X10802Y11927D1*
X10821Y11937D1*
X10830Y11956D1*
Y11975D1*
X10821Y11994D1*
X10792Y12004D1*
X10754D1*
X15414Y11908D2*
X15500D1*
X15529Y11918D1*
X15538Y11927D1*
X15548Y11946D1*
Y11966D1*
X15538Y11985D1*
X15529Y11994D1*
X15500Y12004D1*
X15414D1*
Y11803D1*
X15481Y11908D2*
X15548Y11803D1*
X15668Y11965D2*
X15687Y11975D1*
X15716Y12004D1*
Y11803D1*
X15960Y11937D2*
X15950Y11908D1*
X15931Y11889D1*
X15903Y11879D1*
X15893D1*
X15864Y11889D1*
X15845Y11908D1*
X15836Y11937D1*
Y11946D1*
X15845Y11975D1*
X15864Y11994D1*
X15893Y12004D1*
X15903D1*
X15931Y11994D1*
X15950Y11975D1*
X15960Y11937D1*
Y11889D1*
X15950Y11841D1*
X15931Y11812D1*
X15903Y11803D1*
X15884D1*
X15855Y11812D1*
X15845Y11832D1*
X16741Y11908D2*
X16827D1*
X16856Y11918D1*
X16866Y11927D1*
X16875Y11946D1*
Y11966D1*
X16866Y11985D1*
X16856Y11994D1*
X16827Y12004D1*
X16741D1*
Y11803D1*
X16808Y11908D2*
X16875Y11803D1*
X17005Y11956D2*
Y11965D1*
X17014Y11985D1*
X17024Y11994D1*
X17043Y12004D1*
X17081D1*
X17100Y11994D1*
X17110Y11985D1*
X17119Y11965D1*
Y11946D1*
X17110Y11927D1*
X17091Y11899D1*
X16995Y11803D1*
X17129D1*
X17306Y12004D2*
X17278Y11994D1*
X17259Y11965D1*
X17249Y11918D1*
Y11889D1*
X17259Y11841D1*
X17278Y11812D1*
X17306Y11803D1*
X17325D1*
X17354Y11812D1*
X17373Y11841D1*
X17383Y11889D1*
Y11918D1*
X17373Y11965D1*
X17354Y11994D1*
X17325Y12004D1*
X17306D1*
X17373Y11965D2*
X17259Y11841D1*
X10284Y11158D2*
X10370D1*
X10399Y11168D1*
X10409Y11177D1*
X10418Y11196D1*
Y11216D1*
X10409Y11235D1*
X10399Y11244D1*
X10370Y11254D1*
X10284D1*
Y11053D1*
X10351Y11158D2*
X10418Y11053D1*
X10548Y11206D2*
Y11215D1*
X10557Y11235D1*
X10567Y11244D1*
X10586Y11254D1*
X10624D1*
X10643Y11244D1*
X10653Y11235D1*
X10662Y11215D1*
Y11196D1*
X10653Y11177D1*
X10634Y11149D1*
X10538Y11053D1*
X10672D1*
X10792Y11215D2*
X10811Y11225D1*
X10840Y11254D1*
Y11053D1*
X11616Y11158D2*
X11702D1*
X11731Y11168D1*
X11741Y11177D1*
X11750Y11196D1*
Y11216D1*
X11741Y11235D1*
X11731Y11244D1*
X11702Y11254D1*
X11616D1*
Y11053D1*
X11683Y11158D2*
X11750Y11053D1*
X11880Y11206D2*
Y11215D1*
X11889Y11235D1*
X11899Y11244D1*
X11918Y11254D1*
X11956D1*
X11975Y11244D1*
X11985Y11235D1*
X11994Y11215D1*
Y11196D1*
X11985Y11177D1*
X11966Y11149D1*
X11870Y11053D1*
X12004D1*
X12134Y11206D2*
Y11215D1*
X12143Y11235D1*
X12153Y11244D1*
X12172Y11254D1*
X12210D1*
X12229Y11244D1*
X12239Y11235D1*
X12248Y11215D1*
Y11196D1*
X12239Y11177D1*
X12220Y11149D1*
X12124Y11053D1*
X12258D1*
X15366Y11158D2*
X15452D1*
X15481Y11168D1*
X15491Y11177D1*
X15500Y11196D1*
Y11216D1*
X15491Y11235D1*
X15481Y11244D1*
X15452Y11254D1*
X15366D1*
Y11053D1*
X15433Y11158D2*
X15500Y11053D1*
X15630Y11206D2*
Y11215D1*
X15639Y11235D1*
X15649Y11244D1*
X15668Y11254D1*
X15706D1*
X15725Y11244D1*
X15735Y11235D1*
X15744Y11215D1*
Y11196D1*
X15735Y11177D1*
X15716Y11149D1*
X15620Y11053D1*
X15754D1*
X15893Y11254D2*
X15998D1*
X15941Y11177D1*
X15970D1*
X15989Y11168D1*
X15998Y11158D1*
X16008Y11129D1*
Y11110D1*
X15998Y11082D1*
X15979Y11062D1*
X15950Y11053D1*
X15922D1*
X15893Y11062D1*
X15884Y11072D1*
X15874Y11091D1*
X16736Y11158D2*
X16822D1*
X16851Y11168D1*
X16861Y11177D1*
X16870Y11196D1*
Y11216D1*
X16861Y11235D1*
X16851Y11244D1*
X16822Y11254D1*
X16736D1*
Y11053D1*
X16803Y11158D2*
X16870Y11053D1*
X17000Y11206D2*
Y11215D1*
X17010Y11235D1*
X17019Y11244D1*
X17038Y11254D1*
X17076D1*
X17096Y11244D1*
X17105Y11235D1*
X17115Y11215D1*
Y11196D1*
X17105Y11177D1*
X17086Y11149D1*
X16990Y11053D1*
X17124D1*
X17340D2*
Y11254D1*
X17244Y11120D1*
X17388D1*
X11616Y10408D2*
X11702D1*
X11731Y10418D1*
X11741Y10427D1*
X11750Y10446D1*
Y10466D1*
X11741Y10485D1*
X11731Y10494D1*
X11702Y10504D1*
X11616D1*
Y10303D1*
X11683Y10408D2*
X11750Y10303D1*
X11880Y10456D2*
Y10465D1*
X11889Y10485D1*
X11899Y10494D1*
X11918Y10504D1*
X11956D1*
X11975Y10494D1*
X11985Y10485D1*
X11994Y10465D1*
Y10446D1*
X11985Y10427D1*
X11966Y10399D1*
X11870Y10303D1*
X12004D1*
X12239Y10504D2*
X12143D1*
X12134Y10418D1*
X12143Y10427D1*
X12172Y10437D1*
X12200D1*
X12229Y10427D1*
X12248Y10408D1*
X12258Y10379D1*
Y10360D1*
X12248Y10332D1*
X12229Y10312D1*
X12200Y10303D1*
X12172D1*
X12143Y10312D1*
X12134Y10322D1*
X12124Y10341D1*
X15371Y10408D2*
X15457D1*
X15486Y10418D1*
X15495Y10427D1*
X15505Y10446D1*
Y10466D1*
X15495Y10485D1*
X15486Y10494D1*
X15457Y10504D1*
X15371D1*
Y10303D1*
X15438Y10408D2*
X15505Y10303D1*
X15635Y10456D2*
Y10465D1*
X15644Y10485D1*
X15654Y10494D1*
X15673Y10504D1*
X15711D1*
X15730Y10494D1*
X15740Y10485D1*
X15749Y10465D1*
Y10446D1*
X15740Y10427D1*
X15721Y10399D1*
X15625Y10303D1*
X15759D1*
X15994Y10475D2*
X15984Y10494D1*
X15955Y10504D1*
X15936D1*
X15908Y10494D1*
X15888Y10465D1*
X15879Y10418D1*
Y10370D1*
X15888Y10332D1*
X15908Y10312D1*
X15936Y10303D1*
X15946D1*
X15974Y10312D1*
X15994Y10332D1*
X16003Y10360D1*
Y10370D1*
X15994Y10399D1*
X15974Y10418D1*
X15946Y10427D1*
X15936D1*
X15908Y10418D1*
X15888Y10399D1*
X15879Y10370D1*
X13491Y8221D2*
X13577D1*
X13606Y8230D1*
X13616Y8240D1*
X13625Y8259D1*
Y8278D1*
X13616Y8297D1*
X13606Y8307D1*
X13577Y8316D1*
X13491D1*
Y8115D1*
X13558Y8221D2*
X13625Y8115D1*
X13755Y8268D2*
Y8278D1*
X13764Y8297D1*
X13774Y8307D1*
X13793Y8316D1*
X13831D1*
X13850Y8307D1*
X13860Y8297D1*
X13869Y8278D1*
Y8259D1*
X13860Y8240D1*
X13841Y8211D1*
X13745Y8115D1*
X13879D1*
X14037D2*
X14133Y8316D1*
X13999D1*
X13795Y36206D2*
X13776Y36225D1*
X13747Y36235D1*
X13709D1*
X13680Y36225D1*
X13661Y36206D1*
Y36187D1*
X13671Y36168D1*
X13680Y36158D1*
X13699Y36149D1*
X13757Y36129D1*
X13776Y36120D1*
X13786Y36110D1*
X13795Y36091D1*
Y36062D1*
X13776Y36043D1*
X13747Y36034D1*
X13709D1*
X13680Y36043D1*
X13661Y36062D1*
X13915Y36196D2*
X13934Y36206D1*
X13963Y36234D1*
Y36034D1*
X11476Y33040D2*
Y32839D1*
X11409Y33040D2*
X11543D1*
X11663Y32935D2*
X11749D1*
X11778Y32944D1*
X11787Y32954D1*
X11797Y32973D1*
Y33001D1*
X11787Y33021D1*
X11778Y33030D1*
X11749Y33040D1*
X11663D1*
Y32839D1*
X11917Y33001D2*
X11936Y33011D1*
X11965Y33040D1*
Y32839D1*
X20786Y20049D2*
X20920Y19848D1*
Y20049D2*
X20786Y19848D1*
X21040Y20010D2*
X21059Y20020D1*
X21088Y20049D1*
Y19848D1*
X7599Y33316D2*
X7733D1*
X7599Y33115D1*
X7733D1*
X7853Y33278D2*
X7872Y33288D1*
X7900Y33316D1*
Y33115D1*
X9931Y33316D2*
X10065D1*
X9931Y33115D1*
X10065D1*
X10194Y33268D2*
Y33278D1*
X10204Y33297D1*
X10213Y33307D1*
X10232Y33316D1*
X10271D1*
X10290Y33307D1*
X10299Y33297D1*
X10309Y33278D1*
Y33259D1*
X10299Y33240D1*
X10280Y33211D1*
X10185Y33115D1*
X10318D1*
X18118Y29504D2*
X18252D1*
X18118Y29303D1*
X18252D1*
X18391Y29504D2*
X18496D1*
X18439Y29427D1*
X18468D1*
X18487Y29418D1*
X18496Y29408D1*
X18506Y29379D1*
Y29360D1*
X18496Y29332D1*
X18477Y29312D1*
X18449Y29303D1*
X18420D1*
X18391Y29312D1*
X18382Y29322D1*
X18372Y29341D1*
X9113Y10441D2*
X9247D1*
X9113Y10240D1*
X9247D1*
X9463D2*
Y10441D1*
X9367Y10307D1*
X9511D1*
X13618Y9066D2*
X13752D1*
X13618Y8865D1*
X13752D1*
X13987Y9066D2*
X13891D1*
X13882Y8980D1*
X13891Y8990D1*
X13920Y8999D1*
X13949D1*
X13977Y8990D1*
X13996Y8971D1*
X14006Y8942D1*
Y8923D1*
X13996Y8894D1*
X13977Y8875D1*
X13949Y8865D1*
X13920D1*
X13891Y8875D1*
X13882Y8885D1*
X13872Y8904D1*
X13228Y20926D2*
D128*
X13203Y20975D1*
X13132Y21046D1*
X13634D1*
X19854Y16046D2*
X19902Y16070D1*
X19974Y16142D1*
Y15640D1*
X21768Y24024D2*
D22*
X21758Y24043D1*
X21739Y24063D1*
X21720Y24072D1*
X21682D1*
X21663Y24063D1*
X21644Y24043D1*
X21634Y24024D1*
X21625Y23996D1*
Y23948D1*
X21634Y23919D1*
X21644Y23900D1*
X21663Y23881D1*
X21682Y23871D1*
X21720D1*
X21739Y23881D1*
X21758Y23900D1*
X21768Y23919D1*
Y23948D1*
X21720D1*
X22022Y24072D2*
Y23871D1*
X21888Y24072D1*
Y23871D1*
X22142Y24072D2*
Y23871D1*
X22209D1*
X22238Y23881D1*
X22257Y23900D1*
X22266Y23919D1*
X22276Y23948D1*
Y23996D1*
X22266Y24024D1*
X22257Y24043D1*
X22238Y24063D1*
X22209Y24072D1*
X22142D1*
X21711Y23058D2*
Y22885D1*
X21625Y22971D2*
X21797D1*
X22031Y23072D2*
X21936D1*
X21926Y22986D1*
X21936Y22995D1*
X21965Y23005D1*
X21993D1*
X22022Y22995D1*
X22041Y22976D1*
X22051Y22948D1*
Y22929D1*
X22041Y22900D1*
X22022Y22881D1*
X21993Y22871D1*
X21965D1*
X21936Y22881D1*
X21926Y22890D1*
X21917Y22909D1*
X18696Y22043D2*
X18677Y22063D1*
X18648Y22072D1*
X18610D1*
X18581Y22063D1*
X18562Y22043D1*
Y22024D1*
X18572Y22005D1*
X18581Y21996D1*
X18600Y21986D1*
X18658Y21967D1*
X18677Y21957D1*
X18686Y21948D1*
X18696Y21929D1*
Y21900D1*
X18677Y21881D1*
X18648Y21871D1*
X18610D1*
X18581Y21881D1*
X18562Y21900D1*
X18816Y22072D2*
Y21871D1*
X18883D1*
X18912Y21881D1*
X18931Y21900D1*
X18940Y21919D1*
X18950Y21948D1*
Y21996D1*
X18940Y22024D1*
X18931Y22043D1*
X18912Y22063D1*
X18883Y22072D1*
X18816D1*
X19223Y21871D2*
X19146Y22072D1*
X19070Y21871D1*
X19099Y21938D2*
X19194D1*
X18696Y20918D2*
X18677Y20938D1*
X18648Y20947D1*
X18610D1*
X18581Y20938D1*
X18562Y20918D1*
Y20899D1*
X18572Y20880D1*
X18581Y20871D1*
X18600Y20861D1*
X18658Y20842D1*
X18677Y20832D1*
X18686Y20823D1*
X18696Y20804D1*
Y20775D1*
X18677Y20756D1*
X18648Y20746D1*
X18610D1*
X18581Y20756D1*
X18562Y20775D1*
X18959Y20899D2*
X18950Y20918D1*
X18931Y20938D1*
X18912Y20947D1*
X18873D1*
X18854Y20938D1*
X18835Y20918D1*
X18825Y20899D1*
X18816Y20871D1*
Y20823D1*
X18825Y20794D1*
X18835Y20775D1*
X18854Y20756D1*
X18873Y20746D1*
X18912D1*
X18931Y20756D1*
X18950Y20775D1*
X18959Y20794D1*
X19079Y20947D2*
Y20746D1*
X19194D1*
X21687Y21914D2*
X21773D1*
X21802Y21924D1*
X21811Y21933D1*
X21821Y21952D1*
Y21971D1*
X21811Y21990D1*
X21802Y22000D1*
X21773Y22010D1*
X21687D1*
Y21809D1*
X21754Y21914D2*
X21821Y21809D1*
X21941Y22010D2*
X22075Y21809D1*
Y22010D2*
X21941Y21809D1*
X21754Y21010D2*
Y20809D1*
X21687Y21010D2*
X21821D1*
X21941D2*
X22075Y20809D1*
Y21010D2*
X21941Y20809D1*
X18768Y24024D2*
X18758Y24043D1*
X18739Y24063D1*
X18720Y24072D1*
X18682D1*
X18663Y24063D1*
X18644Y24043D1*
X18634Y24024D1*
X18625Y23996D1*
Y23948D1*
X18634Y23919D1*
X18644Y23900D1*
X18663Y23881D1*
X18682Y23871D1*
X18720D1*
X18739Y23881D1*
X18758Y23900D1*
X18768Y23919D1*
Y23948D1*
X18720D1*
X19022Y24072D2*
Y23871D1*
X18888Y24072D1*
Y23871D1*
X19142Y24072D2*
Y23871D1*
X19209D1*
X19238Y23881D1*
X19257Y23900D1*
X19266Y23919D1*
X19276Y23948D1*
Y23996D1*
X19266Y24024D1*
X19257Y24043D1*
X19238Y24063D1*
X19209Y24072D1*
X19142D1*
X18836Y23058D2*
Y22885D1*
X18750Y22971D2*
X18922D1*
X19156Y23072D2*
X19061D1*
X19051Y22986D1*
X19061Y22995D1*
X19090Y23005D1*
X19118D1*
X19147Y22995D1*
X19166Y22976D1*
X19176Y22948D1*
Y22929D1*
X19166Y22900D1*
X19147Y22881D1*
X19118Y22871D1*
X19090D1*
X19061Y22881D1*
X19051Y22890D1*
X19042Y22909D1*
M02*
