G04 DipTrace 2.4.0.1*
%INtsunami.frontsilk.gto*%
%MOIN*%
%ADD10C,0.0098*%
%ADD12C,0.001*%
%ADD18C,0.0157*%
%ADD24C,0.006*%
%ADD26C,0.012*%
%ADD38C,0.0125*%
%ADD41C,0.0236*%
%ADD45C,0.0154*%
%ADD146C,0.0109*%
%FSLAX44Y44*%
G04*
G70*
G90*
G75*
G01*
%LNTopSilk*%
%LPD*%
X7992Y17615D2*
D10*
Y16986D1*
X8066Y17615D2*
Y16986D1*
Y17615D2*
X7831D1*
X8066Y16986D2*
X7831D1*
X5509Y15719D2*
X6138D1*
X5509Y15793D2*
X6138D1*
X5509D2*
Y15558D1*
X6138Y15793D2*
Y15558D1*
X7905Y13736D2*
Y14365D1*
X7831Y13736D2*
Y14365D1*
Y13736D2*
X8066D1*
X7831Y14365D2*
X8066D1*
X9187Y21937D2*
X6187D1*
Y23937D1*
X9187D1*
Y21937D1*
X11122Y30208D2*
Y30916D1*
X11752Y30208D2*
Y30916D1*
D18*
X11437Y29519D3*
X21028Y25529D2*
D10*
Y25096D1*
X9557Y31505D2*
Y30755D1*
X10817Y31505D2*
Y30755D1*
X13596Y31066D2*
X14778D1*
X13596Y31933D2*
X14778D1*
Y31066D2*
Y31933D1*
X13596Y31066D2*
Y31342D1*
Y31657D2*
Y31933D1*
Y31342D2*
G03X13596Y31657I0J158D01*
G01*
X17252Y28372D2*
X16622D1*
Y29002D1*
X17252D1*
Y28372D1*
D38*
X16500Y28249D3*
X12067Y26084D2*
D10*
X15492D1*
Y22660D1*
X12067D1*
Y26084D1*
D41*
X11417Y26262D3*
G36*
X12075Y26069D2*
X12449Y26061D1*
X12075Y26069D1*
G37*
G36*
X12126Y26104D2*
X12598D1*
X12047Y25553D1*
X12126Y26104D1*
G37*
X14796Y17567D2*
D10*
X12828D1*
X14796Y16307D2*
X12828D1*
Y17567D2*
Y16307D1*
X14796Y17567D2*
Y17134D1*
Y16740D2*
Y16307D1*
Y17134D2*
G03X14796Y16740I0J-197D01*
G01*
D45*
X20239Y17012D3*
X20780Y16959D2*
D10*
Y15778D1*
X21095Y16959D2*
Y15778D1*
X20780D2*
X21095D1*
X20780Y16959D2*
X21095D1*
X7436Y16660D2*
Y14691D1*
X8460Y16660D2*
Y14691D1*
X7436D2*
X8460D1*
X7751Y16660D2*
X7436D1*
X8145D2*
X8460D1*
X7751D2*
G03X8145Y16660I197J0D01*
G01*
X16846Y13837D2*
X16650Y14034D1*
X18224Y13837D2*
Y14034D1*
Y13837D2*
X18027D1*
X18224Y15215D2*
Y15412D1*
X18027D1*
X16650D2*
X16847D1*
X16650D2*
Y15215D1*
X17041Y13606D3*
X12828Y12386D2*
X14796D1*
X12828Y13488D2*
X14796D1*
Y12386D2*
Y13488D1*
X12828Y12386D2*
Y12740D1*
Y13134D2*
Y13488D1*
Y12740D2*
G03X12828Y13134I0J197D01*
G01*
X18780Y41548D2*
G02X18780Y41548I0J392D01*
G01*
X15866Y29814D2*
X21693D1*
X15866Y35365D2*
Y29814D1*
Y35365D2*
X16321D1*
Y38869D2*
Y35365D1*
Y38869D2*
X16892D1*
Y43554D2*
Y38869D1*
Y43554D2*
X20667D1*
Y38869D1*
X21238D1*
Y35365D1*
X21693D1*
Y29814D1*
X16321Y35365D2*
X21238D1*
X16892Y38869D2*
X20667D1*
X21238D2*
X16321Y38470D1*
X21238D2*
X16321Y38086D1*
X21238D2*
X16321Y37687D1*
X21238D2*
X16321Y37289D1*
X21238D2*
X16321Y36904D1*
X21238D2*
X16321Y36505D1*
X21238D2*
X16321Y36107D1*
X21238D2*
X16321Y35722D1*
X16455Y34898D2*
X21104D1*
Y33312D1*
X16455Y31738D2*
X21104D1*
X16455Y34898D2*
Y33312D1*
X15866Y35365D2*
X16321D1*
X15866D2*
Y29814D1*
X21693D1*
Y35365D2*
Y29814D1*
X21238Y35365D2*
X21693D1*
X16321Y38869D2*
X16892D1*
X16321D2*
Y35365D1*
X21238D1*
Y38869D2*
Y35365D1*
X20667Y38869D2*
X21238D1*
X20667Y43554D2*
Y38869D1*
X16892D2*
X20667D1*
X16892Y43554D2*
Y38869D1*
Y43554D2*
X20667D1*
X19437Y20437D2*
X20437D1*
X19437Y24437D2*
Y20437D1*
X20437Y24437D2*
Y20437D1*
X19437Y24437D2*
X20437D1*
Y20437D2*
X21437D1*
X20437Y24437D2*
Y20437D1*
X21437Y24437D2*
Y20437D1*
X20437Y24437D2*
X21437D1*
X8780Y-2174D2*
G02X8780Y-2174I0J-392D01*
G01*
X11693Y9560D2*
X5866D1*
X11693Y4009D2*
Y9560D1*
Y4009D2*
X11238D1*
Y505D2*
Y4009D1*
Y505D2*
X10667D1*
Y-4180D2*
Y505D1*
Y-4180D2*
X6892D1*
Y505D1*
X6321D1*
Y4009D1*
X5866D1*
Y9560D1*
X11238Y4009D2*
X6321D1*
X10667Y505D2*
X6892D1*
X6321D2*
X11238Y904D1*
X6321D2*
X11238Y1288D1*
X6321D2*
X11238Y1687D1*
X6321D2*
X11238Y2085D1*
X6321D2*
X11238Y2470D1*
X6321D2*
X11238Y2869D1*
X6321D2*
X11238Y3267D1*
X6321D2*
X11238Y3652D1*
X11104Y4476D2*
X6455D1*
Y6062D1*
X11104Y7636D2*
X6455D1*
X11104Y4476D2*
Y6062D1*
X11693Y4009D2*
X11238D1*
X11693D2*
Y9560D1*
X5866D1*
Y4009D2*
Y9560D1*
X6321Y4009D2*
X5866D1*
X11238Y505D2*
X10667D1*
X11238D2*
Y4009D1*
X6321D1*
Y505D2*
Y4009D1*
X6892Y505D2*
X6321D1*
X6892Y-4180D2*
Y505D1*
X10667D2*
X6892D1*
X10667Y-4180D2*
Y505D1*
Y-4180D2*
X6892D1*
X18780Y-2174D2*
G02X18780Y-2174I0J-392D01*
G01*
X21693Y9560D2*
X15866D1*
X21693Y4009D2*
Y9560D1*
Y4009D2*
X21238D1*
Y505D2*
Y4009D1*
Y505D2*
X20667D1*
Y-4180D2*
Y505D1*
Y-4180D2*
X16892D1*
Y505D1*
X16321D1*
Y4009D1*
X15866D1*
Y9560D1*
X21238Y4009D2*
X16321D1*
X20667Y505D2*
X16892D1*
X16321D2*
X21238Y904D1*
X16321D2*
X21238Y1288D1*
X16321D2*
X21238Y1687D1*
X16321D2*
X21238Y2085D1*
X16321D2*
X21238Y2470D1*
X16321D2*
X21238Y2869D1*
X16321D2*
X21238Y3267D1*
X16321D2*
X21238Y3652D1*
X21104Y4476D2*
X16455D1*
Y6062D1*
X21104Y7636D2*
X16455D1*
X21104Y4476D2*
Y6062D1*
X21693Y4009D2*
X21238D1*
X21693D2*
Y9560D1*
X15866D1*
Y4009D2*
Y9560D1*
X16321Y4009D2*
X15866D1*
X21238Y505D2*
X20667D1*
X21238D2*
Y4009D1*
X16321D1*
Y505D2*
Y4009D1*
X16892Y505D2*
X16321D1*
X16892Y-4180D2*
Y505D1*
X20667D2*
X16892D1*
X20667Y-4180D2*
Y505D1*
Y-4180D2*
X16892D1*
X15190Y33112D2*
Y33211D1*
Y34136D2*
Y34234D1*
Y33112D2*
X15091D1*
Y33211D1*
X12591Y35415D2*
X15033D1*
X12434Y33112D2*
Y33211D1*
Y33112D2*
X12533D1*
Y33211D1*
X12434Y34136D2*
Y34234D1*
X15033Y35415D2*
Y35002D1*
Y34392D2*
Y34234D1*
X15190D1*
X12434D2*
X12591D1*
Y35169D2*
Y35415D1*
X12533Y34136D2*
Y34215D1*
X15091Y34136D2*
Y34215D1*
X12591Y34234D2*
X15033D1*
X13104Y35927D2*
X14521D1*
Y35415D1*
X13104Y35907D2*
Y35415D1*
X13812Y35228D2*
Y34461D1*
Y34441D2*
X13714Y34638D1*
X13812Y34441D2*
X13910Y34638D1*
X13812Y35287D2*
X13714Y35071D1*
X13812Y35287D2*
X13910Y35071D1*
X15626Y6812D2*
D26*
X11938Y4375D1*
X11925Y6890D2*
D12*
X12145D1*
X12325D2*
X12525D1*
X12815D2*
X13015D1*
X11925Y6880D2*
X12145D1*
X12325D2*
X12532D1*
X12815D2*
X13015D1*
X11925Y6870D2*
X12145D1*
X12325D2*
X12539D1*
X12815D2*
X13015D1*
X11925Y6860D2*
X12145D1*
X12325D2*
X12545D1*
X12815D2*
X13015D1*
X11925Y6850D2*
X12145D1*
X12325D2*
X12552D1*
X12815D2*
X13015D1*
X11925Y6840D2*
X12145D1*
X12325D2*
X12559D1*
X12815D2*
X13015D1*
X11925Y6830D2*
X12145D1*
X12325D2*
X12567D1*
X12815D2*
X13015D1*
X11925Y6820D2*
X12145D1*
X12325D2*
X12574D1*
X12815D2*
X13015D1*
X11925Y6810D2*
X12145D1*
X12325D2*
X12582D1*
X12815D2*
X13015D1*
X11925Y6800D2*
X12145D1*
X12325D2*
X12588D1*
X12815D2*
X13015D1*
X11925Y6790D2*
X12145D1*
X12325D2*
X12595D1*
X12815D2*
X13015D1*
X11925Y6780D2*
X12145D1*
X12325D2*
X12602D1*
X12815D2*
X13015D1*
X11925Y6770D2*
X12145D1*
X12325D2*
X12609D1*
X12815D2*
X13015D1*
X11925Y6760D2*
X12145D1*
X12325D2*
X12615D1*
X12815D2*
X13015D1*
X11925Y6750D2*
X12145D1*
X12325D2*
X12622D1*
X12815D2*
X13015D1*
X11925Y6740D2*
X12145D1*
X12325D2*
X12629D1*
X12815D2*
X13015D1*
X11925Y6730D2*
X12145D1*
X12325D2*
X12635D1*
X12815D2*
X13015D1*
X11925Y6720D2*
X12145D1*
X12325D2*
X12642D1*
X12815D2*
X13015D1*
X11925Y6710D2*
X12145D1*
X12325D2*
X12649D1*
X12815D2*
X13015D1*
X11925Y6700D2*
X12145D1*
X12325D2*
X12655D1*
X12815D2*
X13015D1*
X11925Y6690D2*
X12145D1*
X12325D2*
X12662D1*
X12815D2*
X13015D1*
X11925Y6680D2*
X12145D1*
X12325D2*
X12669D1*
X12815D2*
X13015D1*
X11925Y6670D2*
X12145D1*
X12325D2*
X12675D1*
X12815D2*
X13015D1*
X11925Y6660D2*
X12145D1*
X12325D2*
X12682D1*
X12815D2*
X13015D1*
X11925Y6650D2*
X12145D1*
X12325D2*
X12689D1*
X12815D2*
X13015D1*
X11925Y6640D2*
X12145D1*
X12325D2*
X12695D1*
X12815D2*
X13015D1*
X11925Y6630D2*
X12145D1*
X12325D2*
X12702D1*
X12815D2*
X13015D1*
X11925Y6620D2*
X12145D1*
X12325D2*
X12709D1*
X12815D2*
X13015D1*
X11925Y6610D2*
X12145D1*
X12325D2*
X12717D1*
X12815D2*
X13015D1*
X11925Y6600D2*
X12145D1*
X12325D2*
X12724D1*
X12815D2*
X13015D1*
X11925Y6590D2*
X12145D1*
X12325D2*
X12732D1*
X12815D2*
X13015D1*
X11925Y6580D2*
X12145D1*
X12325D2*
X12738D1*
X12815D2*
X13015D1*
X11925Y6570D2*
X12145D1*
X12325D2*
X12745D1*
X12815D2*
X13015D1*
X11925Y6560D2*
X12145D1*
X12325D2*
X12525D1*
X12547D2*
X12752D1*
X12815D2*
X13015D1*
X11925Y6550D2*
X12145D1*
X12325D2*
X12525D1*
X12551D2*
X12759D1*
X12815D2*
X13015D1*
X11925Y6540D2*
X12145D1*
X12325D2*
X12525D1*
X12556D2*
X12765D1*
X12815D2*
X13015D1*
X11925Y6530D2*
X12145D1*
X12325D2*
X12525D1*
X12562D2*
X12772D1*
X12815D2*
X13015D1*
X11925Y6520D2*
X12145D1*
X12325D2*
X12525D1*
X12569D2*
X12779D1*
X12815D2*
X13015D1*
X11925Y6510D2*
X12145D1*
X12325D2*
X12525D1*
X12575D2*
X12785D1*
X12815D2*
X13015D1*
X11925Y6500D2*
X12145D1*
X12325D2*
X12525D1*
X12582D2*
X12792D1*
X12813D2*
X13015D1*
X11925Y6490D2*
X12145D1*
X12325D2*
X12525D1*
X12589D2*
X12798D1*
X12810D2*
X13015D1*
X11925Y6480D2*
X12145D1*
X12325D2*
X12525D1*
X12595D2*
X13015D1*
X11925Y6470D2*
X12145D1*
X12325D2*
X12525D1*
X12602D2*
X13015D1*
X11925Y6460D2*
X12145D1*
X12325D2*
X12525D1*
X12609D2*
X13015D1*
X11925Y6450D2*
X12145D1*
X12325D2*
X12525D1*
X12615D2*
X13015D1*
X11925Y6440D2*
X12145D1*
X12325D2*
X12525D1*
X12622D2*
X13015D1*
X11925Y6430D2*
X12145D1*
X12325D2*
X12525D1*
X12629D2*
X13015D1*
X11925Y6420D2*
X12145D1*
X12325D2*
X12525D1*
X12635D2*
X13015D1*
X11925Y6410D2*
X12145D1*
X12325D2*
X12525D1*
X12642D2*
X13015D1*
X11925Y6400D2*
X12145D1*
X12325D2*
X12525D1*
X12649D2*
X13015D1*
X11925Y6390D2*
X12145D1*
X12325D2*
X12525D1*
X12655D2*
X13015D1*
X11925Y6380D2*
X12145D1*
X12325D2*
X12525D1*
X12662D2*
X13015D1*
X11925Y6370D2*
X12145D1*
X12325D2*
X12525D1*
X12669D2*
X13015D1*
X11925Y6360D2*
X12145D1*
X12325D2*
X12525D1*
X12677D2*
X13015D1*
X11925Y6350D2*
X12145D1*
X12325D2*
X12525D1*
X12684D2*
X13015D1*
X11925Y6340D2*
X12145D1*
X12325D2*
X12525D1*
X12692D2*
X13015D1*
X11925Y6330D2*
X12145D1*
X12325D2*
X12525D1*
X12698D2*
X13015D1*
X11925Y6320D2*
X12145D1*
X12325D2*
X12525D1*
X12705D2*
X13015D1*
X11925Y6310D2*
X12145D1*
X12325D2*
X12525D1*
X12712D2*
X13015D1*
X11925Y6300D2*
X12145D1*
X12325D2*
X12525D1*
X12719D2*
X13015D1*
X11925Y6290D2*
X12145D1*
X12325D2*
X12525D1*
X12725D2*
X13015D1*
X11925Y6280D2*
X12145D1*
X12325D2*
X12525D1*
X12732D2*
X13015D1*
X11925Y6270D2*
X12145D1*
X12325D2*
X12525D1*
X12739D2*
X13015D1*
X11925Y6260D2*
X12145D1*
X12325D2*
X12525D1*
X12745D2*
X13015D1*
X11925Y6250D2*
X12145D1*
X12325D2*
X12525D1*
X12752D2*
X13015D1*
X11925Y6240D2*
X12145D1*
X12325D2*
X12525D1*
X12759D2*
X13015D1*
X11925Y6230D2*
X12145D1*
X12325D2*
X12525D1*
X12765D2*
X13015D1*
X11925Y6220D2*
X12145D1*
X12325D2*
X12525D1*
X12772D2*
X13015D1*
X11925Y6210D2*
X12145D1*
X12325D2*
X12525D1*
X12779D2*
X13015D1*
X11925Y6200D2*
X12145D1*
X12325D2*
X12525D1*
X12785D2*
X13015D1*
X11925Y6190D2*
X12145D1*
X12325D2*
X12525D1*
X12792D2*
X13015D1*
X11925Y6180D2*
X12145D1*
X12325D2*
X12525D1*
X12799D2*
X13015D1*
X11925Y6170D2*
X12145D1*
X12325D2*
X12525D1*
X12807D2*
X13015D1*
X11925Y6160D2*
X12145D1*
X12325D2*
X12525D1*
X12815D2*
X13015D1*
X13715Y5087D2*
X13825D1*
X13670Y5077D2*
X13871D1*
X14285D2*
X14505D1*
X14755D2*
X14975D1*
X15095D2*
X15775D1*
X13633Y5067D2*
X13908D1*
X14285D2*
X14505D1*
X14755D2*
X14975D1*
X15095D2*
X15775D1*
X13603Y5057D2*
X13938D1*
X14285D2*
X14505D1*
X14755D2*
X14975D1*
X15095D2*
X15775D1*
X13579Y5047D2*
X13962D1*
X14285D2*
X14505D1*
X14755D2*
X14975D1*
X15095D2*
X15775D1*
X13559Y5037D2*
X13982D1*
X14285D2*
X14505D1*
X14755D2*
X14975D1*
X15095D2*
X15775D1*
X13542Y5027D2*
X13999D1*
X14285D2*
X14505D1*
X14755D2*
X14975D1*
X15095D2*
X15775D1*
X13528Y5017D2*
X14014D1*
X14285D2*
X14505D1*
X14755D2*
X14975D1*
X15095D2*
X15775D1*
X13517Y5007D2*
X14028D1*
X14285D2*
X14505D1*
X14755D2*
X14975D1*
X15095D2*
X15775D1*
X13506Y4997D2*
X14040D1*
X14285D2*
X14505D1*
X14755D2*
X14975D1*
X15095D2*
X15775D1*
X13496Y4987D2*
X14050D1*
X14285D2*
X14505D1*
X14755D2*
X14975D1*
X15095D2*
X15775D1*
X13486Y4977D2*
X14058D1*
X14285D2*
X14505D1*
X14755D2*
X14975D1*
X15095D2*
X15775D1*
X13477Y4967D2*
X14066D1*
X14285D2*
X14505D1*
X14755D2*
X14975D1*
X15095D2*
X15775D1*
X13470Y4957D2*
X14074D1*
X14285D2*
X14505D1*
X14755D2*
X14975D1*
X15095D2*
X15775D1*
X13463Y4947D2*
X14082D1*
X14285D2*
X14505D1*
X14755D2*
X14975D1*
X15095D2*
X15775D1*
X13456Y4937D2*
X14089D1*
X14285D2*
X14505D1*
X14755D2*
X14975D1*
X15095D2*
X15775D1*
X13449Y4927D2*
X14095D1*
X14285D2*
X14505D1*
X14755D2*
X14975D1*
X15095D2*
X15775D1*
X13444Y4917D2*
X13716D1*
X13825D2*
X14100D1*
X14285D2*
X14505D1*
X14755D2*
X14975D1*
X15095D2*
X15775D1*
X13438Y4907D2*
X13698D1*
X13843D2*
X14105D1*
X14285D2*
X14505D1*
X14755D2*
X14975D1*
X15325D2*
X15545D1*
X13433Y4897D2*
X13682D1*
X13859D2*
X14109D1*
X14285D2*
X14505D1*
X14755D2*
X14975D1*
X15325D2*
X15545D1*
X13429Y4887D2*
X13669D1*
X13872D2*
X14113D1*
X14285D2*
X14505D1*
X14755D2*
X14975D1*
X15325D2*
X15545D1*
X13426Y4877D2*
X13658D1*
X13883D2*
X14118D1*
X14285D2*
X14505D1*
X14755D2*
X14975D1*
X15325D2*
X15545D1*
X13422Y4867D2*
X13650D1*
X13891D2*
X14122D1*
X14285D2*
X14505D1*
X14755D2*
X14975D1*
X15325D2*
X15545D1*
X13419Y4857D2*
X13644D1*
X13897D2*
X14125D1*
X14285D2*
X14505D1*
X14755D2*
X14975D1*
X15325D2*
X15545D1*
X13416Y4847D2*
X13638D1*
X13903D2*
X14129D1*
X14285D2*
X14505D1*
X14755D2*
X14975D1*
X15325D2*
X15545D1*
X13412Y4837D2*
X13634D1*
X13907D2*
X14132D1*
X14285D2*
X14505D1*
X14755D2*
X14975D1*
X15325D2*
X15545D1*
X13409Y4827D2*
X13630D1*
X13911D2*
X14134D1*
X14285D2*
X14505D1*
X14755D2*
X14975D1*
X15325D2*
X15545D1*
X13407Y4817D2*
X13627D1*
X13914D2*
X14135D1*
X14285D2*
X14505D1*
X14755D2*
X14975D1*
X15325D2*
X15545D1*
X13406Y4807D2*
X13625D1*
X13916D2*
X14136D1*
X14285D2*
X14505D1*
X14755D2*
X14975D1*
X15325D2*
X15545D1*
X13405Y4797D2*
X13622D1*
X13919D2*
X14137D1*
X14285D2*
X14505D1*
X14755D2*
X14975D1*
X15325D2*
X15545D1*
X13404Y4787D2*
X13619D1*
X13922D2*
X14140D1*
X14285D2*
X14505D1*
X14755D2*
X14975D1*
X15325D2*
X15545D1*
X13401Y4777D2*
X13617D1*
X13924D2*
X14142D1*
X14285D2*
X14505D1*
X14755D2*
X14975D1*
X15325D2*
X15545D1*
X13399Y4767D2*
X13616D1*
X13925D2*
X14144D1*
X14285D2*
X14505D1*
X14755D2*
X14975D1*
X15325D2*
X15545D1*
X13397Y4757D2*
X13616D1*
X13925D2*
X14145D1*
X14285D2*
X14505D1*
X14755D2*
X14975D1*
X15325D2*
X15545D1*
X13396Y4747D2*
X13616D1*
X13925D2*
X14145D1*
X14285D2*
X14505D1*
X14755D2*
X14975D1*
X15325D2*
X15545D1*
X13396Y4737D2*
X13616D1*
X13925D2*
X14145D1*
X14285D2*
X14505D1*
X14755D2*
X14975D1*
X15325D2*
X15545D1*
X13396Y4727D2*
X13616D1*
X13925D2*
X14145D1*
X14285D2*
X14505D1*
X14755D2*
X14975D1*
X15325D2*
X15545D1*
X13396Y4717D2*
X13616D1*
X13925D2*
X14145D1*
X14285D2*
X14505D1*
X14755D2*
X14975D1*
X15325D2*
X15545D1*
X13396Y4707D2*
X13616D1*
X13925D2*
X14145D1*
X14285D2*
X14505D1*
X14755D2*
X14975D1*
X15325D2*
X15545D1*
X13396Y4697D2*
X13615D1*
X13925D2*
X14145D1*
X14285D2*
X14505D1*
X14755D2*
X14975D1*
X15325D2*
X15545D1*
X13396Y4687D2*
X13615D1*
X13925D2*
X14145D1*
X14285D2*
X14505D1*
X14755D2*
X14975D1*
X15325D2*
X15545D1*
X13396Y4677D2*
X13615D1*
X13925D2*
X14145D1*
X14285D2*
X14505D1*
X14755D2*
X14975D1*
X15325D2*
X15545D1*
X13396Y4667D2*
X13616D1*
X13925D2*
X14144D1*
X14285D2*
X14505D1*
X14755D2*
X14975D1*
X15325D2*
X15545D1*
X13397Y4657D2*
X13616D1*
X13925D2*
X14141D1*
X14285D2*
X14505D1*
X14755D2*
X14975D1*
X15325D2*
X15545D1*
X13400Y4647D2*
X13617D1*
X13924D2*
X14139D1*
X14285D2*
X14505D1*
X14755D2*
X14975D1*
X15325D2*
X15545D1*
X13402Y4637D2*
X13620D1*
X13921D2*
X14137D1*
X14286D2*
X14505D1*
X14755D2*
X14975D1*
X15325D2*
X15545D1*
X13404Y4627D2*
X13622D1*
X13919D2*
X14136D1*
X14286D2*
X14505D1*
X14755D2*
X14975D1*
X15325D2*
X15545D1*
X13405Y4617D2*
X13624D1*
X13917D2*
X14135D1*
X14287D2*
X14506D1*
X14755D2*
X14975D1*
X15325D2*
X15545D1*
X13407Y4607D2*
X13626D1*
X13914D2*
X14134D1*
X14290D2*
X14506D1*
X14755D2*
X14974D1*
X15325D2*
X15545D1*
X13409Y4597D2*
X13630D1*
X13911D2*
X14131D1*
X14292D2*
X14507D1*
X14754D2*
X14971D1*
X15325D2*
X15545D1*
X13412Y4587D2*
X13634D1*
X13907D2*
X14129D1*
X14294D2*
X14510D1*
X14751D2*
X14969D1*
X15325D2*
X15545D1*
X13414Y4577D2*
X13638D1*
X13903D2*
X14127D1*
X14295D2*
X14514D1*
X14747D2*
X14967D1*
X15325D2*
X15545D1*
X13416Y4567D2*
X13643D1*
X13897D2*
X14125D1*
X14296D2*
X14518D1*
X14743D2*
X14966D1*
X15325D2*
X15545D1*
X13420Y4557D2*
X13650D1*
X13891D2*
X14121D1*
X14297D2*
X14524D1*
X14737D2*
X14964D1*
X15325D2*
X15545D1*
X13424Y4547D2*
X13658D1*
X13883D2*
X14117D1*
X14300D2*
X14530D1*
X14731D2*
X14962D1*
X15325D2*
X15545D1*
X13428Y4537D2*
X13669D1*
X13872D2*
X14113D1*
X14303D2*
X14539D1*
X14722D2*
X14959D1*
X15325D2*
X15545D1*
X13433Y4527D2*
X13686D1*
X13855D2*
X14109D1*
X14306D2*
X14550D1*
X14711D2*
X14955D1*
X15325D2*
X15545D1*
X13438Y4517D2*
X13718D1*
X13823D2*
X14105D1*
X14309D2*
X14583D1*
X14678D2*
X14952D1*
X15325D2*
X15545D1*
X13443Y4507D2*
X13770D1*
X13771D2*
X14101D1*
X14312D2*
X14633D1*
X14628D2*
X14947D1*
X15325D2*
X15545D1*
X13448Y4497D2*
X14095D1*
X14316D2*
X14943D1*
X15325D2*
X15545D1*
X13453Y4487D2*
X14089D1*
X14321D2*
X14938D1*
X15325D2*
X15545D1*
X13460Y4477D2*
X14082D1*
X14326D2*
X14933D1*
X15325D2*
X15545D1*
X13467Y4467D2*
X14074D1*
X14332D2*
X14928D1*
X15325D2*
X15545D1*
X13476Y4457D2*
X14066D1*
X14339D2*
X14921D1*
X15325D2*
X15545D1*
X13486Y4447D2*
X14059D1*
X14347D2*
X14914D1*
X15325D2*
X15545D1*
X13496Y4437D2*
X14050D1*
X14356D2*
X14905D1*
X15325D2*
X15545D1*
X13506Y4427D2*
X14040D1*
X14366D2*
X14895D1*
X15325D2*
X15545D1*
X13516Y4417D2*
X14028D1*
X14376D2*
X14885D1*
X15325D2*
X15545D1*
X13527Y4407D2*
X14015D1*
X14386D2*
X14875D1*
X15325D2*
X15545D1*
X13540Y4397D2*
X14002D1*
X14398D2*
X14864D1*
X15325D2*
X15545D1*
X13556Y4387D2*
X13987D1*
X14412D2*
X14851D1*
X15325D2*
X15545D1*
X13575Y4377D2*
X13969D1*
X14429D2*
X14835D1*
X15325D2*
X15545D1*
X13599Y4367D2*
X13946D1*
X14452D2*
X14814D1*
X15325D2*
X15545D1*
X13631Y4357D2*
X13916D1*
X14484D2*
X14785D1*
X15325D2*
X15545D1*
X13671Y4347D2*
X13878D1*
X14527D2*
X14747D1*
X15325D2*
X15545D1*
X13715Y4337D2*
X13835D1*
X14575D2*
X14705D1*
X19797Y29251D2*
X19807D1*
X19781Y29241D2*
X19807D1*
X19077Y29231D2*
X19087D1*
X19765D2*
X19807D1*
X19077Y29221D2*
X19103D1*
X19750D2*
X19807D1*
X19077Y29211D2*
X19119D1*
X19735D2*
X19807D1*
X19077Y29201D2*
X19134D1*
X19720D2*
X19807D1*
X19077Y29191D2*
X19150D1*
X19705D2*
X19807D1*
X19077Y29181D2*
X19165D1*
X19690D2*
X19807D1*
X19077Y29171D2*
X19180D1*
X19675D2*
X19807D1*
X19077Y29161D2*
X19195D1*
X19660D2*
X19807D1*
X19077Y29151D2*
X19210D1*
X19645D2*
X19807D1*
X19077Y29141D2*
X19225D1*
X19630D2*
X19807D1*
X19077Y29131D2*
X19241D1*
X19615D2*
X19807D1*
X19077Y29121D2*
X19257D1*
X19600D2*
X19807D1*
X19077Y29111D2*
X19274D1*
X19585D2*
X19807D1*
X19077Y29101D2*
X19289D1*
X19570D2*
X19807D1*
X19077Y29091D2*
X19304D1*
X19555D2*
X19807D1*
X19077Y29081D2*
X19320D1*
X19540D2*
X19807D1*
X19077Y29071D2*
X19335D1*
X19525D2*
X19807D1*
X19077Y29061D2*
X19350D1*
X19510D2*
X19807D1*
X19077Y29051D2*
X19365D1*
X19495D2*
X19807D1*
X19077Y29041D2*
X19381D1*
X19478D2*
X19807D1*
X19077Y29031D2*
X19399D1*
X19457D2*
X19806D1*
X19078Y29021D2*
X19422D1*
X19429D2*
X19800D1*
X19079Y29011D2*
X19790D1*
X19084Y29001D2*
X19778D1*
X19095Y28991D2*
X19764D1*
X19109Y28981D2*
X19749D1*
X19125Y28971D2*
X19735D1*
X19141Y28961D2*
X19720D1*
X19159Y28951D2*
X19705D1*
X19176Y28941D2*
X19690D1*
X19193Y28931D2*
X19675D1*
X19211Y28921D2*
X19660D1*
X19228Y28911D2*
X19645D1*
X19246Y28901D2*
X19630D1*
X19263Y28891D2*
X19615D1*
X19276Y28881D2*
X19599D1*
X19286Y28871D2*
X19584D1*
X19294Y28861D2*
X19567D1*
X19280Y28851D2*
X19583D1*
X19265Y28841D2*
X19599D1*
X19250Y28831D2*
X19614D1*
X19234Y28821D2*
X19630D1*
X19217Y28811D2*
X19645D1*
X19201Y28801D2*
X19660D1*
X19185Y28791D2*
X19675D1*
X19170Y28781D2*
X19690D1*
X19153Y28771D2*
X19705D1*
X19137Y28761D2*
X19720D1*
X19121Y28751D2*
X19735D1*
X19106Y28741D2*
X19750D1*
X19094Y28731D2*
X19765D1*
X19084Y28721D2*
X19779D1*
X19080Y28711D2*
X19416D1*
X19439D2*
X19791D1*
X19079Y28701D2*
X19403D1*
X19452D2*
X19800D1*
X19078Y28691D2*
X19389D1*
X19466D2*
X19804D1*
X19077Y28681D2*
X19374D1*
X19480D2*
X19806D1*
X19077Y28671D2*
X19360D1*
X19495D2*
X19807D1*
X19077Y28661D2*
X19345D1*
X19510D2*
X19807D1*
X19077Y28651D2*
X19330D1*
X19525D2*
X19807D1*
X19077Y28641D2*
X19315D1*
X19540D2*
X19807D1*
X19077Y28631D2*
X19300D1*
X19555D2*
X19807D1*
X19077Y28621D2*
X19285D1*
X19570D2*
X19807D1*
X19077Y28611D2*
X19270D1*
X19585D2*
X19807D1*
X19077Y28601D2*
X19255D1*
X19600D2*
X19807D1*
X19077Y28591D2*
X19240D1*
X19615D2*
X19807D1*
X19077Y28581D2*
X19225D1*
X19630D2*
X19807D1*
X19077Y28571D2*
X19210D1*
X19645D2*
X19807D1*
X19077Y28561D2*
X19195D1*
X19660D2*
X19807D1*
X19077Y28551D2*
X19180D1*
X19675D2*
X19807D1*
X19077Y28541D2*
X19165D1*
X19690D2*
X19807D1*
X19077Y28531D2*
X19150D1*
X19705D2*
X19807D1*
X19077Y28521D2*
X19135D1*
X19720D2*
X19807D1*
X19077Y28511D2*
X19119D1*
X19735D2*
X19807D1*
X19077Y28501D2*
X19104D1*
X19750D2*
X19807D1*
X19077Y28491D2*
X19087D1*
X19765D2*
X19807D1*
X19781Y28481D2*
X19807D1*
X19797Y28471D2*
X19807D1*
X19077Y28371D2*
X19557D1*
X19077Y28361D2*
X19594D1*
X19077Y28351D2*
X19626D1*
X19077Y28341D2*
X19652D1*
X19077Y28331D2*
X19673D1*
X19077Y28321D2*
X19690D1*
X19077Y28311D2*
X19704D1*
X19077Y28301D2*
X19716D1*
X19077Y28291D2*
X19727D1*
X19077Y28281D2*
X19737D1*
X19077Y28271D2*
X19747D1*
X19077Y28261D2*
X19756D1*
X19077Y28251D2*
X19763D1*
X19077Y28241D2*
X19770D1*
X19077Y28231D2*
X19777D1*
X19077Y28221D2*
X19782D1*
X19077Y28211D2*
X19786D1*
X19077Y28201D2*
X19790D1*
X19077Y28191D2*
X19794D1*
X19077Y28181D2*
X19797D1*
X19077Y28171D2*
X19800D1*
X19077Y28161D2*
X19804D1*
X19077Y28151D2*
X19805D1*
X19577Y28141D2*
X19806D1*
X19595Y28131D2*
X19807D1*
X19611Y28121D2*
X19809D1*
X19624Y28111D2*
X19811D1*
X19634Y28101D2*
X19814D1*
X19641Y28091D2*
X19816D1*
X19646Y28081D2*
X19816D1*
X19650Y28071D2*
X19817D1*
X19653Y28061D2*
X19817D1*
X19655Y28051D2*
X19817D1*
X19656Y28041D2*
X19817D1*
X19657Y28031D2*
X19817D1*
X19657Y28021D2*
X19817D1*
X19657Y28011D2*
X19817D1*
X19656Y28001D2*
X19817D1*
X19653Y27991D2*
X19816D1*
X19650Y27981D2*
X19813D1*
X19647Y27971D2*
X19811D1*
X19642Y27961D2*
X19809D1*
X19634Y27951D2*
X19808D1*
X19624Y27941D2*
X19807D1*
X19611Y27931D2*
X19807D1*
X19594Y27921D2*
X19807D1*
X19576Y27911D2*
X19806D1*
X19077Y27901D2*
X19803D1*
X19077Y27891D2*
X19801D1*
X19077Y27881D2*
X19798D1*
X19077Y27871D2*
X19796D1*
X19077Y27861D2*
X19793D1*
X19077Y27851D2*
X19789D1*
X19077Y27841D2*
X19784D1*
X19077Y27831D2*
X19780D1*
X19077Y27821D2*
X19775D1*
X19077Y27811D2*
X19769D1*
X19077Y27801D2*
X19763D1*
X19077Y27791D2*
X19755D1*
X19077Y27781D2*
X19746D1*
X19077Y27771D2*
X19737D1*
X19077Y27761D2*
X19727D1*
X19077Y27751D2*
X19717D1*
X19077Y27741D2*
X19705D1*
X19077Y27731D2*
X19692D1*
X19077Y27721D2*
X19676D1*
X19077Y27711D2*
X19655D1*
X19077Y27701D2*
X19626D1*
X19077Y27691D2*
X19589D1*
X19077Y27681D2*
X19547D1*
X19777Y27581D2*
X19807D1*
X19752Y27571D2*
X19807D1*
X19726Y27561D2*
X19807D1*
X19700Y27551D2*
X19807D1*
X19674Y27541D2*
X19807D1*
X19647Y27531D2*
X19807D1*
X19621Y27521D2*
X19807D1*
X19594Y27511D2*
X19807D1*
X19567Y27501D2*
X19807D1*
X19541Y27491D2*
X19807D1*
X19514Y27481D2*
X19807D1*
X19487Y27471D2*
X19807D1*
X19461Y27461D2*
X19807D1*
X19434Y27451D2*
X19807D1*
X19407Y27441D2*
X19807D1*
X19381Y27431D2*
X19807D1*
X19354Y27421D2*
X19807D1*
X19327Y27411D2*
X19807D1*
X19301Y27401D2*
X19807D1*
X19274Y27391D2*
X19807D1*
X19247Y27381D2*
X19806D1*
X19221Y27371D2*
X19803D1*
X19194Y27361D2*
X19789D1*
X19167Y27351D2*
X19769D1*
X19141Y27341D2*
X19745D1*
X19118Y27331D2*
X19722D1*
X19100Y27321D2*
X19703D1*
X19086Y27311D2*
X19693D1*
X19081Y27301D2*
X19690D1*
X19079Y27291D2*
X19688D1*
X19078Y27281D2*
X19688D1*
X19077Y27271D2*
X19517D1*
X19537D2*
X19687D1*
X19077Y27261D2*
X19486D1*
X19537D2*
X19687D1*
X19077Y27251D2*
X19453D1*
X19537D2*
X19687D1*
X19077Y27241D2*
X19420D1*
X19537D2*
X19687D1*
X19077Y27231D2*
X19387D1*
X19537D2*
X19687D1*
X19077Y27221D2*
X19354D1*
X19537D2*
X19687D1*
X19077Y27211D2*
X19323D1*
X19537D2*
X19687D1*
X19077Y27201D2*
X19294D1*
X19537D2*
X19687D1*
X19077Y27191D2*
X19267D1*
X19537D2*
X19687D1*
X19077Y27181D2*
X19294D1*
X19537D2*
X19687D1*
X19077Y27171D2*
X19324D1*
X19537D2*
X19687D1*
X19077Y27161D2*
X19357D1*
X19537D2*
X19687D1*
X19077Y27151D2*
X19390D1*
X19537D2*
X19687D1*
X19077Y27141D2*
X19425D1*
X19537D2*
X19687D1*
X19077Y27131D2*
X19463D1*
X19532D2*
X19687D1*
X19077Y27121D2*
X19508D1*
X19516D2*
X19687D1*
X19077Y27111D2*
X19687D1*
X19077Y27101D2*
X19687D1*
X19078Y27091D2*
X19688D1*
X19080Y27081D2*
X19689D1*
X19089Y27071D2*
X19695D1*
X19108Y27061D2*
X19712D1*
X19130Y27051D2*
X19735D1*
X19155Y27041D2*
X19759D1*
X19181Y27031D2*
X19780D1*
X19209Y27021D2*
X19797D1*
X19236Y27011D2*
X19802D1*
X19263Y27001D2*
X19805D1*
X19291Y26991D2*
X19806D1*
X19318Y26981D2*
X19807D1*
X19346Y26971D2*
X19807D1*
X19373Y26961D2*
X19807D1*
X19400Y26951D2*
X19807D1*
X19427Y26941D2*
X19807D1*
X19454Y26931D2*
X19807D1*
X19481Y26921D2*
X19807D1*
X19509Y26911D2*
X19807D1*
X19536Y26901D2*
X19807D1*
X19563Y26891D2*
X19807D1*
X19590Y26881D2*
X19807D1*
X19617Y26871D2*
X19807D1*
X19644Y26861D2*
X19807D1*
X19671Y26851D2*
X19807D1*
X19699Y26841D2*
X19807D1*
X19726Y26831D2*
X19807D1*
X19752Y26821D2*
X19807D1*
X19777Y26811D2*
X19807D1*
X11925Y6890D2*
Y6880D1*
Y6870D1*
Y6860D1*
Y6850D1*
Y6840D1*
Y6830D1*
Y6820D1*
Y6810D1*
Y6800D1*
Y6790D1*
Y6780D1*
Y6770D1*
Y6760D1*
Y6750D1*
Y6740D1*
Y6730D1*
Y6720D1*
Y6710D1*
Y6700D1*
Y6690D1*
Y6680D1*
Y6670D1*
Y6660D1*
Y6650D1*
Y6640D1*
Y6630D1*
Y6620D1*
Y6610D1*
Y6600D1*
Y6590D1*
Y6580D1*
Y6570D1*
Y6560D1*
Y6550D1*
Y6540D1*
Y6530D1*
Y6520D1*
Y6510D1*
Y6500D1*
Y6490D1*
Y6480D1*
Y6470D1*
Y6460D1*
Y6450D1*
Y6440D1*
Y6430D1*
Y6420D1*
Y6410D1*
Y6400D1*
Y6390D1*
Y6380D1*
Y6370D1*
Y6360D1*
Y6350D1*
Y6340D1*
Y6330D1*
Y6320D1*
Y6310D1*
Y6300D1*
Y6290D1*
Y6280D1*
Y6270D1*
Y6260D1*
Y6250D1*
Y6240D1*
Y6230D1*
Y6220D1*
Y6210D1*
Y6200D1*
Y6190D1*
Y6180D1*
Y6170D1*
Y6160D1*
X12145Y6890D2*
Y6880D1*
Y6870D1*
Y6860D1*
Y6850D1*
Y6840D1*
Y6830D1*
Y6820D1*
Y6810D1*
Y6800D1*
Y6790D1*
Y6780D1*
Y6770D1*
Y6760D1*
Y6750D1*
Y6740D1*
Y6730D1*
Y6720D1*
Y6710D1*
Y6700D1*
Y6690D1*
Y6680D1*
Y6670D1*
Y6660D1*
Y6650D1*
Y6640D1*
Y6630D1*
Y6620D1*
Y6610D1*
Y6600D1*
Y6590D1*
Y6580D1*
Y6570D1*
Y6560D1*
Y6550D1*
Y6540D1*
Y6530D1*
Y6520D1*
Y6510D1*
Y6500D1*
Y6490D1*
Y6480D1*
Y6470D1*
Y6460D1*
Y6450D1*
Y6440D1*
Y6430D1*
Y6420D1*
Y6410D1*
Y6400D1*
Y6390D1*
Y6380D1*
Y6370D1*
Y6360D1*
Y6350D1*
Y6340D1*
Y6330D1*
Y6320D1*
Y6310D1*
Y6300D1*
Y6290D1*
Y6280D1*
Y6270D1*
Y6260D1*
Y6250D1*
Y6240D1*
Y6230D1*
Y6220D1*
Y6210D1*
Y6200D1*
Y6190D1*
Y6180D1*
Y6170D1*
Y6160D1*
X12325Y6890D2*
Y6880D1*
Y6870D1*
Y6860D1*
Y6850D1*
Y6840D1*
Y6830D1*
Y6820D1*
Y6810D1*
Y6800D1*
Y6790D1*
Y6780D1*
Y6770D1*
Y6760D1*
Y6750D1*
Y6740D1*
Y6730D1*
Y6720D1*
Y6710D1*
Y6700D1*
Y6690D1*
Y6680D1*
Y6670D1*
Y6660D1*
Y6650D1*
Y6640D1*
Y6630D1*
Y6620D1*
Y6610D1*
Y6600D1*
Y6590D1*
Y6580D1*
Y6570D1*
Y6560D1*
Y6550D1*
Y6540D1*
Y6530D1*
Y6520D1*
Y6510D1*
Y6500D1*
Y6490D1*
Y6480D1*
Y6470D1*
Y6460D1*
Y6450D1*
Y6440D1*
Y6430D1*
Y6420D1*
Y6410D1*
Y6400D1*
Y6390D1*
Y6380D1*
Y6370D1*
Y6360D1*
Y6350D1*
Y6340D1*
Y6330D1*
Y6320D1*
Y6310D1*
Y6300D1*
Y6290D1*
Y6280D1*
Y6270D1*
Y6260D1*
Y6250D1*
Y6240D1*
Y6230D1*
Y6220D1*
Y6210D1*
Y6200D1*
Y6190D1*
Y6180D1*
Y6170D1*
Y6160D1*
X12525Y6890D2*
X12532Y6880D1*
X12539Y6870D1*
X12545Y6860D1*
X12552Y6850D1*
X12559Y6840D1*
X12567Y6830D1*
X12574Y6820D1*
X12582Y6810D1*
X12588Y6800D1*
X12595Y6790D1*
X12602Y6780D1*
X12609Y6770D1*
X12615Y6760D1*
X12622Y6750D1*
X12629Y6740D1*
X12635Y6730D1*
X12642Y6720D1*
X12649Y6710D1*
X12655Y6700D1*
X12662Y6690D1*
X12669Y6680D1*
X12675Y6670D1*
X12682Y6660D1*
X12689Y6650D1*
X12695Y6640D1*
X12702Y6630D1*
X12709Y6620D1*
X12717Y6610D1*
X12724Y6600D1*
X12732Y6590D1*
X12738Y6580D1*
X12745Y6570D1*
X12752Y6560D1*
X12759Y6550D1*
X12765Y6540D1*
X12772Y6530D1*
X12779Y6520D1*
X12785Y6510D1*
X12792Y6500D1*
X12798Y6490D1*
X12805Y6480D1*
X12815Y6890D2*
Y6880D1*
Y6870D1*
Y6860D1*
Y6850D1*
Y6840D1*
Y6830D1*
Y6820D1*
Y6810D1*
Y6800D1*
Y6790D1*
Y6780D1*
Y6770D1*
Y6760D1*
Y6750D1*
Y6740D1*
Y6730D1*
Y6720D1*
Y6710D1*
Y6700D1*
Y6690D1*
Y6680D1*
Y6670D1*
Y6660D1*
Y6650D1*
Y6640D1*
Y6630D1*
Y6620D1*
Y6610D1*
Y6600D1*
Y6590D1*
Y6580D1*
Y6570D1*
Y6560D1*
Y6550D1*
Y6540D1*
Y6530D1*
Y6520D1*
Y6510D1*
X12813Y6500D1*
X12810Y6490D1*
X12805Y6480D1*
X13015Y6890D2*
Y6880D1*
Y6870D1*
Y6860D1*
Y6850D1*
Y6840D1*
Y6830D1*
Y6820D1*
Y6810D1*
Y6800D1*
Y6790D1*
Y6780D1*
Y6770D1*
Y6760D1*
Y6750D1*
Y6740D1*
Y6730D1*
Y6720D1*
Y6710D1*
Y6700D1*
Y6690D1*
Y6680D1*
Y6670D1*
Y6660D1*
Y6650D1*
Y6640D1*
Y6630D1*
Y6620D1*
Y6610D1*
Y6600D1*
Y6590D1*
Y6580D1*
Y6570D1*
Y6560D1*
Y6550D1*
Y6540D1*
Y6530D1*
Y6520D1*
Y6510D1*
Y6500D1*
Y6490D1*
Y6480D1*
Y6470D1*
Y6460D1*
Y6450D1*
Y6440D1*
Y6430D1*
Y6420D1*
Y6410D1*
Y6400D1*
Y6390D1*
Y6380D1*
Y6370D1*
Y6360D1*
Y6350D1*
Y6340D1*
Y6330D1*
Y6320D1*
Y6310D1*
Y6300D1*
Y6290D1*
Y6280D1*
Y6270D1*
Y6260D1*
Y6250D1*
Y6240D1*
Y6230D1*
Y6220D1*
Y6210D1*
Y6200D1*
Y6190D1*
Y6180D1*
Y6170D1*
Y6160D1*
X12525Y6570D2*
Y6560D1*
Y6550D1*
Y6540D1*
Y6530D1*
Y6520D1*
Y6510D1*
Y6500D1*
Y6490D1*
Y6480D1*
Y6470D1*
Y6460D1*
Y6450D1*
Y6440D1*
Y6430D1*
Y6420D1*
Y6410D1*
Y6400D1*
Y6390D1*
Y6380D1*
Y6370D1*
Y6360D1*
Y6350D1*
Y6340D1*
Y6330D1*
Y6320D1*
Y6310D1*
Y6300D1*
Y6290D1*
Y6280D1*
Y6270D1*
Y6260D1*
Y6250D1*
Y6240D1*
Y6230D1*
Y6220D1*
Y6210D1*
Y6200D1*
Y6190D1*
Y6180D1*
Y6170D1*
Y6160D1*
X12545Y6570D2*
X12547Y6560D1*
X12551Y6550D1*
X12556Y6540D1*
X12562Y6530D1*
X12569Y6520D1*
X12575Y6510D1*
X12582Y6500D1*
X12589Y6490D1*
X12595Y6480D1*
X12602Y6470D1*
X12609Y6460D1*
X12615Y6450D1*
X12622Y6440D1*
X12629Y6430D1*
X12635Y6420D1*
X12642Y6410D1*
X12649Y6400D1*
X12655Y6390D1*
X12662Y6380D1*
X12669Y6370D1*
X12677Y6360D1*
X12684Y6350D1*
X12692Y6340D1*
X12698Y6330D1*
X12705Y6320D1*
X12712Y6310D1*
X12719Y6300D1*
X12725Y6290D1*
X12732Y6280D1*
X12739Y6270D1*
X12745Y6260D1*
X12752Y6250D1*
X12759Y6240D1*
X12765Y6230D1*
X12772Y6220D1*
X12779Y6210D1*
X12785Y6200D1*
X12792Y6190D1*
X12799Y6180D1*
X12807Y6170D1*
X12815Y6160D1*
X13715Y5087D2*
X13670Y5077D1*
X13633Y5067D1*
X13603Y5057D1*
X13579Y5047D1*
X13559Y5037D1*
X13542Y5027D1*
X13528Y5017D1*
X13517Y5007D1*
X13506Y4997D1*
X13496Y4987D1*
X13486Y4977D1*
X13477Y4967D1*
X13470Y4957D1*
X13463Y4947D1*
X13456Y4937D1*
X13449Y4927D1*
X13444Y4917D1*
X13438Y4907D1*
X13433Y4897D1*
X13429Y4887D1*
X13426Y4877D1*
X13422Y4867D1*
X13419Y4857D1*
X13416Y4847D1*
X13412Y4837D1*
X13409Y4827D1*
X13407Y4817D1*
X13406Y4807D1*
X13405Y4797D1*
X13404Y4787D1*
X13401Y4777D1*
X13399Y4767D1*
X13397Y4757D1*
X13396Y4747D1*
Y4737D1*
Y4727D1*
Y4717D1*
Y4707D1*
Y4697D1*
Y4687D1*
Y4677D1*
Y4667D1*
X13397Y4657D1*
X13400Y4647D1*
X13402Y4637D1*
X13404Y4627D1*
X13405Y4617D1*
X13407Y4607D1*
X13409Y4597D1*
X13412Y4587D1*
X13414Y4577D1*
X13416Y4567D1*
X13420Y4557D1*
X13424Y4547D1*
X13428Y4537D1*
X13433Y4527D1*
X13438Y4517D1*
X13443Y4507D1*
X13448Y4497D1*
X13453Y4487D1*
X13460Y4477D1*
X13467Y4467D1*
X13476Y4457D1*
X13486Y4447D1*
X13496Y4437D1*
X13506Y4427D1*
X13516Y4417D1*
X13527Y4407D1*
X13540Y4397D1*
X13556Y4387D1*
X13575Y4377D1*
X13599Y4367D1*
X13631Y4357D1*
X13671Y4347D1*
X13715Y4337D1*
X13825Y5087D2*
X13871Y5077D1*
X13908Y5067D1*
X13938Y5057D1*
X13962Y5047D1*
X13982Y5037D1*
X13999Y5027D1*
X14014Y5017D1*
X14028Y5007D1*
X14040Y4997D1*
X14050Y4987D1*
X14058Y4977D1*
X14066Y4967D1*
X14074Y4957D1*
X14082Y4947D1*
X14089Y4937D1*
X14095Y4927D1*
X14100Y4917D1*
X14105Y4907D1*
X14109Y4897D1*
X14113Y4887D1*
X14118Y4877D1*
X14122Y4867D1*
X14125Y4857D1*
X14129Y4847D1*
X14132Y4837D1*
X14134Y4827D1*
X14135Y4817D1*
X14136Y4807D1*
X14137Y4797D1*
X14140Y4787D1*
X14142Y4777D1*
X14144Y4767D1*
X14145Y4757D1*
Y4747D1*
Y4737D1*
Y4727D1*
Y4717D1*
Y4707D1*
Y4697D1*
Y4687D1*
Y4677D1*
X14144Y4667D1*
X14141Y4657D1*
X14139Y4647D1*
X14137Y4637D1*
X14136Y4627D1*
X14135Y4617D1*
X14134Y4607D1*
X14131Y4597D1*
X14129Y4587D1*
X14127Y4577D1*
X14125Y4567D1*
X14121Y4557D1*
X14117Y4547D1*
X14113Y4537D1*
X14109Y4527D1*
X14105Y4517D1*
X14101Y4507D1*
X14095Y4497D1*
X14089Y4487D1*
X14082Y4477D1*
X14074Y4467D1*
X14066Y4457D1*
X14059Y4447D1*
X14050Y4437D1*
X14040Y4427D1*
X14028Y4417D1*
X14015Y4407D1*
X14002Y4397D1*
X13987Y4387D1*
X13969Y4377D1*
X13946Y4367D1*
X13916Y4357D1*
X13878Y4347D1*
X13835Y4337D1*
X14285Y5077D2*
Y5067D1*
Y5057D1*
Y5047D1*
Y5037D1*
Y5027D1*
Y5017D1*
Y5007D1*
Y4997D1*
Y4987D1*
Y4977D1*
Y4967D1*
Y4957D1*
Y4947D1*
Y4937D1*
Y4927D1*
Y4917D1*
Y4907D1*
Y4897D1*
Y4887D1*
Y4877D1*
Y4867D1*
Y4857D1*
Y4847D1*
Y4837D1*
Y4827D1*
Y4817D1*
Y4807D1*
Y4797D1*
Y4787D1*
Y4777D1*
Y4767D1*
Y4757D1*
Y4747D1*
Y4737D1*
Y4727D1*
Y4717D1*
Y4707D1*
Y4697D1*
Y4687D1*
Y4677D1*
Y4667D1*
Y4657D1*
Y4647D1*
X14286Y4637D1*
Y4627D1*
X14287Y4617D1*
X14290Y4607D1*
X14292Y4597D1*
X14294Y4587D1*
X14295Y4577D1*
X14296Y4567D1*
X14297Y4557D1*
X14300Y4547D1*
X14303Y4537D1*
X14306Y4527D1*
X14309Y4517D1*
X14312Y4507D1*
X14316Y4497D1*
X14321Y4487D1*
X14326Y4477D1*
X14332Y4467D1*
X14339Y4457D1*
X14347Y4447D1*
X14356Y4437D1*
X14366Y4427D1*
X14376Y4417D1*
X14386Y4407D1*
X14398Y4397D1*
X14412Y4387D1*
X14429Y4377D1*
X14452Y4367D1*
X14484Y4357D1*
X14527Y4347D1*
X14575Y4337D1*
X14505Y5077D2*
Y5067D1*
Y5057D1*
Y5047D1*
Y5037D1*
Y5027D1*
Y5017D1*
Y5007D1*
Y4997D1*
Y4987D1*
Y4977D1*
Y4967D1*
Y4957D1*
Y4947D1*
Y4937D1*
Y4927D1*
Y4917D1*
Y4907D1*
Y4897D1*
Y4887D1*
Y4877D1*
Y4867D1*
Y4857D1*
Y4847D1*
Y4837D1*
Y4827D1*
Y4817D1*
Y4807D1*
Y4797D1*
Y4787D1*
Y4777D1*
Y4767D1*
Y4757D1*
Y4747D1*
Y4737D1*
Y4727D1*
Y4717D1*
Y4707D1*
Y4697D1*
Y4687D1*
Y4677D1*
Y4667D1*
Y4657D1*
Y4647D1*
Y4637D1*
Y4627D1*
X14506Y4617D1*
Y4607D1*
X14507Y4597D1*
X14510Y4587D1*
X14514Y4577D1*
X14518Y4567D1*
X14524Y4557D1*
X14530Y4547D1*
X14539Y4537D1*
X14550Y4527D1*
X14583Y4517D1*
X14633Y4507D1*
X14695Y4497D1*
X14755Y5077D2*
Y5067D1*
Y5057D1*
Y5047D1*
Y5037D1*
Y5027D1*
Y5017D1*
Y5007D1*
Y4997D1*
Y4987D1*
Y4977D1*
Y4967D1*
Y4957D1*
Y4947D1*
Y4937D1*
Y4927D1*
Y4917D1*
Y4907D1*
Y4897D1*
Y4887D1*
Y4877D1*
Y4867D1*
Y4857D1*
Y4847D1*
Y4837D1*
Y4827D1*
Y4817D1*
Y4807D1*
Y4797D1*
Y4787D1*
Y4777D1*
Y4767D1*
Y4757D1*
Y4747D1*
Y4737D1*
Y4727D1*
Y4717D1*
Y4707D1*
Y4697D1*
Y4687D1*
Y4677D1*
Y4667D1*
Y4657D1*
Y4647D1*
Y4637D1*
Y4627D1*
Y4617D1*
Y4607D1*
X14754Y4597D1*
X14751Y4587D1*
X14747Y4577D1*
X14743Y4567D1*
X14737Y4557D1*
X14731Y4547D1*
X14722Y4537D1*
X14711Y4527D1*
X14678Y4517D1*
X14628Y4507D1*
X14565Y4497D1*
X14975Y5077D2*
Y5067D1*
Y5057D1*
Y5047D1*
Y5037D1*
Y5027D1*
Y5017D1*
Y5007D1*
Y4997D1*
Y4987D1*
Y4977D1*
Y4967D1*
Y4957D1*
Y4947D1*
Y4937D1*
Y4927D1*
Y4917D1*
Y4907D1*
Y4897D1*
Y4887D1*
Y4877D1*
Y4867D1*
Y4857D1*
Y4847D1*
Y4837D1*
Y4827D1*
Y4817D1*
Y4807D1*
Y4797D1*
Y4787D1*
Y4777D1*
Y4767D1*
Y4757D1*
Y4747D1*
Y4737D1*
Y4727D1*
Y4717D1*
Y4707D1*
Y4697D1*
Y4687D1*
Y4677D1*
Y4667D1*
Y4657D1*
Y4647D1*
Y4637D1*
Y4627D1*
Y4617D1*
X14974Y4607D1*
X14971Y4597D1*
X14969Y4587D1*
X14967Y4577D1*
X14966Y4567D1*
X14964Y4557D1*
X14962Y4547D1*
X14959Y4537D1*
X14955Y4527D1*
X14952Y4517D1*
X14947Y4507D1*
X14943Y4497D1*
X14938Y4487D1*
X14933Y4477D1*
X14928Y4467D1*
X14921Y4457D1*
X14914Y4447D1*
X14905Y4437D1*
X14895Y4427D1*
X14885Y4417D1*
X14875Y4407D1*
X14864Y4397D1*
X14851Y4387D1*
X14835Y4377D1*
X14814Y4367D1*
X14785Y4357D1*
X14747Y4347D1*
X14705Y4337D1*
X15095Y5077D2*
Y5067D1*
Y5057D1*
Y5047D1*
Y5037D1*
Y5027D1*
Y5017D1*
Y5007D1*
Y4997D1*
Y4987D1*
Y4977D1*
Y4967D1*
Y4957D1*
Y4947D1*
Y4937D1*
Y4927D1*
Y4917D1*
X15775Y5077D2*
Y5067D1*
Y5057D1*
Y5047D1*
Y5037D1*
Y5027D1*
Y5017D1*
Y5007D1*
Y4997D1*
Y4987D1*
Y4977D1*
Y4967D1*
Y4957D1*
Y4947D1*
Y4937D1*
Y4927D1*
Y4917D1*
X13735Y4927D2*
X13716Y4917D1*
X13698Y4907D1*
X13682Y4897D1*
X13669Y4887D1*
X13658Y4877D1*
X13650Y4867D1*
X13644Y4857D1*
X13638Y4847D1*
X13634Y4837D1*
X13630Y4827D1*
X13627Y4817D1*
X13625Y4807D1*
X13622Y4797D1*
X13619Y4787D1*
X13617Y4777D1*
X13616Y4767D1*
Y4757D1*
Y4747D1*
Y4737D1*
Y4727D1*
Y4717D1*
Y4707D1*
X13615Y4697D1*
Y4687D1*
Y4677D1*
X13616Y4667D1*
Y4657D1*
X13617Y4647D1*
X13620Y4637D1*
X13622Y4627D1*
X13624Y4617D1*
X13626Y4607D1*
X13630Y4597D1*
X13634Y4587D1*
X13638Y4577D1*
X13643Y4567D1*
X13650Y4557D1*
X13658Y4547D1*
X13669Y4537D1*
X13686Y4527D1*
X13718Y4517D1*
X13770Y4507D1*
X13835Y4497D1*
X13805Y4927D2*
X13825Y4917D1*
X13843Y4907D1*
X13859Y4897D1*
X13872Y4887D1*
X13883Y4877D1*
X13891Y4867D1*
X13897Y4857D1*
X13903Y4847D1*
X13907Y4837D1*
X13911Y4827D1*
X13914Y4817D1*
X13916Y4807D1*
X13919Y4797D1*
X13922Y4787D1*
X13924Y4777D1*
X13925Y4767D1*
Y4757D1*
Y4747D1*
Y4737D1*
Y4727D1*
Y4717D1*
Y4707D1*
Y4697D1*
Y4687D1*
Y4677D1*
Y4667D1*
Y4657D1*
X13924Y4647D1*
X13921Y4637D1*
X13919Y4627D1*
X13917Y4617D1*
X13914Y4607D1*
X13911Y4597D1*
X13907Y4587D1*
X13903Y4577D1*
X13897Y4567D1*
X13891Y4557D1*
X13883Y4547D1*
X13872Y4537D1*
X13855Y4527D1*
X13823Y4517D1*
X13771Y4507D1*
X13705Y4497D1*
X15325Y4917D2*
Y4907D1*
Y4897D1*
Y4887D1*
Y4877D1*
Y4867D1*
Y4857D1*
Y4847D1*
Y4837D1*
Y4827D1*
Y4817D1*
Y4807D1*
Y4797D1*
Y4787D1*
Y4777D1*
Y4767D1*
Y4757D1*
Y4747D1*
Y4737D1*
Y4727D1*
Y4717D1*
Y4707D1*
Y4697D1*
Y4687D1*
Y4677D1*
Y4667D1*
Y4657D1*
Y4647D1*
Y4637D1*
Y4627D1*
Y4617D1*
Y4607D1*
Y4597D1*
Y4587D1*
Y4577D1*
Y4567D1*
Y4557D1*
Y4547D1*
Y4537D1*
Y4527D1*
Y4517D1*
Y4507D1*
Y4497D1*
Y4487D1*
Y4477D1*
Y4467D1*
Y4457D1*
Y4447D1*
Y4437D1*
Y4427D1*
Y4417D1*
Y4407D1*
Y4397D1*
Y4387D1*
Y4377D1*
Y4367D1*
Y4357D1*
Y4347D1*
X15545Y4917D2*
Y4907D1*
Y4897D1*
Y4887D1*
Y4877D1*
Y4867D1*
Y4857D1*
Y4847D1*
Y4837D1*
Y4827D1*
Y4817D1*
Y4807D1*
Y4797D1*
Y4787D1*
Y4777D1*
Y4767D1*
Y4757D1*
Y4747D1*
Y4737D1*
Y4727D1*
Y4717D1*
Y4707D1*
Y4697D1*
Y4687D1*
Y4677D1*
Y4667D1*
Y4657D1*
Y4647D1*
Y4637D1*
Y4627D1*
Y4617D1*
Y4607D1*
Y4597D1*
Y4587D1*
Y4577D1*
Y4567D1*
Y4557D1*
Y4547D1*
Y4537D1*
Y4527D1*
Y4517D1*
Y4507D1*
Y4497D1*
Y4487D1*
Y4477D1*
Y4467D1*
Y4457D1*
Y4447D1*
Y4437D1*
Y4427D1*
Y4417D1*
Y4407D1*
Y4397D1*
Y4387D1*
Y4377D1*
Y4367D1*
Y4357D1*
Y4347D1*
X19797Y29251D2*
X19781Y29241D1*
X19765Y29231D1*
X19750Y29221D1*
X19735Y29211D1*
X19720Y29201D1*
X19705Y29191D1*
X19690Y29181D1*
X19675Y29171D1*
X19660Y29161D1*
X19645Y29151D1*
X19630Y29141D1*
X19615Y29131D1*
X19600Y29121D1*
X19585Y29111D1*
X19570Y29101D1*
X19555Y29091D1*
X19540Y29081D1*
X19525Y29071D1*
X19510Y29061D1*
X19495Y29051D1*
X19478Y29041D1*
X19457Y29031D1*
X19429Y29021D1*
X19397Y29011D1*
X19807Y29251D2*
Y29241D1*
Y29231D1*
Y29221D1*
Y29211D1*
Y29201D1*
Y29191D1*
Y29181D1*
Y29171D1*
Y29161D1*
Y29151D1*
Y29141D1*
Y29131D1*
Y29121D1*
Y29111D1*
Y29101D1*
Y29091D1*
Y29081D1*
Y29071D1*
Y29061D1*
Y29051D1*
Y29041D1*
X19806Y29031D1*
X19800Y29021D1*
X19790Y29011D1*
X19778Y29001D1*
X19764Y28991D1*
X19749Y28981D1*
X19735Y28971D1*
X19720Y28961D1*
X19705Y28951D1*
X19690Y28941D1*
X19675Y28931D1*
X19660Y28921D1*
X19645Y28911D1*
X19630Y28901D1*
X19615Y28891D1*
X19599Y28881D1*
X19584Y28871D1*
X19567Y28861D1*
X19583Y28851D1*
X19599Y28841D1*
X19614Y28831D1*
X19630Y28821D1*
X19645Y28811D1*
X19660Y28801D1*
X19675Y28791D1*
X19690Y28781D1*
X19705Y28771D1*
X19720Y28761D1*
X19735Y28751D1*
X19750Y28741D1*
X19765Y28731D1*
X19779Y28721D1*
X19791Y28711D1*
X19800Y28701D1*
X19804Y28691D1*
X19806Y28681D1*
X19807Y28671D1*
Y28661D1*
Y28651D1*
Y28641D1*
Y28631D1*
Y28621D1*
Y28611D1*
Y28601D1*
Y28591D1*
Y28581D1*
Y28571D1*
Y28561D1*
Y28551D1*
Y28541D1*
Y28531D1*
Y28521D1*
Y28511D1*
Y28501D1*
Y28491D1*
Y28481D1*
Y28471D1*
X19077Y29231D2*
Y29221D1*
Y29211D1*
Y29201D1*
Y29191D1*
Y29181D1*
Y29171D1*
Y29161D1*
Y29151D1*
Y29141D1*
Y29131D1*
Y29121D1*
Y29111D1*
Y29101D1*
Y29091D1*
Y29081D1*
Y29071D1*
Y29061D1*
Y29051D1*
Y29041D1*
Y29031D1*
X19078Y29021D1*
X19079Y29011D1*
X19084Y29001D1*
X19095Y28991D1*
X19109Y28981D1*
X19125Y28971D1*
X19141Y28961D1*
X19159Y28951D1*
X19176Y28941D1*
X19193Y28931D1*
X19211Y28921D1*
X19228Y28911D1*
X19246Y28901D1*
X19263Y28891D1*
X19276Y28881D1*
X19286Y28871D1*
X19294Y28861D1*
X19280Y28851D1*
X19265Y28841D1*
X19250Y28831D1*
X19234Y28821D1*
X19217Y28811D1*
X19201Y28801D1*
X19185Y28791D1*
X19170Y28781D1*
X19153Y28771D1*
X19137Y28761D1*
X19121Y28751D1*
X19106Y28741D1*
X19094Y28731D1*
X19084Y28721D1*
X19080Y28711D1*
X19079Y28701D1*
X19078Y28691D1*
X19077Y28681D1*
Y28671D1*
Y28661D1*
Y28651D1*
Y28641D1*
Y28631D1*
Y28621D1*
Y28611D1*
Y28601D1*
Y28591D1*
Y28581D1*
Y28571D1*
Y28561D1*
Y28551D1*
Y28541D1*
Y28531D1*
Y28521D1*
Y28511D1*
Y28501D1*
Y28491D1*
X19087Y29231D2*
X19103Y29221D1*
X19119Y29211D1*
X19134Y29201D1*
X19150Y29191D1*
X19165Y29181D1*
X19180Y29171D1*
X19195Y29161D1*
X19210Y29151D1*
X19225Y29141D1*
X19241Y29131D1*
X19257Y29121D1*
X19274Y29111D1*
X19289Y29101D1*
X19304Y29091D1*
X19320Y29081D1*
X19335Y29071D1*
X19350Y29061D1*
X19365Y29051D1*
X19381Y29041D1*
X19399Y29031D1*
X19422Y29021D1*
X19447Y29011D1*
X19427Y28721D2*
X19416Y28711D1*
X19403Y28701D1*
X19389Y28691D1*
X19374Y28681D1*
X19360Y28671D1*
X19345Y28661D1*
X19330Y28651D1*
X19315Y28641D1*
X19300Y28631D1*
X19285Y28621D1*
X19270Y28611D1*
X19255Y28601D1*
X19240Y28591D1*
X19225Y28581D1*
X19210Y28571D1*
X19195Y28561D1*
X19180Y28551D1*
X19165Y28541D1*
X19150Y28531D1*
X19135Y28521D1*
X19119Y28511D1*
X19104Y28501D1*
X19087Y28491D1*
X19427Y28721D2*
X19439Y28711D1*
X19452Y28701D1*
X19466Y28691D1*
X19480Y28681D1*
X19495Y28671D1*
X19510Y28661D1*
X19525Y28651D1*
X19540Y28641D1*
X19555Y28631D1*
X19570Y28621D1*
X19585Y28611D1*
X19600Y28601D1*
X19615Y28591D1*
X19630Y28581D1*
X19645Y28571D1*
X19660Y28561D1*
X19675Y28551D1*
X19690Y28541D1*
X19705Y28531D1*
X19720Y28521D1*
X19735Y28511D1*
X19750Y28501D1*
X19765Y28491D1*
X19781Y28481D1*
X19797Y28471D1*
X19077Y28371D2*
Y28361D1*
Y28351D1*
Y28341D1*
Y28331D1*
Y28321D1*
Y28311D1*
Y28301D1*
Y28291D1*
Y28281D1*
Y28271D1*
Y28261D1*
Y28251D1*
Y28241D1*
Y28231D1*
Y28221D1*
Y28211D1*
Y28201D1*
Y28191D1*
Y28181D1*
Y28171D1*
Y28161D1*
Y28151D1*
X19557Y28371D2*
X19594Y28361D1*
X19626Y28351D1*
X19652Y28341D1*
X19673Y28331D1*
X19690Y28321D1*
X19704Y28311D1*
X19716Y28301D1*
X19727Y28291D1*
X19737Y28281D1*
X19747Y28271D1*
X19756Y28261D1*
X19763Y28251D1*
X19770Y28241D1*
X19777Y28231D1*
X19782Y28221D1*
X19786Y28211D1*
X19790Y28201D1*
X19794Y28191D1*
X19797Y28181D1*
X19800Y28171D1*
X19804Y28161D1*
X19805Y28151D1*
X19806Y28141D1*
X19807Y28131D1*
X19809Y28121D1*
X19811Y28111D1*
X19814Y28101D1*
X19816Y28091D1*
Y28081D1*
X19817Y28071D1*
Y28061D1*
Y28051D1*
Y28041D1*
Y28031D1*
Y28021D1*
Y28011D1*
Y28001D1*
X19816Y27991D1*
X19813Y27981D1*
X19811Y27971D1*
X19809Y27961D1*
X19808Y27951D1*
X19807Y27941D1*
Y27931D1*
Y27921D1*
X19806Y27911D1*
X19803Y27901D1*
X19801Y27891D1*
X19798Y27881D1*
X19796Y27871D1*
X19793Y27861D1*
X19789Y27851D1*
X19784Y27841D1*
X19780Y27831D1*
X19775Y27821D1*
X19769Y27811D1*
X19763Y27801D1*
X19755Y27791D1*
X19746Y27781D1*
X19737Y27771D1*
X19727Y27761D1*
X19717Y27751D1*
X19705Y27741D1*
X19692Y27731D1*
X19676Y27721D1*
X19655Y27711D1*
X19626Y27701D1*
X19589Y27691D1*
X19547Y27681D1*
X19557Y28151D2*
X19577Y28141D1*
X19595Y28131D1*
X19611Y28121D1*
X19624Y28111D1*
X19634Y28101D1*
X19641Y28091D1*
X19646Y28081D1*
X19650Y28071D1*
X19653Y28061D1*
X19655Y28051D1*
X19656Y28041D1*
X19657Y28031D1*
Y28021D1*
Y28011D1*
X19656Y28001D1*
X19653Y27991D1*
X19650Y27981D1*
X19647Y27971D1*
X19642Y27961D1*
X19634Y27951D1*
X19624Y27941D1*
X19611Y27931D1*
X19594Y27921D1*
X19576Y27911D1*
X19557Y27901D1*
X19077D2*
Y27891D1*
Y27881D1*
Y27871D1*
Y27861D1*
Y27851D1*
Y27841D1*
Y27831D1*
Y27821D1*
Y27811D1*
Y27801D1*
Y27791D1*
Y27781D1*
Y27771D1*
Y27761D1*
Y27751D1*
Y27741D1*
Y27731D1*
Y27721D1*
Y27711D1*
Y27701D1*
Y27691D1*
Y27681D1*
X19777Y27581D2*
X19752Y27571D1*
X19726Y27561D1*
X19700Y27551D1*
X19674Y27541D1*
X19647Y27531D1*
X19621Y27521D1*
X19594Y27511D1*
X19567Y27501D1*
X19541Y27491D1*
X19514Y27481D1*
X19487Y27471D1*
X19461Y27461D1*
X19434Y27451D1*
X19407Y27441D1*
X19381Y27431D1*
X19354Y27421D1*
X19327Y27411D1*
X19301Y27401D1*
X19274Y27391D1*
X19247Y27381D1*
X19221Y27371D1*
X19194Y27361D1*
X19167Y27351D1*
X19141Y27341D1*
X19118Y27331D1*
X19100Y27321D1*
X19086Y27311D1*
X19081Y27301D1*
X19079Y27291D1*
X19078Y27281D1*
X19077Y27271D1*
Y27261D1*
Y27251D1*
Y27241D1*
Y27231D1*
Y27221D1*
Y27211D1*
Y27201D1*
Y27191D1*
Y27181D1*
Y27171D1*
Y27161D1*
Y27151D1*
Y27141D1*
Y27131D1*
Y27121D1*
Y27111D1*
Y27101D1*
X19078Y27091D1*
X19080Y27081D1*
X19089Y27071D1*
X19108Y27061D1*
X19130Y27051D1*
X19155Y27041D1*
X19181Y27031D1*
X19209Y27021D1*
X19236Y27011D1*
X19263Y27001D1*
X19291Y26991D1*
X19318Y26981D1*
X19346Y26971D1*
X19373Y26961D1*
X19400Y26951D1*
X19427Y26941D1*
X19454Y26931D1*
X19481Y26921D1*
X19509Y26911D1*
X19536Y26901D1*
X19563Y26891D1*
X19590Y26881D1*
X19617Y26871D1*
X19644Y26861D1*
X19671Y26851D1*
X19699Y26841D1*
X19726Y26831D1*
X19752Y26821D1*
X19777Y26811D1*
X19807Y27581D2*
Y27571D1*
Y27561D1*
Y27551D1*
Y27541D1*
Y27531D1*
Y27521D1*
Y27511D1*
Y27501D1*
Y27491D1*
Y27481D1*
Y27471D1*
Y27461D1*
Y27451D1*
Y27441D1*
Y27431D1*
Y27421D1*
Y27411D1*
Y27401D1*
Y27391D1*
X19806Y27381D1*
X19803Y27371D1*
X19789Y27361D1*
X19769Y27351D1*
X19745Y27341D1*
X19722Y27331D1*
X19703Y27321D1*
X19693Y27311D1*
X19690Y27301D1*
X19688Y27291D1*
Y27281D1*
X19687Y27271D1*
Y27261D1*
Y27251D1*
Y27241D1*
Y27231D1*
Y27221D1*
Y27211D1*
Y27201D1*
Y27191D1*
Y27181D1*
Y27171D1*
Y27161D1*
Y27151D1*
Y27141D1*
Y27131D1*
Y27121D1*
Y27111D1*
Y27101D1*
X19688Y27091D1*
X19689Y27081D1*
X19695Y27071D1*
X19712Y27061D1*
X19735Y27051D1*
X19759Y27041D1*
X19780Y27031D1*
X19797Y27021D1*
X19802Y27011D1*
X19805Y27001D1*
X19806Y26991D1*
X19807Y26981D1*
Y26971D1*
Y26961D1*
Y26951D1*
Y26941D1*
Y26931D1*
Y26921D1*
Y26911D1*
Y26901D1*
Y26891D1*
Y26881D1*
Y26871D1*
Y26861D1*
Y26851D1*
Y26841D1*
Y26831D1*
Y26821D1*
Y26811D1*
X19547Y27281D2*
X19517Y27271D1*
X19486Y27261D1*
X19453Y27251D1*
X19420Y27241D1*
X19387Y27231D1*
X19354Y27221D1*
X19323Y27211D1*
X19294Y27201D1*
X19267Y27191D1*
X19294Y27181D1*
X19324Y27171D1*
X19357Y27161D1*
X19390Y27151D1*
X19425Y27141D1*
X19463Y27131D1*
X19508Y27121D1*
X19557Y27111D1*
X19537Y27281D2*
Y27271D1*
Y27261D1*
Y27251D1*
Y27241D1*
Y27231D1*
Y27221D1*
Y27211D1*
Y27201D1*
Y27191D1*
Y27181D1*
Y27171D1*
Y27161D1*
Y27151D1*
Y27141D1*
X19532Y27131D1*
X19516Y27121D1*
X19497Y27111D1*
X15105Y30612D2*
D24*
X15086Y30603D1*
X15067Y30584D1*
X15058Y30565D1*
Y30526D1*
X15067Y30507D1*
X15086Y30488D1*
X15105Y30478D1*
X15134Y30469D1*
X15182D1*
X15211Y30478D1*
X15230Y30488D1*
X15249Y30507D1*
X15259Y30526D1*
Y30565D1*
X15249Y30584D1*
X15230Y30603D1*
X15211Y30612D1*
X15096Y30732D2*
X15086Y30752D1*
X15058Y30780D1*
X15259D1*
X14132Y29456D2*
X14122Y29475D1*
X14103Y29494D1*
X14084Y29504D1*
X14046D1*
X14027Y29494D1*
X14008Y29475D1*
X13998Y29456D1*
X13988Y29427D1*
Y29379D1*
X13998Y29351D1*
X14008Y29332D1*
X14027Y29313D1*
X14046Y29303D1*
X14084D1*
X14103Y29313D1*
X14122Y29332D1*
X14132Y29351D1*
X14261Y29456D2*
Y29465D1*
X14271Y29485D1*
X14281Y29494D1*
X14300Y29504D1*
X14338D1*
X14357Y29494D1*
X14367Y29485D1*
X14376Y29465D1*
Y29446D1*
X14367Y29427D1*
X14347Y29399D1*
X14252Y29303D1*
X14386D1*
X11382Y28768D2*
X11372Y28787D1*
X11353Y28807D1*
X11334Y28816D1*
X11296D1*
X11277Y28807D1*
X11258Y28787D1*
X11248Y28768D1*
X11238Y28740D1*
Y28692D1*
X11248Y28663D1*
X11258Y28644D1*
X11277Y28625D1*
X11296Y28615D1*
X11334D1*
X11353Y28625D1*
X11372Y28644D1*
X11382Y28663D1*
X11521Y28816D2*
X11626D1*
X11569Y28740D1*
X11597D1*
X11617Y28730D1*
X11626Y28721D1*
X11636Y28692D1*
Y28673D1*
X11626Y28644D1*
X11607Y28625D1*
X11578Y28615D1*
X11550D1*
X11521Y28625D1*
X11511Y28635D1*
X11502Y28654D1*
X12752Y28831D2*
X12743Y28850D1*
X12723Y28869D1*
X12704Y28879D1*
X12666D1*
X12647Y28869D1*
X12628Y28850D1*
X12618Y28831D1*
X12609Y28802D1*
Y28754D1*
X12618Y28726D1*
X12628Y28707D1*
X12647Y28688D1*
X12666Y28678D1*
X12704D1*
X12723Y28688D1*
X12743Y28707D1*
X12752Y28726D1*
X12968Y28678D2*
Y28879D1*
X12872Y28745D1*
X13015D1*
X15507Y28769D2*
X15497Y28788D1*
X15478Y28807D1*
X15459Y28816D1*
X15421D1*
X15402Y28807D1*
X15383Y28788D1*
X15373Y28769D1*
X15363Y28740D1*
Y28692D1*
X15373Y28663D1*
X15383Y28644D1*
X15402Y28625D1*
X15421Y28615D1*
X15459D1*
X15478Y28625D1*
X15497Y28644D1*
X15507Y28663D1*
X15742Y28816D2*
X15646D1*
X15636Y28730D1*
X15646Y28740D1*
X15675Y28749D1*
X15703D1*
X15732Y28740D1*
X15751Y28721D1*
X15761Y28692D1*
Y28673D1*
X15751Y28644D1*
X15732Y28625D1*
X15703Y28615D1*
X15675D1*
X15646Y28625D1*
X15636Y28635D1*
X15627Y28654D1*
X11762Y28083D2*
X11752Y28102D1*
X11733Y28122D1*
X11714Y28131D1*
X11676D1*
X11656Y28122D1*
X11637Y28102D1*
X11628Y28083D1*
X11618Y28055D1*
Y28007D1*
X11628Y27978D1*
X11637Y27959D1*
X11656Y27940D1*
X11676Y27930D1*
X11714D1*
X11733Y27940D1*
X11752Y27959D1*
X11762Y27978D1*
X11996Y28102D2*
X11987Y28121D1*
X11958Y28131D1*
X11939D1*
X11910Y28121D1*
X11891Y28093D1*
X11882Y28045D1*
Y27997D1*
X11891Y27959D1*
X11910Y27940D1*
X11939Y27930D1*
X11949D1*
X11977Y27940D1*
X11996Y27959D1*
X12006Y27988D1*
Y27997D1*
X11996Y28026D1*
X11977Y28045D1*
X11949Y28054D1*
X11939D1*
X11910Y28045D1*
X11891Y28026D1*
X11882Y27997D1*
X15507Y28019D2*
X15497Y28038D1*
X15478Y28057D1*
X15459Y28066D1*
X15421D1*
X15402Y28057D1*
X15383Y28038D1*
X15373Y28019D1*
X15363Y27990D1*
Y27942D1*
X15373Y27913D1*
X15383Y27894D1*
X15402Y27875D1*
X15421Y27865D1*
X15459D1*
X15478Y27875D1*
X15497Y27894D1*
X15507Y27913D1*
X15665Y27865D2*
X15761Y28066D1*
X15627D1*
X16882Y27769D2*
X16872Y27788D1*
X16853Y27807D1*
X16834Y27816D1*
X16796D1*
X16777Y27807D1*
X16758Y27788D1*
X16748Y27769D1*
X16738Y27740D1*
Y27692D1*
X16748Y27663D1*
X16758Y27644D1*
X16777Y27625D1*
X16796Y27615D1*
X16834D1*
X16853Y27625D1*
X16872Y27644D1*
X16882Y27663D1*
X17050Y27816D2*
X17021Y27807D1*
X17011Y27788D1*
Y27768D1*
X17021Y27749D1*
X17040Y27740D1*
X17078Y27730D1*
X17107Y27721D1*
X17126Y27701D1*
X17136Y27682D1*
Y27654D1*
X17126Y27635D1*
X17117Y27625D1*
X17088Y27615D1*
X17050D1*
X17021Y27625D1*
X17011Y27635D1*
X17002Y27654D1*
Y27682D1*
X17011Y27701D1*
X17031Y27721D1*
X17059Y27730D1*
X17097Y27740D1*
X17117Y27749D1*
X17126Y27768D1*
Y27788D1*
X17117Y27807D1*
X17088Y27816D1*
X17050D1*
X18262Y27769D2*
X18252Y27788D1*
X18233Y27807D1*
X18214Y27816D1*
X18176D1*
X18156Y27807D1*
X18137Y27788D1*
X18128Y27769D1*
X18118Y27740D1*
Y27692D1*
X18128Y27663D1*
X18137Y27644D1*
X18156Y27625D1*
X18176Y27615D1*
X18214D1*
X18233Y27625D1*
X18252Y27644D1*
X18262Y27663D1*
X18506Y27749D2*
X18496Y27721D1*
X18477Y27701D1*
X18449Y27692D1*
X18439D1*
X18410Y27701D1*
X18391Y27721D1*
X18382Y27749D1*
Y27759D1*
X18391Y27788D1*
X18410Y27807D1*
X18439Y27816D1*
X18449D1*
X18477Y27807D1*
X18496Y27788D1*
X18506Y27749D1*
Y27701D1*
X18496Y27654D1*
X18477Y27625D1*
X18449Y27615D1*
X18429D1*
X18401Y27625D1*
X18391Y27644D1*
X9088Y24268D2*
X9079Y24287D1*
X9059Y24307D1*
X9040Y24316D1*
X9002D1*
X8983Y24307D1*
X8964Y24287D1*
X8954Y24268D1*
X8945Y24240D1*
Y24192D1*
X8954Y24163D1*
X8964Y24144D1*
X8983Y24125D1*
X9002Y24115D1*
X9040D1*
X9059Y24125D1*
X9079Y24144D1*
X9088Y24163D1*
X9208Y24278D2*
X9227Y24287D1*
X9256Y24316D1*
Y24115D1*
X9434Y24316D2*
X9405Y24306D1*
X9386Y24278D1*
X9376Y24230D1*
Y24201D1*
X9386Y24154D1*
X9405Y24125D1*
X9434Y24115D1*
X9453D1*
X9481Y24125D1*
X9500Y24154D1*
X9510Y24201D1*
Y24230D1*
X9500Y24278D1*
X9481Y24306D1*
X9453Y24316D1*
X9434D1*
X9500Y24278D2*
X9386Y24154D1*
X17232Y22821D2*
X17213Y22811D1*
X17194Y22792D1*
X17185Y22773D1*
Y22735D1*
X17194Y22715D1*
X17213Y22696D1*
X17232Y22687D1*
X17261Y22677D1*
X17309D1*
X17338Y22687D1*
X17357Y22696D1*
X17376Y22715D1*
X17386Y22735D1*
Y22773D1*
X17376Y22792D1*
X17357Y22811D1*
X17338Y22821D1*
X17223Y22941D2*
X17213Y22960D1*
X17185Y22989D1*
X17386D1*
X17223Y23109D2*
X17213Y23128D1*
X17185Y23156D1*
X17386D1*
X11446Y21145D2*
X11437Y21164D1*
X11418Y21184D1*
X11399Y21193D1*
X11360D1*
X11341Y21184D1*
X11322Y21164D1*
X11312Y21145D1*
X11303Y21117D1*
Y21069D1*
X11312Y21040D1*
X11322Y21021D1*
X11341Y21002D1*
X11360Y20992D1*
X11399D1*
X11418Y21002D1*
X11437Y21021D1*
X11446Y21040D1*
X11566Y21155D2*
X11586Y21164D1*
X11614Y21193D1*
Y20992D1*
X11744Y21145D2*
Y21155D1*
X11754Y21174D1*
X11763Y21183D1*
X11782Y21193D1*
X11821D1*
X11840Y21183D1*
X11849Y21174D1*
X11859Y21155D1*
Y21136D1*
X11849Y21116D1*
X11830Y21088D1*
X11734Y20992D1*
X11868D1*
X20798Y17950D2*
X20788Y17969D1*
X20769Y17988D1*
X20750Y17998D1*
X20712D1*
X20693Y17988D1*
X20674Y17969D1*
X20664Y17950D1*
X20654Y17921D1*
Y17873D1*
X20664Y17845D1*
X20674Y17826D1*
X20693Y17807D1*
X20712Y17797D1*
X20750D1*
X20769Y17807D1*
X20788Y17826D1*
X20798Y17845D1*
X20918Y17959D2*
X20937Y17969D1*
X20966Y17998D1*
Y17797D1*
X21105Y17998D2*
X21210D1*
X21153Y17921D1*
X21181D1*
X21200Y17912D1*
X21210Y17902D1*
X21220Y17873D1*
Y17854D1*
X21210Y17826D1*
X21191Y17806D1*
X21162Y17797D1*
X21134D1*
X21105Y17806D1*
X21095Y17816D1*
X21086Y17835D1*
X7804Y17915D2*
X7795Y17934D1*
X7776Y17953D1*
X7757Y17962D1*
X7718D1*
X7699Y17953D1*
X7680Y17934D1*
X7670Y17915D1*
X7661Y17886D1*
Y17838D1*
X7670Y17809D1*
X7680Y17790D1*
X7699Y17771D1*
X7718Y17762D1*
X7757D1*
X7776Y17771D1*
X7795Y17790D1*
X7804Y17809D1*
X7924Y17924D2*
X7944Y17934D1*
X7972Y17962D1*
Y17762D1*
X8188D2*
Y17962D1*
X8092Y17828D1*
X8236D1*
X11798Y17769D2*
X11788Y17788D1*
X11769Y17807D1*
X11750Y17816D1*
X11712D1*
X11693Y17807D1*
X11674Y17788D1*
X11664Y17769D1*
X11654Y17740D1*
Y17692D1*
X11664Y17663D1*
X11674Y17644D1*
X11693Y17625D1*
X11712Y17615D1*
X11750D1*
X11769Y17625D1*
X11788Y17644D1*
X11798Y17663D1*
X11918Y17778D2*
X11937Y17788D1*
X11966Y17816D1*
Y17615D1*
X12200Y17816D2*
X12105D1*
X12095Y17730D1*
X12105Y17740D1*
X12134Y17749D1*
X12162D1*
X12191Y17740D1*
X12210Y17721D1*
X12220Y17692D1*
Y17673D1*
X12210Y17644D1*
X12191Y17625D1*
X12162Y17615D1*
X12134D1*
X12105Y17625D1*
X12095Y17635D1*
X12086Y17654D1*
X15553Y17769D2*
X15543Y17788D1*
X15524Y17807D1*
X15505Y17816D1*
X15467D1*
X15447Y17807D1*
X15428Y17788D1*
X15419Y17769D1*
X15409Y17740D1*
Y17692D1*
X15419Y17663D1*
X15428Y17644D1*
X15447Y17625D1*
X15467Y17615D1*
X15505D1*
X15524Y17625D1*
X15543Y17644D1*
X15553Y17663D1*
X15673Y17778D2*
X15692Y17788D1*
X15721Y17816D1*
Y17615D1*
X15955Y17788D2*
X15946Y17807D1*
X15917Y17816D1*
X15898D1*
X15869Y17807D1*
X15850Y17778D1*
X15841Y17730D1*
Y17682D1*
X15850Y17644D1*
X15869Y17625D1*
X15898Y17615D1*
X15908D1*
X15936Y17625D1*
X15955Y17644D1*
X15965Y17673D1*
Y17682D1*
X15955Y17711D1*
X15936Y17730D1*
X15908Y17740D1*
X15898D1*
X15869Y17730D1*
X15850Y17711D1*
X15841Y17682D1*
X5684Y16802D2*
X5675Y16821D1*
X5655Y16840D1*
X5636Y16849D1*
X5598D1*
X5579Y16840D1*
X5560Y16821D1*
X5550Y16802D1*
X5541Y16773D1*
Y16725D1*
X5550Y16696D1*
X5560Y16677D1*
X5579Y16658D1*
X5598Y16648D1*
X5636D1*
X5655Y16658D1*
X5675Y16677D1*
X5684Y16696D1*
X5804Y16811D2*
X5823Y16821D1*
X5852Y16849D1*
Y16648D1*
X6010D2*
X6106Y16849D1*
X5972D1*
X21914Y15274D2*
X21904Y15293D1*
X21885Y15312D1*
X21866Y15322D1*
X21828D1*
X21808Y15312D1*
X21789Y15293D1*
X21780Y15274D1*
X21770Y15245D1*
Y15197D1*
X21780Y15169D1*
X21789Y15149D1*
X21808Y15130D1*
X21828Y15121D1*
X21866D1*
X21885Y15130D1*
X21904Y15149D1*
X21914Y15169D1*
X22034Y15283D2*
X22053Y15293D1*
X22082Y15321D1*
Y15121D1*
X22249Y15321D2*
X22221Y15312D1*
X22211Y15293D1*
Y15274D1*
X22221Y15255D1*
X22240Y15245D1*
X22278Y15235D1*
X22307Y15226D1*
X22326Y15207D1*
X22335Y15188D1*
Y15159D1*
X22326Y15140D1*
X22316Y15130D1*
X22288Y15121D1*
X22249D1*
X22221Y15130D1*
X22211Y15140D1*
X22202Y15159D1*
Y15188D1*
X22211Y15207D1*
X22230Y15226D1*
X22259Y15235D1*
X22297Y15245D1*
X22316Y15255D1*
X22326Y15274D1*
Y15293D1*
X22316Y15312D1*
X22288Y15321D1*
X22249D1*
X13718Y15331D2*
X13708Y15350D1*
X13689Y15369D1*
X13670Y15379D1*
X13632D1*
X13613Y15369D1*
X13594Y15350D1*
X13584Y15331D1*
X13574Y15302D1*
Y15254D1*
X13584Y15226D1*
X13594Y15207D1*
X13613Y15188D1*
X13632Y15178D1*
X13670D1*
X13689Y15188D1*
X13708Y15207D1*
X13718Y15226D1*
X13838Y15340D2*
X13857Y15350D1*
X13886Y15379D1*
Y15178D1*
X14130Y15312D2*
X14121Y15283D1*
X14102Y15264D1*
X14073Y15254D1*
X14063D1*
X14035Y15264D1*
X14016Y15283D1*
X14006Y15312D1*
Y15321D1*
X14016Y15350D1*
X14035Y15369D1*
X14063Y15379D1*
X14073D1*
X14102Y15369D1*
X14121Y15350D1*
X14130Y15312D1*
Y15264D1*
X14121Y15216D1*
X14102Y15187D1*
X14073Y15178D1*
X14054D1*
X14025Y15187D1*
X14016Y15207D1*
X10380Y14706D2*
X10370Y14725D1*
X10351Y14744D1*
X10332Y14754D1*
X10294D1*
X10275Y14744D1*
X10256Y14725D1*
X10246Y14706D1*
X10236Y14677D1*
Y14629D1*
X10246Y14601D1*
X10256Y14582D1*
X10275Y14563D1*
X10294Y14553D1*
X10332D1*
X10351Y14563D1*
X10370Y14582D1*
X10380Y14601D1*
X10510Y14706D2*
Y14715D1*
X10519Y14735D1*
X10529Y14744D1*
X10548Y14754D1*
X10586D1*
X10605Y14744D1*
X10615Y14735D1*
X10624Y14715D1*
Y14696D1*
X10615Y14677D1*
X10596Y14649D1*
X10500Y14553D1*
X10634D1*
X10811Y14754D2*
X10782Y14744D1*
X10763Y14715D1*
X10754Y14668D1*
Y14639D1*
X10763Y14591D1*
X10782Y14562D1*
X10811Y14553D1*
X10830D1*
X10859Y14562D1*
X10878Y14591D1*
X10888Y14639D1*
Y14668D1*
X10878Y14715D1*
X10859Y14744D1*
X10830Y14754D1*
X10811D1*
X10878Y14715D2*
X10763Y14591D1*
X7747Y13477D2*
X7737Y13496D1*
X7718Y13515D1*
X7699Y13525D1*
X7661D1*
X7641Y13515D1*
X7622Y13496D1*
X7613Y13477D1*
X7603Y13448D1*
Y13401D1*
X7613Y13372D1*
X7622Y13353D1*
X7641Y13334D1*
X7661Y13324D1*
X7699D1*
X7718Y13334D1*
X7737Y13353D1*
X7747Y13372D1*
X7876Y13477D2*
Y13487D1*
X7886Y13506D1*
X7895Y13515D1*
X7915Y13525D1*
X7953D1*
X7972Y13515D1*
X7981Y13506D1*
X7991Y13487D1*
Y13467D1*
X7981Y13448D1*
X7962Y13420D1*
X7867Y13324D1*
X8001D1*
X8121Y13487D2*
X8140Y13496D1*
X8169Y13525D1*
Y13324D1*
X15505Y14456D2*
X15495Y14475D1*
X15476Y14494D1*
X15457Y14504D1*
X15419D1*
X15400Y14494D1*
X15381Y14475D1*
X15371Y14456D1*
X15361Y14427D1*
Y14379D1*
X15371Y14351D1*
X15381Y14332D1*
X15400Y14313D1*
X15419Y14303D1*
X15457D1*
X15476Y14313D1*
X15495Y14332D1*
X15505Y14351D1*
X15635Y14456D2*
Y14465D1*
X15644Y14485D1*
X15654Y14494D1*
X15673Y14504D1*
X15711D1*
X15730Y14494D1*
X15740Y14485D1*
X15749Y14465D1*
Y14446D1*
X15740Y14427D1*
X15721Y14399D1*
X15625Y14303D1*
X15759D1*
X15888Y14456D2*
Y14465D1*
X15898Y14485D1*
X15907Y14494D1*
X15927Y14504D1*
X15965D1*
X15984Y14494D1*
X15993Y14485D1*
X16003Y14465D1*
Y14446D1*
X15993Y14427D1*
X15974Y14399D1*
X15879Y14303D1*
X16013D1*
X11755Y13956D2*
X11745Y13975D1*
X11726Y13994D1*
X11707Y14004D1*
X11669D1*
X11650Y13994D1*
X11631Y13975D1*
X11621Y13956D1*
X11611Y13927D1*
Y13879D1*
X11621Y13851D1*
X11631Y13832D1*
X11650Y13813D1*
X11669Y13803D1*
X11707D1*
X11726Y13813D1*
X11745Y13832D1*
X11755Y13851D1*
X11885Y13956D2*
Y13965D1*
X11894Y13985D1*
X11904Y13994D1*
X11923Y14004D1*
X11961D1*
X11980Y13994D1*
X11990Y13985D1*
X11999Y13965D1*
Y13946D1*
X11990Y13927D1*
X11971Y13899D1*
X11875Y13803D1*
X12009D1*
X12148Y14004D2*
X12253D1*
X12196Y13927D1*
X12224D1*
X12243Y13918D1*
X12253Y13908D1*
X12263Y13879D1*
Y13860D1*
X12253Y13832D1*
X12234Y13812D1*
X12205Y13803D1*
X12177D1*
X12148Y13812D1*
X12138Y13822D1*
X12129Y13841D1*
X15500Y13728D2*
X15491Y13747D1*
X15471Y13766D1*
X15452Y13776D1*
X15414D1*
X15395Y13766D1*
X15376Y13747D1*
X15366Y13728D1*
X15357Y13699D1*
Y13651D1*
X15366Y13623D1*
X15376Y13604D1*
X15395Y13585D1*
X15414Y13575D1*
X15452D1*
X15471Y13585D1*
X15491Y13604D1*
X15500Y13623D1*
X15630Y13728D2*
Y13737D1*
X15639Y13757D1*
X15649Y13766D1*
X15668Y13776D1*
X15706D1*
X15725Y13766D1*
X15735Y13757D1*
X15744Y13737D1*
Y13718D1*
X15735Y13699D1*
X15716Y13671D1*
X15620Y13575D1*
X15754D1*
X15970D2*
Y13776D1*
X15874Y13642D1*
X16017D1*
X18255Y13394D2*
X18245Y13413D1*
X18226Y13432D1*
X18207Y13441D1*
X18169D1*
X18150Y13432D1*
X18131Y13413D1*
X18121Y13394D1*
X18111Y13365D1*
Y13317D1*
X18121Y13288D1*
X18131Y13269D1*
X18150Y13250D1*
X18169Y13240D1*
X18207D1*
X18226Y13250D1*
X18245Y13269D1*
X18255Y13288D1*
X18385Y13393D2*
Y13403D1*
X18394Y13422D1*
X18404Y13432D1*
X18423Y13441D1*
X18461D1*
X18480Y13432D1*
X18490Y13422D1*
X18499Y13403D1*
Y13384D1*
X18490Y13365D1*
X18471Y13336D1*
X18375Y13240D1*
X18509D1*
X18743Y13441D2*
X18648D1*
X18638Y13355D1*
X18648Y13365D1*
X18677Y13374D1*
X18705D1*
X18734Y13365D1*
X18753Y13346D1*
X18763Y13317D1*
Y13298D1*
X18753Y13269D1*
X18734Y13250D1*
X18705Y13240D1*
X18677D1*
X18648Y13250D1*
X18638Y13260D1*
X18629Y13279D1*
X10385Y12706D2*
X10375Y12725D1*
X10356Y12744D1*
X10337Y12754D1*
X10299D1*
X10279Y12744D1*
X10260Y12725D1*
X10251Y12706D1*
X10241Y12677D1*
Y12629D1*
X10251Y12601D1*
X10260Y12582D1*
X10279Y12563D1*
X10299Y12553D1*
X10337D1*
X10356Y12563D1*
X10375Y12582D1*
X10385Y12601D1*
X10514Y12706D2*
Y12715D1*
X10524Y12735D1*
X10533Y12744D1*
X10553Y12754D1*
X10591D1*
X10610Y12744D1*
X10619Y12735D1*
X10629Y12715D1*
Y12696D1*
X10619Y12677D1*
X10600Y12649D1*
X10505Y12553D1*
X10639D1*
X10873Y12725D2*
X10864Y12744D1*
X10835Y12754D1*
X10816D1*
X10787Y12744D1*
X10768Y12715D1*
X10759Y12668D1*
Y12620D1*
X10768Y12582D1*
X10787Y12562D1*
X10816Y12553D1*
X10826D1*
X10854Y12562D1*
X10873Y12582D1*
X10883Y12610D1*
Y12620D1*
X10873Y12649D1*
X10854Y12668D1*
X10826Y12677D1*
X10816D1*
X10787Y12668D1*
X10768Y12649D1*
X10759Y12620D1*
X15505Y12706D2*
X15495Y12725D1*
X15476Y12744D1*
X15457Y12754D1*
X15419D1*
X15400Y12744D1*
X15381Y12725D1*
X15371Y12706D1*
X15361Y12677D1*
Y12629D1*
X15371Y12601D1*
X15381Y12582D1*
X15400Y12563D1*
X15419Y12553D1*
X15457D1*
X15476Y12563D1*
X15495Y12582D1*
X15505Y12601D1*
X15635Y12706D2*
Y12715D1*
X15644Y12735D1*
X15654Y12744D1*
X15673Y12754D1*
X15711D1*
X15730Y12744D1*
X15740Y12735D1*
X15749Y12715D1*
Y12696D1*
X15740Y12677D1*
X15721Y12649D1*
X15625Y12553D1*
X15759D1*
X15917D2*
X16013Y12754D1*
X15879D1*
X16880Y12706D2*
X16870Y12725D1*
X16851Y12744D1*
X16832Y12754D1*
X16794D1*
X16775Y12744D1*
X16756Y12725D1*
X16746Y12706D1*
X16736Y12677D1*
Y12629D1*
X16746Y12601D1*
X16756Y12582D1*
X16775Y12563D1*
X16794Y12553D1*
X16832D1*
X16851Y12563D1*
X16870Y12582D1*
X16880Y12601D1*
X17010Y12706D2*
Y12715D1*
X17019Y12735D1*
X17029Y12744D1*
X17048Y12754D1*
X17086D1*
X17105Y12744D1*
X17115Y12735D1*
X17124Y12715D1*
Y12696D1*
X17115Y12677D1*
X17096Y12649D1*
X17000Y12553D1*
X17134D1*
X17302Y12754D2*
X17273Y12744D1*
X17263Y12725D1*
Y12706D1*
X17273Y12687D1*
X17292Y12677D1*
X17330Y12668D1*
X17359Y12658D1*
X17378Y12639D1*
X17388Y12620D1*
Y12591D1*
X17378Y12572D1*
X17369Y12562D1*
X17340Y12553D1*
X17302D1*
X17273Y12562D1*
X17263Y12572D1*
X17254Y12591D1*
Y12620D1*
X17263Y12639D1*
X17283Y12658D1*
X17311Y12668D1*
X17349Y12677D1*
X17369Y12687D1*
X17378Y12706D1*
Y12725D1*
X17369Y12744D1*
X17340Y12754D1*
X17302D1*
X18157Y12581D2*
X18147Y12600D1*
X18128Y12619D1*
X18109Y12629D1*
X18071D1*
X18051Y12619D1*
X18032Y12600D1*
X18023Y12581D1*
X18013Y12552D1*
Y12504D1*
X18023Y12476D1*
X18032Y12457D1*
X18051Y12438D1*
X18071Y12428D1*
X18109D1*
X18128Y12438D1*
X18147Y12457D1*
X18157Y12476D1*
X18286Y12581D2*
Y12590D1*
X18296Y12610D1*
X18305Y12619D1*
X18325Y12629D1*
X18363D1*
X18382Y12619D1*
X18391Y12610D1*
X18401Y12590D1*
Y12571D1*
X18391Y12552D1*
X18372Y12524D1*
X18277Y12428D1*
X18411D1*
X18655Y12562D2*
X18645Y12533D1*
X18626Y12514D1*
X18598Y12504D1*
X18588D1*
X18559Y12514D1*
X18540Y12533D1*
X18531Y12562D1*
Y12571D1*
X18540Y12600D1*
X18559Y12619D1*
X18588Y12629D1*
X18598D1*
X18626Y12619D1*
X18645Y12600D1*
X18655Y12562D1*
Y12514D1*
X18645Y12466D1*
X18626Y12437D1*
X18598Y12428D1*
X18579D1*
X18550Y12437D1*
X18540Y12457D1*
X11750Y11956D2*
X11740Y11975D1*
X11721Y11994D1*
X11702Y12004D1*
X11664D1*
X11645Y11994D1*
X11626Y11975D1*
X11616Y11956D1*
X11606Y11927D1*
Y11879D1*
X11616Y11851D1*
X11626Y11832D1*
X11645Y11813D1*
X11664Y11803D1*
X11702D1*
X11721Y11813D1*
X11740Y11832D1*
X11750Y11851D1*
X11889Y12004D2*
X11994D1*
X11937Y11927D1*
X11966D1*
X11985Y11918D1*
X11994Y11908D1*
X12004Y11879D1*
Y11860D1*
X11994Y11832D1*
X11975Y11812D1*
X11946Y11803D1*
X11918D1*
X11889Y11812D1*
X11880Y11822D1*
X11870Y11841D1*
X12181Y12004D2*
X12152Y11994D1*
X12133Y11965D1*
X12124Y11918D1*
Y11889D1*
X12133Y11841D1*
X12152Y11812D1*
X12181Y11803D1*
X12200D1*
X12229Y11812D1*
X12248Y11841D1*
X12258Y11889D1*
Y11918D1*
X12248Y11965D1*
X12229Y11994D1*
X12200Y12004D1*
X12181D1*
X12248Y11965D2*
X12133Y11841D1*
X13673Y11206D2*
X13663Y11225D1*
X13644Y11244D1*
X13625Y11254D1*
X13587D1*
X13568Y11244D1*
X13549Y11225D1*
X13539Y11206D1*
X13529Y11177D1*
Y11129D1*
X13539Y11101D1*
X13549Y11082D1*
X13568Y11063D1*
X13587Y11053D1*
X13625D1*
X13644Y11063D1*
X13663Y11082D1*
X13673Y11101D1*
X13812Y11254D2*
X13917D1*
X13860Y11177D1*
X13889D1*
X13908Y11168D1*
X13917Y11158D1*
X13927Y11129D1*
Y11110D1*
X13917Y11082D1*
X13898Y11062D1*
X13869Y11053D1*
X13841D1*
X13812Y11062D1*
X13803Y11072D1*
X13793Y11091D1*
X14047Y11215D2*
X14066Y11225D1*
X14095Y11254D1*
Y11053D1*
X13630Y10456D2*
X13620Y10475D1*
X13601Y10494D1*
X13582Y10504D1*
X13544D1*
X13525Y10494D1*
X13506Y10475D1*
X13496Y10456D1*
X13486Y10427D1*
Y10379D1*
X13496Y10351D1*
X13506Y10332D1*
X13525Y10313D1*
X13544Y10303D1*
X13582D1*
X13601Y10313D1*
X13620Y10332D1*
X13630Y10351D1*
X13769Y10504D2*
X13874D1*
X13817Y10427D1*
X13846D1*
X13865Y10418D1*
X13874Y10408D1*
X13884Y10379D1*
Y10360D1*
X13874Y10332D1*
X13855Y10312D1*
X13826Y10303D1*
X13798D1*
X13769Y10312D1*
X13760Y10322D1*
X13750Y10341D1*
X14013Y10456D2*
Y10465D1*
X14023Y10485D1*
X14032Y10494D1*
X14052Y10504D1*
X14090D1*
X14109Y10494D1*
X14118Y10485D1*
X14128Y10465D1*
Y10446D1*
X14118Y10427D1*
X14099Y10399D1*
X14004Y10303D1*
X14138D1*
X13630Y9706D2*
X13620Y9725D1*
X13601Y9744D1*
X13582Y9754D1*
X13544D1*
X13525Y9744D1*
X13506Y9725D1*
X13496Y9706D1*
X13486Y9677D1*
Y9629D1*
X13496Y9601D1*
X13506Y9582D1*
X13525Y9563D1*
X13544Y9553D1*
X13582D1*
X13601Y9563D1*
X13620Y9582D1*
X13630Y9601D1*
X13769Y9754D2*
X13874D1*
X13817Y9677D1*
X13846D1*
X13865Y9668D1*
X13874Y9658D1*
X13884Y9629D1*
Y9610D1*
X13874Y9582D1*
X13855Y9562D1*
X13826Y9553D1*
X13798D1*
X13769Y9562D1*
X13760Y9572D1*
X13750Y9591D1*
X14023Y9754D2*
X14128D1*
X14071Y9677D1*
X14099D1*
X14118Y9668D1*
X14128Y9658D1*
X14138Y9629D1*
Y9610D1*
X14128Y9582D1*
X14109Y9562D1*
X14080Y9553D1*
X14052D1*
X14023Y9562D1*
X14013Y9572D1*
X14004Y9591D1*
X7548Y24197D2*
X7538Y24216D1*
X7519Y24235D1*
X7500Y24244D1*
X7462D1*
X7443Y24235D1*
X7424Y24216D1*
X7414Y24197D1*
X7404Y24168D1*
Y24120D1*
X7414Y24091D1*
X7424Y24072D1*
X7443Y24053D1*
X7462Y24044D1*
X7500D1*
X7519Y24053D1*
X7538Y24072D1*
X7548Y24091D1*
X7802Y24244D2*
Y24044D1*
X7668Y24244D1*
Y24044D1*
X7922Y24206D2*
X7941Y24216D1*
X7970Y24244D1*
Y24044D1*
X11286Y31696D2*
Y31495D1*
X11353D1*
X11382Y31505D1*
X11401Y31524D1*
X11410Y31543D1*
X11420Y31572D1*
Y31620D1*
X11410Y31648D1*
X11401Y31667D1*
X11382Y31687D1*
X11353Y31696D1*
X11286D1*
X11540Y31658D2*
X11559Y31667D1*
X11588Y31696D1*
Y31495D1*
X20240Y25875D2*
Y25674D1*
X20307D1*
X20335Y25684D1*
X20355Y25703D1*
X20364Y25722D1*
X20374Y25751D1*
Y25799D1*
X20364Y25828D1*
X20355Y25847D1*
X20335Y25866D1*
X20307Y25875D1*
X20240D1*
X20503Y25827D2*
Y25837D1*
X20513Y25856D1*
X20522Y25866D1*
X20542Y25875D1*
X20580D1*
X20599Y25866D1*
X20608Y25856D1*
X20618Y25837D1*
Y25818D1*
X20608Y25799D1*
X20589Y25770D1*
X20494Y25674D1*
X20628D1*
X10165Y29747D2*
X10041D1*
Y29546D1*
Y29651D2*
X10117D1*
X10285Y29708D2*
X10304Y29718D1*
X10333Y29747D1*
Y29546D1*
X13971Y32949D2*
Y32748D1*
X14235Y32901D2*
X14225Y32920D1*
X14206Y32939D1*
X14187Y32949D1*
X14149D1*
X14130Y32939D1*
X14111Y32920D1*
X14101Y32901D1*
X14091Y32872D1*
Y32824D1*
X14101Y32796D1*
X14111Y32776D1*
X14130Y32757D1*
X14149Y32748D1*
X14187D1*
X14206Y32757D1*
X14225Y32776D1*
X14235Y32796D1*
X14355Y32910D2*
X14374Y32920D1*
X14403Y32948D1*
Y32748D1*
X16615Y29368D2*
Y29168D1*
X16879Y29321D2*
X16869Y29340D1*
X16850Y29359D1*
X16831Y29368D1*
X16793D1*
X16774Y29359D1*
X16755Y29340D1*
X16745Y29321D1*
X16735Y29292D1*
Y29244D1*
X16745Y29215D1*
X16755Y29196D1*
X16774Y29177D1*
X16793Y29168D1*
X16831D1*
X16850Y29177D1*
X16869Y29196D1*
X16879Y29215D1*
X17008Y29321D2*
Y29330D1*
X17018Y29349D1*
X17028Y29359D1*
X17047Y29368D1*
X17085D1*
X17104Y29359D1*
X17114Y29349D1*
X17123Y29330D1*
Y29311D1*
X17114Y29292D1*
X17094Y29263D1*
X16999Y29168D1*
X17133D1*
X13521Y27278D2*
Y27077D1*
X13784Y27230D2*
X13775Y27249D1*
X13756Y27268D1*
X13737Y27278D1*
X13698D1*
X13679Y27268D1*
X13660Y27249D1*
X13650Y27230D1*
X13641Y27201D1*
Y27153D1*
X13650Y27125D1*
X13660Y27106D1*
X13679Y27087D1*
X13698Y27077D1*
X13737D1*
X13756Y27087D1*
X13775Y27106D1*
X13784Y27125D1*
X13924Y27278D2*
X14029D1*
X13971Y27201D1*
X14000D1*
X14019Y27192D1*
X14029Y27182D1*
X14038Y27153D1*
Y27134D1*
X14029Y27106D1*
X14010Y27086D1*
X13981Y27077D1*
X13952D1*
X13924Y27086D1*
X13914Y27096D1*
X13904Y27115D1*
X13549Y18741D2*
Y18540D1*
X13812Y18693D2*
X13803Y18712D1*
X13783Y18731D1*
X13764Y18741D1*
X13726D1*
X13707Y18731D1*
X13688Y18712D1*
X13678Y18693D1*
X13669Y18664D1*
Y18616D1*
X13678Y18588D1*
X13688Y18568D1*
X13707Y18549D1*
X13726Y18540D1*
X13764D1*
X13783Y18549D1*
X13803Y18568D1*
X13812Y18588D1*
X14028Y18540D2*
Y18740D1*
X13932Y18607D1*
X14075D1*
X21790Y16459D2*
Y16258D1*
X22053Y16411D2*
X22044Y16430D1*
X22025Y16449D1*
X22006Y16459D1*
X21967D1*
X21948Y16449D1*
X21929Y16430D1*
X21919Y16411D1*
X21910Y16382D1*
Y16334D1*
X21919Y16306D1*
X21929Y16286D1*
X21948Y16267D1*
X21967Y16258D1*
X22006D1*
X22025Y16267D1*
X22044Y16286D1*
X22053Y16306D1*
X22288Y16458D2*
X22193D1*
X22183Y16372D1*
X22193Y16382D1*
X22221Y16392D1*
X22250D1*
X22279Y16382D1*
X22298Y16363D1*
X22307Y16334D1*
Y16315D1*
X22298Y16286D1*
X22279Y16267D1*
X22250Y16258D1*
X22221D1*
X22193Y16267D1*
X22183Y16277D1*
X22173Y16296D1*
X6569Y16905D2*
Y16704D1*
X6833Y16857D2*
X6823Y16876D1*
X6804Y16895D1*
X6785Y16905D1*
X6747D1*
X6728Y16895D1*
X6709Y16876D1*
X6699Y16857D1*
X6689Y16828D1*
Y16780D1*
X6699Y16752D1*
X6709Y16733D1*
X6728Y16714D1*
X6747Y16704D1*
X6785D1*
X6804Y16714D1*
X6823Y16733D1*
X6833Y16752D1*
X7068Y16876D2*
X7058Y16895D1*
X7029Y16905D1*
X7010D1*
X6982Y16895D1*
X6962Y16866D1*
X6953Y16819D1*
Y16771D1*
X6962Y16733D1*
X6982Y16713D1*
X7010Y16704D1*
X7020D1*
X7048Y16713D1*
X7068Y16733D1*
X7077Y16761D1*
Y16771D1*
X7068Y16800D1*
X7048Y16819D1*
X7020Y16828D1*
X7010D1*
X6982Y16819D1*
X6962Y16800D1*
X6953Y16771D1*
X17178Y16222D2*
Y16021D1*
X17442Y16175D2*
X17432Y16194D1*
X17413Y16213D1*
X17394Y16222D1*
X17356D1*
X17337Y16213D1*
X17318Y16194D1*
X17308Y16175D1*
X17298Y16146D1*
Y16098D1*
X17308Y16069D1*
X17318Y16050D1*
X17337Y16031D1*
X17356Y16021D1*
X17394D1*
X17413Y16031D1*
X17432Y16050D1*
X17442Y16069D1*
X17600Y16021D2*
X17696Y16222D1*
X17562D1*
X13553Y14662D2*
Y14461D1*
X13817Y14614D2*
X13807Y14633D1*
X13788Y14652D1*
X13769Y14662D1*
X13731D1*
X13712Y14652D1*
X13693Y14633D1*
X13683Y14614D1*
X13673Y14585D1*
Y14537D1*
X13683Y14509D1*
X13693Y14490D1*
X13712Y14471D1*
X13731Y14461D1*
X13769D1*
X13788Y14471D1*
X13807Y14490D1*
X13817Y14509D1*
X13985Y14662D2*
X13956Y14652D1*
X13946Y14633D1*
Y14614D1*
X13956Y14595D1*
X13975Y14585D1*
X14013Y14576D1*
X14042Y14566D1*
X14061Y14547D1*
X14071Y14528D1*
Y14499D1*
X14061Y14480D1*
X14052Y14470D1*
X14023Y14461D1*
X13985D1*
X13956Y14470D1*
X13946Y14480D1*
X13937Y14499D1*
Y14528D1*
X13946Y14547D1*
X13966Y14566D1*
X13994Y14576D1*
X14032Y14585D1*
X14052Y14595D1*
X14061Y14614D1*
Y14633D1*
X14052Y14652D1*
X14023Y14662D1*
X13985D1*
X19368Y29612D2*
Y29459D1*
X19359Y29430D1*
X19349Y29420D1*
X19330Y29411D1*
X19311D1*
X19292Y29420D1*
X19282Y29430D1*
X19273Y29459D1*
Y29478D1*
X19488Y29573D2*
X19508Y29583D1*
X19536Y29611D1*
Y29411D1*
X8700Y32759D2*
Y32606D1*
X8691Y32578D1*
X8681Y32568D1*
X8662Y32558D1*
X8643D1*
X8624Y32568D1*
X8614Y32578D1*
X8605Y32606D1*
Y32625D1*
X8830Y32711D2*
Y32721D1*
X8840Y32740D1*
X8849Y32750D1*
X8868Y32759D1*
X8907D1*
X8926Y32750D1*
X8935Y32740D1*
X8945Y32721D1*
Y32702D1*
X8935Y32683D1*
X8916Y32654D1*
X8820Y32558D1*
X8954D1*
X19853Y24744D2*
Y24591D1*
X19844Y24563D1*
X19834Y24553D1*
X19815Y24544D1*
X19796D1*
X19777Y24553D1*
X19767Y24563D1*
X19757Y24591D1*
Y24610D1*
X20069Y24544D2*
Y24744D1*
X19973Y24610D1*
X20117D1*
X20858Y24744D2*
Y24591D1*
X20848Y24563D1*
X20839Y24553D1*
X20820Y24544D1*
X20800D1*
X20781Y24553D1*
X20772Y24563D1*
X20762Y24591D1*
Y24610D1*
X21093Y24744D2*
X20997D1*
X20988Y24658D1*
X20997Y24668D1*
X21026Y24677D1*
X21054D1*
X21083Y24668D1*
X21102Y24649D1*
X21112Y24620D1*
Y24601D1*
X21102Y24572D1*
X21083Y24553D1*
X21054Y24544D1*
X21026D1*
X20997Y24553D1*
X20988Y24563D1*
X20978Y24582D1*
X8393Y9930D2*
Y9777D1*
X8383Y9748D1*
X8374Y9739D1*
X8355Y9729D1*
X8335D1*
X8316Y9739D1*
X8307Y9748D1*
X8297Y9777D1*
Y9796D1*
X8628Y9901D2*
X8618Y9920D1*
X8589Y9930D1*
X8570D1*
X8542Y9920D1*
X8522Y9892D1*
X8513Y9844D1*
Y9796D1*
X8522Y9758D1*
X8542Y9739D1*
X8570Y9729D1*
X8580D1*
X8608Y9739D1*
X8628Y9758D1*
X8637Y9787D1*
Y9796D1*
X8628Y9825D1*
X8608Y9844D1*
X8580Y9853D1*
X8570D1*
X8542Y9844D1*
X8522Y9825D1*
X8513Y9796D1*
X18325Y9867D2*
Y9715D1*
X18316Y9686D1*
X18306Y9676D1*
X18287Y9667D1*
X18268D1*
X18249Y9676D1*
X18239Y9686D1*
X18230Y9715D1*
Y9734D1*
X18484Y9667D2*
X18579Y9867D1*
X18445D1*
X5921Y33414D2*
Y33213D1*
X6035D1*
X6155Y33375D2*
X6175Y33385D1*
X6203Y33414D1*
Y33213D1*
X9252Y26227D2*
Y26026D1*
X9366D1*
X9496Y26179D2*
Y26189D1*
X9506Y26208D1*
X9515Y26218D1*
X9534Y26227D1*
X9573D1*
X9592Y26218D1*
X9601Y26208D1*
X9611Y26189D1*
Y26170D1*
X9601Y26151D1*
X9582Y26122D1*
X9486Y26026D1*
X9620D1*
X12661Y31661D2*
X12747D1*
X12776Y31671D1*
X12786Y31680D1*
X12795Y31699D1*
Y31718D1*
X12786Y31737D1*
X12776Y31747D1*
X12747Y31757D1*
X12661D1*
Y31556D1*
X12728Y31661D2*
X12795Y31556D1*
X12915Y31718D2*
X12934Y31728D1*
X12963Y31756D1*
Y31556D1*
X12618Y30908D2*
X12704D1*
X12733Y30918D1*
X12743Y30927D1*
X12752Y30946D1*
Y30966D1*
X12743Y30985D1*
X12733Y30994D1*
X12704Y31004D1*
X12618D1*
Y30803D1*
X12685Y30908D2*
X12752Y30803D1*
X12882Y30956D2*
Y30965D1*
X12891Y30985D1*
X12901Y30994D1*
X12920Y31004D1*
X12958D1*
X12977Y30994D1*
X12987Y30985D1*
X12996Y30965D1*
Y30946D1*
X12987Y30927D1*
X12968Y30899D1*
X12872Y30803D1*
X13006D1*
X13993Y30223D2*
X14079D1*
X14108Y30233D1*
X14118Y30243D1*
X14127Y30262D1*
Y30281D1*
X14118Y30300D1*
X14108Y30310D1*
X14079Y30319D1*
X13993D1*
Y30118D1*
X14060Y30223D2*
X14127Y30118D1*
X14266Y30319D2*
X14371D1*
X14314Y30242D1*
X14343D1*
X14362Y30233D1*
X14371Y30223D1*
X14381Y30195D1*
Y30176D1*
X14371Y30147D1*
X14352Y30128D1*
X14324Y30118D1*
X14295D1*
X14266Y30128D1*
X14257Y30137D1*
X14247Y30156D1*
X12613Y30158D2*
X12699D1*
X12728Y30168D1*
X12738Y30177D1*
X12747Y30196D1*
Y30216D1*
X12738Y30235D1*
X12728Y30244D1*
X12699Y30254D1*
X12613D1*
Y30053D1*
X12680Y30158D2*
X12747Y30053D1*
X12963D2*
Y30254D1*
X12867Y30120D1*
X13011D1*
X11243Y29471D2*
X11329D1*
X11358Y29480D1*
X11368Y29490D1*
X11377Y29509D1*
Y29528D1*
X11368Y29547D1*
X11358Y29557D1*
X11329Y29566D1*
X11243D1*
Y29365D1*
X11310Y29471D2*
X11377Y29365D1*
X11612Y29566D2*
X11516D1*
X11507Y29480D1*
X11516Y29490D1*
X11545Y29499D1*
X11574D1*
X11602Y29490D1*
X11621Y29471D1*
X11631Y29442D1*
Y29423D1*
X11621Y29394D1*
X11602Y29375D1*
X11574Y29365D1*
X11545D1*
X11516Y29375D1*
X11507Y29385D1*
X11497Y29404D1*
X12623Y29408D2*
X12709D1*
X12738Y29418D1*
X12747Y29427D1*
X12757Y29446D1*
Y29466D1*
X12747Y29485D1*
X12738Y29494D1*
X12709Y29504D1*
X12623D1*
Y29303D1*
X12690Y29408D2*
X12757Y29303D1*
X12992Y29475D2*
X12982Y29494D1*
X12953Y29504D1*
X12934D1*
X12906Y29494D1*
X12886Y29465D1*
X12877Y29418D1*
Y29370D1*
X12886Y29332D1*
X12906Y29312D1*
X12934Y29303D1*
X12944D1*
X12972Y29312D1*
X12992Y29332D1*
X13001Y29360D1*
Y29370D1*
X12992Y29399D1*
X12972Y29418D1*
X12944Y29427D1*
X12934D1*
X12906Y29418D1*
X12886Y29399D1*
X12877Y29370D1*
X15368Y29471D2*
X15454D1*
X15483Y29480D1*
X15493Y29490D1*
X15502Y29509D1*
Y29528D1*
X15493Y29547D1*
X15483Y29557D1*
X15454Y29566D1*
X15368D1*
Y29365D1*
X15435Y29471D2*
X15502Y29365D1*
X15660D2*
X15756Y29566D1*
X15622D1*
X13993Y28596D2*
X14079D1*
X14108Y28605D1*
X14118Y28615D1*
X14127Y28634D1*
Y28653D1*
X14118Y28672D1*
X14108Y28682D1*
X14079Y28691D1*
X13993D1*
Y28490D1*
X14060Y28596D2*
X14127Y28490D1*
X14295Y28691D2*
X14266Y28682D1*
X14257Y28663D1*
Y28643D1*
X14266Y28624D1*
X14285Y28615D1*
X14324Y28605D1*
X14352Y28596D1*
X14371Y28576D1*
X14381Y28557D1*
Y28529D1*
X14371Y28510D1*
X14362Y28500D1*
X14333Y28490D1*
X14295D1*
X14266Y28500D1*
X14257Y28510D1*
X14247Y28529D1*
Y28557D1*
X14257Y28576D1*
X14276Y28596D1*
X14304Y28605D1*
X14343Y28615D1*
X14362Y28624D1*
X14371Y28643D1*
Y28663D1*
X14362Y28682D1*
X14333Y28691D1*
X14295D1*
X18123Y26971D2*
X18209D1*
X18238Y26980D1*
X18247Y26990D1*
X18257Y27009D1*
Y27028D1*
X18247Y27047D1*
X18238Y27057D1*
X18209Y27066D1*
X18123D1*
Y26865D1*
X18190Y26971D2*
X18257Y26865D1*
X18501Y26999D2*
X18492Y26971D1*
X18472Y26951D1*
X18444Y26942D1*
X18434D1*
X18406Y26951D1*
X18386Y26971D1*
X18377Y26999D1*
Y27009D1*
X18386Y27038D1*
X18406Y27057D1*
X18434Y27066D1*
X18444D1*
X18472Y27057D1*
X18492Y27038D1*
X18501Y26999D1*
Y26951D1*
X18492Y26904D1*
X18472Y26875D1*
X18444Y26865D1*
X18425D1*
X18396Y26875D1*
X18386Y26894D1*
X9097Y25408D2*
X9183D1*
X9211Y25418D1*
X9221Y25427D1*
X9231Y25446D1*
Y25466D1*
X9221Y25485D1*
X9211Y25494D1*
X9183Y25504D1*
X9097D1*
Y25303D1*
X9164Y25408D2*
X9231Y25303D1*
X9351Y25465D2*
X9370Y25475D1*
X9398Y25504D1*
Y25303D1*
X9576Y25504D2*
X9547Y25494D1*
X9528Y25465D1*
X9518Y25418D1*
Y25389D1*
X9528Y25341D1*
X9547Y25312D1*
X9576Y25303D1*
X9595D1*
X9624Y25312D1*
X9643Y25341D1*
X9652Y25389D1*
Y25418D1*
X9643Y25465D1*
X9624Y25494D1*
X9595Y25504D1*
X9576D1*
X9643Y25465D2*
X9528Y25341D1*
X19015Y25721D2*
X19101D1*
X19129Y25730D1*
X19139Y25740D1*
X19149Y25759D1*
Y25778D1*
X19139Y25797D1*
X19129Y25807D1*
X19101Y25816D1*
X19015D1*
Y25615D1*
X19082Y25721D2*
X19149Y25615D1*
X19269Y25778D2*
X19288Y25788D1*
X19317Y25816D1*
Y25615D1*
X19437Y25778D2*
X19456Y25788D1*
X19484Y25816D1*
Y25615D1*
X9097Y24846D2*
X9183D1*
X9211Y24855D1*
X9221Y24865D1*
X9231Y24884D1*
Y24903D1*
X9221Y24922D1*
X9211Y24932D1*
X9183Y24941D1*
X9097D1*
Y24740D1*
X9164Y24846D2*
X9231Y24740D1*
X9351Y24903D2*
X9370Y24913D1*
X9399Y24941D1*
Y24740D1*
X9528Y24893D2*
Y24903D1*
X9538Y24922D1*
X9547Y24932D1*
X9566Y24941D1*
X9605D1*
X9624Y24932D1*
X9633Y24922D1*
X9643Y24903D1*
Y24884D1*
X9633Y24865D1*
X9614Y24836D1*
X9519Y24740D1*
X9652D1*
X11659Y16946D2*
X11745D1*
X11774Y16955D1*
X11784Y16965D1*
X11793Y16984D1*
Y17003D1*
X11784Y17022D1*
X11774Y17032D1*
X11745Y17041D1*
X11659D1*
Y16840D1*
X11726Y16946D2*
X11793Y16840D1*
X11913Y17003D2*
X11932Y17013D1*
X11961Y17041D1*
Y16840D1*
X12100Y17041D2*
X12205D1*
X12148Y16965D1*
X12177D1*
X12196Y16955D1*
X12205Y16946D1*
X12215Y16917D1*
Y16898D1*
X12205Y16869D1*
X12186Y16850D1*
X12157Y16840D1*
X12129D1*
X12100Y16850D1*
X12091Y16860D1*
X12081Y16879D1*
X15404Y16946D2*
X15490D1*
X15519Y16955D1*
X15529Y16965D1*
X15538Y16984D1*
Y17003D1*
X15529Y17022D1*
X15519Y17032D1*
X15490Y17041D1*
X15404D1*
Y16840D1*
X15471Y16946D2*
X15538Y16840D1*
X15658Y17003D2*
X15678Y17013D1*
X15706Y17041D1*
Y16840D1*
X15922D2*
Y17041D1*
X15826Y16907D1*
X15970D1*
X11659Y16221D2*
X11745D1*
X11774Y16230D1*
X11784Y16240D1*
X11793Y16259D1*
Y16278D1*
X11784Y16297D1*
X11774Y16307D1*
X11745Y16316D1*
X11659D1*
Y16115D1*
X11726Y16221D2*
X11793Y16115D1*
X11913Y16278D2*
X11932Y16288D1*
X11961Y16316D1*
Y16115D1*
X12196Y16316D2*
X12100D1*
X12091Y16230D1*
X12100Y16240D1*
X12129Y16249D1*
X12157D1*
X12186Y16240D1*
X12205Y16221D1*
X12215Y16192D1*
Y16173D1*
X12205Y16144D1*
X12186Y16125D1*
X12157Y16115D1*
X12129D1*
X12100Y16125D1*
X12091Y16135D1*
X12081Y16154D1*
X15414Y16158D2*
X15500D1*
X15529Y16168D1*
X15538Y16177D1*
X15548Y16196D1*
Y16216D1*
X15538Y16235D1*
X15529Y16244D1*
X15500Y16254D1*
X15414D1*
Y16053D1*
X15481Y16158D2*
X15548Y16053D1*
X15668Y16215D2*
X15687Y16225D1*
X15716Y16254D1*
Y16053D1*
X15951Y16225D2*
X15941Y16244D1*
X15912Y16254D1*
X15893D1*
X15865Y16244D1*
X15845Y16215D1*
X15836Y16168D1*
Y16120D1*
X15845Y16082D1*
X15865Y16062D1*
X15893Y16053D1*
X15903D1*
X15931Y16062D1*
X15951Y16082D1*
X15960Y16110D1*
Y16120D1*
X15951Y16149D1*
X15931Y16168D1*
X15903Y16177D1*
X15893D1*
X15865Y16168D1*
X15845Y16149D1*
X15836Y16120D1*
X11659Y14658D2*
X11745D1*
X11774Y14668D1*
X11784Y14677D1*
X11793Y14696D1*
Y14716D1*
X11784Y14735D1*
X11774Y14744D1*
X11745Y14754D1*
X11659D1*
Y14553D1*
X11726Y14658D2*
X11793Y14553D1*
X11913Y14715D2*
X11932Y14725D1*
X11961Y14754D1*
Y14553D1*
X12119D2*
X12215Y14754D1*
X12081D1*
X10284Y13908D2*
X10370D1*
X10399Y13918D1*
X10409Y13927D1*
X10418Y13946D1*
Y13966D1*
X10409Y13985D1*
X10399Y13994D1*
X10370Y14004D1*
X10284D1*
Y13803D1*
X10351Y13908D2*
X10418Y13803D1*
X10538Y13965D2*
X10557Y13975D1*
X10586Y14004D1*
Y13803D1*
X10754Y14004D2*
X10725Y13994D1*
X10716Y13975D1*
Y13956D1*
X10725Y13937D1*
X10744Y13927D1*
X10783Y13918D1*
X10811Y13908D1*
X10830Y13889D1*
X10840Y13870D1*
Y13841D1*
X10830Y13822D1*
X10821Y13812D1*
X10792Y13803D1*
X10754D1*
X10725Y13812D1*
X10716Y13822D1*
X10706Y13841D1*
Y13870D1*
X10716Y13889D1*
X10735Y13908D1*
X10763Y13918D1*
X10802Y13927D1*
X10821Y13937D1*
X10830Y13956D1*
Y13975D1*
X10821Y13994D1*
X10792Y14004D1*
X10754D1*
X11664Y12658D2*
X11750D1*
X11779Y12668D1*
X11788Y12677D1*
X11798Y12696D1*
Y12716D1*
X11788Y12735D1*
X11779Y12744D1*
X11750Y12754D1*
X11664D1*
Y12553D1*
X11731Y12658D2*
X11798Y12553D1*
X11918Y12715D2*
X11937Y12725D1*
X11966Y12754D1*
Y12553D1*
X12210Y12687D2*
X12200Y12658D1*
X12181Y12639D1*
X12153Y12629D1*
X12143D1*
X12114Y12639D1*
X12095Y12658D1*
X12086Y12687D1*
Y12696D1*
X12095Y12725D1*
X12114Y12744D1*
X12143Y12754D1*
X12153D1*
X12181Y12744D1*
X12200Y12725D1*
X12210Y12687D1*
Y12639D1*
X12200Y12591D1*
X12181Y12562D1*
X12153Y12553D1*
X12134D1*
X12105Y12562D1*
X12095Y12582D1*
X10241Y11908D2*
X10327D1*
X10356Y11918D1*
X10366Y11927D1*
X10375Y11946D1*
Y11966D1*
X10366Y11985D1*
X10356Y11994D1*
X10327Y12004D1*
X10241D1*
Y11803D1*
X10308Y11908D2*
X10375Y11803D1*
X10505Y11956D2*
Y11965D1*
X10514Y11985D1*
X10524Y11994D1*
X10543Y12004D1*
X10581D1*
X10600Y11994D1*
X10610Y11985D1*
X10619Y11965D1*
Y11946D1*
X10610Y11927D1*
X10591Y11899D1*
X10495Y11803D1*
X10629D1*
X10806Y12004D2*
X10778Y11994D1*
X10759Y11965D1*
X10749Y11918D1*
Y11889D1*
X10759Y11841D1*
X10778Y11812D1*
X10806Y11803D1*
X10825D1*
X10854Y11812D1*
X10873Y11841D1*
X10883Y11889D1*
Y11918D1*
X10873Y11965D1*
X10854Y11994D1*
X10825Y12004D1*
X10806D1*
X10873Y11965D2*
X10759Y11841D1*
X15409Y11908D2*
X15495D1*
X15524Y11918D1*
X15534Y11927D1*
X15543Y11946D1*
Y11966D1*
X15534Y11985D1*
X15524Y11994D1*
X15495Y12004D1*
X15409D1*
Y11803D1*
X15476Y11908D2*
X15543Y11803D1*
X15673Y11956D2*
Y11965D1*
X15682Y11985D1*
X15692Y11994D1*
X15711Y12004D1*
X15749D1*
X15768Y11994D1*
X15778Y11985D1*
X15787Y11965D1*
Y11946D1*
X15778Y11927D1*
X15759Y11899D1*
X15663Y11803D1*
X15797D1*
X15917Y11965D2*
X15936Y11975D1*
X15965Y12004D1*
Y11803D1*
X16741Y11908D2*
X16827D1*
X16856Y11918D1*
X16866Y11927D1*
X16875Y11946D1*
Y11966D1*
X16866Y11985D1*
X16856Y11994D1*
X16827Y12004D1*
X16741D1*
Y11803D1*
X16808Y11908D2*
X16875Y11803D1*
X17005Y11956D2*
Y11965D1*
X17014Y11985D1*
X17024Y11994D1*
X17043Y12004D1*
X17081D1*
X17100Y11994D1*
X17110Y11985D1*
X17119Y11965D1*
Y11946D1*
X17110Y11927D1*
X17091Y11899D1*
X16995Y11803D1*
X17129D1*
X17259Y11956D2*
Y11965D1*
X17268Y11985D1*
X17278Y11994D1*
X17297Y12004D1*
X17335D1*
X17354Y11994D1*
X17364Y11985D1*
X17373Y11965D1*
Y11946D1*
X17364Y11927D1*
X17345Y11899D1*
X17249Y11803D1*
X17383D1*
X10241Y11158D2*
X10327D1*
X10356Y11168D1*
X10366Y11177D1*
X10375Y11196D1*
Y11216D1*
X10366Y11235D1*
X10356Y11244D1*
X10327Y11254D1*
X10241D1*
Y11053D1*
X10308Y11158D2*
X10375Y11053D1*
X10505Y11206D2*
Y11215D1*
X10514Y11235D1*
X10524Y11244D1*
X10543Y11254D1*
X10581D1*
X10600Y11244D1*
X10610Y11235D1*
X10619Y11215D1*
Y11196D1*
X10610Y11177D1*
X10591Y11149D1*
X10495Y11053D1*
X10629D1*
X10768Y11254D2*
X10873D1*
X10816Y11177D1*
X10845D1*
X10864Y11168D1*
X10873Y11158D1*
X10883Y11129D1*
Y11110D1*
X10873Y11082D1*
X10854Y11062D1*
X10825Y11053D1*
X10797D1*
X10768Y11062D1*
X10759Y11072D1*
X10749Y11091D1*
X11611Y11158D2*
X11697D1*
X11726Y11168D1*
X11736Y11177D1*
X11745Y11196D1*
Y11216D1*
X11736Y11235D1*
X11726Y11244D1*
X11697Y11254D1*
X11611D1*
Y11053D1*
X11678Y11158D2*
X11745Y11053D1*
X11875Y11206D2*
Y11215D1*
X11885Y11235D1*
X11894Y11244D1*
X11913Y11254D1*
X11951D1*
X11971Y11244D1*
X11980Y11235D1*
X11990Y11215D1*
Y11196D1*
X11980Y11177D1*
X11961Y11149D1*
X11865Y11053D1*
X11999D1*
X12215D2*
Y11254D1*
X12119Y11120D1*
X12263D1*
X15366Y11158D2*
X15452D1*
X15481Y11168D1*
X15491Y11177D1*
X15500Y11196D1*
Y11216D1*
X15491Y11235D1*
X15481Y11244D1*
X15452Y11254D1*
X15366D1*
Y11053D1*
X15433Y11158D2*
X15500Y11053D1*
X15630Y11206D2*
Y11215D1*
X15639Y11235D1*
X15649Y11244D1*
X15668Y11254D1*
X15706D1*
X15725Y11244D1*
X15735Y11235D1*
X15744Y11215D1*
Y11196D1*
X15735Y11177D1*
X15716Y11149D1*
X15620Y11053D1*
X15754D1*
X15989Y11254D2*
X15893D1*
X15884Y11168D1*
X15893Y11177D1*
X15922Y11187D1*
X15950D1*
X15979Y11177D1*
X15998Y11158D1*
X16008Y11129D1*
Y11110D1*
X15998Y11082D1*
X15979Y11062D1*
X15950Y11053D1*
X15922D1*
X15893Y11062D1*
X15884Y11072D1*
X15874Y11091D1*
X16746Y11158D2*
X16832D1*
X16861Y11168D1*
X16870Y11177D1*
X16880Y11196D1*
Y11216D1*
X16870Y11235D1*
X16861Y11244D1*
X16832Y11254D1*
X16746D1*
Y11053D1*
X16813Y11158D2*
X16880Y11053D1*
X17010Y11206D2*
Y11215D1*
X17019Y11235D1*
X17029Y11244D1*
X17048Y11254D1*
X17086D1*
X17105Y11244D1*
X17115Y11235D1*
X17124Y11215D1*
Y11196D1*
X17115Y11177D1*
X17096Y11149D1*
X17000Y11053D1*
X17134D1*
X17369Y11225D2*
X17359Y11244D1*
X17330Y11254D1*
X17311D1*
X17283Y11244D1*
X17263Y11215D1*
X17254Y11168D1*
Y11120D1*
X17263Y11082D1*
X17283Y11062D1*
X17311Y11053D1*
X17321D1*
X17349Y11062D1*
X17369Y11082D1*
X17378Y11110D1*
Y11120D1*
X17369Y11149D1*
X17349Y11168D1*
X17321Y11177D1*
X17311D1*
X17283Y11168D1*
X17263Y11149D1*
X17254Y11120D1*
X11616Y10408D2*
X11702D1*
X11731Y10418D1*
X11741Y10427D1*
X11750Y10446D1*
Y10466D1*
X11741Y10485D1*
X11731Y10494D1*
X11702Y10504D1*
X11616D1*
Y10303D1*
X11683Y10408D2*
X11750Y10303D1*
X11880Y10456D2*
Y10465D1*
X11889Y10485D1*
X11899Y10494D1*
X11918Y10504D1*
X11956D1*
X11975Y10494D1*
X11985Y10485D1*
X11994Y10465D1*
Y10446D1*
X11985Y10427D1*
X11966Y10399D1*
X11870Y10303D1*
X12004D1*
X12162D2*
X12258Y10504D1*
X12124D1*
X15366Y10408D2*
X15452D1*
X15481Y10418D1*
X15491Y10427D1*
X15500Y10446D1*
Y10466D1*
X15491Y10485D1*
X15481Y10494D1*
X15452Y10504D1*
X15366D1*
Y10303D1*
X15433Y10408D2*
X15500Y10303D1*
X15630Y10456D2*
Y10465D1*
X15639Y10485D1*
X15649Y10494D1*
X15668Y10504D1*
X15706D1*
X15725Y10494D1*
X15735Y10485D1*
X15745Y10465D1*
Y10446D1*
X15735Y10427D1*
X15716Y10399D1*
X15620Y10303D1*
X15754D1*
X15922Y10504D2*
X15893Y10494D1*
X15884Y10475D1*
Y10456D1*
X15893Y10437D1*
X15912Y10427D1*
X15951Y10418D1*
X15979Y10408D1*
X15998Y10389D1*
X16008Y10370D1*
Y10341D1*
X15998Y10322D1*
X15989Y10312D1*
X15960Y10303D1*
X15922D1*
X15893Y10312D1*
X15884Y10322D1*
X15874Y10341D1*
Y10370D1*
X15884Y10389D1*
X15903Y10408D1*
X15931Y10418D1*
X15970Y10427D1*
X15989Y10437D1*
X15998Y10456D1*
Y10475D1*
X15989Y10494D1*
X15960Y10504D1*
X15922D1*
X13496Y8221D2*
X13582D1*
X13611Y8230D1*
X13620Y8240D1*
X13630Y8259D1*
Y8278D1*
X13620Y8297D1*
X13611Y8307D1*
X13582Y8316D1*
X13496D1*
Y8115D1*
X13563Y8221D2*
X13630Y8115D1*
X13760Y8268D2*
Y8278D1*
X13769Y8297D1*
X13779Y8307D1*
X13798Y8316D1*
X13836D1*
X13855Y8307D1*
X13865Y8297D1*
X13874Y8278D1*
Y8259D1*
X13865Y8240D1*
X13846Y8211D1*
X13750Y8115D1*
X13884D1*
X14128Y8249D2*
X14118Y8221D1*
X14099Y8201D1*
X14071Y8192D1*
X14061D1*
X14032Y8201D1*
X14013Y8221D1*
X14004Y8249D1*
Y8259D1*
X14013Y8288D1*
X14032Y8307D1*
X14061Y8316D1*
X14071D1*
X14099Y8307D1*
X14118Y8288D1*
X14128Y8249D1*
Y8201D1*
X14118Y8154D1*
X14099Y8125D1*
X14071Y8115D1*
X14052D1*
X14023Y8125D1*
X14013Y8144D1*
X13795Y36206D2*
X13776Y36225D1*
X13747Y36235D1*
X13709D1*
X13680Y36225D1*
X13661Y36206D1*
Y36187D1*
X13671Y36168D1*
X13680Y36158D1*
X13699Y36149D1*
X13757Y36129D1*
X13776Y36120D1*
X13786Y36110D1*
X13795Y36091D1*
Y36062D1*
X13776Y36043D1*
X13747Y36034D1*
X13709D1*
X13680Y36043D1*
X13661Y36062D1*
X13915Y36196D2*
X13934Y36206D1*
X13963Y36234D1*
Y36034D1*
X6789Y31355D2*
Y31154D1*
X6722Y31355D2*
X6856D1*
X6976Y31250D2*
X7062D1*
X7091Y31259D1*
X7100Y31269D1*
X7110Y31288D1*
Y31317D1*
X7100Y31336D1*
X7091Y31346D1*
X7062Y31355D1*
X6976D1*
Y31154D1*
X7230Y31317D2*
X7249Y31326D1*
X7278Y31355D1*
Y31154D1*
X20786Y20049D2*
X20920Y19848D1*
Y20049D2*
X20786Y19848D1*
X21040Y20010D2*
X21059Y20020D1*
X21088Y20049D1*
Y19848D1*
X7786Y33316D2*
X7920D1*
X7786Y33115D1*
X7920D1*
X8040Y33278D2*
X8059Y33288D1*
X8088Y33316D1*
Y33115D1*
X9743Y33316D2*
X9877D1*
X9743Y33115D1*
X9877D1*
X10007Y33268D2*
Y33278D1*
X10016Y33297D1*
X10026Y33307D1*
X10045Y33316D1*
X10083D1*
X10102Y33307D1*
X10112Y33297D1*
X10121Y33278D1*
Y33259D1*
X10112Y33240D1*
X10093Y33211D1*
X9997Y33115D1*
X10131D1*
X18118Y29504D2*
X18252D1*
X18118Y29303D1*
X18252D1*
X18391Y29504D2*
X18496D1*
X18439Y29427D1*
X18468D1*
X18487Y29418D1*
X18496Y29408D1*
X18506Y29379D1*
Y29360D1*
X18496Y29332D1*
X18477Y29312D1*
X18449Y29303D1*
X18420D1*
X18391Y29312D1*
X18382Y29322D1*
X18372Y29341D1*
X9113Y10441D2*
X9247D1*
X9113Y10240D1*
X9247D1*
X9463D2*
Y10441D1*
X9367Y10307D1*
X9511D1*
X13618Y9066D2*
X13752D1*
X13618Y8865D1*
X13752D1*
X13987Y9066D2*
X13891D1*
X13882Y8980D1*
X13891Y8990D1*
X13920Y8999D1*
X13949D1*
X13977Y8990D1*
X13996Y8971D1*
X14006Y8942D1*
Y8923D1*
X13996Y8894D1*
X13977Y8875D1*
X13949Y8865D1*
X13920D1*
X13891Y8875D1*
X13882Y8885D1*
X13872Y8904D1*
X13228Y20926D2*
D146*
X13203Y20975D1*
X13132Y21046D1*
X13634D1*
X19854Y16046D2*
X19902Y16070D1*
X19974Y16142D1*
Y15640D1*
X21768Y24024D2*
D24*
X21758Y24043D1*
X21739Y24063D1*
X21720Y24072D1*
X21682D1*
X21663Y24063D1*
X21644Y24043D1*
X21634Y24024D1*
X21625Y23996D1*
Y23948D1*
X21634Y23919D1*
X21644Y23900D1*
X21663Y23881D1*
X21682Y23871D1*
X21720D1*
X21739Y23881D1*
X21758Y23900D1*
X21768Y23919D1*
Y23948D1*
X21720D1*
X22022Y24072D2*
Y23871D1*
X21888Y24072D1*
Y23871D1*
X22142Y24072D2*
Y23871D1*
X22209D1*
X22238Y23881D1*
X22257Y23900D1*
X22266Y23919D1*
X22276Y23948D1*
Y23996D1*
X22266Y24024D1*
X22257Y24043D1*
X22238Y24063D1*
X22209Y24072D1*
X22142D1*
X21711Y23058D2*
Y22885D1*
X21625Y22971D2*
X21797D1*
X22031Y23072D2*
X21936D1*
X21926Y22986D1*
X21936Y22995D1*
X21965Y23005D1*
X21993D1*
X22022Y22995D1*
X22041Y22976D1*
X22051Y22948D1*
Y22929D1*
X22041Y22900D1*
X22022Y22881D1*
X21993Y22871D1*
X21965D1*
X21936Y22881D1*
X21926Y22890D1*
X21917Y22909D1*
X18696Y22043D2*
X18677Y22063D1*
X18648Y22072D1*
X18610D1*
X18581Y22063D1*
X18562Y22043D1*
Y22024D1*
X18572Y22005D1*
X18581Y21996D1*
X18600Y21986D1*
X18658Y21967D1*
X18677Y21957D1*
X18686Y21948D1*
X18696Y21929D1*
Y21900D1*
X18677Y21881D1*
X18648Y21871D1*
X18610D1*
X18581Y21881D1*
X18562Y21900D1*
X18816Y22072D2*
Y21871D1*
X18883D1*
X18912Y21881D1*
X18931Y21900D1*
X18940Y21919D1*
X18950Y21948D1*
Y21996D1*
X18940Y22024D1*
X18931Y22043D1*
X18912Y22063D1*
X18883Y22072D1*
X18816D1*
X19223Y21871D2*
X19146Y22072D1*
X19070Y21871D1*
X19099Y21938D2*
X19194D1*
X18696Y20918D2*
X18677Y20938D1*
X18648Y20947D1*
X18610D1*
X18581Y20938D1*
X18562Y20918D1*
Y20899D1*
X18572Y20880D1*
X18581Y20871D1*
X18600Y20861D1*
X18658Y20842D1*
X18677Y20832D1*
X18686Y20823D1*
X18696Y20804D1*
Y20775D1*
X18677Y20756D1*
X18648Y20746D1*
X18610D1*
X18581Y20756D1*
X18562Y20775D1*
X18959Y20899D2*
X18950Y20918D1*
X18931Y20938D1*
X18912Y20947D1*
X18873D1*
X18854Y20938D1*
X18835Y20918D1*
X18825Y20899D1*
X18816Y20871D1*
Y20823D1*
X18825Y20794D1*
X18835Y20775D1*
X18854Y20756D1*
X18873Y20746D1*
X18912D1*
X18931Y20756D1*
X18950Y20775D1*
X18959Y20794D1*
X19079Y20947D2*
Y20746D1*
X19194D1*
X21687Y21914D2*
X21773D1*
X21802Y21924D1*
X21811Y21933D1*
X21821Y21952D1*
Y21971D1*
X21811Y21990D1*
X21802Y22000D1*
X21773Y22010D1*
X21687D1*
Y21809D1*
X21754Y21914D2*
X21821Y21809D1*
X21941Y22010D2*
X22075Y21809D1*
Y22010D2*
X21941Y21809D1*
X21754Y21010D2*
Y20809D1*
X21687Y21010D2*
X21821D1*
X21941D2*
X22075Y20809D1*
Y21010D2*
X21941Y20809D1*
X18768Y24024D2*
X18758Y24043D1*
X18739Y24063D1*
X18720Y24072D1*
X18682D1*
X18663Y24063D1*
X18644Y24043D1*
X18634Y24024D1*
X18625Y23996D1*
Y23948D1*
X18634Y23919D1*
X18644Y23900D1*
X18663Y23881D1*
X18682Y23871D1*
X18720D1*
X18739Y23881D1*
X18758Y23900D1*
X18768Y23919D1*
Y23948D1*
X18720D1*
X19022Y24072D2*
Y23871D1*
X18888Y24072D1*
Y23871D1*
X19142Y24072D2*
Y23871D1*
X19209D1*
X19238Y23881D1*
X19257Y23900D1*
X19266Y23919D1*
X19276Y23948D1*
Y23996D1*
X19266Y24024D1*
X19257Y24043D1*
X19238Y24063D1*
X19209Y24072D1*
X19142D1*
X18836Y23058D2*
Y22885D1*
X18750Y22971D2*
X18922D1*
X19156Y23072D2*
X19061D1*
X19051Y22986D1*
X19061Y22995D1*
X19090Y23005D1*
X19118D1*
X19147Y22995D1*
X19166Y22976D1*
X19176Y22948D1*
Y22929D1*
X19166Y22900D1*
X19147Y22881D1*
X19118Y22871D1*
X19090D1*
X19061Y22881D1*
X19051Y22890D1*
X19042Y22909D1*
M02*
