G04 DipTrace 2.4.0.1*
%INtsunami.inner2.g3*%
%MOIN*%
%ADD14C,0.02*%
%ADD21C,0.025*%
%ADD29C,0.0512*%
%ADD36C,0.0236*%
%ADD47C,0.0945*%
%ADD52C,0.0354*%
%ADD56C,0.0551*%
%ADD59C,0.0669*%
%FSLAX44Y44*%
G04*
G70*
G90*
G75*
G01*
%LNInner2_Plane*%
%LPD*%
X14562Y10812D2*
D14*
X14687D1*
X18062Y11812D2*
Y12062D1*
X9011Y16789D2*
Y16738D1*
X9062Y16687D1*
X9562Y26562D2*
X9937D1*
Y26812D1*
X12062Y25562D2*
X11937D1*
X11081Y24062D2*
X10937D1*
X16812Y13272D2*
Y13437D1*
X10187Y30937D2*
Y31062D1*
X15500Y32625D2*
X15562D1*
X12125Y29812D2*
X12062D1*
X15562Y30812D2*
X15500D1*
X15737Y26999D2*
X15625D1*
X12187Y20812D2*
Y20937D1*
X11187Y16562D2*
X11062D1*
X13312Y16300D2*
Y16437D1*
X15437Y17687D2*
Y17812D1*
D36*
X14562Y10812D3*
X18062Y11812D3*
X9011Y16789D3*
X20562Y14937D3*
X9562Y26562D3*
X12062Y25562D3*
X11081Y24062D3*
X16812Y13272D3*
X10187Y30937D3*
X15500Y32625D3*
X12125Y29812D3*
X15562Y30812D3*
X15737Y26999D3*
X12187Y20812D3*
X11187Y16562D3*
X13312Y16300D3*
X15437Y17687D3*
X12312Y24562D3*
X13062Y17062D3*
X18437Y17562D3*
Y22125D3*
X17437D3*
Y17500D3*
X18187Y17750D3*
Y21812D3*
X12312Y22812D3*
X17937Y17500D3*
X17687Y22312D3*
Y17750D3*
X16625Y23750D3*
X13812Y31375D3*
X13062Y10812D3*
X11937Y13937D3*
X14562Y14937D3*
X15352Y13687D3*
X17812Y10812D3*
X18812Y12562D3*
X7687Y15687D3*
X17062Y16062D3*
X9562Y24187D3*
X16876Y22187D3*
X7062Y32812D3*
X10812D3*
X12062Y28312D3*
X20812Y24937D3*
X15562Y30187D3*
X15500Y32000D3*
X12875Y31562D3*
X12125Y30562D3*
X13562Y29375D3*
X16250Y29062D3*
X15039Y26125D3*
X12937Y20812D3*
X11187Y17312D3*
Y15812D3*
X15937Y17687D3*
X12937Y16312D3*
X21272Y14937D3*
X6871Y33937D3*
X10937Y22437D3*
X13562Y20187D3*
X17687Y16937D3*
X10687Y23062D3*
X13562Y17568D3*
X16312Y14937D3*
Y12687D3*
X16687Y15562D3*
X13937Y12687D3*
X12062Y29062D3*
X11687Y14687D3*
X16187Y26596D3*
X14409Y27250D3*
X12500Y31625D3*
X11062Y21937D3*
X10062D3*
X17687Y16562D3*
X13312Y19937D3*
Y17312D3*
X14187Y32187D3*
X17312Y15812D3*
X22937D3*
X13437Y12437D3*
X12312Y15437D3*
X15875Y19437D3*
X8437Y6062D3*
X14062Y21375D3*
X16562Y18750D3*
X19562Y18687D3*
X16250Y18187D3*
X19375D3*
X20062Y17937D3*
X19375Y14125D3*
X20000Y13625D3*
X15187Y20125D3*
X14750Y19687D3*
X14625Y20687D3*
X14187Y20250D3*
X13625Y20812D3*
X15437Y19000D3*
X17187Y18187D3*
Y18687D3*
X18750D3*
Y18187D3*
X19375Y16312D3*
Y17250D3*
Y15312D3*
X20000D3*
X18062Y13625D3*
X9750Y13312D3*
Y13812D3*
X9312Y13062D3*
X8812D3*
Y10312D3*
X9312D3*
X8812Y11812D3*
X9312D3*
X10062Y10187D3*
X11062Y9187D3*
X12062Y8187D3*
X12812Y7437D3*
X10812Y10187D3*
X11812Y9187D3*
X12812Y8187D3*
X13812Y7437D3*
X14812Y7687D3*
X15812D3*
X16812D3*
X17812D3*
X15812Y8187D3*
X16812D3*
X17812D3*
X14812D3*
X18437Y6062D3*
Y7062D3*
X19062D3*
Y6062D3*
Y8062D3*
X8437Y7062D3*
Y8062D3*
Y9312D3*
X9062Y6062D3*
Y7062D3*
Y8312D3*
Y9312D3*
X4347Y34800D2*
D21*
X7049D1*
X7911D2*
X9646D1*
X10509D2*
X12404D1*
X13450D2*
X14217D1*
X15181D2*
X23213D1*
X4347Y34551D2*
X7193D1*
X7771D2*
X9791D1*
X10368D2*
X12408D1*
X13443D2*
X14221D1*
X15173D2*
X23213D1*
X4347Y34302D2*
X12564D1*
X13286D2*
X14400D1*
X14993D2*
X23213D1*
X4347Y34053D2*
X6514D1*
X7228D2*
X11924D1*
X12946D2*
X14678D1*
X15700D2*
X23213D1*
X4347Y33805D2*
X6518D1*
X7224D2*
X11818D1*
X13048D2*
X14576D1*
X15806D2*
X23213D1*
X4347Y33556D2*
X11826D1*
X13040D2*
X14584D1*
X15798D2*
X23213D1*
X4347Y33307D2*
X11959D1*
X12911D2*
X14713D1*
X15665D2*
X23213D1*
X4347Y33059D2*
X6783D1*
X7341D2*
X10533D1*
X11091D2*
X16193D1*
X17349D2*
X20209D1*
X21364D2*
X23213D1*
X4347Y32810D2*
X6686D1*
X7439D2*
X10436D1*
X11189D2*
X11342D1*
X12032D2*
X16049D1*
X17493D2*
X20064D1*
X21509D2*
X23213D1*
X4347Y32561D2*
X6787D1*
X7337D2*
X10537D1*
X11087D2*
X11186D1*
X12189D2*
X16010D1*
X17532D2*
X20025D1*
X21548D2*
X23213D1*
X4347Y32313D2*
X11186D1*
X12189D2*
X13865D1*
X14509D2*
X15311D1*
X15689D2*
X16057D1*
X17489D2*
X20072D1*
X21505D2*
X23213D1*
X4347Y32064D2*
X11342D1*
X12032D2*
X13861D1*
X14513D2*
X15127D1*
X15872D2*
X16209D1*
X17333D2*
X20225D1*
X21349D2*
X23213D1*
X4347Y31815D2*
X12213D1*
X13146D2*
X15174D1*
X15825D2*
X23213D1*
X4347Y31567D2*
X12154D1*
X13251D2*
X13525D1*
X14099D2*
X23213D1*
X4347Y31318D2*
X12369D1*
X13153D2*
X13467D1*
X14157D2*
X23213D1*
X4347Y31069D2*
X13678D1*
X13945D2*
X23213D1*
X4347Y30821D2*
X11857D1*
X12392D2*
X17353D1*
X18236D2*
X18389D1*
X19173D2*
X23213D1*
X4347Y30572D2*
X11748D1*
X12501D2*
X17279D1*
X19255D2*
X23213D1*
X4347Y30323D2*
X11838D1*
X12411D2*
X15213D1*
X15911D2*
X17342D1*
X18247D2*
X18369D1*
X19189D2*
X23213D1*
X4347Y30074D2*
X15201D1*
X15923D2*
X17713D1*
X17877D2*
X23213D1*
X4347Y29826D2*
X23213D1*
X4347Y29577D2*
X5256D1*
X6556D2*
X13248D1*
X13876D2*
X21002D1*
X22302D2*
X23213D1*
X4347Y29328D2*
X4814D1*
X6997D2*
X11853D1*
X12271D2*
X13186D1*
X13939D2*
X15994D1*
X16505D2*
X20564D1*
X22743D2*
X23213D1*
X4347Y29080D2*
X4553D1*
X7255D2*
X11713D1*
X12411D2*
X13342D1*
X13782D2*
X15873D1*
X16626D2*
X20303D1*
X23005D2*
X23213D1*
X7435Y28831D2*
X11811D1*
X12314D2*
X15959D1*
X16540D2*
X20127D1*
X7552Y28582D2*
X11811D1*
X12314D2*
X20006D1*
X7630Y28334D2*
X11686D1*
X12439D2*
X19932D1*
X7665Y28085D2*
X11768D1*
X12357D2*
X19893D1*
X7665Y27836D2*
X19893D1*
X7634Y27588D2*
X19928D1*
X7560Y27339D2*
X14072D1*
X14747D2*
X20002D1*
X7443Y27090D2*
X14103D1*
X14716D2*
X20115D1*
X4347Y26842D2*
X4541D1*
X7271D2*
X15951D1*
X16423D2*
X20291D1*
X23017D2*
X23213D1*
X4347Y26593D2*
X4795D1*
X7017D2*
X15838D1*
X16536D2*
X20541D1*
X22763D2*
X23213D1*
X4347Y26344D2*
X5217D1*
X6595D2*
X14736D1*
X15341D2*
X15959D1*
X16415D2*
X20963D1*
X22341D2*
X23213D1*
X4347Y26095D2*
X14662D1*
X15415D2*
X23213D1*
X4347Y25847D2*
X14795D1*
X15282D2*
X23213D1*
X4347Y25598D2*
X23213D1*
X4347Y25349D2*
X23213D1*
X4347Y25101D2*
X20475D1*
X21150D2*
X23213D1*
X4347Y24852D2*
X12143D1*
X12482D2*
X20443D1*
X21181D2*
X23213D1*
X4347Y24603D2*
X11967D1*
X12657D2*
X20670D1*
X20950D2*
X23213D1*
X4347Y24355D2*
X9225D1*
X9900D2*
X12037D1*
X12587D2*
X19654D1*
X20220D2*
X20654D1*
X21220D2*
X23213D1*
X4347Y24106D2*
X9193D1*
X9931D2*
X19451D1*
X21423D2*
X23213D1*
X4347Y23857D2*
X6498D1*
X6876D2*
X7498D1*
X7876D2*
X8498D1*
X8876D2*
X9412D1*
X9712D2*
X16295D1*
X16954D2*
X19428D1*
X21446D2*
X23213D1*
X4347Y23609D2*
X6244D1*
X7130D2*
X7246D1*
X8130D2*
X8246D1*
X9130D2*
X16307D1*
X16943D2*
X19549D1*
X20325D2*
X20549D1*
X21325D2*
X23213D1*
X4347Y23360D2*
X6217D1*
X9157D2*
X10533D1*
X10837D2*
X23213D1*
X4347Y23111D2*
X6350D1*
X7025D2*
X7350D1*
X8025D2*
X8350D1*
X9025D2*
X10342D1*
X11032D2*
X12162D1*
X12462D2*
X23213D1*
X4347Y22863D2*
X6416D1*
X6958D2*
X7514D1*
X7861D2*
X10408D1*
X10966D2*
X11967D1*
X12657D2*
X23213D1*
X4347Y22614D2*
X6205D1*
X7169D2*
X7250D1*
X8126D2*
X10643D1*
X11232D2*
X12029D1*
X12595D2*
X17545D1*
X17829D2*
X23213D1*
X4347Y22365D2*
X6178D1*
X8157D2*
X10596D1*
X11278D2*
X16545D1*
X18032D2*
X18197D1*
X18677D2*
X19771D1*
X20103D2*
X20771D1*
X21103D2*
X23213D1*
X4347Y22116D2*
X6291D1*
X7083D2*
X7346D1*
X8028D2*
X9768D1*
X10357D2*
X10768D1*
X11357D2*
X16506D1*
X17970D2*
X18053D1*
X18786D2*
X19498D1*
X20376D2*
X20495D1*
X21376D2*
X23213D1*
X4347Y21868D2*
X9721D1*
X10403D2*
X10721D1*
X11403D2*
X16701D1*
X17052D2*
X17213D1*
X17661D2*
X17842D1*
X18661D2*
X19467D1*
X21407D2*
X23213D1*
X4347Y21619D2*
X9975D1*
X10151D2*
X10975D1*
X11151D2*
X13783D1*
X14341D2*
X17900D1*
X18474D2*
X19592D1*
X20282D2*
X20592D1*
X21282D2*
X23213D1*
X4347Y21370D2*
X13686D1*
X14439D2*
X19787D1*
X20087D2*
X20787D1*
X21087D2*
X23213D1*
X4347Y21122D2*
X12744D1*
X13130D2*
X13432D1*
X14333D2*
X19502D1*
X20372D2*
X20501D1*
X21372D2*
X23213D1*
X4347Y20873D2*
X12564D1*
X13997D2*
X14299D1*
X14950D2*
X19467D1*
X21407D2*
X23213D1*
X4347Y20624D2*
X12611D1*
X13950D2*
X14252D1*
X14997D2*
X19588D1*
X20286D2*
X20588D1*
X21286D2*
X23213D1*
X4347Y20376D2*
X13275D1*
X14818D2*
X14915D1*
X15458D2*
X23213D1*
X4347Y20127D2*
X13025D1*
X14544D2*
X14811D1*
X15564D2*
X23213D1*
X4347Y19878D2*
X12967D1*
X13685D2*
X14428D1*
X15466D2*
X23213D1*
X4347Y19630D2*
X13186D1*
X13439D2*
X14377D1*
X15122D2*
X15553D1*
X16196D2*
X23213D1*
X4347Y19381D2*
X14549D1*
X14950D2*
X15502D1*
X16247D2*
X23213D1*
X4347Y19132D2*
X15084D1*
X16079D2*
X23213D1*
X4347Y18884D2*
X15080D1*
X15794D2*
X16209D1*
X17505D2*
X18432D1*
X19068D2*
X19244D1*
X19880D2*
X23213D1*
X4347Y18635D2*
X16205D1*
X17560D2*
X18377D1*
X19935D2*
X23213D1*
X4347Y18386D2*
X15932D1*
X16568D2*
X16869D1*
X17505D2*
X18432D1*
X19771D2*
X23213D1*
X4347Y18137D2*
X15877D1*
X16622D2*
X16814D1*
X17560D2*
X18377D1*
X20376D2*
X23213D1*
X4347Y17889D2*
X13494D1*
X13630D2*
X15623D1*
X16462D2*
X16975D1*
X18962D2*
X19162D1*
X19587D2*
X19686D1*
X20435D2*
X23213D1*
X4347Y17640D2*
X11033D1*
X11341D2*
X13221D1*
X13903D2*
X15561D1*
X16314D2*
X17119D1*
X18775D2*
X19846D1*
X20278D2*
X23213D1*
X4347Y17391D2*
X10818D1*
X11556D2*
X12975D1*
X13857D2*
X15721D1*
X16153D2*
X17107D1*
X18736D2*
X19025D1*
X19724D2*
X23213D1*
X4347Y17143D2*
X10853D1*
X11521D2*
X12725D1*
X13614D2*
X17412D1*
X17962D2*
X19014D1*
X19736D2*
X23213D1*
X4347Y16894D2*
X12760D1*
X13364D2*
X17342D1*
X18032D2*
X23213D1*
X4347Y16645D2*
X12795D1*
X13079D2*
X17350D1*
X18025D2*
X19232D1*
X19517D2*
X23213D1*
X4347Y16397D2*
X12568D1*
X13306D2*
X16924D1*
X17202D2*
X17385D1*
X17989D2*
X19006D1*
X19743D2*
X23213D1*
X4347Y16148D2*
X11053D1*
X11320D2*
X12600D1*
X13275D2*
X16693D1*
X17431D2*
X19037D1*
X19712D2*
X23213D1*
X4347Y15899D2*
X7381D1*
X7993D2*
X10818D1*
X11556D2*
X16725D1*
X17650D2*
X22600D1*
X4347Y15651D2*
X7311D1*
X8064D2*
X10850D1*
X11525D2*
X12045D1*
X12579D2*
X16350D1*
X17618D2*
X19248D1*
X19501D2*
X19873D1*
X20126D2*
X22631D1*
X4347Y15402D2*
X7455D1*
X7919D2*
X11967D1*
X12657D2*
X16381D1*
X16993D2*
X19010D1*
X20364D2*
X23213D1*
X4347Y15153D2*
X12131D1*
X12493D2*
X14260D1*
X14864D2*
X16045D1*
X16579D2*
X19033D1*
X20341D2*
X20967D1*
X21575D2*
X23213D1*
X4347Y14905D2*
X11424D1*
X11950D2*
X14186D1*
X14939D2*
X15963D1*
X16657D2*
X20896D1*
X21650D2*
X23213D1*
X4347Y14656D2*
X11338D1*
X12032D2*
X14322D1*
X14802D2*
X16127D1*
X16497D2*
X21033D1*
X21509D2*
X23213D1*
X4347Y14407D2*
X11498D1*
X11876D2*
X19139D1*
X19611D2*
X23213D1*
X4347Y14158D2*
X9658D1*
X9840D2*
X11639D1*
X12236D2*
X18998D1*
X19751D2*
X23213D1*
X4347Y13910D2*
X9385D1*
X10114D2*
X11561D1*
X12314D2*
X15053D1*
X15650D2*
X17830D1*
X18294D2*
X19068D1*
X19681D2*
X19768D1*
X20232D2*
X23213D1*
X4347Y13661D2*
X9404D1*
X10095D2*
X11693D1*
X12181D2*
X14975D1*
X15728D2*
X17686D1*
X18439D2*
X19623D1*
X20376D2*
X23213D1*
X4347Y13412D2*
X8744D1*
X8880D2*
X9244D1*
X10114D2*
X15107D1*
X15599D2*
X17756D1*
X18368D2*
X19693D1*
X20306D2*
X23213D1*
X4347Y13164D2*
X8447D1*
X10095D2*
X23213D1*
X4347Y12915D2*
X4994D1*
X6818D2*
X8467D1*
X9657D2*
X13682D1*
X14193D2*
X16057D1*
X16568D2*
X20740D1*
X22564D2*
X23213D1*
X4347Y12666D2*
X4670D1*
X7142D2*
X13182D1*
X14286D2*
X15963D1*
X16661D2*
X18451D1*
X19173D2*
X20416D1*
X22892D2*
X23213D1*
X4347Y12418D2*
X4455D1*
X7353D2*
X13088D1*
X14142D2*
X16107D1*
X16517D2*
X18467D1*
X19157D2*
X20205D1*
X23103D2*
X23209D1*
X7501Y12169D2*
X13228D1*
X13642D2*
X20061D1*
X7595Y11920D2*
X8451D1*
X9673D2*
X19963D1*
X7653Y11672D2*
X8463D1*
X9661D2*
X19908D1*
X7669Y11423D2*
X19889D1*
X7653Y11174D2*
X19904D1*
X7599Y10926D2*
X12701D1*
X13423D2*
X17451D1*
X18173D2*
X19959D1*
X7505Y10677D2*
X12713D1*
X13411D2*
X17463D1*
X18161D2*
X20053D1*
X4347Y10428D2*
X4447D1*
X7361D2*
X8455D1*
X9669D2*
X9777D1*
X10345D2*
X10529D1*
X11095D2*
X20197D1*
X23111D2*
X23212D1*
X4347Y10179D2*
X4658D1*
X7153D2*
X8459D1*
X11189D2*
X20404D1*
X22903D2*
X23213D1*
X4347Y9931D2*
X4975D1*
X6837D2*
X9795D1*
X10329D2*
X10545D1*
X11079D2*
X20725D1*
X22583D2*
X23213D1*
X4347Y9682D2*
X5748D1*
X6064D2*
X21494D1*
X21814D2*
X23213D1*
X4347Y9433D2*
X8080D1*
X9419D2*
X10783D1*
X11341D2*
X11533D1*
X12091D2*
X23213D1*
X4347Y9185D2*
X8084D1*
X10107D2*
X10686D1*
X12189D2*
X18502D1*
X19060D2*
X19420D1*
X20107D2*
X23213D1*
X4347Y8936D2*
X8322D1*
X10263D2*
X10787D1*
X11337D2*
X11537D1*
X12087D2*
X18322D1*
X20263D2*
X23213D1*
X4347Y8687D2*
X8322D1*
X10263D2*
X18322D1*
X20263D2*
X23213D1*
X4347Y8439D2*
X8502D1*
X10107D2*
X11791D1*
X12333D2*
X12541D1*
X13083D2*
X14541D1*
X15083D2*
X15541D1*
X16083D2*
X16541D1*
X17083D2*
X17541D1*
X18083D2*
X18502D1*
X19056D2*
X19420D1*
X20107D2*
X23213D1*
X4347Y8190D2*
X8084D1*
X9419D2*
X11686D1*
X13189D2*
X14436D1*
X15189D2*
X15436D1*
X16189D2*
X16436D1*
X17189D2*
X17436D1*
X18189D2*
X18709D1*
X19415D2*
X23213D1*
X4347Y7941D2*
X8080D1*
X8794D2*
X11783D1*
X12341D2*
X12533D1*
X13091D2*
X14533D1*
X15091D2*
X15533D1*
X16091D2*
X16533D1*
X17091D2*
X17533D1*
X18091D2*
X18705D1*
X19419D2*
X23213D1*
X4347Y7693D2*
X12545D1*
X13079D2*
X13545D1*
X14079D2*
X14436D1*
X15189D2*
X15436D1*
X16189D2*
X16436D1*
X17189D2*
X17436D1*
X18189D2*
X23213D1*
X4347Y7444D2*
X6381D1*
X7161D2*
X10396D1*
X11177D2*
X12436D1*
X13189D2*
X13436D1*
X14189D2*
X14529D1*
X15091D2*
X15529D1*
X16091D2*
X16381D1*
X17161D2*
X17529D1*
X18091D2*
X20396D1*
X21177D2*
X23213D1*
X4347Y7195D2*
X6123D1*
X7423D2*
X8084D1*
X9415D2*
X10139D1*
X11439D2*
X12529D1*
X13095D2*
X13529D1*
X14095D2*
X16123D1*
X17423D2*
X18084D1*
X19415D2*
X20139D1*
X21439D2*
X23213D1*
X4347Y6947D2*
X6021D1*
X7521D2*
X8080D1*
X9419D2*
X10041D1*
X11536D2*
X16021D1*
X17521D2*
X18080D1*
X19419D2*
X20041D1*
X21536D2*
X23213D1*
X4347Y6698D2*
X6018D1*
X7525D2*
X10033D1*
X11540D2*
X16018D1*
X17525D2*
X20033D1*
X21540D2*
X23213D1*
X4347Y6449D2*
X6100D1*
X7443D2*
X10115D1*
X11458D2*
X16100D1*
X17443D2*
X20115D1*
X21458D2*
X23213D1*
X4347Y6200D2*
X6322D1*
X7220D2*
X8088D1*
X9411D2*
X10338D1*
X11236D2*
X16322D1*
X17220D2*
X18088D1*
X19411D2*
X20338D1*
X21236D2*
X23213D1*
X4347Y5952D2*
X8076D1*
X9423D2*
X18076D1*
X19423D2*
X23213D1*
X4347Y5703D2*
X23213D1*
X4347Y5454D2*
X23213D1*
X4347Y5206D2*
X23213D1*
X4347Y4957D2*
X23213D1*
X4347Y4708D2*
X23213D1*
X4347Y4460D2*
X23213D1*
X9121Y23314D2*
X9070Y23200D1*
X8991Y23104D1*
X8888Y23033D1*
X8770Y22994D1*
X8645Y22988D1*
X8524Y23017D1*
X8415Y23077D1*
X8327Y23165D1*
X8267Y23274D1*
X8238Y23396D1*
X8244Y23520D1*
X8283Y23638D1*
X8354Y23741D1*
X8450Y23820D1*
X8564Y23871D1*
X8687Y23888D1*
X8811Y23871D1*
X8925Y23820D1*
X9020Y23741D1*
X9091Y23638D1*
X9130Y23520D1*
X9138Y23437D1*
X9121Y23314D1*
X8121D2*
X8070Y23200D1*
X7991Y23104D1*
X7888Y23033D1*
X7770Y22994D1*
X7645Y22988D1*
X7524Y23017D1*
X7415Y23077D1*
X7327Y23165D1*
X7267Y23274D1*
X7238Y23396D1*
X7244Y23520D1*
X7283Y23638D1*
X7354Y23741D1*
X7450Y23820D1*
X7564Y23871D1*
X7687Y23888D1*
X7811Y23871D1*
X7925Y23820D1*
X8020Y23741D1*
X8091Y23638D1*
X8130Y23520D1*
X8138Y23437D1*
X8121Y23314D1*
Y22314D2*
X8070Y22200D1*
X7991Y22104D1*
X7888Y22033D1*
X7770Y21994D1*
X7645Y21988D1*
X7524Y22017D1*
X7415Y22077D1*
X7327Y22165D1*
X7267Y22274D1*
X7238Y22396D1*
X7244Y22520D1*
X7283Y22638D1*
X7354Y22741D1*
X7450Y22820D1*
X7564Y22871D1*
X7687Y22888D1*
X7811Y22871D1*
X7925Y22820D1*
X8020Y22741D1*
X8091Y22638D1*
X8130Y22520D1*
X8138Y22437D1*
X8121Y22314D1*
X7121Y23314D2*
X7070Y23200D1*
X6991Y23104D1*
X6888Y23033D1*
X6770Y22994D1*
X6645Y22988D1*
X6524Y23017D1*
X6415Y23077D1*
X6327Y23165D1*
X6267Y23274D1*
X6238Y23396D1*
X6244Y23520D1*
X6283Y23638D1*
X6354Y23741D1*
X6450Y23820D1*
X6564Y23871D1*
X6687Y23888D1*
X6811Y23871D1*
X6925Y23820D1*
X7020Y23741D1*
X7091Y23638D1*
X7130Y23520D1*
X7138Y23437D1*
X7121Y23314D1*
X7162Y22313D2*
X7116Y22198D1*
X7042Y22097D1*
X6945Y22019D1*
X6831Y21968D1*
X6708Y21947D1*
X6584Y21957D1*
X6466Y21999D1*
X6363Y22068D1*
X6281Y22162D1*
X6224Y22273D1*
X6198Y22395D1*
X6203Y22519D1*
X6239Y22639D1*
X6305Y22745D1*
X6395Y22831D1*
X6503Y22892D1*
X6624Y22924D1*
X6749D1*
X6869Y22893D1*
X6978Y22832D1*
X7068Y22746D1*
X7134Y22640D1*
X7171Y22521D1*
X7178Y22437D1*
X7162Y22313D1*
X19213Y30439D2*
X19163Y30325D1*
X19083Y30229D1*
X18980Y30158D1*
X18862Y30119D1*
X18738Y30113D1*
X18617Y30142D1*
X18508Y30202D1*
X18420Y30290D1*
X18359Y30399D1*
X18331Y30521D1*
X18336Y30645D1*
X18376Y30763D1*
X18446Y30866D1*
X18542Y30945D1*
X18656Y30996D1*
X18780Y31013D1*
X18903Y30996D1*
X19017Y30945D1*
X19113Y30866D1*
X19183Y30763D1*
X19223Y30645D1*
X19230Y30562D1*
X19213Y30439D1*
X18270Y30438D2*
X18224Y30323D1*
X18150Y30222D1*
X18053Y30144D1*
X17939Y30093D1*
X17816Y30072D1*
X17692Y30082D1*
X17575Y30124D1*
X17471Y30193D1*
X17389Y30287D1*
X17333Y30398D1*
X17306Y30520D1*
X17311Y30644D1*
X17348Y30764D1*
X17413Y30870D1*
X17503Y30956D1*
X17612Y31017D1*
X17732Y31049D1*
X17857D1*
X17977Y31018D1*
X18086Y30957D1*
X18177Y30871D1*
X18242Y30765D1*
X18279Y30646D1*
X18286Y30562D1*
X18270Y30438D1*
X21514Y32445D2*
X21483Y32325D1*
X21431Y32211D1*
X21362Y32107D1*
X21275Y32017D1*
X21175Y31943D1*
X21064Y31886D1*
X20944Y31849D1*
X20821Y31833D1*
X20696Y31838D1*
X20574Y31864D1*
X20458Y31910D1*
X20351Y31975D1*
X20257Y32057D1*
X20178Y32154D1*
X20117Y32263D1*
X20075Y32381D1*
X20053Y32503D1*
X20052Y32628D1*
X20073Y32752D1*
X20114Y32869D1*
X20174Y32979D1*
X20252Y33076D1*
X20345Y33160D1*
X20451Y33226D1*
X20566Y33273D1*
X20688Y33301D1*
X20813Y33307D1*
X20937Y33292D1*
X21056Y33256D1*
X21168Y33201D1*
X21269Y33128D1*
X21357Y33039D1*
X21428Y32936D1*
X21480Y32823D1*
X21513Y32702D1*
X21525Y32570D1*
X21514Y32445D1*
X17498D2*
X17467Y32325D1*
X17416Y32211D1*
X17346Y32107D1*
X17260Y32017D1*
X17159Y31943D1*
X17048Y31886D1*
X16929Y31849D1*
X16805Y31833D1*
X16680Y31838D1*
X16558Y31864D1*
X16442Y31910D1*
X16335Y31975D1*
X16241Y32057D1*
X16163Y32154D1*
X16101Y32263D1*
X16059Y32381D1*
X16037Y32503D1*
Y32628D1*
X16057Y32752D1*
X16098Y32869D1*
X16158Y32979D1*
X16236Y33076D1*
X16329Y33160D1*
X16435Y33226D1*
X16550Y33273D1*
X16672Y33301D1*
X16797Y33307D1*
X16921Y33292D1*
X17041Y33256D1*
X17153Y33201D1*
X17254Y33128D1*
X17341Y33039D1*
X17412Y32936D1*
X17464Y32823D1*
X17497Y32702D1*
X17509Y32570D1*
X17498Y32445D1*
X10472Y34744D2*
X10417Y34632D1*
X10332Y34542D1*
X10223Y34481D1*
X10101Y34456D1*
X9977Y34468D1*
X9863Y34516D1*
X9768Y34597D1*
X9701Y34702D1*
X9670Y34834D1*
X9667Y35051D1*
X8487Y35048D1*
X7890D1*
X7892Y34867D1*
X7874Y34744D1*
X7819Y34632D1*
X7733Y34542D1*
X7625Y34481D1*
X7503Y34456D1*
X7379Y34468D1*
X7264Y34516D1*
X7169Y34597D1*
X7103Y34702D1*
X7071Y34834D1*
X7068Y35051D1*
X5612Y35048D1*
X4322D1*
Y28677D1*
X4462Y28925D1*
X4616Y29122D1*
X4797Y29295D1*
X5000Y29439D1*
X5223Y29554D1*
X5459Y29635D1*
X5704Y29682D1*
X5954Y29693D1*
X6202Y29668D1*
X6445Y29608D1*
X6676Y29513D1*
X6891Y29387D1*
X7087Y29231D1*
X7257Y29049D1*
X7400Y28844D1*
X7513Y28621D1*
X7592Y28384D1*
X7636Y28138D1*
X7646Y27953D1*
X7628Y27704D1*
X7575Y27460D1*
X7487Y27226D1*
X7367Y27007D1*
X7216Y26807D1*
X7039Y26632D1*
X6838Y26483D1*
X6618Y26365D1*
X6383Y26279D1*
X6139Y26228D1*
X5889Y26212D1*
X5640Y26233D1*
X5397Y26288D1*
X5164Y26378D1*
X4946Y26501D1*
X4748Y26653D1*
X4574Y26832D1*
X4427Y27034D1*
X4323Y27230D1*
X4322Y12138D1*
X4396Y12284D1*
X4536Y12491D1*
X4704Y12676D1*
X4896Y12835D1*
X5109Y12965D1*
X5339Y13063D1*
X5581Y13127D1*
X5829Y13156D1*
X6078Y13149D1*
X6325Y13107D1*
X6562Y13029D1*
X6786Y12919D1*
X6992Y12777D1*
X7175Y12608D1*
X7333Y12414D1*
X7461Y12199D1*
X7556Y11968D1*
X7618Y11726D1*
X7645Y11478D1*
X7642Y11292D1*
X7606Y11045D1*
X7535Y10806D1*
X7431Y10579D1*
X7295Y10369D1*
X7131Y10181D1*
X6941Y10018D1*
X6730Y9885D1*
X6502Y9782D1*
X6262Y9714D1*
X6014Y9680D1*
X5765Y9683D1*
X5518Y9721D1*
X5279Y9794D1*
X5053Y9900D1*
X4844Y10038D1*
X4658Y10204D1*
X4497Y10395D1*
X4365Y10607D1*
X4323Y10695D1*
X4322Y4322D1*
X23237D1*
X23235Y10690D1*
X23115Y10471D1*
X22964Y10272D1*
X22787Y10096D1*
X22586Y9948D1*
X22366Y9829D1*
X22131Y9744D1*
X21887Y9693D1*
X21637Y9677D1*
X21389Y9697D1*
X21145Y9753D1*
X20912Y9843D1*
X20694Y9965D1*
X20496Y10117D1*
X20322Y10296D1*
X20175Y10499D1*
X20059Y10720D1*
X19976Y10955D1*
X19927Y11200D1*
X19913Y11449D1*
X19936Y11698D1*
X19994Y11941D1*
X20086Y12173D1*
X20210Y12390D1*
X20364Y12587D1*
X20545Y12759D1*
X20748Y12904D1*
X20971Y13018D1*
X21207Y13099D1*
X21452Y13146D1*
X21702Y13157D1*
X21950Y13132D1*
X22193Y13072D1*
X22424Y12978D1*
X22639Y12852D1*
X22835Y12696D1*
X23005Y12513D1*
X23148Y12309D1*
X23236Y12139D1*
X23237Y15690D1*
X23169Y15586D1*
X23067Y15515D1*
X22946Y15488D1*
X22823Y15509D1*
X22718Y15574D1*
X22644Y15674D1*
X22614Y15794D1*
X22631Y15917D1*
X22693Y16025D1*
X22791Y16101D1*
X22910Y16135D1*
X23034Y16121D1*
X23143Y16062D1*
X23222Y15966D1*
X23237Y15918D1*
X23235Y27226D1*
X23115Y27007D1*
X22964Y26807D1*
X22787Y26632D1*
X22586Y26483D1*
X22366Y26365D1*
X22131Y26279D1*
X21887Y26228D1*
X21637Y26212D1*
X21389Y26233D1*
X21145Y26288D1*
X20912Y26378D1*
X20694Y26501D1*
X20496Y26653D1*
X20322Y26832D1*
X20175Y27034D1*
X20059Y27255D1*
X19976Y27490D1*
X19927Y27735D1*
X19913Y27985D1*
X19936Y28234D1*
X19994Y28477D1*
X20086Y28709D1*
X20210Y28925D1*
X20364Y29122D1*
X20545Y29295D1*
X20748Y29439D1*
X20971Y29554D1*
X21207Y29635D1*
X21452Y29682D1*
X21702Y29693D1*
X21950Y29668D1*
X22193Y29608D1*
X22424Y29513D1*
X22639Y29387D1*
X22835Y29231D1*
X23005Y29049D1*
X23148Y28844D1*
X23236Y28674D1*
X23237Y35048D1*
X14999D1*
X15056Y34992D1*
X15124Y34887D1*
X15161Y34768D1*
X15168Y34687D1*
X15152Y34563D1*
X15104Y34449D1*
X15027Y34350D1*
X14927Y34276D1*
X14811Y34230D1*
X14687Y34217D1*
X14564Y34236D1*
X14450Y34287D1*
X14354Y34366D1*
X14282Y34467D1*
X14239Y34584D1*
X14228Y34709D1*
X14250Y34831D1*
X14303Y34944D1*
X14401Y35049D1*
X13288Y35048D1*
X13332Y34997D1*
X13395Y34889D1*
X13430Y34770D1*
X13437Y34687D1*
X13422Y34563D1*
X13377Y34447D1*
X13305Y34345D1*
X13211Y34263D1*
X13100Y34207D1*
X12978Y34179D1*
X12853Y34182D1*
X12759Y34207D1*
X12824Y34158D1*
X12910Y34068D1*
X12975Y33961D1*
X13017Y33844D1*
X13034Y33703D1*
X13021Y33579D1*
X12982Y33460D1*
X12920Y33352D1*
X12837Y33259D1*
X12736Y33185D1*
X12623Y33134D1*
X12501Y33107D1*
X12376Y33106D1*
X12254Y33131D1*
X12139Y33181D1*
X12038Y33253D1*
X11953Y33345D1*
X11889Y33452D1*
X11849Y33570D1*
X11835Y33694D1*
X11846Y33818D1*
X11882Y33938D1*
X11943Y34047D1*
X12025Y34141D1*
X12124Y34216D1*
X12237Y34269D1*
X12359Y34298D1*
X12484Y34300D1*
X12606Y34277D1*
X12646Y34261D1*
X12534Y34361D1*
X12466Y34466D1*
X12426Y34584D1*
X12416Y34708D1*
X12436Y34831D1*
X12486Y34945D1*
X12565Y35047D1*
X10491Y35048D1*
Y34867D1*
X10472Y34744D1*
X20412Y23813D2*
X20366Y23698D1*
X20292Y23597D1*
X20195Y23519D1*
X20081Y23468D1*
X19958Y23447D1*
X19834Y23457D1*
X19716Y23499D1*
X19613Y23568D1*
X19531Y23662D1*
X19474Y23773D1*
X19448Y23895D1*
X19453Y24019D1*
X19489Y24139D1*
X19555Y24245D1*
X19645Y24331D1*
X19753Y24392D1*
X19874Y24424D1*
X19999D1*
X20119Y24393D1*
X20228Y24332D1*
X20318Y24246D1*
X20384Y24140D1*
X20421Y24021D1*
X20428Y23937D1*
X20412Y23813D1*
X20371Y21814D2*
X20320Y21700D1*
X20241Y21604D1*
X20138Y21533D1*
X20020Y21494D1*
X19895Y21488D1*
X19774Y21517D1*
X19665Y21577D1*
X19577Y21665D1*
X19517Y21774D1*
X19488Y21896D1*
X19494Y22020D1*
X19533Y22138D1*
X19604Y22241D1*
X19700Y22320D1*
X19814Y22371D1*
X19937Y22388D1*
X20061Y22371D1*
X20175Y22320D1*
X20270Y22241D1*
X20341Y22138D1*
X20380Y22020D1*
X20388Y21937D1*
X20371Y21814D1*
Y20814D2*
X20320Y20700D1*
X20241Y20604D1*
X20138Y20533D1*
X20020Y20494D1*
X19895Y20488D1*
X19774Y20517D1*
X19665Y20577D1*
X19577Y20665D1*
X19517Y20774D1*
X19488Y20896D1*
X19494Y21020D1*
X19533Y21138D1*
X19604Y21241D1*
X19700Y21320D1*
X19814Y21371D1*
X19937Y21388D1*
X20061Y21371D1*
X20175Y21320D1*
X20270Y21241D1*
X20341Y21138D1*
X20380Y21020D1*
X20388Y20937D1*
X20371Y20814D1*
X21412Y23813D2*
X21366Y23698D1*
X21292Y23597D1*
X21195Y23519D1*
X21081Y23468D1*
X20958Y23447D1*
X20834Y23457D1*
X20716Y23499D1*
X20613Y23568D1*
X20531Y23662D1*
X20474Y23773D1*
X20448Y23895D1*
X20453Y24019D1*
X20489Y24139D1*
X20555Y24245D1*
X20645Y24331D1*
X20753Y24392D1*
X20874Y24424D1*
X20999D1*
X21119Y24393D1*
X21228Y24332D1*
X21318Y24246D1*
X21384Y24140D1*
X21421Y24021D1*
X21428Y23937D1*
X21412Y23813D1*
X21371Y21814D2*
X21320Y21700D1*
X21241Y21604D1*
X21138Y21533D1*
X21020Y21494D1*
X20895Y21488D1*
X20774Y21517D1*
X20665Y21577D1*
X20577Y21665D1*
X20517Y21774D1*
X20488Y21896D1*
X20494Y22020D1*
X20533Y22138D1*
X20604Y22241D1*
X20700Y22320D1*
X20814Y22371D1*
X20937Y22388D1*
X21061Y22371D1*
X21175Y22320D1*
X21270Y22241D1*
X21341Y22138D1*
X21380Y22020D1*
X21388Y21937D1*
X21371Y21814D1*
Y20814D2*
X21320Y20700D1*
X21241Y20604D1*
X21138Y20533D1*
X21020Y20494D1*
X20895Y20488D1*
X20774Y20517D1*
X20665Y20577D1*
X20577Y20665D1*
X20517Y20774D1*
X20488Y20896D1*
X20494Y21020D1*
X20533Y21138D1*
X20604Y21241D1*
X20700Y21320D1*
X20814Y21371D1*
X20937Y21388D1*
X21061Y21371D1*
X21175Y21320D1*
X21270Y21241D1*
X21341Y21138D1*
X21380Y21020D1*
X21388Y20937D1*
X21371Y20814D1*
X9213Y8689D2*
X9193Y8642D1*
X9261Y8604D1*
X9350Y8517D1*
X9403Y8405D1*
X9415Y8312D1*
X9393Y8190D1*
X9330Y8082D1*
X9234Y8004D1*
X9116Y7963D1*
X8992Y7966D1*
X8876Y8012D1*
X8787Y8092D1*
X8790Y8062D1*
X8768Y7940D1*
X8705Y7832D1*
X8609Y7754D1*
X8491Y7713D1*
X8367Y7716D1*
X8251Y7762D1*
X8159Y7845D1*
X8101Y7954D1*
X8084Y8078D1*
X8112Y8199D1*
X8179Y8303D1*
X8279Y8378D1*
X8398Y8413D1*
X8522Y8405D1*
X8636Y8354D1*
X8711Y8281D1*
X8717Y8362D1*
X8617Y8392D1*
X8508Y8452D1*
X8420Y8540D1*
X8359Y8649D1*
X8331Y8771D1*
X8336Y8895D1*
X8360Y8965D1*
X8251Y9012D1*
X8159Y9095D1*
X8101Y9204D1*
X8084Y9328D1*
X8112Y9449D1*
X8179Y9553D1*
X8279Y9628D1*
X8398Y9663D1*
X8522Y9655D1*
X8636Y9604D1*
X8725Y9517D1*
X8746Y9471D1*
X8804Y9553D1*
X8904Y9628D1*
X9023Y9663D1*
X9147Y9655D1*
X9261Y9604D1*
X9350Y9517D1*
X9403Y9405D1*
X9415Y9312D1*
X9393Y9190D1*
X9330Y9082D1*
X9234Y9004D1*
X9194Y8990D1*
X9223Y8895D1*
X9230Y8812D1*
X9213Y8689D1*
X10239Y8688D2*
X10192Y8573D1*
X10118Y8472D1*
X10021Y8394D1*
X9908Y8343D1*
X9785Y8322D1*
X9661Y8332D1*
X9543Y8374D1*
X9440Y8443D1*
X9357Y8537D1*
X9301Y8648D1*
X9275Y8770D1*
X9280Y8894D1*
X9316Y9014D1*
X9381Y9120D1*
X9471Y9206D1*
X9580Y9267D1*
X9701Y9299D1*
X9825D1*
X9946Y9268D1*
X10055Y9207D1*
X10145Y9121D1*
X10211Y9015D1*
X10247Y8896D1*
X10255Y8812D1*
X10239Y8688D1*
X7498Y6680D2*
X7467Y6559D1*
X7416Y6445D1*
X7346Y6342D1*
X7260Y6251D1*
X7159Y6177D1*
X7048Y6121D1*
X6929Y6084D1*
X6805Y6068D1*
X6680Y6072D1*
X6558Y6098D1*
X6442Y6145D1*
X6335Y6210D1*
X6241Y6292D1*
X6163Y6389D1*
X6101Y6497D1*
X6059Y6615D1*
X6037Y6738D1*
Y6863D1*
X6057Y6986D1*
X6098Y7104D1*
X6158Y7213D1*
X6236Y7311D1*
X6329Y7394D1*
X6435Y7460D1*
X6550Y7508D1*
X6672Y7535D1*
X6797Y7541D1*
X6921Y7526D1*
X7041Y7491D1*
X7153Y7436D1*
X7254Y7362D1*
X7341Y7273D1*
X7412Y7170D1*
X7464Y7057D1*
X7497Y6936D1*
X7509Y6804D1*
X7498Y6680D1*
X11514D2*
X11483Y6559D1*
X11431Y6445D1*
X11362Y6342D1*
X11275Y6251D1*
X11175Y6177D1*
X11064Y6121D1*
X10944Y6084D1*
X10821Y6068D1*
X10696Y6072D1*
X10574Y6098D1*
X10458Y6145D1*
X10351Y6210D1*
X10257Y6292D1*
X10178Y6389D1*
X10117Y6497D1*
X10075Y6615D1*
X10053Y6738D1*
X10052Y6863D1*
X10073Y6986D1*
X10114Y7104D1*
X10174Y7213D1*
X10252Y7311D1*
X10345Y7394D1*
X10451Y7460D1*
X10566Y7508D1*
X10688Y7535D1*
X10813Y7541D1*
X10937Y7526D1*
X11056Y7491D1*
X11168Y7436D1*
X11269Y7362D1*
X11357Y7273D1*
X11428Y7170D1*
X11480Y7057D1*
X11513Y6936D1*
X11525Y6804D1*
X11514Y6680D1*
X19213Y8689D2*
X19163Y8575D1*
X19083Y8479D1*
X18980Y8408D1*
X18862Y8369D1*
X18738Y8363D1*
X18617Y8392D1*
X18508Y8452D1*
X18420Y8540D1*
X18359Y8649D1*
X18331Y8771D1*
X18336Y8895D1*
X18376Y9013D1*
X18446Y9116D1*
X18542Y9195D1*
X18656Y9246D1*
X18780Y9263D1*
X18903Y9246D1*
X19017Y9195D1*
X19113Y9116D1*
X19183Y9013D1*
X19223Y8895D1*
X19230Y8812D1*
X19213Y8689D1*
X20239Y8688D2*
X20192Y8573D1*
X20118Y8472D1*
X20021Y8394D1*
X19908Y8343D1*
X19785Y8322D1*
X19661Y8332D1*
X19543Y8374D1*
X19440Y8443D1*
X19357Y8537D1*
X19301Y8648D1*
X19275Y8770D1*
X19280Y8894D1*
X19316Y9014D1*
X19381Y9120D1*
X19471Y9206D1*
X19580Y9267D1*
X19701Y9299D1*
X19825D1*
X19946Y9268D1*
X20055Y9207D1*
X20145Y9121D1*
X20211Y9015D1*
X20247Y8896D1*
X20255Y8812D1*
X20239Y8688D1*
X17498Y6680D2*
X17467Y6559D1*
X17416Y6445D1*
X17346Y6342D1*
X17260Y6251D1*
X17159Y6177D1*
X17048Y6121D1*
X16929Y6084D1*
X16805Y6068D1*
X16680Y6072D1*
X16558Y6098D1*
X16442Y6145D1*
X16335Y6210D1*
X16241Y6292D1*
X16163Y6389D1*
X16101Y6497D1*
X16059Y6615D1*
X16037Y6738D1*
Y6863D1*
X16057Y6986D1*
X16098Y7104D1*
X16158Y7213D1*
X16236Y7311D1*
X16329Y7394D1*
X16435Y7460D1*
X16518Y7494D1*
X16476Y7579D1*
X16459Y7703D1*
X16487Y7824D1*
X16564Y7935D1*
X16534Y7970D1*
X16476Y8079D1*
X16459Y8203D1*
X16487Y8324D1*
X16554Y8428D1*
X16654Y8503D1*
X16773Y8538D1*
X16897Y8530D1*
X17011Y8479D1*
X17100Y8392D1*
X17153Y8280D1*
X17165Y8187D1*
X17143Y8065D1*
X17080Y7957D1*
X17059Y7940D1*
X17100Y7892D1*
X17153Y7780D1*
X17165Y7687D1*
X17143Y7565D1*
X17086Y7467D1*
X17153Y7436D1*
X17254Y7362D1*
X17341Y7273D1*
X17412Y7170D1*
X17464Y7057D1*
X17497Y6936D1*
X17509Y6804D1*
X17498Y6680D1*
X21514D2*
X21483Y6559D1*
X21431Y6445D1*
X21362Y6342D1*
X21275Y6251D1*
X21175Y6177D1*
X21064Y6121D1*
X20944Y6084D1*
X20821Y6068D1*
X20696Y6072D1*
X20574Y6098D1*
X20458Y6145D1*
X20351Y6210D1*
X20257Y6292D1*
X20178Y6389D1*
X20117Y6497D1*
X20075Y6615D1*
X20053Y6738D1*
X20052Y6863D1*
X20073Y6986D1*
X20114Y7104D1*
X20174Y7213D1*
X20252Y7311D1*
X20345Y7394D1*
X20451Y7460D1*
X20566Y7508D1*
X20688Y7535D1*
X20813Y7541D1*
X20937Y7526D1*
X21056Y7491D1*
X21168Y7436D1*
X21269Y7362D1*
X21357Y7273D1*
X21428Y7170D1*
X21480Y7057D1*
X21513Y6936D1*
X21525Y6804D1*
X21514Y6680D1*
X15777Y33579D2*
X15738Y33460D1*
X15676Y33352D1*
X15593Y33259D1*
X15492Y33185D1*
X15379Y33134D1*
X15257Y33107D1*
X15132Y33106D1*
X15010Y33131D1*
X14895Y33181D1*
X14793Y33253D1*
X14709Y33345D1*
X14645Y33452D1*
X14605Y33570D1*
X14590Y33694D1*
X14602Y33818D1*
X14638Y33938D1*
X14699Y34047D1*
X14781Y34141D1*
X14880Y34216D1*
X14993Y34269D1*
X15115Y34298D1*
X15240Y34300D1*
X15362Y34277D1*
X15477Y34229D1*
X15580Y34158D1*
X15666Y34068D1*
X15731Y33961D1*
X15773Y33844D1*
X15790Y33703D1*
X15777Y33579D1*
X12162Y32313D2*
X12116Y32198D1*
X12042Y32097D1*
X11945Y32019D1*
X11831Y31968D1*
X11708Y31947D1*
X11584Y31957D1*
X11466Y31999D1*
X11363Y32068D1*
X11281Y32162D1*
X11224Y32273D1*
X11198Y32395D1*
X11203Y32519D1*
X11239Y32639D1*
X11305Y32745D1*
X11395Y32831D1*
X11503Y32892D1*
X11624Y32924D1*
X11749D1*
X11869Y32893D1*
X11978Y32832D1*
X12068Y32746D1*
X12134Y32640D1*
X12171Y32521D1*
X12178Y32437D1*
X12162Y32313D1*
X16206Y19315D2*
X16143Y19207D1*
X16047Y19129D1*
X15929Y19088D1*
X15805Y19091D1*
X15772Y19104D1*
X15790Y19000D1*
X15768Y18877D1*
X15705Y18770D1*
X15609Y18691D1*
X15491Y18651D1*
X15367Y18653D1*
X15251Y18699D1*
X15159Y18782D1*
X15101Y18892D1*
X15084Y19015D1*
X15112Y19136D1*
X15179Y19241D1*
X15279Y19315D1*
X15398Y19350D1*
X15533Y19337D1*
X15522Y19453D1*
X15549Y19574D1*
X15617Y19678D1*
X15716Y19753D1*
X15836Y19788D1*
X15960Y19780D1*
X16073Y19729D1*
X16162Y19642D1*
X16215Y19530D1*
X16228Y19437D1*
X16206Y19315D1*
X8747Y5903D2*
X8705Y5832D1*
X8609Y5754D1*
X8491Y5713D1*
X8367Y5716D1*
X8251Y5762D1*
X8159Y5845D1*
X8101Y5954D1*
X8084Y6078D1*
X8112Y6199D1*
X8179Y6303D1*
X8279Y6378D1*
X8398Y6413D1*
X8522Y6405D1*
X8636Y6354D1*
X8725Y6267D1*
X8746Y6221D1*
X8804Y6303D1*
X8904Y6378D1*
X9023Y6413D1*
X9147Y6405D1*
X9261Y6354D1*
X9350Y6267D1*
X9403Y6155D1*
X9415Y6062D1*
X9393Y5940D1*
X9330Y5832D1*
X9234Y5754D1*
X9116Y5713D1*
X8992Y5716D1*
X8876Y5762D1*
X8784Y5845D1*
X8753Y5903D1*
X14393Y21252D2*
X14330Y21145D1*
X14234Y21066D1*
X14116Y21026D1*
X13992Y21028D1*
X13876Y21074D1*
X13784Y21157D1*
X13726Y21267D1*
X13709Y21390D1*
X13737Y21511D1*
X13804Y21616D1*
X13904Y21690D1*
X14023Y21725D1*
X14147Y21717D1*
X14261Y21666D1*
X14350Y21579D1*
X14403Y21467D1*
X14415Y21375D1*
X14393Y21252D1*
X16856Y18563D2*
X16830Y18520D1*
X16734Y18441D1*
X16616Y18401D1*
X16527Y18403D1*
X16590Y18280D1*
X16603Y18187D1*
X16581Y18065D1*
X16518Y17957D1*
X16422Y17879D1*
X16304Y17838D1*
X16253Y17839D1*
X16278Y17780D1*
X16290Y17687D1*
X16268Y17565D1*
X16205Y17457D1*
X16109Y17379D1*
X15991Y17338D1*
X15867Y17341D1*
X15751Y17387D1*
X15659Y17470D1*
X15601Y17579D1*
X15584Y17703D1*
X15612Y17824D1*
X15679Y17928D1*
X15779Y18003D1*
X15898Y18038D1*
X15933Y18036D1*
X15913Y18079D1*
X15897Y18203D1*
X15924Y18324D1*
X15992Y18428D1*
X16091Y18503D1*
X16211Y18538D1*
X16284Y18533D1*
X16226Y18642D1*
X16209Y18765D1*
X16237Y18886D1*
X16304Y18991D1*
X16404Y19065D1*
X16523Y19100D1*
X16647Y19092D1*
X16761Y19041D1*
X16850Y18954D1*
X16888Y18874D1*
X16929Y18928D1*
X17029Y19003D1*
X17148Y19038D1*
X17272Y19030D1*
X17386Y18979D1*
X17475Y18892D1*
X17528Y18780D1*
X17540Y18687D1*
X17518Y18565D1*
X17455Y18457D1*
X17434Y18440D1*
X17475Y18392D1*
X17528Y18280D1*
X17540Y18187D1*
X17518Y18065D1*
X17481Y18001D1*
X17541Y18039D1*
X17660Y18072D1*
X17784Y18059D1*
X17893Y18000D1*
X17935Y17949D1*
X18041Y18039D1*
X18160Y18072D1*
X18284Y18059D1*
X18393Y18000D1*
X18472Y17904D1*
X18478Y17885D1*
X18534Y17871D1*
X18643Y17812D1*
X18722Y17716D1*
X18759Y17598D1*
X18761Y17562D1*
X18737Y17440D1*
X18669Y17336D1*
X18567Y17265D1*
X18446Y17238D1*
X18323Y17259D1*
X18211Y17333D1*
X18169Y17274D1*
X18067Y17203D1*
X17946Y17176D1*
X17896Y17184D1*
X17972Y17091D1*
X18009Y16973D1*
X18011Y16937D1*
X17987Y16815D1*
X17947Y16753D1*
X17972Y16716D1*
X18009Y16598D1*
X18011Y16562D1*
X17987Y16440D1*
X17919Y16336D1*
X17817Y16265D1*
X17696Y16238D1*
X17573Y16259D1*
X17468Y16324D1*
X17394Y16424D1*
X17364Y16544D1*
X17381Y16667D1*
X17425Y16745D1*
X17394Y16799D1*
X17364Y16919D1*
X17381Y17042D1*
X17443Y17150D1*
X17483Y17181D1*
X17446Y17176D1*
X17323Y17196D1*
X17218Y17261D1*
X17144Y17361D1*
X17114Y17482D1*
X17131Y17605D1*
X17193Y17712D1*
X17291Y17789D1*
X17369Y17811D1*
X17381Y17855D1*
X17417Y17919D1*
X17359Y17879D1*
X17241Y17838D1*
X17117Y17841D1*
X17001Y17887D1*
X16909Y17970D1*
X16851Y18079D1*
X16834Y18203D1*
X16862Y18324D1*
X16939Y18435D1*
X16909Y18470D1*
X16860Y18562D1*
X19893Y18565D2*
X19830Y18457D1*
X19734Y18379D1*
X19679Y18360D1*
X19715Y18280D1*
X19728Y18187D1*
X19706Y18065D1*
X19643Y17957D1*
X19547Y17879D1*
X19429Y17838D1*
X19305Y17841D1*
X19189Y17887D1*
X19096Y17970D1*
X19065Y18028D1*
X19018Y17957D1*
X18922Y17879D1*
X18804Y17838D1*
X18680Y17841D1*
X18564Y17887D1*
X18471Y17970D1*
X18413Y18079D1*
X18397Y18203D1*
X18424Y18324D1*
X18501Y18435D1*
X18471Y18470D1*
X18413Y18579D1*
X18397Y18703D1*
X18424Y18824D1*
X18492Y18928D1*
X18591Y19003D1*
X18711Y19038D1*
X18835Y19030D1*
X18948Y18979D1*
X19037Y18892D1*
X19090Y18780D1*
X19103Y18687D1*
X19081Y18565D1*
X19018Y18457D1*
X18997Y18440D1*
X19037Y18392D1*
X19059Y18346D1*
X19117Y18428D1*
X19216Y18503D1*
X19257Y18515D1*
X19226Y18579D1*
X19209Y18703D1*
X19237Y18824D1*
X19304Y18928D1*
X19404Y19003D1*
X19523Y19038D1*
X19647Y19030D1*
X19761Y18979D1*
X19850Y18892D1*
X19903Y18780D1*
X19915Y18687D1*
X19893Y18565D1*
X20393Y17815D2*
X20330Y17707D1*
X20234Y17629D1*
X20116Y17588D1*
X19992Y17591D1*
X19876Y17637D1*
X19784Y17720D1*
X19726Y17829D1*
X19709Y17953D1*
X19737Y18074D1*
X19804Y18178D1*
X19904Y18253D1*
X20023Y18288D1*
X20147Y18280D1*
X20261Y18229D1*
X20350Y18142D1*
X20403Y18030D1*
X20415Y17937D1*
X20393Y17815D1*
X19706Y14002D2*
X19643Y13895D1*
X19547Y13816D1*
X19429Y13776D1*
X19305Y13778D1*
X19189Y13824D1*
X19096Y13907D1*
X19038Y14017D1*
X19022Y14140D1*
X19049Y14261D1*
X19117Y14366D1*
X19216Y14440D1*
X19336Y14475D1*
X19460Y14467D1*
X19573Y14416D1*
X19662Y14329D1*
X19715Y14217D1*
X19728Y14125D1*
X19706Y14002D1*
X20331Y13502D2*
X20268Y13395D1*
X20172Y13316D1*
X20054Y13276D1*
X19930Y13278D1*
X19814Y13324D1*
X19721Y13407D1*
X19663Y13517D1*
X19647Y13640D1*
X19674Y13761D1*
X19742Y13866D1*
X19841Y13940D1*
X19961Y13975D1*
X20085Y13967D1*
X20198Y13916D1*
X20287Y13829D1*
X20340Y13717D1*
X20353Y13625D1*
X20331Y13502D1*
X15518Y20002D2*
X15455Y19895D1*
X15359Y19816D1*
X15241Y19776D1*
X15117Y19778D1*
X15085Y19791D1*
X15103Y19687D1*
X15081Y19565D1*
X15018Y19457D1*
X14922Y19379D1*
X14804Y19338D1*
X14680Y19341D1*
X14564Y19387D1*
X14471Y19470D1*
X14413Y19579D1*
X14397Y19703D1*
X14424Y19824D1*
X14492Y19928D1*
X14591Y20003D1*
X14711Y20038D1*
X14845Y20025D1*
X14834Y20140D1*
X14862Y20261D1*
X14929Y20366D1*
X15029Y20440D1*
X15148Y20475D1*
X15272Y20467D1*
X15386Y20416D1*
X15475Y20329D1*
X15528Y20217D1*
X15540Y20125D1*
X15518Y20002D1*
X14956Y20565D2*
X14893Y20457D1*
X14797Y20379D1*
X14679Y20338D1*
X14555Y20341D1*
X14522Y20354D1*
X14540Y20250D1*
X14518Y20127D1*
X14455Y20020D1*
X14359Y19941D1*
X14241Y19901D1*
X14117Y19903D1*
X14001Y19949D1*
X13909Y20032D1*
X13874Y20097D1*
X13794Y19961D1*
X13692Y19890D1*
X13628Y19876D1*
X13612Y19815D1*
X13544Y19711D1*
X13442Y19640D1*
X13321Y19613D1*
X13198Y19634D1*
X13093Y19699D1*
X13019Y19799D1*
X12989Y19919D1*
X13006Y20042D1*
X13068Y20150D1*
X13166Y20226D1*
X13244Y20248D1*
X13256Y20292D1*
X13318Y20400D1*
X13416Y20476D1*
X13472Y20492D1*
X13346Y20595D1*
X13288Y20704D1*
X13284Y20739D1*
X13268Y20690D1*
X13205Y20582D1*
X13109Y20504D1*
X12991Y20463D1*
X12867Y20466D1*
X12751Y20512D1*
X12659Y20595D1*
X12601Y20704D1*
X12584Y20828D1*
X12612Y20949D1*
X12679Y21053D1*
X12779Y21128D1*
X12898Y21163D1*
X13022Y21155D1*
X13136Y21104D1*
X13225Y21017D1*
X13280Y20890D1*
X13299Y20949D1*
X13367Y21053D1*
X13466Y21128D1*
X13586Y21163D1*
X13710Y21155D1*
X13823Y21104D1*
X13912Y21017D1*
X13965Y20905D1*
X13978Y20812D1*
X13956Y20690D1*
X13893Y20582D1*
X13797Y20504D1*
X13712Y20475D1*
X13768Y20437D1*
X13845Y20344D1*
X13862Y20386D1*
X13929Y20491D1*
X14029Y20565D1*
X14148Y20600D1*
X14283Y20587D1*
X14272Y20703D1*
X14299Y20824D1*
X14367Y20928D1*
X14466Y21003D1*
X14586Y21038D1*
X14710Y21030D1*
X14823Y20979D1*
X14912Y20892D1*
X14965Y20780D1*
X14978Y20687D1*
X14956Y20565D1*
X19706Y16190D2*
X19643Y16082D1*
X19547Y16004D1*
X19429Y15963D1*
X19305Y15966D1*
X19189Y16012D1*
X19096Y16095D1*
X19038Y16204D1*
X19022Y16328D1*
X19049Y16449D1*
X19117Y16553D1*
X19216Y16628D1*
X19336Y16663D1*
X19460Y16655D1*
X19573Y16604D1*
X19662Y16517D1*
X19715Y16405D1*
X19728Y16312D1*
X19706Y16190D1*
Y17127D2*
X19643Y17020D1*
X19547Y16941D1*
X19429Y16901D1*
X19305Y16903D1*
X19189Y16949D1*
X19096Y17032D1*
X19038Y17142D1*
X19022Y17265D1*
X19049Y17386D1*
X19117Y17491D1*
X19216Y17565D1*
X19336Y17600D1*
X19460Y17592D1*
X19573Y17541D1*
X19662Y17454D1*
X19715Y17342D1*
X19728Y17250D1*
X19706Y17127D1*
X19684Y15153D2*
X19643Y15082D1*
X19547Y15004D1*
X19429Y14963D1*
X19305Y14966D1*
X19189Y15012D1*
X19096Y15095D1*
X19038Y15204D1*
X19022Y15328D1*
X19049Y15449D1*
X19117Y15553D1*
X19216Y15628D1*
X19336Y15663D1*
X19460Y15655D1*
X19573Y15604D1*
X19662Y15517D1*
X19684Y15471D1*
X19742Y15553D1*
X19841Y15628D1*
X19961Y15663D1*
X20085Y15655D1*
X20198Y15604D1*
X20287Y15517D1*
X20340Y15405D1*
X20353Y15312D1*
X20331Y15190D1*
X20268Y15082D1*
X20172Y15004D1*
X20054Y14963D1*
X19930Y14966D1*
X19814Y15012D1*
X19721Y15095D1*
X19690Y15153D1*
X18393Y13502D2*
X18330Y13395D1*
X18234Y13316D1*
X18116Y13276D1*
X17992Y13278D1*
X17876Y13324D1*
X17784Y13407D1*
X17726Y13517D1*
X17709Y13640D1*
X17737Y13761D1*
X17804Y13866D1*
X17904Y13940D1*
X18023Y13975D1*
X18147Y13967D1*
X18261Y13916D1*
X18350Y13829D1*
X18403Y13717D1*
X18415Y13625D1*
X18393Y13502D1*
X10081Y13190D2*
X10018Y13082D1*
X9922Y13004D1*
X9804Y12963D1*
X9680Y12966D1*
X9654Y12976D1*
X9643Y12940D1*
X9580Y12832D1*
X9484Y12754D1*
X9366Y12713D1*
X9242Y12716D1*
X9126Y12762D1*
X9066Y12816D1*
X8984Y12754D1*
X8866Y12713D1*
X8742Y12716D1*
X8626Y12762D1*
X8534Y12845D1*
X8476Y12954D1*
X8459Y13078D1*
X8487Y13199D1*
X8554Y13303D1*
X8654Y13378D1*
X8773Y13413D1*
X8897Y13405D1*
X9011Y13354D1*
X9058Y13308D1*
X9154Y13378D1*
X9273Y13413D1*
X9408Y13400D1*
X9424Y13449D1*
X9501Y13560D1*
X9471Y13595D1*
X9413Y13704D1*
X9397Y13828D1*
X9424Y13949D1*
X9492Y14053D1*
X9591Y14128D1*
X9711Y14163D1*
X9835Y14155D1*
X9948Y14104D1*
X10037Y14017D1*
X10090Y13905D1*
X10103Y13812D1*
X10081Y13690D1*
X10018Y13582D1*
X9997Y13565D1*
X10037Y13517D1*
X10090Y13405D1*
X10103Y13312D1*
X10081Y13190D1*
X9059Y10065D2*
X8984Y10004D1*
X8866Y9963D1*
X8742Y9966D1*
X8626Y10012D1*
X8534Y10095D1*
X8476Y10204D1*
X8459Y10328D1*
X8487Y10449D1*
X8554Y10553D1*
X8654Y10628D1*
X8773Y10663D1*
X8897Y10655D1*
X9011Y10604D1*
X9058Y10558D1*
X9154Y10628D1*
X9273Y10663D1*
X9397Y10655D1*
X9511Y10604D1*
X9600Y10517D1*
X9653Y10405D1*
X9665Y10312D1*
X9643Y10190D1*
X9580Y10082D1*
X9484Y10004D1*
X9366Y9963D1*
X9242Y9966D1*
X9126Y10012D1*
X9066Y10066D1*
X9059Y11565D2*
X8984Y11504D1*
X8866Y11463D1*
X8742Y11466D1*
X8626Y11512D1*
X8534Y11595D1*
X8476Y11704D1*
X8459Y11828D1*
X8487Y11949D1*
X8554Y12053D1*
X8654Y12128D1*
X8773Y12163D1*
X8897Y12155D1*
X9011Y12104D1*
X9058Y12058D1*
X9154Y12128D1*
X9273Y12163D1*
X9397Y12155D1*
X9511Y12104D1*
X9600Y12017D1*
X9653Y11905D1*
X9665Y11812D1*
X9643Y11690D1*
X9580Y11582D1*
X9484Y11504D1*
X9366Y11463D1*
X9242Y11466D1*
X9126Y11512D1*
X9066Y11566D1*
X10393Y10065D2*
X10330Y9957D1*
X10234Y9879D1*
X10116Y9838D1*
X9992Y9841D1*
X9876Y9887D1*
X9784Y9970D1*
X9726Y10079D1*
X9709Y10203D1*
X9737Y10324D1*
X9804Y10428D1*
X9904Y10503D1*
X10023Y10538D1*
X10147Y10530D1*
X10261Y10479D1*
X10350Y10392D1*
X10403Y10280D1*
X10415Y10187D1*
X10393Y10065D1*
X11393Y9065D2*
X11330Y8957D1*
X11234Y8879D1*
X11116Y8838D1*
X10992Y8841D1*
X10876Y8887D1*
X10784Y8970D1*
X10726Y9079D1*
X10709Y9203D1*
X10737Y9324D1*
X10804Y9428D1*
X10904Y9503D1*
X11023Y9538D1*
X11147Y9530D1*
X11261Y9479D1*
X11350Y9392D1*
X11403Y9280D1*
X11415Y9187D1*
X11393Y9065D1*
X12393Y8065D2*
X12330Y7957D1*
X12234Y7879D1*
X12116Y7838D1*
X11992Y7841D1*
X11876Y7887D1*
X11784Y7970D1*
X11726Y8079D1*
X11709Y8203D1*
X11737Y8324D1*
X11804Y8428D1*
X11904Y8503D1*
X12023Y8538D1*
X12147Y8530D1*
X12261Y8479D1*
X12350Y8392D1*
X12403Y8280D1*
X12415Y8187D1*
X12393Y8065D1*
X13143Y7315D2*
X13080Y7207D1*
X12984Y7129D1*
X12866Y7088D1*
X12742Y7091D1*
X12626Y7137D1*
X12534Y7220D1*
X12476Y7329D1*
X12459Y7453D1*
X12487Y7574D1*
X12554Y7678D1*
X12654Y7753D1*
X12773Y7788D1*
X12897Y7780D1*
X13011Y7729D1*
X13100Y7642D1*
X13153Y7530D1*
X13165Y7437D1*
X13143Y7315D1*
X11143Y10065D2*
X11080Y9957D1*
X10984Y9879D1*
X10866Y9838D1*
X10742Y9841D1*
X10626Y9887D1*
X10534Y9970D1*
X10476Y10079D1*
X10459Y10203D1*
X10487Y10324D1*
X10554Y10428D1*
X10654Y10503D1*
X10773Y10538D1*
X10897Y10530D1*
X11011Y10479D1*
X11100Y10392D1*
X11153Y10280D1*
X11165Y10187D1*
X11143Y10065D1*
X12143Y9065D2*
X12080Y8957D1*
X11984Y8879D1*
X11866Y8838D1*
X11742Y8841D1*
X11626Y8887D1*
X11534Y8970D1*
X11476Y9079D1*
X11459Y9203D1*
X11487Y9324D1*
X11554Y9428D1*
X11654Y9503D1*
X11773Y9538D1*
X11897Y9530D1*
X12011Y9479D1*
X12100Y9392D1*
X12153Y9280D1*
X12165Y9187D1*
X12143Y9065D1*
X13143Y8065D2*
X13080Y7957D1*
X12984Y7879D1*
X12866Y7838D1*
X12742Y7841D1*
X12626Y7887D1*
X12534Y7970D1*
X12476Y8079D1*
X12459Y8203D1*
X12487Y8324D1*
X12554Y8428D1*
X12654Y8503D1*
X12773Y8538D1*
X12897Y8530D1*
X13011Y8479D1*
X13100Y8392D1*
X13153Y8280D1*
X13165Y8187D1*
X13143Y8065D1*
X14143Y7315D2*
X14080Y7207D1*
X13984Y7129D1*
X13866Y7088D1*
X13742Y7091D1*
X13626Y7137D1*
X13534Y7220D1*
X13476Y7329D1*
X13459Y7453D1*
X13487Y7574D1*
X13554Y7678D1*
X13654Y7753D1*
X13773Y7788D1*
X13897Y7780D1*
X14011Y7729D1*
X14100Y7642D1*
X14153Y7530D1*
X14165Y7437D1*
X14143Y7315D1*
X15143Y7565D2*
X15080Y7457D1*
X14984Y7379D1*
X14866Y7338D1*
X14742Y7341D1*
X14626Y7387D1*
X14534Y7470D1*
X14476Y7579D1*
X14459Y7703D1*
X14487Y7824D1*
X14564Y7935D1*
X14534Y7970D1*
X14476Y8079D1*
X14459Y8203D1*
X14487Y8324D1*
X14554Y8428D1*
X14654Y8503D1*
X14773Y8538D1*
X14897Y8530D1*
X15011Y8479D1*
X15100Y8392D1*
X15153Y8280D1*
X15165Y8187D1*
X15143Y8065D1*
X15080Y7957D1*
X15059Y7940D1*
X15100Y7892D1*
X15153Y7780D1*
X15165Y7687D1*
X15143Y7565D1*
X16143D2*
X16080Y7457D1*
X15984Y7379D1*
X15866Y7338D1*
X15742Y7341D1*
X15626Y7387D1*
X15534Y7470D1*
X15476Y7579D1*
X15459Y7703D1*
X15487Y7824D1*
X15564Y7935D1*
X15534Y7970D1*
X15476Y8079D1*
X15459Y8203D1*
X15487Y8324D1*
X15554Y8428D1*
X15654Y8503D1*
X15773Y8538D1*
X15897Y8530D1*
X16011Y8479D1*
X16100Y8392D1*
X16153Y8280D1*
X16165Y8187D1*
X16143Y8065D1*
X16080Y7957D1*
X16059Y7940D1*
X16100Y7892D1*
X16153Y7780D1*
X16165Y7687D1*
X16143Y7565D1*
X18143D2*
X18080Y7457D1*
X17984Y7379D1*
X17866Y7338D1*
X17742Y7341D1*
X17626Y7387D1*
X17534Y7470D1*
X17476Y7579D1*
X17459Y7703D1*
X17487Y7824D1*
X17564Y7935D1*
X17534Y7970D1*
X17476Y8079D1*
X17459Y8203D1*
X17487Y8324D1*
X17554Y8428D1*
X17654Y8503D1*
X17773Y8538D1*
X17897Y8530D1*
X18011Y8479D1*
X18100Y8392D1*
X18153Y8280D1*
X18165Y8187D1*
X18143Y8065D1*
X18080Y7957D1*
X18059Y7940D1*
X18100Y7892D1*
X18153Y7780D1*
X18165Y7687D1*
X18143Y7565D1*
X18747Y5903D2*
X18705Y5832D1*
X18609Y5754D1*
X18491Y5713D1*
X18367Y5716D1*
X18251Y5762D1*
X18159Y5845D1*
X18101Y5954D1*
X18084Y6078D1*
X18112Y6199D1*
X18179Y6303D1*
X18279Y6378D1*
X18398Y6413D1*
X18522Y6405D1*
X18636Y6354D1*
X18725Y6267D1*
X18746Y6221D1*
X18804Y6303D1*
X18904Y6378D1*
X19023Y6413D1*
X19147Y6405D1*
X19261Y6354D1*
X19350Y6267D1*
X19403Y6155D1*
X19415Y6062D1*
X19393Y5940D1*
X19330Y5832D1*
X19234Y5754D1*
X19116Y5713D1*
X18992Y5716D1*
X18876Y5762D1*
X18784Y5845D1*
X18753Y5903D1*
X18747Y6903D2*
X18705Y6832D1*
X18609Y6754D1*
X18491Y6713D1*
X18367Y6716D1*
X18251Y6762D1*
X18159Y6845D1*
X18101Y6954D1*
X18084Y7078D1*
X18112Y7199D1*
X18179Y7303D1*
X18279Y7378D1*
X18398Y7413D1*
X18522Y7405D1*
X18636Y7354D1*
X18725Y7267D1*
X18746Y7221D1*
X18804Y7303D1*
X18904Y7378D1*
X19023Y7413D1*
X19147Y7405D1*
X19261Y7354D1*
X19350Y7267D1*
X19403Y7155D1*
X19415Y7062D1*
X19393Y6940D1*
X19330Y6832D1*
X19234Y6754D1*
X19116Y6713D1*
X18992Y6716D1*
X18876Y6762D1*
X18784Y6845D1*
X18753Y6903D1*
X19393Y7940D2*
X19330Y7832D1*
X19234Y7754D1*
X19116Y7713D1*
X18992Y7716D1*
X18876Y7762D1*
X18784Y7845D1*
X18726Y7954D1*
X18709Y8078D1*
X18737Y8199D1*
X18804Y8303D1*
X18904Y8378D1*
X19023Y8413D1*
X19147Y8405D1*
X19261Y8354D1*
X19350Y8267D1*
X19403Y8155D1*
X19415Y8062D1*
X19393Y7940D1*
X8747Y6903D2*
X8705Y6832D1*
X8609Y6754D1*
X8491Y6713D1*
X8367Y6716D1*
X8251Y6762D1*
X8159Y6845D1*
X8101Y6954D1*
X8084Y7078D1*
X8112Y7199D1*
X8179Y7303D1*
X8279Y7378D1*
X8398Y7413D1*
X8522Y7405D1*
X8636Y7354D1*
X8725Y7267D1*
X8746Y7221D1*
X8804Y7303D1*
X8904Y7378D1*
X9023Y7413D1*
X9147Y7405D1*
X9261Y7354D1*
X9350Y7267D1*
X9403Y7155D1*
X9415Y7062D1*
X9393Y6940D1*
X9330Y6832D1*
X9234Y6754D1*
X9116Y6713D1*
X8992Y6716D1*
X8876Y6762D1*
X8784Y6845D1*
X8753Y6903D1*
X12612Y24440D2*
X12544Y24336D1*
X12442Y24265D1*
X12321Y24238D1*
X12198Y24259D1*
X12093Y24324D1*
X12019Y24424D1*
X11989Y24544D1*
X12006Y24667D1*
X12068Y24775D1*
X12166Y24851D1*
X12285Y24885D1*
X12409Y24871D1*
X12518Y24812D1*
X12597Y24716D1*
X12634Y24598D1*
X12636Y24562D1*
X12612Y24440D1*
X13373Y16997D2*
X13362Y16940D1*
X13294Y16836D1*
X13192Y16765D1*
X13071Y16738D1*
X12948Y16759D1*
X12843Y16824D1*
X12769Y16924D1*
X12739Y17044D1*
X12756Y17167D1*
X12818Y17275D1*
X12916Y17351D1*
X12994Y17373D1*
X13006Y17417D1*
X13068Y17525D1*
X13166Y17601D1*
X13244Y17623D1*
X13256Y17673D1*
X13318Y17781D1*
X13416Y17857D1*
X13535Y17891D1*
X13659Y17877D1*
X13768Y17818D1*
X13847Y17722D1*
X13884Y17603D1*
X13886Y17568D1*
X13862Y17446D1*
X13794Y17342D1*
X13692Y17271D1*
X13628Y17257D1*
X13612Y17190D1*
X13544Y17086D1*
X13442Y17015D1*
X13378Y17001D1*
X18737Y22003D2*
X18669Y21899D1*
X18567Y21828D1*
X18510Y21815D1*
X18487Y21690D1*
X18419Y21586D1*
X18317Y21515D1*
X18196Y21488D1*
X18073Y21509D1*
X17968Y21574D1*
X17894Y21674D1*
X17864Y21794D1*
X17881Y21917D1*
X17943Y22025D1*
X18041Y22101D1*
X18112Y22121D1*
X18131Y22230D1*
X18193Y22337D1*
X18291Y22414D1*
X18410Y22447D1*
X18534Y22434D1*
X18643Y22375D1*
X18722Y22279D1*
X18759Y22160D1*
X18761Y22125D1*
X18737Y22003D1*
X17731Y21993D2*
X17669Y21899D1*
X17567Y21828D1*
X17446Y21801D1*
X17323Y21821D1*
X17218Y21886D1*
X17155Y21971D1*
X17048Y21879D1*
X16931Y21838D1*
X16806Y21841D1*
X16691Y21887D1*
X16598Y21970D1*
X16540Y22079D1*
X16524Y22203D1*
X16551Y22324D1*
X16619Y22428D1*
X16718Y22503D1*
X16837Y22538D1*
X16962Y22530D1*
X17075Y22479D1*
X17164Y22392D1*
X17192Y22332D1*
X17291Y22414D1*
X17392Y22442D1*
X17443Y22525D1*
X17541Y22601D1*
X17660Y22635D1*
X17784Y22621D1*
X17893Y22562D1*
X17972Y22466D1*
X18009Y22348D1*
X18011Y22312D1*
X17987Y22190D1*
X17919Y22086D1*
X17817Y22015D1*
X17738Y21997D1*
X12612Y22690D2*
X12544Y22586D1*
X12442Y22515D1*
X12321Y22488D1*
X12198Y22509D1*
X12093Y22574D1*
X12019Y22674D1*
X11989Y22794D1*
X12006Y22917D1*
X12068Y23025D1*
X12166Y23101D1*
X12285Y23135D1*
X12409Y23121D1*
X12518Y23062D1*
X12597Y22966D1*
X12634Y22848D1*
X12636Y22812D1*
X12612Y22690D1*
X16925Y23628D2*
X16857Y23524D1*
X16755Y23453D1*
X16633Y23426D1*
X16511Y23446D1*
X16405Y23511D1*
X16332Y23611D1*
X16301Y23732D1*
X16318Y23855D1*
X16380Y23962D1*
X16478Y24039D1*
X16598Y24072D1*
X16721Y24059D1*
X16831Y24000D1*
X16909Y23904D1*
X16947Y23785D1*
X16948Y23750D1*
X16925Y23628D1*
X14112Y31253D2*
X14044Y31149D1*
X13942Y31078D1*
X13821Y31051D1*
X13698Y31071D1*
X13593Y31136D1*
X13519Y31236D1*
X13489Y31357D1*
X13506Y31480D1*
X13568Y31587D1*
X13666Y31664D1*
X13785Y31697D1*
X13909Y31684D1*
X14018Y31625D1*
X14097Y31529D1*
X14134Y31410D1*
X14136Y31375D1*
X14112Y31253D1*
X13393Y10690D2*
X13330Y10582D1*
X13234Y10504D1*
X13116Y10463D1*
X12992Y10466D1*
X12876Y10512D1*
X12784Y10595D1*
X12726Y10704D1*
X12709Y10828D1*
X12737Y10949D1*
X12804Y11053D1*
X12904Y11128D1*
X13023Y11163D1*
X13147Y11155D1*
X13261Y11104D1*
X13350Y11017D1*
X13403Y10905D1*
X13415Y10812D1*
X13393Y10690D1*
X12268Y13815D2*
X12205Y13707D1*
X12109Y13629D1*
X11991Y13588D1*
X11867Y13591D1*
X11751Y13637D1*
X11659Y13720D1*
X11601Y13829D1*
X11584Y13953D1*
X11612Y14074D1*
X11679Y14178D1*
X11779Y14253D1*
X11898Y14288D1*
X12022Y14280D1*
X12136Y14229D1*
X12225Y14142D1*
X12278Y14030D1*
X12290Y13937D1*
X12268Y13815D1*
X14893Y14815D2*
X14830Y14707D1*
X14734Y14629D1*
X14616Y14588D1*
X14492Y14591D1*
X14376Y14637D1*
X14284Y14720D1*
X14226Y14829D1*
X14209Y14953D1*
X14237Y15074D1*
X14304Y15178D1*
X14404Y15253D1*
X14523Y15288D1*
X14647Y15280D1*
X14761Y15229D1*
X14850Y15142D1*
X14903Y15030D1*
X14915Y14937D1*
X14893Y14815D1*
X15684Y13565D2*
X15621Y13457D1*
X15524Y13379D1*
X15407Y13338D1*
X15282Y13341D1*
X15167Y13387D1*
X15074Y13470D1*
X15016Y13579D1*
X15000Y13703D1*
X15027Y13824D1*
X15095Y13928D1*
X15194Y14003D1*
X15313Y14038D1*
X15438Y14030D1*
X15551Y13979D1*
X15640Y13892D1*
X15693Y13780D1*
X15705Y13687D1*
X15684Y13565D1*
X18143Y10690D2*
X18080Y10582D1*
X17984Y10504D1*
X17866Y10463D1*
X17742Y10466D1*
X17626Y10512D1*
X17534Y10595D1*
X17476Y10704D1*
X17459Y10828D1*
X17487Y10949D1*
X17554Y11053D1*
X17654Y11128D1*
X17773Y11163D1*
X17897Y11155D1*
X18011Y11104D1*
X18100Y11017D1*
X18153Y10905D1*
X18165Y10812D1*
X18143Y10690D1*
X19143Y12440D2*
X19080Y12332D1*
X18984Y12254D1*
X18866Y12213D1*
X18742Y12216D1*
X18626Y12262D1*
X18534Y12345D1*
X18476Y12454D1*
X18459Y12578D1*
X18487Y12699D1*
X18554Y12803D1*
X18654Y12878D1*
X18773Y12913D1*
X18897Y12905D1*
X19011Y12854D1*
X19100Y12767D1*
X19153Y12655D1*
X19165Y12562D1*
X19143Y12440D1*
X8018Y15565D2*
X7955Y15457D1*
X7859Y15379D1*
X7741Y15338D1*
X7617Y15341D1*
X7501Y15387D1*
X7409Y15470D1*
X7351Y15579D1*
X7334Y15703D1*
X7362Y15824D1*
X7429Y15928D1*
X7529Y16003D1*
X7648Y16038D1*
X7772Y16030D1*
X7886Y15979D1*
X7975Y15892D1*
X8028Y15780D1*
X8040Y15687D1*
X8018Y15565D1*
X17004Y15716D2*
X16967Y15726D1*
X17009Y15598D1*
X17011Y15562D1*
X16987Y15440D1*
X16919Y15336D1*
X16817Y15265D1*
X16696Y15238D1*
X16573Y15259D1*
X16468Y15324D1*
X16394Y15424D1*
X16364Y15544D1*
X16381Y15667D1*
X16443Y15775D1*
X16541Y15851D1*
X16660Y15885D1*
X16765Y15873D1*
X16726Y15954D1*
X16709Y16078D1*
X16737Y16199D1*
X16804Y16303D1*
X16904Y16378D1*
X17023Y16413D1*
X17147Y16405D1*
X17261Y16354D1*
X17350Y16267D1*
X17403Y16155D1*
X17407Y16123D1*
X17518Y16062D1*
X17597Y15966D1*
X17634Y15848D1*
X17636Y15812D1*
X17612Y15690D1*
X17544Y15586D1*
X17442Y15515D1*
X17321Y15488D1*
X17198Y15509D1*
X17093Y15574D1*
X17019Y15674D1*
X17009Y15715D1*
X9893Y24065D2*
X9830Y23957D1*
X9734Y23879D1*
X9616Y23838D1*
X9492Y23841D1*
X9376Y23887D1*
X9284Y23970D1*
X9226Y24079D1*
X9209Y24203D1*
X9237Y24324D1*
X9304Y24428D1*
X9404Y24503D1*
X9523Y24538D1*
X9647Y24530D1*
X9761Y24479D1*
X9850Y24392D1*
X9903Y24280D1*
X9915Y24187D1*
X9893Y24065D1*
X7393Y32690D2*
X7330Y32582D1*
X7234Y32504D1*
X7116Y32463D1*
X6992Y32466D1*
X6876Y32512D1*
X6784Y32595D1*
X6726Y32704D1*
X6709Y32828D1*
X6737Y32949D1*
X6804Y33053D1*
X6904Y33128D1*
X7023Y33163D1*
X7147Y33155D1*
X7261Y33104D1*
X7350Y33017D1*
X7403Y32905D1*
X7415Y32812D1*
X7393Y32690D1*
X11143D2*
X11080Y32582D1*
X10984Y32504D1*
X10866Y32463D1*
X10742Y32466D1*
X10626Y32512D1*
X10534Y32595D1*
X10476Y32704D1*
X10459Y32828D1*
X10487Y32949D1*
X10554Y33053D1*
X10654Y33128D1*
X10773Y33163D1*
X10897Y33155D1*
X11011Y33104D1*
X11100Y33017D1*
X11153Y32905D1*
X11165Y32812D1*
X11143Y32690D1*
X12393Y28190D2*
X12330Y28082D1*
X12234Y28004D1*
X12116Y27963D1*
X11992Y27966D1*
X11876Y28012D1*
X11784Y28095D1*
X11726Y28204D1*
X11709Y28328D1*
X11737Y28449D1*
X11804Y28553D1*
X11904Y28628D1*
X12023Y28663D1*
X12147Y28655D1*
X12261Y28604D1*
X12350Y28517D1*
X12403Y28405D1*
X12415Y28312D1*
X12393Y28190D1*
X21143Y24815D2*
X21080Y24707D1*
X20984Y24629D1*
X20866Y24588D1*
X20742Y24591D1*
X20626Y24637D1*
X20534Y24720D1*
X20476Y24829D1*
X20459Y24953D1*
X20487Y25074D1*
X20554Y25178D1*
X20654Y25253D1*
X20773Y25288D1*
X20897Y25280D1*
X21011Y25229D1*
X21100Y25142D1*
X21153Y25030D1*
X21165Y24937D1*
X21143Y24815D1*
X15893Y30065D2*
X15830Y29957D1*
X15734Y29879D1*
X15616Y29838D1*
X15492Y29841D1*
X15376Y29887D1*
X15284Y29970D1*
X15226Y30079D1*
X15209Y30203D1*
X15237Y30324D1*
X15304Y30428D1*
X15404Y30503D1*
X15523Y30538D1*
X15647Y30530D1*
X15761Y30479D1*
X15850Y30392D1*
X15903Y30280D1*
X15915Y30187D1*
X15893Y30065D1*
X15831Y31877D2*
X15768Y31770D1*
X15672Y31691D1*
X15554Y31651D1*
X15430Y31653D1*
X15314Y31699D1*
X15221Y31782D1*
X15163Y31892D1*
X15147Y32015D1*
X15174Y32136D1*
X15242Y32241D1*
X15341Y32315D1*
X15461Y32350D1*
X15585Y32342D1*
X15698Y32291D1*
X15787Y32204D1*
X15840Y32092D1*
X15853Y32000D1*
X15831Y31877D1*
X13206Y31440D2*
X13143Y31332D1*
X13047Y31254D1*
X12929Y31213D1*
X12805Y31216D1*
X12689Y31262D1*
X12622Y31321D1*
X12508Y31301D1*
X12386Y31321D1*
X12280Y31386D1*
X12207Y31486D1*
X12176Y31607D1*
X12193Y31730D1*
X12255Y31837D1*
X12353Y31914D1*
X12473Y31947D1*
X12596Y31934D1*
X12708Y31872D1*
X12836Y31913D1*
X12960Y31905D1*
X13073Y31854D1*
X13162Y31767D1*
X13215Y31655D1*
X13228Y31562D1*
X13206Y31440D1*
X12456Y30440D2*
X12393Y30332D1*
X12297Y30254D1*
X12179Y30213D1*
X12055Y30216D1*
X11939Y30262D1*
X11846Y30345D1*
X11788Y30454D1*
X11772Y30578D1*
X11799Y30699D1*
X11867Y30803D1*
X11966Y30878D1*
X12086Y30913D1*
X12210Y30905D1*
X12323Y30854D1*
X12412Y30767D1*
X12465Y30655D1*
X12478Y30562D1*
X12456Y30440D1*
X13893Y29252D2*
X13830Y29145D1*
X13734Y29066D1*
X13616Y29026D1*
X13492Y29028D1*
X13376Y29074D1*
X13284Y29157D1*
X13226Y29267D1*
X13209Y29390D1*
X13237Y29511D1*
X13304Y29616D1*
X13404Y29690D1*
X13523Y29725D1*
X13647Y29717D1*
X13761Y29666D1*
X13850Y29579D1*
X13903Y29467D1*
X13915Y29375D1*
X13893Y29252D1*
X16581Y28940D2*
X16518Y28832D1*
X16422Y28754D1*
X16304Y28713D1*
X16180Y28716D1*
X16064Y28762D1*
X15971Y28845D1*
X15913Y28954D1*
X15897Y29078D1*
X15924Y29199D1*
X15992Y29303D1*
X16091Y29378D1*
X16211Y29413D1*
X16335Y29405D1*
X16448Y29354D1*
X16537Y29267D1*
X16590Y29155D1*
X16603Y29062D1*
X16581Y28940D1*
X15371Y26002D2*
X15308Y25895D1*
X15211Y25816D1*
X15094Y25776D1*
X14970Y25778D1*
X14854Y25824D1*
X14761Y25907D1*
X14703Y26017D1*
X14687Y26140D1*
X14714Y26261D1*
X14782Y26366D1*
X14881Y26440D1*
X15000Y26475D1*
X15125Y26467D1*
X15238Y26416D1*
X15327Y26329D1*
X15380Y26217D1*
X15392Y26125D1*
X15371Y26002D1*
X11518Y17190D2*
X11455Y17082D1*
X11359Y17004D1*
X11241Y16963D1*
X11117Y16966D1*
X11001Y17012D1*
X10909Y17095D1*
X10851Y17204D1*
X10834Y17328D1*
X10862Y17449D1*
X10929Y17553D1*
X11029Y17628D1*
X11148Y17663D1*
X11272Y17655D1*
X11386Y17604D1*
X11475Y17517D1*
X11528Y17405D1*
X11540Y17312D1*
X11518Y17190D1*
Y15690D2*
X11455Y15582D1*
X11359Y15504D1*
X11241Y15463D1*
X11117Y15466D1*
X11001Y15512D1*
X10909Y15595D1*
X10851Y15704D1*
X10834Y15828D1*
X10862Y15949D1*
X10929Y16053D1*
X11029Y16128D1*
X11148Y16163D1*
X11272Y16155D1*
X11386Y16104D1*
X11475Y16017D1*
X11528Y15905D1*
X11540Y15812D1*
X11518Y15690D1*
X13268Y16190D2*
X13205Y16082D1*
X13109Y16004D1*
X12991Y15963D1*
X12867Y15966D1*
X12751Y16012D1*
X12659Y16095D1*
X12601Y16204D1*
X12584Y16328D1*
X12612Y16449D1*
X12679Y16553D1*
X12779Y16628D1*
X12898Y16663D1*
X13022Y16655D1*
X13136Y16604D1*
X13225Y16517D1*
X13278Y16405D1*
X13290Y16312D1*
X13268Y16190D1*
X21603Y14815D2*
X21540Y14707D1*
X21444Y14629D1*
X21326Y14588D1*
X21202Y14591D1*
X21086Y14637D1*
X20993Y14720D1*
X20935Y14829D1*
X20919Y14953D1*
X20946Y15074D1*
X21014Y15178D1*
X21113Y15253D1*
X21233Y15288D1*
X21357Y15280D1*
X21470Y15229D1*
X21559Y15142D1*
X21612Y15030D1*
X21625Y14937D1*
X21603Y14815D1*
X7202Y33815D2*
X7139Y33707D1*
X7043Y33629D1*
X6925Y33588D1*
X6801Y33591D1*
X6685Y33637D1*
X6592Y33720D1*
X6534Y33829D1*
X6518Y33953D1*
X6545Y34074D1*
X6613Y34178D1*
X6712Y34253D1*
X6832Y34288D1*
X6956Y34280D1*
X7069Y34229D1*
X7158Y34142D1*
X7211Y34030D1*
X7224Y33937D1*
X7202Y33815D1*
X11237Y22315D2*
X11184Y22234D1*
X11268Y22187D1*
X11347Y22091D1*
X11384Y21973D1*
X11386Y21937D1*
X11362Y21815D1*
X11294Y21711D1*
X11192Y21640D1*
X11071Y21613D1*
X10948Y21634D1*
X10843Y21699D1*
X10769Y21799D1*
X10739Y21919D1*
X10756Y22042D1*
X10812Y22140D1*
X10718Y22199D1*
X10644Y22299D1*
X10614Y22419D1*
X10631Y22542D1*
X10693Y22650D1*
X10791Y22726D1*
X10910Y22760D1*
X11034Y22746D1*
X11143Y22687D1*
X11222Y22591D1*
X11259Y22473D1*
X11261Y22437D1*
X11237Y22315D1*
X10987Y22940D2*
X10919Y22836D1*
X10817Y22765D1*
X10696Y22738D1*
X10573Y22759D1*
X10468Y22824D1*
X10394Y22924D1*
X10364Y23044D1*
X10381Y23167D1*
X10443Y23275D1*
X10541Y23351D1*
X10660Y23385D1*
X10784Y23371D1*
X10893Y23312D1*
X10972Y23216D1*
X11009Y23098D1*
X11011Y23062D1*
X10987Y22940D1*
X16612Y14815D2*
X16544Y14711D1*
X16442Y14640D1*
X16321Y14613D1*
X16198Y14634D1*
X16093Y14699D1*
X16019Y14799D1*
X15989Y14919D1*
X16006Y15042D1*
X16068Y15150D1*
X16166Y15226D1*
X16285Y15260D1*
X16409Y15246D1*
X16518Y15187D1*
X16597Y15091D1*
X16634Y14973D1*
X16636Y14937D1*
X16612Y14815D1*
Y12565D2*
X16544Y12461D1*
X16442Y12390D1*
X16321Y12363D1*
X16198Y12384D1*
X16093Y12449D1*
X16019Y12549D1*
X15989Y12669D1*
X16006Y12792D1*
X16068Y12900D1*
X16166Y12976D1*
X16285Y13010D1*
X16409Y12996D1*
X16518Y12937D1*
X16597Y12841D1*
X16634Y12723D1*
X16636Y12687D1*
X16612Y12565D1*
X14237D2*
X14169Y12461D1*
X14067Y12390D1*
X13946Y12363D1*
X13823Y12384D1*
X13761Y12422D1*
X13737Y12315D1*
X13669Y12211D1*
X13567Y12140D1*
X13446Y12113D1*
X13323Y12134D1*
X13217Y12199D1*
X13144Y12299D1*
X13113Y12419D1*
X13131Y12542D1*
X13193Y12650D1*
X13291Y12726D1*
X13410Y12760D1*
X13534Y12746D1*
X13612Y12704D1*
X13631Y12792D1*
X13693Y12900D1*
X13791Y12976D1*
X13910Y13010D1*
X14034Y12996D1*
X14143Y12937D1*
X14222Y12841D1*
X14259Y12723D1*
X14261Y12687D1*
X14237Y12565D1*
X12362Y28940D2*
X12294Y28836D1*
X12192Y28765D1*
X12071Y28738D1*
X11948Y28759D1*
X11843Y28824D1*
X11769Y28924D1*
X11739Y29044D1*
X11756Y29167D1*
X11818Y29275D1*
X11916Y29351D1*
X12035Y29385D1*
X12159Y29371D1*
X12268Y29312D1*
X12347Y29216D1*
X12384Y29098D1*
X12386Y29062D1*
X12362Y28940D1*
X11987Y14565D2*
X11919Y14461D1*
X11817Y14390D1*
X11696Y14363D1*
X11573Y14384D1*
X11468Y14449D1*
X11394Y14549D1*
X11364Y14669D1*
X11381Y14792D1*
X11443Y14900D1*
X11541Y14976D1*
X11660Y15010D1*
X11784Y14996D1*
X11893Y14937D1*
X11972Y14841D1*
X12009Y14723D1*
X12011Y14687D1*
X11987Y14565D1*
X16487Y26474D2*
X16419Y26370D1*
X16317Y26300D1*
X16196Y26272D1*
X16073Y26293D1*
X15968Y26358D1*
X15894Y26458D1*
X15864Y26578D1*
X15881Y26702D1*
X15943Y26809D1*
X16041Y26885D1*
X16160Y26919D1*
X16284Y26905D1*
X16393Y26846D1*
X16472Y26750D1*
X16509Y26632D1*
X16511Y26596D1*
X16487Y26474D1*
X14710Y27128D2*
X14642Y27024D1*
X14540Y26953D1*
X14418Y26926D1*
X14296Y26946D1*
X14190Y27011D1*
X14116Y27111D1*
X14086Y27232D1*
X14103Y27355D1*
X14165Y27462D1*
X14263Y27539D1*
X14383Y27572D1*
X14506Y27559D1*
X14615Y27500D1*
X14694Y27404D1*
X14731Y27285D1*
X14733Y27250D1*
X14710Y27128D1*
X10362Y21815D2*
X10294Y21711D1*
X10192Y21640D1*
X10071Y21613D1*
X9948Y21634D1*
X9843Y21699D1*
X9769Y21799D1*
X9739Y21919D1*
X9756Y22042D1*
X9818Y22150D1*
X9916Y22226D1*
X10035Y22260D1*
X10159Y22246D1*
X10268Y22187D1*
X10347Y22091D1*
X10384Y21973D1*
X10386Y21937D1*
X10362Y21815D1*
X14487Y32065D2*
X14419Y31961D1*
X14317Y31890D1*
X14196Y31863D1*
X14073Y31884D1*
X13968Y31949D1*
X13894Y32049D1*
X13864Y32169D1*
X13881Y32292D1*
X13943Y32400D1*
X14041Y32476D1*
X14160Y32510D1*
X14284Y32496D1*
X14393Y32437D1*
X14472Y32341D1*
X14509Y32223D1*
X14511Y32187D1*
X14487Y32065D1*
X12612Y15315D2*
X12544Y15211D1*
X12442Y15140D1*
X12321Y15113D1*
X12198Y15134D1*
X12093Y15199D1*
X12019Y15299D1*
X11989Y15419D1*
X12006Y15542D1*
X12068Y15650D1*
X12166Y15726D1*
X12285Y15760D1*
X12409Y15746D1*
X12518Y15687D1*
X12597Y15591D1*
X12634Y15473D1*
X12636Y15437D1*
X12612Y15315D1*
D29*
X8687Y23437D3*
Y22437D3*
X7687Y23437D3*
Y22437D3*
X6687Y23437D3*
Y22437D3*
X18780Y30562D3*
X17795D3*
D47*
X20787Y32570D3*
X16772D3*
X10079Y34867D2*
D52*
Y35143D1*
X7480Y34867D2*
Y35143D1*
D29*
X19937Y23937D3*
Y22937D3*
Y21937D3*
Y20937D3*
X20937Y23937D3*
Y22937D3*
Y21937D3*
Y20937D3*
X8780Y8812D3*
X9764D3*
D47*
X6772Y6804D3*
X10787D3*
D29*
X18780Y8812D3*
X19764D3*
D47*
X16772Y6804D3*
X20787D3*
D56*
X12926Y34687D3*
X14698D3*
D59*
X12434Y33703D3*
X15190D3*
D29*
X11687Y32437D3*
M02*
