G04 DipTrace 2.4.0.1*
%INtsunami.backmask.gbs*%
%MOIN*%
%ADD30C,0.0591*%
%ADD58C,0.0709*%
%ADD61C,0.1378*%
%ADD70C,0.0749*%
%ADD71C,0.0629*%
%ADD73R,0.0709X0.0709*%
%ADD74R,0.0629X0.0629*%
%ADD77R,0.0638X0.1638*%
%ADD80O,0.0394X0.067*%
%ADD90C,0.1339*%
%FSLAX44Y44*%
G04*
G70*
G90*
G75*
G01*
%LNBotMask*%
%LPD*%
D74*
X8687Y23437D3*
D71*
Y22437D3*
X7687Y23437D3*
Y22437D3*
X6687Y23437D3*
Y22437D3*
D74*
X18780Y30562D3*
D71*
X17795D3*
D90*
X20787Y32570D3*
X16772D3*
D80*
X10079Y35005D3*
X7480D3*
D77*
X17780Y34377D3*
X19780D3*
D74*
X19937Y23937D3*
D71*
Y22937D3*
Y21937D3*
Y20937D3*
D74*
X20937Y23937D3*
D71*
Y22937D3*
Y21937D3*
Y20937D3*
D74*
X8780Y8812D3*
D71*
X9764D3*
D90*
X6772Y6804D3*
X10787D3*
D74*
X18780Y8812D3*
D71*
X19764D3*
D90*
X16772Y6804D3*
X20787D3*
D77*
X9780Y4987D3*
X7780D3*
X19780D3*
X17780D3*
D73*
X12926Y34687D3*
D58*
X14698D3*
D70*
X12434Y33703D3*
X15190D3*
D30*
X11687Y32437D3*
D61*
X21654Y27953D3*
X5906Y11417D3*
X21654D3*
X5906Y27953D3*
M02*
