G04 DipTrace 2.4.0.1*
%INtsunami.front.gtl*%
%MOIN*%
%ADD14C,0.02*%
%ADD15C,0.01*%
%ADD16C,0.0197*%
%ADD17C,0.0138*%
%ADD18C,0.0157*%
%ADD19C,0.008*%
%ADD20C,0.0083*%
%ADD21C,0.0118*%
%ADD22C,0.015*%
%ADD24C,0.006*%
%ADD25C,0.007*%
%ADD27R,0.0394X0.0433*%
%ADD28R,0.0433X0.0394*%
%ADD29R,0.063X0.0709*%
%ADD30R,0.0709X0.063*%
%ADD31R,0.0669X0.0669*%
%ADD33C,0.0669*%
%ADD34R,0.063X0.0315*%
%ADD35R,0.0394X0.0512*%
%ADD36R,0.1339X0.063*%
%ADD37R,0.0157X0.0551*%
%ADD39R,0.0083X0.0183*%
%ADD40R,0.0154X0.0083*%
%ADD41C,0.0236*%
%ADD42R,0.0709X0.0197*%
%ADD43R,0.0197X0.0709*%
%ADD44R,0.0157X0.0709*%
%ADD46R,0.0433X0.0236*%
%ADD47R,0.0787X0.0236*%
%ADD48O,0.0118X0.0335*%
%ADD49O,0.0335X0.0118*%
%ADD50R,0.0965X0.0965*%
%ADD51R,0.0138X0.0709*%
%ADD52R,0.0591X0.0591*%
%ADD54C,0.0591*%
%ADD55C,0.1299*%
%ADD57R,0.0157X0.0531*%
%ADD58R,0.063X0.0551*%
%ADD59R,0.0748X0.063*%
%ADD60O,0.0354X0.063*%
%ADD62R,0.0598X0.1598*%
%ADD63R,0.0512X0.0591*%
%ADD65C,0.0709*%
%ADD67R,0.063X0.0512*%
%ADD68C,0.0394*%
%FSLAX44Y44*%
G04*
G70*
G90*
G75*
G01*
%LNTop*%
%LPD*%
X14147Y10812D2*
D14*
X14562D1*
X17240Y13876D2*
D15*
Y13234D1*
Y13134D1*
X18062Y12312D1*
Y12187D1*
X17043Y13876D2*
Y13431D1*
X17240Y13234D1*
X18062Y12187D2*
D14*
Y11812D1*
X9011Y16426D2*
Y16789D1*
X8500Y17301D1*
X6885Y16426D2*
D15*
Y17760D1*
X6937Y17812D1*
X8437D1*
X8562Y17687D1*
Y17363D1*
X8500Y17301D1*
X20602Y15243D2*
D14*
Y15798D1*
X20406Y15994D1*
D15*
X20192D1*
X20062Y16125D1*
Y16562D1*
X20187Y16687D1*
X20461D1*
X20406Y16742D1*
X12835Y22128D2*
D16*
Y21710D1*
D14*
X12251Y21126D1*
X20602Y15243D2*
Y14977D1*
X20562Y14937D1*
X9937Y26125D2*
X9999D1*
X9562Y26562D1*
X15897Y27562D2*
Y27158D1*
X15737Y26999D1*
X15495Y26756D1*
D16*
X15354Y26616D1*
X11535Y25632D2*
X11992D1*
D14*
X12062Y25562D1*
X11535Y24057D2*
D16*
X11081Y24062D1*
X16022Y13272D2*
D14*
X16812D1*
X10187Y30323D2*
Y30937D1*
X12477Y29812D2*
X12125D1*
X13687Y11874D2*
D17*
Y11358D1*
D14*
Y11272D1*
X14147Y10812D1*
X12251Y21126D2*
Y20876D1*
X12187Y20812D1*
X13300Y15795D2*
D18*
X13312Y16250D1*
D14*
Y16300D1*
X15352Y17312D2*
X15346D1*
X14706Y17952D1*
D18*
X14580Y18079D1*
X15352Y17312D2*
D14*
Y17602D1*
X15437Y17687D1*
X16701Y28405D2*
D19*
Y28037D1*
Y27410D1*
X16602Y27312D1*
X16701Y28037D2*
X16712D1*
X16687Y28062D1*
X13803Y32366D2*
D18*
Y32743D1*
D14*
X13938Y32878D1*
X15063D1*
X15188Y32753D1*
Y32282D1*
Y31835D1*
X15187Y31834D1*
X13687Y14000D2*
D15*
Y14768D1*
X13518Y14937D1*
X9011Y14926D2*
D14*
Y14562D1*
X8500Y14051D1*
X13518Y14937D2*
Y15062D1*
X9562D1*
X9426Y14926D1*
X9011D1*
X17831Y13876D2*
D15*
X19501D1*
X19687Y14062D1*
Y18312D1*
X19876Y18501D1*
X20150D1*
X13780Y22128D2*
Y21094D1*
X16437Y18437D1*
X20085D1*
X20150Y18501D1*
X18647Y29062D2*
Y30429D1*
X18780Y30562D1*
Y34377D1*
X18687Y29022D2*
X18647Y29062D1*
Y26562D2*
Y27312D1*
Y28687D1*
Y29062D1*
X17234Y28766D2*
D20*
X17361D1*
D15*
X17421D1*
X17500Y28687D1*
X18647D1*
X14724Y26616D2*
Y27662D1*
X14937Y27875D1*
X16187D1*
X16250Y27812D1*
Y27066D1*
X16313Y27002D1*
X17563D1*
X17873Y27312D1*
X17977D1*
X16024Y25002D2*
X15560D1*
X15500Y25062D1*
Y26125D1*
X15625Y26250D1*
X17665D1*
X17977Y26562D1*
X14724Y22128D2*
Y21650D1*
X15125Y21250D1*
X18500D1*
X19000Y21750D1*
Y22125D1*
X19250Y22375D1*
X20500D1*
X20937Y21937D1*
X15039Y22128D2*
Y21647D1*
X15250Y21437D1*
X18437D1*
X18812Y21812D1*
Y23187D1*
X19000Y23375D1*
X21250D1*
X21437Y23187D1*
Y21437D1*
X20937Y20937D1*
X14409Y22128D2*
Y21715D1*
X15062Y21062D1*
X19062D1*
X19937Y21937D1*
X14094Y22128D2*
Y21780D1*
X15000Y20875D1*
X19937D1*
Y20937D1*
X11535Y25947D2*
X12052D1*
X12312Y25687D1*
Y24562D1*
X13062Y17062D2*
X13937D1*
X14062Y17187D1*
Y18073D1*
X14068Y18079D1*
X18185Y14231D2*
X18543D1*
X19062Y14750D1*
Y16687D1*
X18437Y17312D1*
Y17562D1*
Y22125D2*
Y24812D1*
X17937Y25312D1*
X16029D1*
X16024Y25317D1*
Y24372D2*
X17127D1*
X17437Y24062D1*
Y22125D1*
Y17500D2*
Y16437D1*
X17634Y16240D1*
Y15373D1*
X18185Y14428D2*
X18490D1*
X18875Y14812D1*
Y16625D1*
X18187Y17312D1*
Y17750D1*
Y21812D2*
X18062D1*
X18000Y21875D1*
X17312D1*
X17187Y22000D1*
Y23812D1*
X16942Y24057D1*
X16024D1*
X12205Y22128D2*
Y22705D1*
X12312Y22812D1*
X17937Y17500D2*
Y17312D1*
X18687Y16562D1*
Y14875D1*
X18437Y14625D1*
X18185D1*
X16024Y24687D2*
X17437D1*
X17687Y24437D1*
Y22312D1*
Y17750D2*
Y17312D1*
X18500Y16500D1*
Y14937D1*
X18384Y14821D1*
X18185D1*
X17016Y28969D2*
D19*
Y29141D1*
X17187Y29312D1*
Y29437D1*
X12375Y23750D2*
X11543D1*
X11535Y23742D1*
X15354Y22128D2*
Y22957D1*
X15312Y23000D1*
X16875Y29437D2*
Y29111D1*
X16858D1*
Y28969D1*
X16024Y23427D2*
D15*
X16302D1*
X16625Y23750D1*
X16617Y23742D1*
X16024D1*
X16701Y28969D2*
D19*
Y29111D1*
X16562Y29250D1*
Y29437D1*
X13803Y30633D2*
D15*
Y29864D1*
X13852Y29815D1*
X17016Y28405D2*
D20*
Y28546D1*
D15*
Y28612D1*
X16938Y28690D1*
X13501Y29440D2*
Y29463D1*
X13852Y29815D1*
X17397Y10812D2*
Y10852D1*
X17062Y11187D1*
Y11977D1*
X16727Y12312D1*
X13477Y10812D2*
D14*
X13062D1*
X11602Y13562D2*
Y13602D1*
X11937Y13937D1*
X14187Y14937D2*
X14562D1*
X15352Y14062D2*
Y13687D1*
X17397Y10812D2*
X17812D1*
X17634Y13876D2*
D15*
Y13615D1*
X17937Y13312D1*
X18812D1*
Y12977D1*
X18772Y12937D1*
D14*
X18812D1*
Y12562D1*
X18731Y12187D2*
Y12562D1*
X18812D1*
X9764Y8812D2*
Y9820D1*
X9647Y9937D1*
X6885Y15426D2*
X7448D1*
Y14102D1*
X7397Y14051D1*
X7448Y15426D2*
Y15670D1*
Y17250D1*
X7397Y17301D1*
X7448Y15670D2*
X7670D1*
X7687Y15687D1*
X20602Y17493D2*
X21062Y17953D1*
Y19187D1*
X20763Y19486D1*
X20150D1*
X20602Y17493D2*
Y17272D1*
X20937Y16937D1*
Y16393D1*
Y15578D1*
X21272Y15243D1*
X20937Y16393D2*
X20430D1*
X20406Y16368D1*
X13150Y22128D2*
D16*
Y21674D1*
D14*
Y21356D1*
X12920Y21126D1*
X16024Y22797D2*
D16*
X16478D1*
D14*
X16661D1*
X16876Y22582D1*
X17043Y15373D2*
D21*
X17001D1*
Y15688D1*
X9955Y24187D2*
D14*
X9562D1*
X16876Y22582D2*
Y22187D1*
X7665Y32812D2*
Y32815D1*
X7312D1*
X10209Y32812D2*
Y32815D1*
X10563D1*
X12520Y26616D2*
D16*
Y27195D1*
D14*
Y27441D1*
X12397Y27564D1*
Y27949D1*
Y28231D1*
X12477Y28312D1*
X15039Y26616D2*
D16*
Y27195D1*
D14*
Y27374D1*
X15227Y27562D1*
X17795Y30562D2*
Y29244D1*
X17977Y29062D1*
X20713Y25312D2*
Y25036D1*
X20812Y24937D1*
X19764Y8812D2*
Y5003D1*
X19780Y4987D1*
X9764Y8812D2*
Y5003D1*
X9780Y4987D1*
X17795Y30562D2*
Y34361D1*
X17780Y34377D1*
X12477Y30562D2*
X12125D1*
X13852Y29062D2*
Y29022D1*
X14187Y28687D1*
X15039Y26616D2*
D16*
Y26125D1*
X14147Y8562D2*
D14*
X17437D1*
X18187Y9312D1*
X19264D1*
X19764Y8812D1*
X12920Y21126D2*
Y20829D1*
X12937Y20812D1*
X11602Y17312D2*
X11187D1*
X11602Y15812D2*
X11187D1*
X14068Y15795D2*
D15*
Y16193D1*
X14187Y16312D1*
X14937D1*
X15062Y16187D1*
X15687D1*
Y16977D1*
X16022Y17312D1*
D14*
Y17602D1*
X15937Y17687D1*
X13044Y15795D2*
D18*
Y16205D1*
D14*
X12937Y16312D1*
X21272Y15243D2*
Y14937D1*
X5688Y32811D2*
Y33813D1*
X5812Y33937D1*
X6871D1*
X7505D1*
X7520Y33952D1*
X15897Y28312D2*
X16250D1*
X17173Y28969D2*
D19*
Y29048D1*
X17500Y29437D1*
X14571Y30633D2*
D18*
X14750D1*
D14*
X15069D1*
X15188Y30752D1*
Y31164D1*
X15187Y31165D1*
X11102Y28312D2*
X10690Y28315D1*
X17272Y27312D2*
Y27481D1*
X17063Y27690D1*
X16024Y25632D2*
D15*
X18532D1*
X18852Y25312D1*
X10937Y22437D2*
X11312Y22812D1*
X11550D1*
X11535Y22797D1*
Y23112D2*
X11112D1*
X11062Y23062D1*
X10687D1*
Y21937D1*
X12437Y20187D1*
X13562D1*
X17687Y16937D2*
X18185Y16439D1*
Y15018D1*
X13556Y18079D2*
X13562Y17568D1*
X14187Y11874D2*
Y12562D1*
X14312Y12687D1*
X15750D1*
X16022Y12312D2*
Y11562D1*
X16689Y14821D2*
X16428D1*
X16375Y14875D1*
Y14937D1*
X16312D1*
Y12687D2*
X16022D1*
X15669D1*
X16125Y12312D2*
X16022D1*
Y12687D1*
X14437Y11874D2*
Y12312D1*
X14562Y12437D1*
X15352D1*
Y12312D1*
Y11562D1*
Y11481D1*
X16022Y10812D1*
X12835Y26616D2*
Y28000D1*
X13147Y28312D1*
X14580Y15795D2*
X15336D1*
X15352Y15812D1*
X8780Y33952D2*
D22*
Y33280D1*
X8691Y33191D1*
Y32812D1*
Y25377D1*
X9156Y24911D1*
X9729D1*
X9828Y24812D1*
X9977D1*
X8334Y32812D2*
X8691D1*
X11102Y29062D2*
D15*
Y29558D1*
X11437Y29893D1*
X9291Y33952D2*
D18*
Y33458D1*
D14*
X9437Y33312D1*
X10691D1*
X10875Y33128D1*
Y32125D1*
X10687Y31937D1*
X10187D1*
X15352Y13272D2*
D15*
X15397D1*
X15812Y13687D1*
X16437D1*
X16687Y13937D1*
Y14229D1*
X16689Y14231D1*
X21724Y18501D2*
D14*
Y17946D1*
X21272Y17493D1*
X21469Y16742D2*
Y17297D1*
X21272Y17493D1*
X11602Y16537D2*
D15*
Y16524D1*
X11938Y16188D1*
X21501Y17063D2*
Y16775D1*
X21469Y16742D1*
X17437Y13876D2*
Y13562D1*
X18062Y12937D1*
X18102D1*
X16689Y14428D2*
X16490D1*
X16125Y14062D1*
X16022D1*
X14324Y15795D2*
Y15425D1*
X14437Y15312D1*
X15687D1*
X15812Y15187D1*
Y14272D1*
X16022Y14062D1*
X16689Y14625D2*
X16250D1*
X16062Y14812D1*
Y15772D1*
X16022Y15812D1*
X13187Y11874D2*
Y12562D1*
X13062Y12687D1*
X11977D1*
X11602Y12312D1*
Y11567D1*
X11597Y11562D1*
X16689Y15018D2*
X16687D1*
Y15562D1*
X13937Y12687D2*
X13062D1*
X16022Y16537D2*
X16587D1*
X16687Y16437D1*
Y15562D1*
X12937Y11874D2*
Y12187D1*
X12812Y12312D1*
X12272D1*
Y11567D1*
X12267Y11562D1*
Y11476D1*
X11602Y10812D1*
X10897D2*
Y10768D1*
X11602Y10062D1*
X10897Y11562D2*
Y10812D1*
X13477Y9312D2*
X12352D1*
X11602Y10062D1*
X16727Y10812D2*
Y10768D1*
X16022Y10062D1*
X16727Y11562D2*
Y10812D1*
X14147Y9312D2*
X15272D1*
X16022Y10062D1*
X14187Y14000D2*
Y13312D1*
X14062Y13187D1*
X10312D1*
X10187Y13062D1*
Y12352D1*
X10227Y12312D1*
Y11562D2*
Y12312D1*
X17397D2*
X17437D1*
X16812Y12937D1*
X15062D1*
X14937Y13062D1*
Y14437D1*
X14812Y14562D1*
X14062D1*
X13937Y14437D1*
Y14000D1*
X17397Y12312D2*
Y11562D1*
X10897Y12312D2*
Y12772D1*
X11062Y12937D1*
X14312D1*
X14437Y13062D1*
Y14000D1*
X10227Y10812D2*
Y10852D1*
X10562Y11187D1*
Y11977D1*
X10897Y12312D1*
X10227Y10812D2*
Y10397D1*
X12812Y7812D1*
X13477D1*
Y8562D2*
Y7812D1*
X12272Y10812D2*
Y10062D1*
X13477D1*
X15352Y10812D2*
Y10062D1*
X14147D1*
X10227Y14312D2*
Y14231D1*
X10897Y13562D1*
X11602Y14312D2*
Y14268D1*
X10897Y13562D1*
X12272Y14312D2*
Y13562D1*
X13437Y14000D2*
Y13562D1*
X13312Y13437D1*
X12397D1*
X12272Y13562D1*
X13187Y14000D2*
Y14312D1*
X12812Y14687D1*
X11687D1*
X11272D1*
X10897Y14312D1*
X12937Y14000D2*
Y14525D1*
X12812Y14687D1*
X12477Y29062D2*
Y29022D1*
X12062Y29437D1*
X10227Y13562D2*
X9312D1*
X9062Y13312D1*
Y10022D1*
X8977Y9937D1*
X8780Y8812D2*
Y9739D1*
X8977Y9937D1*
X8780Y8812D2*
Y4987D1*
X6885Y15926D2*
D14*
X6125D1*
X5823Y16227D1*
X6885Y14926D2*
X6022D1*
X5823Y15125D1*
X11535Y24372D2*
D15*
Y24312D1*
X10750D1*
X10625Y24187D1*
X9035Y33952D2*
D22*
Y33214D1*
X9119Y33130D1*
Y32812D1*
Y25559D1*
X9343Y25335D1*
X9744D1*
X9846Y25437D1*
X9977D1*
X9540Y32812D2*
X9119D1*
X11535Y25317D2*
D15*
X10767D1*
X10647Y25437D1*
X11535Y25002D2*
X10837D1*
X10647Y24812D1*
X8268Y33952D2*
D18*
Y33393D1*
D14*
X8187Y33312D1*
X6562D1*
X6436Y33186D1*
Y32811D1*
X11535Y24687D2*
D15*
X11187D1*
X11000Y24500D1*
X9000D1*
X8187Y25312D1*
Y31687D1*
X7812Y32062D1*
X6437D1*
Y32810D1*
X6436Y32811D1*
X16024Y23112D2*
D16*
X16478D1*
D14*
X16737D1*
X16876Y23251D1*
X10685Y26125D2*
X11248Y26687D1*
X11812D1*
X12134D1*
D16*
X12205Y26616D1*
X11727Y27564D2*
D14*
Y26772D1*
X11812Y26687D1*
X16024Y23112D2*
D16*
X15637D1*
D14*
X15437Y23312D1*
X12687D1*
Y25687D1*
X12205Y26169D1*
D16*
Y26616D1*
X15352Y16537D2*
D15*
Y16687D1*
X13812D1*
X13562Y16437D1*
Y15801D1*
X13556Y15795D1*
X20161Y25312D2*
X19522D1*
X18780Y8812D2*
Y7937D1*
Y4987D1*
X14147Y7812D2*
Y7937D1*
X18780D1*
X16640Y28608D2*
D20*
X16513D1*
D15*
X16350D1*
X15897Y29062D1*
X11437Y31231D2*
Y31502D1*
X11875Y31940D1*
X14063D1*
Y32362D1*
X14059Y32366D1*
X14315Y30633D2*
Y30250D1*
X14501Y30065D1*
Y29836D1*
X14522Y29815D1*
X14315Y30633D2*
Y31125D1*
X14188Y31252D1*
X13147D1*
X11772Y28312D2*
Y28625D1*
Y29062D1*
X13150Y26616D2*
Y27712D1*
X13500Y28062D1*
Y28562D1*
X13437Y28625D1*
X11772D1*
X14315Y32366D2*
Y31817D1*
X14251Y31752D1*
X12000D1*
X11875Y31627D1*
Y29627D1*
X11813Y29565D1*
Y29103D1*
X11772Y29062D1*
X15227D2*
Y28312D1*
X14409Y26616D2*
Y27597D1*
X15000Y28187D1*
X15102D1*
X15227Y28312D1*
X12520Y22128D2*
Y21770D1*
X12312Y21562D1*
X11437D1*
X11062Y21937D1*
X10062D2*
X6312D1*
X6187Y22062D1*
Y22937D1*
X6687Y23437D1*
X17831Y15373D2*
X17937Y15479D1*
Y16312D1*
X17687Y16562D1*
X13312Y19937D2*
X12437D1*
X10437Y21937D1*
Y23437D1*
X10937D1*
X10947Y23427D1*
X11535D1*
X7687Y23437D2*
X7812D1*
X8312Y23937D1*
X9187D1*
X9687Y23437D1*
X10437D1*
X13812Y18079D2*
Y17437D1*
X13687Y17312D1*
X13312D1*
X17437Y15373D2*
Y15687D1*
X17375Y15750D1*
X18375Y28375D2*
Y28440D1*
X17265D1*
D20*
Y28405D1*
X17173D1*
X16858D2*
Y28270D1*
D15*
X17063Y28065D1*
X14094Y27500D2*
Y26616D1*
X14522Y28312D2*
Y29062D1*
X13780Y26616D2*
Y27570D1*
X14522Y28312D1*
Y29062D2*
X14503D1*
X14188Y29377D1*
Y30127D1*
X14063Y30252D1*
Y30629D1*
X14059Y30633D1*
X13147Y30562D2*
Y29812D1*
Y29062D1*
X13250D1*
X13812Y28500D1*
Y28352D1*
X13852Y28312D1*
X13465Y26616D2*
Y27652D1*
X13812Y28000D1*
Y28272D1*
X13852Y28312D1*
X13147Y30562D2*
Y30583D1*
X12477Y31252D1*
X14571Y32366D2*
Y31698D1*
X14438Y31565D1*
X12563D1*
X12500Y31502D1*
Y31275D1*
X12477Y31252D1*
X13937Y11874D2*
Y12312D1*
X13812Y12437D1*
X13437D1*
Y11874D1*
X12272Y17312D2*
Y16537D1*
Y15812D1*
Y15477D1*
X12312Y15437D1*
X12437Y15312D1*
X13687D1*
X13812Y15437D1*
Y15795D1*
D41*
X14562Y10812D3*
X18062Y11812D3*
X9011Y16789D3*
X20562Y14937D3*
X9562Y26562D3*
X12062Y25562D3*
X11081Y24062D3*
X16812Y13272D3*
X10187Y30937D3*
X12125Y29812D3*
X15737Y26999D3*
X12187Y20812D3*
X13312Y16300D3*
X15437Y17687D3*
X16687Y28062D3*
X15188Y32282D3*
X12312Y24562D3*
X13062Y17062D3*
X18437Y17562D3*
Y22125D3*
X17437D3*
Y17500D3*
X18187Y17750D3*
Y21812D3*
X12312Y22812D3*
X17937Y17500D3*
X17687Y22312D3*
Y17750D3*
X17187Y29437D3*
X12375Y23750D3*
X15312Y23000D3*
X16875Y29437D3*
X16562D3*
X16625Y23750D3*
X16938Y28690D3*
X13501Y29440D3*
X13062Y10812D3*
X11937Y13937D3*
X14562Y14937D3*
X15352Y13687D3*
X17812Y10812D3*
X18812Y12562D3*
X7687Y15687D3*
X17001Y15688D3*
X9562Y24187D3*
X16876Y22187D3*
X7312Y32815D3*
X10563D3*
X20812Y24937D3*
X12125Y30562D3*
X14187Y28687D3*
X15039Y26125D3*
X12937Y20812D3*
X11187Y17312D3*
Y15812D3*
X15937Y17687D3*
X12937Y16312D3*
X21272Y14937D3*
X6871Y33937D3*
X12397Y27949D3*
X16250Y28312D3*
X17500Y29437D3*
X15188Y30752D3*
X10690Y28315D3*
X17063Y27690D3*
X10937Y22437D3*
X13562Y20187D3*
X17687Y16937D3*
X10687Y23062D3*
X13562Y17568D3*
X16312Y14937D3*
Y12687D3*
X11938Y16188D3*
X21501Y17063D3*
X16687Y15562D3*
X13937Y12687D3*
X12062Y29437D3*
X11687Y14687D3*
X11062Y21937D3*
X10062D3*
X17687Y16562D3*
X13312Y19937D3*
Y17312D3*
X17375Y15750D3*
X18375Y28375D3*
X17063Y28065D3*
X14094Y27500D3*
X13437Y12437D3*
X12312Y15437D3*
X15875Y19437D3*
X14062Y21375D3*
X13625Y20812D3*
X14625Y20687D3*
X14187Y20250D3*
X15187Y20125D3*
X14750Y19687D3*
X15437Y19000D3*
X16562Y18750D3*
X17187Y18687D3*
X18750D3*
X19562D3*
X16250Y18187D3*
X17187D3*
X18750D3*
X19375D3*
X20062Y17937D3*
X19375Y17250D3*
Y16312D3*
Y15312D3*
X20000D3*
X19375Y14125D3*
X9750Y13812D3*
X18062Y13625D3*
X20000D3*
X9750Y13312D3*
X8812Y13062D3*
X9312D3*
X8812Y11812D3*
X9312D3*
X8812Y10312D3*
X9312D3*
X10062Y10187D3*
X10812D3*
X8437Y9312D3*
X9062D3*
X11062Y9187D3*
X11812D3*
X9062Y8312D3*
X12062Y8187D3*
X12812D3*
X14812D3*
X15812D3*
X16812D3*
X17812D3*
X8437Y8062D3*
X19062D3*
X14812Y7687D3*
X15812D3*
X16812D3*
X17812D3*
X12812Y7437D3*
X13812D3*
X8437Y7062D3*
X9062D3*
X18437D3*
X19062D3*
X8437Y6062D3*
X9062D3*
X18437D3*
X19062D3*
X13348Y21661D2*
D24*
X13631D1*
X13348Y21602D2*
X13631D1*
X13348Y21543D2*
X13631D1*
X13348Y21485D2*
X13631D1*
X13348Y21426D2*
X13631D1*
X13348Y21367D2*
X13631D1*
X13348Y21309D2*
X13631D1*
X13348Y21250D2*
X13631D1*
X13348Y21191D2*
X13631D1*
X13348Y21133D2*
X13631D1*
X13348Y21074D2*
X13633D1*
X13348Y21015D2*
X13655D1*
X13348Y20957D2*
X13711D1*
X13348Y20898D2*
X13769D1*
X13395Y20839D2*
X13828D1*
X13454Y20781D2*
X13886D1*
X13513Y20722D2*
X13945D1*
X13572Y20663D2*
X14004D1*
X13631Y20604D2*
X14062D1*
X13689Y20546D2*
X14121D1*
X13748Y20487D2*
X14179D1*
X13806Y20428D2*
X14238D1*
X13865Y20370D2*
X14297D1*
X13924Y20311D2*
X14356D1*
X13982Y20252D2*
X14415D1*
X14041Y20194D2*
X14473D1*
X14099Y20135D2*
X14532D1*
X14158Y20076D2*
X14591D1*
X14218Y20018D2*
X14649D1*
X14276Y19959D2*
X14708D1*
X14335Y19900D2*
X14767D1*
X14393Y19841D2*
X14825D1*
X14452Y19783D2*
X14884D1*
X14511Y19724D2*
X14942D1*
X14569Y19665D2*
X15001D1*
X14628Y19607D2*
X15061D1*
X14686Y19548D2*
X15119D1*
X14745Y19489D2*
X15178D1*
X14804Y19431D2*
X15236D1*
X14863Y19372D2*
X15295D1*
X14922Y19313D2*
X15354D1*
X14980Y19255D2*
X15412D1*
X15039Y19196D2*
X15471D1*
X15098Y19137D2*
X15529D1*
X15156Y19079D2*
X15588D1*
X15215Y19020D2*
X15647D1*
X15273Y18961D2*
X15706D1*
X15332Y18902D2*
X15765D1*
X15391Y18844D2*
X15823D1*
X15449Y18785D2*
X15882D1*
X15508Y18726D2*
X15941D1*
X15567Y18668D2*
X15999D1*
X15626Y18609D2*
X16058D1*
X15685Y18550D2*
X16116D1*
X15743Y18492D2*
X16175D1*
X15802Y18433D2*
X16234D1*
X15860Y18374D2*
X16292D1*
X15919Y18316D2*
X16357D1*
X15978Y18257D2*
X19539D1*
X16036Y18198D2*
X19539D1*
X16095Y18140D2*
X19539D1*
X16153Y18081D2*
X19539D1*
X19213Y18022D2*
X19539D1*
X19223Y17963D2*
X19539D1*
X19223Y17905D2*
X19539D1*
X19223Y17846D2*
X19539D1*
X19223Y17787D2*
X19539D1*
X19223Y17729D2*
X19539D1*
X19223Y17670D2*
X19539D1*
X19223Y17611D2*
X19539D1*
X19223Y17553D2*
X19539D1*
X19223Y17494D2*
X19539D1*
X19223Y17435D2*
X19539D1*
X19223Y17377D2*
X19539D1*
X19223Y17318D2*
X19539D1*
X19223Y17259D2*
X19539D1*
X19223Y17201D2*
X19539D1*
X19223Y17142D2*
X19539D1*
X19223Y17083D2*
X19539D1*
X19223Y17024D2*
X19539D1*
X19223Y16966D2*
X19539D1*
X19223Y16907D2*
X19539D1*
X19223Y16848D2*
X19539D1*
X19223Y16790D2*
X19539D1*
X19223Y16731D2*
X19539D1*
X19223Y16672D2*
X19539D1*
X19223Y16614D2*
X19539D1*
X19223Y16555D2*
X19539D1*
X19223Y16496D2*
X19539D1*
X19223Y16438D2*
X19539D1*
X19223Y16379D2*
X19539D1*
X19223Y16320D2*
X19539D1*
X19223Y16262D2*
X19539D1*
X19223Y16203D2*
X19539D1*
X19223Y16144D2*
X19539D1*
X19223Y16085D2*
X19539D1*
X19223Y16027D2*
X19539D1*
X19223Y15968D2*
X19539D1*
X19223Y15909D2*
X19539D1*
X19223Y15851D2*
X19539D1*
X19223Y15792D2*
X19539D1*
X19223Y15733D2*
X19539D1*
X19223Y15675D2*
X19539D1*
X19223Y15616D2*
X19539D1*
X19223Y15557D2*
X19539D1*
X19223Y15499D2*
X19539D1*
X19223Y15440D2*
X19539D1*
X19223Y15381D2*
X19539D1*
X19223Y15323D2*
X19539D1*
X19223Y15264D2*
X19539D1*
X19223Y15205D2*
X19539D1*
X19223Y15146D2*
X19539D1*
X19223Y15088D2*
X19539D1*
X19223Y15029D2*
X19539D1*
X19223Y14970D2*
X19539D1*
X19223Y14912D2*
X19539D1*
X19223Y14853D2*
X19539D1*
X19223Y14794D2*
X19539D1*
X19223Y14736D2*
X19539D1*
X19223Y14677D2*
X19539D1*
X19223Y14618D2*
X19539D1*
X19223Y14560D2*
X19539D1*
X19223Y14501D2*
X19539D1*
X19223Y14442D2*
X19539D1*
X19223Y14384D2*
X19539D1*
X19223Y14325D2*
X19539D1*
X18786Y14266D2*
X19539D1*
X18727Y14207D2*
X19539D1*
X18669Y14149D2*
X19539D1*
X18570Y14090D2*
X19508D1*
X17981Y14031D2*
X19449D1*
X13638Y21681D2*
X13341D1*
X13342Y21360D1*
Y20886D1*
X13588Y20641D1*
X16199Y18029D1*
X19187Y18030D1*
X19212Y18015D1*
X19217Y18000D1*
Y16749D1*
Y16270D1*
Y14312D1*
X19202Y14287D1*
X19187Y14282D1*
X18796D1*
X18644Y14130D1*
X18621Y14111D1*
X18594Y14098D1*
X18571Y14091D1*
X18513Y14088D1*
X18344D1*
X18321Y14082D1*
X18293Y14079D1*
X18077Y14080D1*
X18045Y14083D1*
X18012Y14094D1*
Y14050D1*
X17968D1*
X17978Y14018D1*
X18071Y14019D1*
X19443Y14020D1*
X19545Y14122D1*
Y18295D1*
X18795D1*
X16437D1*
X16407Y18298D1*
X16379Y18307D1*
X16357Y18319D1*
X16315Y18358D1*
X13679Y20994D1*
X13660Y21017D1*
X13646Y21044D1*
X13640Y21067D1*
X13637Y21124D1*
Y21680D1*
X13589Y21682D1*
X13928Y21661D2*
X14006D1*
X13928Y21602D2*
X14065D1*
X13928Y21543D2*
X14123D1*
X13928Y21485D2*
X14182D1*
X13928Y21426D2*
X14214D1*
X13928Y21367D2*
X14214D1*
X13928Y21309D2*
X14214D1*
X13928Y21250D2*
X14214D1*
X13928Y21191D2*
X14259D1*
X13948Y21133D2*
X14318D1*
X14008Y21074D2*
X14377D1*
X14066Y21015D2*
X14435D1*
X14125Y20957D2*
X14494D1*
X14184Y20898D2*
X14552D1*
X14242Y20839D2*
X14611D1*
X14301Y20781D2*
X14671D1*
X14359Y20722D2*
X14729D1*
X14418Y20663D2*
X14788D1*
X14477Y20604D2*
X14846D1*
X14535Y20546D2*
X14905D1*
X14594Y20487D2*
X14964D1*
X14653Y20428D2*
X15022D1*
X14712Y20370D2*
X15081D1*
X14771Y20311D2*
X15139D1*
X14829Y20252D2*
X15198D1*
X14888Y20194D2*
X15257D1*
X14946Y20135D2*
X15316D1*
X15005Y20076D2*
X15375D1*
X15064Y20018D2*
X15433D1*
X15122Y19959D2*
X15492D1*
X15181Y19900D2*
X15551D1*
X15239Y19841D2*
X15609D1*
X15298Y19783D2*
X15668D1*
X15358Y19724D2*
X15726D1*
X15416Y19665D2*
X15785D1*
X15475Y19607D2*
X15844D1*
X15533Y19548D2*
X15902D1*
X15592Y19489D2*
X15961D1*
X15651Y19431D2*
X16020D1*
X15709Y19372D2*
X16079D1*
X15768Y19313D2*
X16138D1*
X15826Y19255D2*
X16196D1*
X15885Y19196D2*
X16255D1*
X15944Y19137D2*
X16313D1*
X16003Y19079D2*
X16372D1*
X19535D2*
X20776D1*
X16062Y19020D2*
X16431D1*
X19535D2*
X20776D1*
X16120Y18961D2*
X16489D1*
X19535D2*
X20776D1*
X16179Y18902D2*
X16548D1*
X19535D2*
X20776D1*
X16238Y18844D2*
X19737D1*
X20563D2*
X20776D1*
X16296Y18785D2*
X19737D1*
X20563D2*
X20776D1*
X16355Y18726D2*
X19737D1*
X20563D2*
X20776D1*
X16413Y18668D2*
X19737D1*
X20563D2*
X20776D1*
X16472Y18609D2*
X19737D1*
X20563D2*
X20776D1*
X20563Y18550D2*
X20776D1*
X20563Y18492D2*
X20776D1*
X20563Y18433D2*
X20776D1*
X20563Y18374D2*
X20776D1*
X20563Y18316D2*
X20776D1*
X20563Y18257D2*
X20776D1*
X20563Y18198D2*
X20776D1*
X19835Y18140D2*
X20776D1*
X19835Y18081D2*
X20776D1*
X19835Y18022D2*
X20724D1*
X19835Y17963D2*
X20416D1*
X19835Y17905D2*
X20356D1*
X19835Y17846D2*
X20297D1*
X19835Y17787D2*
X20239D1*
X19835Y17729D2*
X20180D1*
X19835Y17670D2*
X20151D1*
X19835Y17611D2*
X20151D1*
X19835Y17553D2*
X20151D1*
X19835Y17494D2*
X20151D1*
X19835Y17435D2*
X20151D1*
X19835Y17377D2*
X20151D1*
X19835Y17318D2*
X20151D1*
X19835Y17259D2*
X20151D1*
X19835Y17201D2*
X20151D1*
X19835Y17142D2*
X20151D1*
X19835Y17083D2*
X20151D1*
X19835Y17024D2*
X20151D1*
X19835Y16966D2*
X20151D1*
X19835Y16907D2*
X20091D1*
X19835Y16848D2*
X20091D1*
X19835Y16790D2*
X20083D1*
X19835Y16731D2*
X20024D1*
X19835Y16672D2*
X19966D1*
X19835Y16614D2*
X19923D1*
X19835Y16555D2*
X19914D1*
X19835Y16496D2*
X19914D1*
X19835Y16438D2*
X19914D1*
X19835Y16379D2*
X19914D1*
X19835Y16320D2*
X19914D1*
X19835Y16262D2*
X19914D1*
X19835Y16203D2*
X19914D1*
X19835Y16144D2*
X19914D1*
X19835Y16085D2*
X19920D1*
X19835Y16027D2*
X19952D1*
X19835Y15968D2*
X20011D1*
X19835Y15909D2*
X20070D1*
X19835Y15851D2*
X20091D1*
X19835Y15792D2*
X20091D1*
X19835Y15733D2*
X20151D1*
X19835Y15675D2*
X20151D1*
X19835Y15616D2*
X20151D1*
X19835Y15557D2*
X20151D1*
X19835Y15499D2*
X20151D1*
X19835Y15440D2*
X20151D1*
X19835Y15381D2*
X20151D1*
X19835Y15323D2*
X20151D1*
X19835Y15264D2*
X20151D1*
X19835Y15205D2*
X20151D1*
X19835Y15146D2*
X20151D1*
X19835Y15088D2*
X20151D1*
X19835Y15029D2*
X20151D1*
X19835Y14970D2*
X20151D1*
X19835Y14912D2*
X20151D1*
X19835Y14853D2*
X20151D1*
X19835Y14794D2*
X20151D1*
X19835Y14736D2*
X20151D1*
X19835Y14677D2*
X20151D1*
X19835Y14618D2*
X20151D1*
X19835Y14560D2*
X20151D1*
X19835Y14501D2*
X20151D1*
X19835Y14442D2*
X20151D1*
X19835Y14384D2*
X20151D1*
X19835Y14325D2*
X20151D1*
X19835Y14266D2*
X20151D1*
X19835Y14207D2*
X20151D1*
X19835Y14149D2*
X20151D1*
X19835Y14090D2*
X20151D1*
X19832Y14031D2*
X20151D1*
X19804Y13973D2*
X20151D1*
X19775Y13914D2*
X20151D1*
X19716Y13855D2*
X20151D1*
X19658Y13797D2*
X20151D1*
X19540Y13738D2*
X20151D1*
X17973Y13679D2*
X20151D1*
X17973Y13621D2*
X20151D1*
X17973Y13562D2*
X20151D1*
X13970Y21682D2*
X13922Y21681D1*
X13923Y21153D1*
X16497Y18579D1*
X19742D1*
Y18850D1*
X20557D1*
Y18153D1*
X19829D1*
Y17982D1*
Y14062D1*
X19826Y14032D1*
X19817Y14004D1*
X19805Y13982D1*
X19779Y13953D1*
Y13936D1*
X19771Y13916D1*
X19645Y13791D1*
X19625Y13782D1*
X19609D1*
X19583Y13760D1*
X19557Y13745D1*
X19529Y13737D1*
X19471Y13734D1*
X17978D1*
X17967Y13704D1*
Y13530D1*
X20157D1*
Y15784D1*
X20097D1*
Y15890D1*
X20028Y15957D1*
X19961Y16024D1*
X19942Y16047D1*
X19929Y16074D1*
X19922Y16097D1*
X19920Y16155D1*
Y16562D1*
X19923Y16592D1*
X19932Y16620D1*
X19944Y16642D1*
X19983Y16684D1*
X20083Y16784D1*
X20097Y16802D1*
Y16953D1*
X20158D1*
X20157Y17687D1*
X20163Y17705D1*
X20417Y17958D1*
X20437Y17967D1*
X20674D1*
X20782Y18074D1*
Y19095D1*
X19530D1*
Y18875D1*
X19515Y18849D1*
X19500Y18845D1*
X16624D1*
X16603Y18853D1*
X14228Y21229D1*
X14220Y21250D1*
Y21453D1*
X13997Y21676D1*
X13985Y21681D1*
X13925D1*
X9372Y13415D2*
X9912D1*
X9313Y13356D2*
X9912D1*
X9254Y13297D2*
X9912D1*
X9210Y13239D2*
X10026D1*
X9210Y13180D2*
X9401D1*
X9210Y13121D2*
X9401D1*
X9210Y13063D2*
X9401D1*
X9210Y13004D2*
X9401D1*
X9210Y12945D2*
X9401D1*
X9210Y12886D2*
X9401D1*
X9210Y12828D2*
X9401D1*
X9210Y12769D2*
X9401D1*
X9210Y12710D2*
X9401D1*
X9210Y12652D2*
X9401D1*
X9210Y12593D2*
X9401D1*
X9210Y12534D2*
X9401D1*
X9210Y12476D2*
X9401D1*
X9210Y12417D2*
X9401D1*
X9210Y12358D2*
X9401D1*
X9210Y12300D2*
X9401D1*
X9210Y12241D2*
X9401D1*
X9210Y12182D2*
X9401D1*
X9210Y12124D2*
X9401D1*
X9210Y12065D2*
X9401D1*
X9210Y12006D2*
X9401D1*
X9210Y11947D2*
X9401D1*
X9210Y11889D2*
X9401D1*
X9210Y11830D2*
X9401D1*
X9210Y11771D2*
X9401D1*
X9210Y11713D2*
X9401D1*
X9210Y11654D2*
X9401D1*
X9210Y11595D2*
X9401D1*
X9210Y11537D2*
X9401D1*
X9210Y11478D2*
X9401D1*
X9210Y11419D2*
X9401D1*
X9210Y11361D2*
X9401D1*
X9210Y11302D2*
X9401D1*
X9210Y11243D2*
X9401D1*
X9210Y11185D2*
X9401D1*
X9210Y11126D2*
X9401D1*
X9210Y11067D2*
X9401D1*
X9210Y11008D2*
X9401D1*
X9210Y10950D2*
X9401D1*
X9210Y10891D2*
X9401D1*
X9210Y10832D2*
X9401D1*
X9210Y10774D2*
X9401D1*
X9210Y10715D2*
X9401D1*
X9210Y10656D2*
X9401D1*
X9210Y10598D2*
X9401D1*
X9210Y10539D2*
X9401D1*
X9210Y10480D2*
X9401D1*
X9210Y10422D2*
X9401D1*
X9210Y10363D2*
X9401D1*
X9210Y10304D2*
X9401D1*
X9210Y10246D2*
X9401D1*
X10033Y13273D2*
X9918D1*
Y13420D1*
X9371D1*
X9204Y13252D1*
Y12982D1*
Y10227D1*
X9286Y10226D1*
Y10216D1*
X9392Y10217D1*
X9407D1*
Y13187D1*
X9422Y13212D1*
X9437Y13217D1*
X10032D1*
Y13272D1*
X9147Y13911D2*
X9963D1*
X9088Y13852D2*
X9963D1*
X9029Y13793D2*
X9913D1*
X8970Y13735D2*
X9913D1*
X8913Y13676D2*
X9221D1*
X8913Y13617D2*
X9160D1*
X8794Y13559D2*
X9102D1*
X8736Y13500D2*
X9043D1*
X8677Y13441D2*
X8984D1*
X8661Y13383D2*
X8932D1*
X8661Y13324D2*
X8914D1*
X8661Y13265D2*
X8913D1*
X8661Y13207D2*
X8913D1*
X8661Y13148D2*
X8913D1*
X8661Y13089D2*
X8913D1*
X8661Y13031D2*
X8913D1*
X8661Y12972D2*
X8913D1*
X8661Y12913D2*
X8913D1*
X8661Y12854D2*
X8913D1*
X8661Y12796D2*
X8913D1*
X8661Y12737D2*
X8913D1*
X8661Y12678D2*
X8913D1*
X8661Y12620D2*
X8913D1*
X8661Y12561D2*
X8913D1*
X8661Y12502D2*
X8913D1*
X8661Y12444D2*
X8913D1*
X8661Y12385D2*
X8913D1*
X8661Y12326D2*
X8913D1*
X8661Y12268D2*
X8913D1*
X8661Y12209D2*
X8913D1*
X8661Y12150D2*
X8913D1*
X8661Y12091D2*
X8913D1*
X8661Y12033D2*
X8913D1*
X8661Y11974D2*
X8913D1*
X8661Y11915D2*
X8913D1*
X8661Y11857D2*
X8913D1*
X8661Y11798D2*
X8913D1*
X8661Y11739D2*
X8913D1*
X8661Y11681D2*
X8913D1*
X8661Y11622D2*
X8913D1*
X8661Y11563D2*
X8913D1*
X8661Y11505D2*
X8913D1*
X8661Y11446D2*
X8913D1*
X8661Y11387D2*
X8913D1*
X8661Y11329D2*
X8913D1*
X8661Y11270D2*
X8913D1*
X8661Y11211D2*
X8913D1*
X8661Y11152D2*
X8913D1*
X8661Y11094D2*
X8913D1*
X8661Y11035D2*
X8913D1*
X8661Y10976D2*
X8913D1*
X8661Y10918D2*
X8913D1*
X8661Y10859D2*
X8913D1*
X8661Y10800D2*
X8913D1*
X8661Y10742D2*
X8913D1*
X8661Y10683D2*
X8913D1*
X8661Y10624D2*
X8913D1*
X8661Y10566D2*
X8913D1*
X8661Y10507D2*
X8913D1*
X8661Y10448D2*
X8913D1*
X8661Y10390D2*
X8913D1*
X8661Y10331D2*
X8913D1*
X8661Y10272D2*
X8913D1*
X8907Y13677D2*
Y13604D1*
X8833D1*
X8720Y13490D1*
X8654Y13424D1*
X8655Y10155D1*
X8669D1*
X8668Y10226D1*
X8921D1*
X8920Y10292D1*
Y13312D1*
X8923Y13342D1*
X8932Y13370D1*
X8944Y13392D1*
X8983Y13434D1*
X9211Y13663D1*
X9235Y13682D1*
X9261Y13695D1*
X9285Y13702D1*
X9342Y13704D1*
X9919D1*
X9918Y13851D1*
X9970D1*
Y13970D1*
X9200D1*
X8907Y13677D1*
X9979Y10515D2*
D25*
X10073D1*
X9979Y10446D2*
X10073D1*
X9979Y10377D2*
X10074D1*
X9979Y10309D2*
X10102D1*
X9979Y10240D2*
X10168D1*
X9979Y10171D2*
X10237D1*
X9979Y10103D2*
X10306D1*
X10021Y10034D2*
X10375D1*
X10090Y9965D2*
X10444D1*
X10159Y9896D2*
X10511D1*
X10228Y9828D2*
X10580D1*
X10297Y9759D2*
X10649D1*
X10365Y9690D2*
X10718D1*
X10433Y9622D2*
X10787D1*
X10502Y9553D2*
X10855D1*
X10571Y9484D2*
X10924D1*
X10640Y9416D2*
X10993D1*
X10708Y9347D2*
X11061D1*
X10777Y9278D2*
X11130D1*
X10846Y9210D2*
X11198D1*
X10915Y9141D2*
X11267D1*
X10984Y9072D2*
X11336D1*
X11051Y9004D2*
X11405D1*
X11120Y8935D2*
X11474D1*
X11189Y8866D2*
X11542D1*
X11258Y8797D2*
X11611D1*
X11327Y8729D2*
X11679D1*
X11395Y8660D2*
X11748D1*
X11464Y8591D2*
X11817D1*
X11533Y8523D2*
X11885D1*
X11602Y8454D2*
X11954D1*
X11671Y8385D2*
X12023D1*
X11738Y8317D2*
X12092D1*
X11807Y8248D2*
X12161D1*
X11876Y8179D2*
X12229D1*
X11945Y8111D2*
X12297D1*
X12014Y8042D2*
X12366D1*
X12082Y7973D2*
X12435D1*
X12151Y7905D2*
X12504D1*
X12220Y7836D2*
X12572D1*
X12288Y7767D2*
X12641D1*
X12357Y7698D2*
X12711D1*
X12425Y7630D2*
X13156D1*
X12494Y7561D2*
X13156D1*
X12563Y7492D2*
X13395D1*
X12632Y7424D2*
X13395D1*
X12701Y7355D2*
X13395D1*
X10079Y10517D2*
X9972D1*
Y10076D1*
X12702Y7347D1*
X13402D1*
Y7517D1*
X13163D1*
Y7652D1*
X12936Y7653D1*
X12912Y7662D1*
X12910Y7665D1*
X12812Y7664D1*
X12777Y7668D1*
X12745Y7680D1*
X12707Y7707D1*
X10123Y10292D1*
X10101Y10320D1*
X10087Y10351D1*
X10080Y10397D1*
Y10518D1*
X10382Y10458D2*
X10734D1*
X10451Y10390D2*
X10803D1*
X10519Y10321D2*
X10872D1*
X10587Y10252D2*
X10941D1*
X10656Y10184D2*
X11009D1*
X10725Y10115D2*
X11077D1*
X10794Y10046D2*
X11146D1*
X10863Y9978D2*
X11215D1*
X10931Y9909D2*
X11281D1*
X11000Y9840D2*
X11281D1*
X11068Y9771D2*
X11281D1*
X11137Y9703D2*
X11490D1*
X11206Y9634D2*
X11559D1*
X11274Y9565D2*
X11628D1*
X11343Y9497D2*
X11695D1*
X11412Y9428D2*
X11764D1*
X11481Y9359D2*
X11833D1*
X11550Y9291D2*
X11902D1*
X11618Y9222D2*
X11971D1*
X11686Y9153D2*
X12039D1*
X11755Y9085D2*
X12108D1*
X11824Y9016D2*
X12177D1*
X11893Y8947D2*
X12246D1*
X11961Y8879D2*
X12314D1*
X12030Y8810D2*
X12382D1*
X12099Y8741D2*
X12451D1*
X12168Y8672D2*
X12520D1*
X12237Y8604D2*
X12589D1*
X12304Y8535D2*
X12658D1*
X12373Y8466D2*
X12726D1*
X12442Y8398D2*
X12795D1*
X12511Y8329D2*
X12864D1*
X12580Y8260D2*
X12932D1*
X12648Y8192D2*
X13001D1*
X12717Y8123D2*
X13323D1*
X12786Y8054D2*
X13157D1*
X12855Y7986D2*
X13157D1*
X10683Y10517D2*
X10582D1*
Y10527D1*
X10542D1*
Y10517D1*
X10374D1*
X10375Y10459D1*
X10728Y10105D1*
X12874Y7959D1*
X13092Y7960D1*
X13163D1*
Y8107D1*
X13330D1*
Y8152D1*
X13061Y8153D1*
X13037Y8162D1*
X11432Y9767D1*
X11288D1*
Y9911D1*
X10909Y10291D1*
X10682Y10517D1*
X14468Y7765D2*
X18624D1*
X14468Y7696D2*
X18624D1*
X14468Y7627D2*
X18624D1*
X14468Y7559D2*
X14770D1*
X18354D2*
X18624D1*
X13354Y7490D2*
X14770D1*
X18354D2*
X18624D1*
X13354Y7421D2*
X14770D1*
X18354D2*
X18624D1*
X13354Y7353D2*
X14770D1*
X18354D2*
X18624D1*
X18354Y7284D2*
X18624D1*
X18354Y7215D2*
X18624D1*
X18354Y7146D2*
X18624D1*
X18354Y7078D2*
X18624D1*
X18354Y7009D2*
X18624D1*
X18354Y6940D2*
X18624D1*
X18354Y6872D2*
X18624D1*
X18354Y6803D2*
X18624D1*
X18354Y6734D2*
X18624D1*
X18354Y6666D2*
X18624D1*
X18354Y6597D2*
X18624D1*
X18354Y6528D2*
X18624D1*
X18354Y6460D2*
X18624D1*
X18354Y6391D2*
X18624D1*
X18354Y6322D2*
X18624D1*
X18354Y6254D2*
X18624D1*
X18354Y6185D2*
X18624D1*
X18354Y6116D2*
X18624D1*
X18354Y6047D2*
X18624D1*
X18354Y5979D2*
X18624D1*
X13792Y7527D2*
Y7517D1*
X13347D1*
Y7347D1*
X14777D1*
Y7562D1*
X14794Y7592D1*
X14812Y7597D1*
X18312D1*
X18342Y7580D1*
X18347Y7562D1*
Y5972D1*
X18632D1*
Y6422D1*
Y7790D1*
X18430Y7789D1*
X14460D1*
X14461Y7517D1*
X13832D1*
Y7527D1*
X13792D1*
X18229Y8708D2*
X18379D1*
X18229Y8640D2*
X18379D1*
X18229Y8571D2*
X18379D1*
X18229Y8502D2*
X18379D1*
X18229Y8434D2*
X18379D1*
X18229Y8365D2*
X18624D1*
X18225Y8296D2*
X18624D1*
X14229Y8228D2*
X18624D1*
X14229Y8159D2*
X18624D1*
X14468Y8090D2*
X18624D1*
X18631Y8419D2*
X18386D1*
Y8777D1*
X18222D1*
Y8312D1*
X18205Y8282D1*
X18187Y8277D1*
X14222D1*
Y8107D1*
X14461D1*
X14462Y8085D1*
X18632D1*
Y8419D1*
X18934Y8365D2*
X19145D1*
X18934Y8296D2*
X19145D1*
X18934Y8228D2*
X19145D1*
X18934Y8159D2*
X19145D1*
X18934Y8090D2*
X19145D1*
X18934Y8021D2*
X19145D1*
X18934Y7953D2*
X19145D1*
X18934Y7884D2*
X19145D1*
X18934Y7815D2*
X19145D1*
X18934Y7747D2*
X19145D1*
X18934Y7678D2*
X19145D1*
X18934Y7609D2*
X19145D1*
X18934Y7541D2*
X19145D1*
X18934Y7472D2*
X19145D1*
X18934Y7403D2*
X19145D1*
X18934Y7335D2*
X19145D1*
X18934Y7266D2*
X19145D1*
X18934Y7197D2*
X19145D1*
X18934Y7129D2*
X19145D1*
X18934Y7060D2*
X19145D1*
X18934Y6991D2*
X19145D1*
X18934Y6922D2*
X19145D1*
X18934Y6854D2*
X19145D1*
X18934Y6785D2*
X19145D1*
X18934Y6716D2*
X19145D1*
X18934Y6648D2*
X19145D1*
X18934Y6579D2*
X19145D1*
X18934Y6510D2*
X19145D1*
X18934Y6442D2*
X19145D1*
X18934Y6373D2*
X19145D1*
X18934Y6304D2*
X19145D1*
X18934Y6236D2*
X19145D1*
X18934Y6167D2*
X19145D1*
X18934Y6098D2*
X19145D1*
X18934Y6030D2*
X19145D1*
X19152Y8419D2*
X18927D1*
Y8077D1*
Y5972D1*
X19152D1*
Y8419D1*
X8354Y10333D2*
X8770D1*
X8354Y10265D2*
X8770D1*
X8354Y10196D2*
X8657D1*
X8354Y10127D2*
X8657D1*
X8354Y10059D2*
X8657D1*
X8354Y9990D2*
X8657D1*
X8354Y9921D2*
X8657D1*
X8354Y9853D2*
X8657D1*
X8354Y9784D2*
X8631D1*
X8354Y9715D2*
X8625D1*
X8354Y9646D2*
X8625D1*
X8354Y9578D2*
X8625D1*
X8354Y9509D2*
X8625D1*
X8354Y9440D2*
X8625D1*
X8354Y9372D2*
X8625D1*
X8354Y9303D2*
X8625D1*
X8354Y9234D2*
X8625D1*
X8354Y8410D2*
X8625D1*
X8354Y8341D2*
X8625D1*
X8354Y8273D2*
X8625D1*
X8354Y8204D2*
X8625D1*
X8354Y8135D2*
X8625D1*
X8354Y8067D2*
X8625D1*
X8354Y7998D2*
X8625D1*
X8354Y7929D2*
X8625D1*
X8354Y7861D2*
X8625D1*
X8354Y7792D2*
X8625D1*
X8354Y7723D2*
X8625D1*
X8354Y7655D2*
X8625D1*
X8354Y7586D2*
X8625D1*
X8354Y7517D2*
X8625D1*
X8354Y7448D2*
X8625D1*
X8354Y7380D2*
X8625D1*
X8354Y7311D2*
X8625D1*
X8354Y7242D2*
X8625D1*
X8354Y7174D2*
X8625D1*
X8354Y7105D2*
X8625D1*
X8354Y7036D2*
X8625D1*
X8354Y6968D2*
X8625D1*
X8354Y6899D2*
X8625D1*
X8354Y6830D2*
X8625D1*
X8354Y6762D2*
X8625D1*
X8354Y6693D2*
X8625D1*
X8354Y6624D2*
X8625D1*
X8354Y6556D2*
X8625D1*
X8354Y6487D2*
X8625D1*
X8354Y6418D2*
X8625D1*
X8354Y6349D2*
X8625D1*
X8354Y6281D2*
X8625D1*
X8354Y6212D2*
X8625D1*
X8354Y6143D2*
X8625D1*
X8354Y6075D2*
X8625D1*
X8354Y6006D2*
X8625D1*
X8421Y9205D2*
X8633D1*
X8632Y9547D1*
Y9739D1*
X8636Y9774D1*
X8649Y9809D1*
X8663Y9852D1*
Y10232D1*
X8778D1*
X8777Y10402D1*
X8347D1*
Y5972D1*
X8632D1*
Y6422D1*
Y8418D1*
X8386Y8419D1*
Y9205D1*
X8421D1*
X8934Y9640D2*
X9208D1*
X8934Y9571D2*
X9208D1*
X8934Y9502D2*
X9208D1*
X8934Y9434D2*
X9208D1*
X8934Y9365D2*
X9208D1*
X8934Y9296D2*
X9208D1*
X8934Y9228D2*
X9208D1*
X9179Y9159D2*
X9207D1*
X9179Y9090D2*
X9207D1*
X9179Y9021D2*
X9207D1*
X9179Y8953D2*
X9207D1*
X9179Y8884D2*
X9207D1*
X9179Y8815D2*
X9207D1*
X9179Y8747D2*
X9207D1*
X9179Y8678D2*
X9207D1*
X9179Y8609D2*
X9207D1*
X9179Y8541D2*
X9207D1*
X9179Y8472D2*
X9207D1*
X8934Y8403D2*
X9208D1*
X8934Y8335D2*
X9208D1*
X8934Y8266D2*
X9208D1*
X8934Y8197D2*
X9208D1*
X8934Y8129D2*
X9208D1*
X8934Y8060D2*
X9208D1*
X8934Y7991D2*
X9208D1*
X8934Y7922D2*
X9208D1*
X8934Y7854D2*
X9208D1*
X8934Y7785D2*
X9208D1*
X8934Y7716D2*
X9208D1*
X8934Y7648D2*
X9208D1*
X8934Y7579D2*
X9208D1*
X8934Y7510D2*
X9208D1*
X8934Y7442D2*
X9208D1*
X8934Y7373D2*
X9208D1*
X8934Y7304D2*
X9208D1*
X8934Y7236D2*
X9208D1*
X8934Y7167D2*
X9208D1*
X8934Y7098D2*
X9208D1*
X8934Y7030D2*
X9208D1*
X8934Y6961D2*
X9208D1*
X8934Y6892D2*
X9208D1*
X8934Y6823D2*
X9208D1*
X8934Y6755D2*
X9208D1*
X8934Y6686D2*
X9208D1*
X8934Y6617D2*
X9208D1*
X8934Y6549D2*
X9208D1*
X8934Y6480D2*
X9208D1*
X8934Y6411D2*
X9208D1*
X8934Y6343D2*
X9208D1*
X8934Y6274D2*
X9208D1*
X8934Y6205D2*
X9208D1*
X8934Y6137D2*
X9208D1*
X8934Y6068D2*
X9208D1*
X8934Y5999D2*
X9208D1*
X8928Y9205D2*
X9173D1*
Y8419D1*
X8927D1*
Y8077D1*
Y5972D1*
X9215D1*
Y9642D1*
X8927D1*
Y9204D1*
D27*
X15187Y31834D3*
Y31165D3*
D28*
X14522Y29062D3*
X13852D3*
X11772Y28312D3*
X11102D3*
X13147D3*
X12477D3*
X15227D3*
X15897D3*
X11727Y27564D3*
X12397D3*
X15897Y27562D3*
X15227D3*
X16602Y27312D3*
X17272D3*
X18647D3*
X17977D3*
X10625Y24187D3*
X9955D3*
D27*
X16876Y23251D3*
Y22582D3*
D28*
X12251Y21126D3*
X12920D3*
X21272Y17493D3*
X20602D3*
D29*
X8500Y17301D3*
X7397D3*
D28*
X12272Y17312D3*
X11602D3*
X15352D3*
X16022D3*
D30*
X5823Y16227D3*
Y15125D3*
D28*
X20602Y15243D3*
X21272D3*
X14187Y14937D3*
X13518D3*
X10227Y14312D3*
X10897D3*
D29*
X7397Y14051D3*
X8500D3*
D28*
X16022Y14062D3*
X15352D3*
X12272Y13562D3*
X11602D3*
X16022Y13272D3*
X15352D3*
X18102Y12937D3*
X18772D3*
X10897Y12312D3*
X10227D3*
X16022D3*
X15352D3*
X17397D3*
X16727D3*
X18062Y12187D3*
X18731D3*
X11597Y11562D3*
X12267D3*
X14147Y10812D3*
X13477D3*
Y10062D3*
X14147D3*
X13477Y9312D3*
X14147D3*
D31*
X8687Y23437D3*
D33*
Y22437D3*
X7687Y23437D3*
Y22437D3*
X6687Y23437D3*
Y22437D3*
D34*
X11437Y29893D3*
Y31231D3*
D35*
X20713Y25312D3*
X20161D3*
D36*
X10187Y31937D3*
Y30323D3*
D37*
X13803Y30633D3*
X14059D3*
X14315D3*
X14571D3*
Y32366D3*
X14315D3*
X14059D3*
X13803D3*
D39*
X16701Y28405D3*
X16858D3*
X17016D3*
X17173D3*
D40*
X17234Y28608D3*
Y28766D3*
D39*
X17173Y28969D3*
X17016D3*
X16858D3*
X16701D3*
D40*
X16640Y28766D3*
Y28608D3*
D42*
X11535Y25947D3*
Y25632D3*
Y25317D3*
Y25002D3*
Y24687D3*
Y24372D3*
Y24057D3*
Y23742D3*
Y23427D3*
Y23112D3*
Y22797D3*
D43*
X12205Y22128D3*
X12520D3*
X12835D3*
X13150D3*
X13465D3*
X13780D3*
X14094D3*
X14409D3*
X14724D3*
X15039D3*
X15354D3*
D42*
X16024Y22797D3*
Y23112D3*
Y23427D3*
Y23742D3*
Y24057D3*
Y24372D3*
Y24687D3*
Y25002D3*
Y25317D3*
Y25632D3*
Y25947D3*
D43*
X15354Y26616D3*
X15039D3*
X14724D3*
X14409D3*
X14094D3*
X13780D3*
X13465D3*
X13150D3*
X12835D3*
X12520D3*
X12205D3*
D44*
X14580Y18079D3*
X14324D3*
X14068D3*
X13812D3*
X13556D3*
X13300D3*
X13044D3*
Y15795D3*
X13300D3*
X13556D3*
X13812D3*
X14068D3*
X14324D3*
X14580D3*
D46*
X20406Y16742D3*
Y16368D3*
Y15994D3*
X21469D3*
Y16742D3*
D47*
X6885Y16426D3*
Y15926D3*
Y15426D3*
Y14926D3*
X9011D3*
Y15426D3*
Y15926D3*
Y16426D3*
D48*
X17043Y13876D3*
X17240D3*
X17437D3*
X17634D3*
X17831D3*
D49*
X18185Y14231D3*
Y14428D3*
Y14625D3*
Y14821D3*
Y15018D3*
D48*
X17831Y15373D3*
X17634D3*
X17437D3*
X17240D3*
X17043D3*
D49*
X16689Y15018D3*
Y14821D3*
Y14625D3*
Y14428D3*
Y14231D3*
D50*
X17437Y14625D3*
D51*
X12937Y11874D3*
X13187D3*
X13437D3*
X13687D3*
X13937D3*
X14187D3*
X14437D3*
X14687D3*
Y14000D3*
X14437D3*
X14187D3*
X13937D3*
X13687D3*
X13437D3*
X13187D3*
X12937D3*
D52*
X18780Y30562D3*
D54*
X17795D3*
D55*
X20787Y32570D3*
X16772D3*
D57*
X9291Y33952D3*
X9035D3*
X8780D3*
X8524D3*
X8268D3*
D58*
X7520D3*
X10039D3*
D59*
X9252Y35005D3*
X8307D3*
D60*
X10079D3*
X7480D3*
D62*
X17780Y34377D3*
X18780D3*
X19780D3*
D52*
X19937Y23937D3*
D54*
Y22937D3*
Y21937D3*
Y20937D3*
D52*
X20937Y23937D3*
D54*
Y22937D3*
Y21937D3*
Y20937D3*
D52*
X8780Y8812D3*
D54*
X9764D3*
D55*
X6772Y6804D3*
X10787D3*
D52*
X18780Y8812D3*
D54*
X19764D3*
D55*
X16772Y6804D3*
X20787D3*
D62*
X9780Y4987D3*
X8780D3*
X7780D3*
X19780D3*
X18780D3*
X17780D3*
D63*
X5688Y32811D3*
X6436D3*
X9937Y26125D3*
X10685D3*
D28*
X12477Y31252D3*
X13147D3*
X12477Y30562D3*
X13147D3*
X14522Y29815D3*
X13852D3*
X13147Y29812D3*
X12477D3*
X11102Y29062D3*
X11772D3*
X12477D3*
X13147D3*
X15897D3*
X15227D3*
X14522Y28312D3*
X13852D3*
X17977Y26562D3*
X18647D3*
X9977Y25437D3*
X10647D3*
X19522Y25312D3*
X18852D3*
X9977Y24812D3*
X10647D3*
X12272Y16537D3*
X11602D3*
X16022D3*
X15352D3*
X11602Y15812D3*
X12272D3*
X16022D3*
X15352D3*
X11602Y14312D3*
X12272D3*
X10227Y13562D3*
X10897D3*
X11602Y12312D3*
X12272D3*
X10897Y11562D3*
X10227D3*
X16022D3*
X15352D3*
X16727D3*
X17397D3*
X10897Y10812D3*
X10227D3*
X11602D3*
X12272D3*
X16022D3*
X15352D3*
X17397D3*
X16727D3*
X12272Y10062D3*
X11602D3*
X15352D3*
X16022D3*
X13477Y7812D3*
X14147D3*
D31*
X12926Y34687D3*
D33*
X14698D3*
D65*
X12434Y33703D3*
X15190D3*
D54*
X7000Y30752D3*
D67*
X21724Y19486D3*
X20150D3*
Y18501D3*
X21724D3*
D28*
X7665Y32812D3*
X8334D3*
X10209D3*
X9540D3*
X17977Y29062D3*
X18647D3*
X9647Y9937D3*
X8977D3*
X14147Y8562D3*
X13477D3*
D68*
X17688Y27940D3*
M02*
