G04 DipTrace 2.4.0.1*
%INtsunami.back.gbl*%
%MOIN*%
%ADD14C,0.01*%
%ADD15C,0.02*%
%ADD26R,0.0591X0.0591*%
%ADD28C,0.0591*%
%ADD34C,0.0236*%
%ADD44C,0.1299*%
%FSLAX44Y44*%
G04*
G70*
G90*
G75*
G01*
%LNBottom*%
%LPD*%
X13187Y14937D2*
D15*
X9687D1*
X18437Y17562D2*
D14*
Y22125D1*
X18187Y17750D2*
Y22312D1*
X13062Y16375D2*
Y22062D1*
X12437Y22687D1*
X11937Y19562D2*
Y22562D1*
X13062Y23687D1*
X13187D1*
X17000Y26406D2*
Y25250D1*
X15437Y23687D1*
X13187D1*
X17437Y22125D2*
Y17500D1*
X17687Y22312D2*
Y17750D1*
X17937Y22125D2*
Y17562D1*
X8687Y23437D2*
X8937D1*
X9062Y23312D1*
X10812D1*
X10937Y23187D1*
Y22437D1*
X13562Y20187D2*
Y16937D1*
X17687D1*
X7687Y22437D2*
X8187Y22937D1*
X10562D1*
X10687Y23062D1*
X16437Y15312D2*
Y12687D1*
X16687Y15562D2*
X16312D1*
X16187Y15437D1*
Y12875D1*
X16000Y12687D1*
X13937D1*
X14062Y29562D2*
Y25437D1*
X11562Y22937D1*
Y21312D1*
X10562Y20312D1*
Y15437D1*
X10937Y21562D2*
X10187D1*
X17687Y16562D2*
X13312D1*
Y19937D1*
X17312Y15812D2*
X22937D1*
X13812Y26062D2*
Y25812D1*
X11187Y23187D1*
Y21437D1*
X10187Y20437D1*
Y17687D1*
D34*
X14562Y10812D3*
X18062Y11937D3*
X11312Y16187D3*
X9937Y18937D3*
X14562D3*
X9011Y16789D3*
X11750Y32750D3*
X12437Y20937D3*
X20562Y14937D3*
X9562Y26562D3*
X15812Y27937D3*
X12062Y25562D3*
X16625Y27687D3*
X11081Y24062D3*
X16812Y13312D3*
X13187Y14937D3*
X9687D3*
X18437Y17562D3*
Y22125D3*
X18187Y17750D3*
Y22312D3*
X13062Y16375D3*
X12437Y22687D3*
X11937Y19562D3*
X13187Y23687D3*
X17000Y26406D3*
X13062Y10812D3*
X11937Y13937D3*
X11187Y15437D3*
X14562Y14937D3*
X15352Y13687D3*
X17812Y10812D3*
X18772Y12687D3*
X11312Y16937D3*
X9937Y18312D3*
X12812Y18937D3*
X7687Y15687D3*
X17062Y16062D3*
X8687Y18687D3*
X9562Y24187D3*
X16876Y22187D3*
X5688Y34688D3*
X10000Y34318D3*
X7062Y32812D3*
X10812D3*
X12437Y28687D3*
X15062Y27937D3*
X13312Y27562D3*
X16125Y29062D3*
X17584Y26937D3*
X20750Y24687D3*
X17437Y22125D3*
Y17500D3*
X17687Y22312D3*
Y17750D3*
X17937Y22125D3*
Y17562D3*
X10937Y22437D3*
X13562Y20187D3*
X17687Y16937D3*
X13562D3*
X10687Y23062D3*
X16437Y12687D3*
Y15312D3*
X13937Y12687D3*
X16687Y15562D3*
X14062Y29562D3*
X10562Y15437D3*
X10937Y21562D3*
X10187D3*
X17687Y16562D3*
X13312Y19937D3*
Y16562D3*
X17312Y15812D3*
X22937D3*
X13812Y26062D3*
X10187Y17687D3*
X15875Y19437D3*
X13500Y21562D3*
X14062Y21375D3*
X16562Y18750D3*
X19562Y18687D3*
X16250Y18187D3*
X19375D3*
X20062Y17937D3*
X19375Y14125D3*
X20000Y13625D3*
X15187Y20125D3*
X14750Y19687D3*
X14625Y20687D3*
X14187Y20250D3*
X13625Y20812D3*
X15437Y19000D3*
X17187Y18187D3*
Y18687D3*
X18750D3*
Y18187D3*
X19375Y16312D3*
Y17250D3*
Y15312D3*
X20000D3*
X18062Y13625D3*
X9750Y13312D3*
Y13812D3*
X9312Y13062D3*
X8812D3*
Y10312D3*
X9312D3*
X8812Y11812D3*
X9312D3*
X10125Y10375D3*
X10625D3*
X12062Y8875D3*
Y8375D3*
X11187Y9687D3*
X10812Y9312D3*
X18250Y8875D3*
Y8375D3*
X15187Y8875D3*
Y8375D3*
X16750Y8875D3*
Y8375D3*
X13562Y8875D3*
Y8375D3*
D26*
X8687Y23437D3*
D28*
Y22437D3*
X7687Y23437D3*
Y22437D3*
X6687Y23437D3*
Y22437D3*
D26*
X18780Y30562D3*
D28*
X17795D3*
D44*
X20787Y32570D3*
X16772D3*
D26*
X19437Y23937D3*
D28*
Y22937D3*
Y21937D3*
Y20937D3*
D26*
X21437Y23937D3*
D28*
Y22937D3*
Y21937D3*
Y20937D3*
D26*
X8780Y8812D3*
D28*
X9764D3*
D44*
X6772Y6804D3*
X10787D3*
D26*
X18780Y8812D3*
D28*
X19764D3*
D44*
X16772Y6804D3*
X20787D3*
D28*
X14062Y33877D3*
M02*
