G04 DipTrace 2.4.0.1*
%INtsunami.frontpaste.gtp*%
%MOIN*%
%ADD70R,0.059X0.0472*%
%ADD79R,0.0472X0.0551*%
%ADD81R,0.0558X0.1558*%
%ADD86R,0.0708X0.059*%
%ADD87R,0.067X0.0591*%
%ADD88R,0.059X0.0511*%
%ADD90R,0.0117X0.0491*%
%ADD96R,0.0098X0.0669*%
%ADD98R,0.0925X0.0925*%
%ADD100O,0.0295X0.0078*%
%ADD102O,0.0078X0.0295*%
%ADD104R,0.0747X0.0196*%
%ADD106R,0.0393X0.0196*%
%ADD108R,0.0117X0.0669*%
%ADD110R,0.0157X0.0669*%
%ADD112R,0.0669X0.0157*%
%ADD114R,0.0196X0.0393*%
%ADD116R,0.0114X0.0043*%
%ADD118R,0.0043X0.0143*%
%ADD120R,0.1299X0.059*%
%ADD122R,0.0354X0.0472*%
%ADD124R,0.0216X0.0373*%
%ADD130R,0.059X0.0669*%
%ADD132R,0.0354X0.0393*%
%ADD134R,0.0393X0.0354*%
%FSLAX44Y44*%
G04*
G70*
G90*
G75*
G01*
%LNTopPaste*%
%LPD*%
D134*
X15227Y28312D3*
X15897D3*
D132*
X15187Y30772D3*
Y30102D3*
D134*
X14522Y29062D3*
X13852D3*
X11772D3*
X11102D3*
X13147Y28312D3*
X12477D3*
X18647Y27562D3*
X17977D3*
X11727Y27564D3*
X12397D3*
X15897Y27562D3*
X15227D3*
X10625Y24187D3*
X9955D3*
D132*
X16876Y23251D3*
Y22582D3*
D134*
X12251Y21126D3*
X12920D3*
X21272Y17493D3*
X20602D3*
D130*
X8500Y17301D3*
X7397D3*
D134*
X12272Y17312D3*
X11602D3*
X15352D3*
X16022D3*
D87*
X5823Y16227D3*
Y15125D3*
D134*
X20602Y15243D3*
X21272D3*
X14187Y14937D3*
X13518D3*
X10227Y14312D3*
X10897D3*
D130*
X7397Y14051D3*
X8500D3*
D134*
X16022Y14062D3*
X15352D3*
X12272Y13562D3*
X11602D3*
X16022Y13272D3*
X15352D3*
X18102Y12937D3*
X18772D3*
X10897Y12312D3*
X10227D3*
X16022D3*
X15352D3*
X17397D3*
X16727D3*
X18062Y12187D3*
X18731D3*
X11597Y11562D3*
X12267D3*
X14147Y10812D3*
X13477D3*
Y10062D3*
X14147D3*
X13477Y9312D3*
X14147D3*
X16602Y27562D3*
X17272D3*
D124*
X10436Y28765D3*
X9688D3*
X10062Y27859D3*
D122*
X20713Y25312D3*
X20161D3*
D120*
X10187Y31937D3*
Y30323D3*
D118*
X16701Y28405D3*
X16858D3*
X17016D3*
X17173D3*
D116*
X17234Y28608D3*
Y28766D3*
D118*
X17173Y28969D3*
X17016D3*
X16858D3*
X16701D3*
D116*
X16640Y28766D3*
Y28608D3*
D114*
X14561Y30969D3*
X14187D3*
X13813D3*
Y29906D3*
X14561D3*
D112*
X11535Y25947D3*
Y25632D3*
Y25317D3*
Y25002D3*
Y24687D3*
Y24372D3*
Y24057D3*
Y23742D3*
Y23427D3*
Y23112D3*
Y22797D3*
D110*
X12205Y22128D3*
X12520D3*
X12835D3*
X13150D3*
X13465D3*
X13780D3*
X14094D3*
X14409D3*
X14724D3*
X15039D3*
X15354D3*
D112*
X16024Y22797D3*
Y23112D3*
Y23427D3*
Y23742D3*
Y24057D3*
Y24372D3*
Y24687D3*
Y25002D3*
Y25317D3*
Y25632D3*
Y25947D3*
D110*
X15354Y26616D3*
X15039D3*
X14724D3*
X14409D3*
X14094D3*
X13780D3*
X13465D3*
X13150D3*
X12835D3*
X12520D3*
X12205D3*
D108*
X14580Y18079D3*
X14324D3*
X14068D3*
X13812D3*
X13556D3*
X13300D3*
X13044D3*
Y15795D3*
X13300D3*
X13556D3*
X13812D3*
X14068D3*
X14324D3*
X14580D3*
D106*
X20406Y16742D3*
Y16368D3*
Y15994D3*
X21469D3*
Y16742D3*
D104*
X6885Y16426D3*
Y15926D3*
Y15426D3*
Y14926D3*
X9011D3*
Y15426D3*
Y15926D3*
Y16426D3*
D102*
X17043Y13876D3*
X17240D3*
X17437D3*
X17634D3*
X17831D3*
D100*
X18185Y14231D3*
Y14428D3*
Y14625D3*
Y14821D3*
Y15018D3*
D102*
X17831Y15373D3*
X17634D3*
X17437D3*
X17240D3*
X17043D3*
D100*
X16689Y15018D3*
Y14821D3*
Y14625D3*
Y14428D3*
Y14231D3*
D98*
X17437Y14625D3*
D96*
X12937Y11874D3*
X13187D3*
X13437D3*
X13687D3*
X13937D3*
X14187D3*
X14437D3*
X14687D3*
Y14000D3*
X14437D3*
X14187D3*
X13937D3*
X13687D3*
X13437D3*
X13187D3*
X12937D3*
D90*
X9291Y33952D3*
X9035D3*
X8780D3*
X8524D3*
X8268D3*
D88*
X7520D3*
X10039D3*
D86*
X9252Y35005D3*
X8307D3*
D81*
X17780Y34377D3*
X18780D3*
X19780D3*
X9780Y4987D3*
X8780D3*
X7780D3*
X19780D3*
X18780D3*
X17780D3*
D79*
X5688Y32811D3*
X6436D3*
X9937Y26125D3*
X10685D3*
D134*
X15897Y29062D3*
X15227D3*
X12477Y30562D3*
X13147D3*
Y29812D3*
X12477D3*
Y29062D3*
X13147D3*
X14522Y28312D3*
X13852D3*
X11102D3*
X11772D3*
X17977Y26812D3*
X18647D3*
X9977Y25437D3*
X10647D3*
X19522Y25312D3*
X18852D3*
X9977Y24812D3*
X10647D3*
X12272Y16537D3*
X11602D3*
X16022D3*
X15352D3*
X11602Y15812D3*
X12272D3*
X16022D3*
X15352D3*
X11602Y14312D3*
X12272D3*
X10227Y13562D3*
X10897D3*
X11602Y12312D3*
X12272D3*
X10897Y11562D3*
X10227D3*
X16022D3*
X15352D3*
X16727D3*
X17397D3*
X10897Y10812D3*
X10227D3*
X11602D3*
X12272D3*
X16022D3*
X15352D3*
X17397D3*
X16727D3*
X12272Y10062D3*
X11602D3*
X15352D3*
X16022D3*
X13477Y7812D3*
X14147D3*
D70*
X21724Y19486D3*
X20150D3*
Y18501D3*
X21724D3*
D134*
X7477Y32812D3*
X8147D3*
X10397D3*
X9727D3*
X17977Y29062D3*
X18647D3*
X9647Y9937D3*
X8977D3*
X14147Y8562D3*
X13477D3*
M02*
