<?xml version="1.0" encoding="UTF-8" standalone="no"?>
<!-- Created with Inkscape (http://www.inkscape.org/) -->

<svg
   xmlns:dc="http://purl.org/dc/elements/1.1/"
   xmlns:cc="http://creativecommons.org/ns#"
   xmlns:rdf="http://www.w3.org/1999/02/22-rdf-syntax-ns#"
   xmlns:svg="http://www.w3.org/2000/svg"
   xmlns="http://www.w3.org/2000/svg"
   xmlns:sodipodi="http://sodipodi.sourceforge.net/DTD/sodipodi-0.dtd"
   xmlns:inkscape="http://www.inkscape.org/namespaces/inkscape"
   id="svg3004"
   version="1.1"
   inkscape:version="0.91 r13725"
   width="283.46457"
   height="177.16534"
   xml:space="preserve"
   sodipodi:docname="tsunami back.svg"
   inkscape:export-filename="/Users/nickjohnson/Google Drive/projects/tsunami/schematics/tsunami back.png"
   inkscape:export-xdpi="300.17001"
   inkscape:export-ydpi="300.17001"><metadata
     id="metadata3010"><rdf:RDF><cc:Work
         rdf:about=""><dc:format>image/svg+xml</dc:format><dc:type
           rdf:resource="http://purl.org/dc/dcmitype/StillImage" /><dc:title /></cc:Work></rdf:RDF></metadata><defs
     id="defs3008"><clipPath
       clipPathUnits="userSpaceOnUse"
       id="clipPath3018"><path
         d="m 0,459 678.999,0 0,-459 L 0,0 0,459 z"
         id="path3020"
         inkscape:connector-curvature="0" /></clipPath><clipPath
       id="clipPath3923"
       clipPathUnits="userSpaceOnUse"><path
         id="path3925"
         d="m 0,459 678.999,0 0,-459 L 0,0 0,459 z" /></clipPath></defs><sodipodi:namedview
     pagecolor="#ffffff"
     bordercolor="#666666"
     borderopacity="1"
     objecttolerance="10"
     gridtolerance="10"
     guidetolerance="10"
     inkscape:pageopacity="0"
     inkscape:pageshadow="2"
     inkscape:window-width="1440"
     inkscape:window-height="852"
     id="namedview3006"
     showgrid="false"
     units="mm"
     inkscape:document-units="mm"
     fit-margin-top="0"
     fit-margin-left="0"
     fit-margin-right="0"
     fit-margin-bottom="0"
     inkscape:zoom="2.7826272"
     inkscape:cx="311.18835"
     inkscape:cy="-13.187322"
     inkscape:window-x="0"
     inkscape:window-y="0"
     inkscape:window-maximized="1"
     inkscape:current-layer="g3012" /><g
     id="g3012"
     inkscape:groupmode="layer"
     inkscape:label="Tsunami"
     transform="matrix(1.25,0,0,-1.25,-314.08812,413.31359)"><g
       id="g3050"
       transform="matrix(-1.2413683,0,0,1.2413683,476.64481,264.29572)"
       inkscape:export-filename="/Users/arachnid/Google Drive/projects/tsunami/schematics/Tsunami background.png"
       inkscape:export-xdpi="300.17001"
       inkscape:export-ydpi="300.17001"><path
         d="m 0,0 c 1.482,-1.021 3.289,0.031 4.826,-0.306 1.395,-0.303 2.567,-1.834 3.975,-2.124 4.043,-0.836 8.068,0.21 12.01,1.814 6.619,2.691 14.267,9.988 19.269,18.226 2.358,3.883 6.721,6.532 9.883,7.587 2.699,3.797 6.078,5.833 9.213,8.16 6.951,5.164 14.138,9.87 21.412,13.631 6.488,3.354 12.568,4.693 19.258,4.646 3.422,-0.025 6.789,2.081 10.482,1.792 4.106,-0.321 9.09,-0.159 12.92,-2.77 2.842,-1.936 5.922,-2.414 8.84,-3.842 2.248,-1.099 5.267,-2.114 7.141,-4.04 2.437,-2.505 5.361,-2.941 7.808,-5.413 4.746,-4.788 -1.564,-3.986 -1.693,-5.181 1.07,-3.006 3.742,-2.493 4.994,-5.162 2.363,-5.04 -3.867,-1.658 -3.574,-1.518 -1.291,-0.216 -0.625,-2.781 -0.244,-3.794 1.037,-2.749 3.908,-0.967 5.355,-0.278 3.621,1.721 6.531,-1.89 10.127,-2.378 1.527,-0.21 3.137,-0.07 4.641,-0.697 2.873,-1.203 0.306,-3.821 1.697,-6.515 1.389,-0.995 3.576,-1.293 4.517,-3.668 0.877,-2.212 1.782,-1.704 2.932,-3.862 1.516,-2.853 1.4,-7.665 -1.228,-7.86 -3.047,-0.226 -0.352,3.201 -2.247,4.765 -1.572,0.306 -3.64,-0.059 -4.189,-3.25 -1.049,-6.062 4.887,-3.101 5.609,-8.591 1.11,-8.442 -5.802,1.425 -5.963,-4.251 2.598,-1.574 1.768,-6.212 -0.494,-7.313 -1.201,-0.585 -2.4,0.148 -3.197,1.849 -1.074,-1.52 -2.578,-2.04 -3.91,-2.073 -1.496,-0.034 -2.176,-0.161 -2.4,2.238 -0.155,1.629 -3.061,0.657 -3.887,1.271 -3.078,2.282 2.021,3.67 1.965,5.243 -1.332,0.274 -5.811,0.078 -3.69,4.554 -1.447,-0.273 -2.793,-1.827 -4.26,-0.607 0.215,-3.074 -1.375,-4.307 -2.777,-4.803 -2.666,-0.941 -1.996,4.047 -3.934,3.052 -1.804,-0.927 -3.687,-2.446 -5.47,-0.183 -3.158,4.005 1.845,2.262 1.394,4.968 -1.205,-0.173 -2.369,0.073 -3.336,1.442 -1.289,1.825 0.448,2.814 -0.072,3.418 -2.111,-0.359 -4,-2.247 -6.092,-2.767 -2.662,-0.659 -3.482,0.776 -5.965,-2.014 -1.771,-1.995 -2.953,-4.379 -2.722,-8.315 0.285,-4.85 -2.377,-6.975 -2.174,-11.761 0.592,-14.011 10.916,-30.254 17.807,-34.041 l -107.024,0 c 0.975,0.661 0.053,3.122 1.137,3.642 -0.385,0.697 -0.858,0.9 -1.42,0.607 1.762,1.402 3.65,-5.484 3.689,0.608 1.344,0.909 2.29,0.301 2.84,-1.823 2.467,3.815 -6.634,3.103 -7.236,2.986 -1.807,-0.355 -3.861,-0.08 -5.539,1.266 -0.141,4.586 4.342,5.099 3.691,1.821 3.475,2.204 -4.396,6.974 -3.691,2.428 -0.422,8.947 -7.871,1.681 -9.934,1.216 -2.045,-0.458 -3.748,0.506 -5.677,1.519 0.306,5 -2.213,1.871 -2.272,2.731 0.469,1.458 2.217,0.162 2.557,1.822 -0.571,1.391 -2.287,2.422 -3.125,1.215 0.013,-0.096 3.636,2.706 3.125,-2.735 2.566,-2.235 1.035,4.56 1.134,5.162 2.995,1.591 3.502,-0.602 3.973,-4.249 2.039,-0.668 1.287,2.885 1.703,4.858 2.584,0.396 1.512,-1.865 2.764,2.206 0.725,2.348 4.65,0.103 3.482,-2.815 2.76,2.512 -2.488,3.721 -2.271,6.376 0.318,-0.353 0.508,-0.86 0.568,-1.518 1.069,0.011 0.094,2.147 1.418,1.821 -1.646,-4.015 5.014,-5.983 3.408,-10.02 1.414,0.245 1.254,2.547 0.569,3.949 0.685,1.305 3.777,1.663 4.256,-0.305 0.304,-1.137 -1.065,-0.477 -0.85,-1.519 1.182,-2.544 1.498,2.414 2.272,2.734 -0.356,0.794 -0.829,1.096 -1.422,0.911 0.599,0.451 1.168,0.349 1.703,-0.305 -0.354,-1.021 -0.541,-2.136 -0.567,-3.34 1.196,0.023 1.905,1.616 2.731,-0.516 0.904,-2.333 1.012,-4.625 -1.028,-4.643 0.159,-3.515 2.756,0.952 3.124,1.212 -1.254,2.931 -1.565,7.197 0.849,7.591 0.045,-0.771 -0.049,-1.478 -0.283,-2.125 1.535,-0.803 1.904,3.651 3.922,2.977 2.24,-0.748 0.781,-2.784 1.756,-3.889 1.267,0.15 1.668,2.276 0.826,3.732 -1.293,2.232 -3.465,2.637 -5.156,2.853 -2.465,0.318 -2.623,-0.584 -3.334,3.741 -0.44,0.512 -3.393,1.183 -2.555,3.034 1.307,0.532 2.064,-0.431 3.121,-1.518 1.102,1.546 -1.207,2.065 -0.283,3.642 -1.682,-0.943 -3.436,0.462 -5.11,-0.304 1.858,0.936 5.747,3.299 5.393,6.074 0.643,-0.417 1.305,-0.619 1.988,-0.607 -0.353,-0.328 -0.734,-0.43 -1.136,-0.305 -0.502,-2.845 1.755,-2.555 2.556,-2.429 -1.492,-0.727 1.24,-2.949 2.555,-1.821 0.994,-4.053 -1.191,-1.91 -2.272,-2.732 2.061,-5.041 5.563,4.388 7.95,0.607 0.302,-1.798 -1.377,-1.055 -1.703,-0.911 0.314,-1.894 3.337,-0.798 3.121,0.911 1.734,-3.47 -0.293,-5.813 -2.27,-5.161 0.029,-1.833 2.428,-1.3 2.977,-1.325 3.002,-0.129 1.351,-4.715 -0.707,-3.838 -0.434,-2.998 5.164,2.758 5.111,2.735 -1.324,-3.98 -5.527,-10.37 -8.232,-7.59 0.314,-2.334 3.191,-1.552 3.974,-0.912 -1.086,-2.872 1.965,-3.532 -1.142,-4.778 -0.846,-0.338 -2.979,-0.743 -3.065,-0.055 0.361,-2.888 5.26,-1.9 6.477,-1.846 1.769,-3.4 -2.559,-4.749 -3.69,-3.644 -1.299,-1.856 3.209,-1.595 2.953,-1.692 1.547,0.578 2.69,2.519 3.577,4.73 -0.807,0.452 -1.374,1.362 -1.704,2.731 0.727,0.707 1.485,0.808 2.272,0.304 0.344,-1.374 -0.785,-1.158 -0.568,-2.429 1.97,-0.009 2.841,4.551 0.283,4.554 1.67,1.277 8.359,1.625 5.677,-3.946 1.254,-0.434 3.866,4.038 1.989,4.858 0.343,0.45 7.228,4.006 5.111,5.767 1.613,1.002 1.131,-2.823 0,-3.037 2.484,-3.334 0.158,-1.677 0.283,-4.552 1.49,-0.502 2.301,2.02 3.121,3.643 -0.838,-3.02 0.43,-5.435 -1.986,-6.679 1.73,-1.226 2.91,2.884 4.348,-0.511 0.908,-2.145 -0.807,-4.478 -2.076,-4.65 2.517,-2.739 3.597,3.665 5.958,3.644 1.372,-0.014 2.241,-1.319 2.874,-3.349 1.214,-3.886 -0.393,-0.708 -0.602,-3.635 2.193,-1.75 2.541,3.656 1.422,5.772 -0.619,0.917 -1.092,2.03 -1.422,3.337 -0.584,-0.237 -1.172,-0.391 -1.766,-0.459 0.483,-0.422 2.161,2.448 2.051,3.493 1.479,0.107 5.582,-1.014 3.973,-5.464 1.724,0.442 1.871,4.296 0.535,5.569 -3.754,3.575 1.684,3.307 0.316,0.502 2.258,-0.171 -0.136,3.386 1.873,4.075 0.885,0.266 1.762,0.19 2.631,-0.23 1.672,-0.874 0.086,-3.137 1.174,-3.845 1.742,1.732 0.047,4.118 -0.912,5.053 -2.109,2.064 -4.658,-0.041 -6.752,-1.408 1.932,0.467 2.752,4.304 0,4.249 2.752,0.606 1.596,3.945 -0.285,4.859 -2.166,0.222 -3.11,-2.89 -5.356,-2.327 -1.445,0.362 -5.38,1.443 -5.875,3.814 -0.425,2.024 -0.066,4.043 -0.125,6.103 0.538,-0.299 2.385,1.327 2.327,0.626 -0.147,-0.512 -0.352,-0.923 -0.623,-1.234 -0.034,-0.009 2.31,-0.42 2.023,0.247 -0.453,0.22 -0.561,0.542 -0.318,0.969 1.203,0.519 0.345,-0.734 1.134,-0.913 0.17,-1.222 -1.187,-0.834 -1.418,-1.517 0.432,-1.723 2.401,-0.866 2.27,0.91 0.684,-1.848 2.867,-4.25 -0.283,-4.25 1.441,-1.592 2.195,-0.442 3.207,1.404 1.402,2.569 4.916,1.071 3.039,-1.1 5.572,0.047 -1.326,7.35 4.256,7.287 -0.44,-1.32 -2.924,-0.513 -2.27,-3.036 2.026,1.214 3.705,-0.403 5.678,-0.911 0.351,-2.723 -1.764,-4.513 -1.703,-4.859 2.193,-1.277 4.744,5.218 6.529,1.822 -0.525,0.538 -1.094,0.742 -1.703,0.609 0.361,-0.771 0.834,-1.073 1.418,-0.912 0.711,-2.729 -0.473,-3.878 -1.418,-5.466 1.912,-1.043 2.826,1.646 4.541,2.125 2.926,-0.552 0.504,-4.094 0.285,-5.159 3.17,-1.274 2,5.054 4.988,4.628 3.647,-0.518 1.432,-1.967 2.393,-4.628 4.832,-0.317 -1.041,7.177 -3.123,7.59 -0.315,1.391 0.969,0.912 0.851,2.125 -0.466,0.198 -2.244,-1.008 -2.554,-0.609 0.41,3.678 3.613,-0.602 3.974,-1.819 1.743,-0.502 1.151,2.877 -0.283,3.335 0.059,1.431 10.074,3.44 7.096,-2.73 4.035,0.902 0.332,5.998 -1.42,6.982 1.822,-1.453 4.252,5.682 5.963,-0.608 1.846,2.956 -5.045,4.566 -6.133,3.673 -1.764,-1.445 -3.473,1.491 -5.508,0.882 -0.752,-0.73 -1.508,-1.439 -2.271,-2.125 -0.944,0.332 -1.891,0.637 -2.838,0.912 1.717,0.175 1.799,3.809 0,3.947 1.683,1.628 5.256,2.884 6.529,-0.609 0.475,5.255 -6.654,3.007 -7.949,2.429 -0.172,3.446 1.609,1.233 2.555,1.215 -0.422,4.257 -8.024,-2.121 -10,-1.49 -0.705,0.226 -2.745,0.862 -2.84,2.65 -0.063,1.123 1,1.712 1.381,1.93 2.257,1.296 0.908,-0.451 2.091,-2.177 2.932,0.931 0.336,5.276 -1.419,5.159 -0.559,4.688 3.13,1.828 4.257,1.215 -0.158,-0.469 -0.25,-0.975 -0.283,-1.52 3.303,1.242 -1.887,4.278 -3.033,4.199 -0.686,-0.045 -6.17,-2.548 -5.484,0.66 l 2.271,0 c -0.992,2.448 -5.172,2.095 -6.244,0 -2.775,-0.49 -5.568,0.989 -7.451,4.478 -1.006,1.866 -4.198,7.088 -2.592,9.904 1.482,2.604 6.566,1.813 3.514,-2.543 2.63,-1.567 3.773,3.72 1.703,6.376 0.642,-0.356 1.115,-1.065 1.418,-2.126 0.783,1.048 1.656,1.395 2.623,1.038 3.437,-0.916 1.269,-2.55 1.351,-5.288 1.672,-1.243 2.752,1.578 1.971,3.928 -1.381,4.163 1.518,2.484 2.572,3.359 -0.586,1.644 -2.217,0.761 -2.99,0.423 -1.279,-0.56 -2.861,1.727 -4.391,2.308 1.17,0.583 7.75,-1.369 7.948,-3.643 2.781,2.635 -5.369,3.934 -5.393,3.947 0.66,0.257 1.322,0.257 1.986,0 -0.185,0.985 -0.281,1.996 -0.283,3.036 1.067,-0.275 0.199,-1.12 0.283,-2.126 1.463,0.558 8.186,-5.055 7.381,-8.805 2.922,-0.464 -1.103,6.643 -1.418,7.59 2.559,2.424 3.678,-0.796 4.826,-2.731 2.592,3.91 -6.685,5.434 -7.097,6.374 5.92,-3.1 -1.006,0.654 2.879,2.087 1.349,0.498 8.021,1.126 6.205,-4.515 3.594,-0.004 -0.131,4.761 -0.283,6.376 0.365,-1.309 2.222,-4.219 2.775,-3.576 1.727,2.004 4.074,-3.844 2.051,-6.141 1.795,-0.628 2.998,3.01 3.584,4.317 -0.41,-0.29 -0.565,-0.817 -0.461,-1.584 1.019,0.472 6.439,-1.147 4.258,-4.858 1.148,-0.805 1.593,1.178 1.703,2.734 -1.108,2.828 -3.088,3.958 -4.258,6.678 0.225,0.8 0.602,1.103 1.135,0.911 0.217,2.53 -2.869,1.112 -2.459,1.765 0.478,0.772 1.982,0.352 2.459,-0.247 0.22,2.902 -3.36,2.482 -4.258,3.036 0.894,0.185 5.91,-0.535 4.258,-3.947 2.371,-0.091 0.9,4.736 -0.569,5.161 2.239,0.801 2.051,-2.916 1.989,-4.554 0.834,-0.447 1.687,-0.752 2.554,-0.911 0.19,-1.012 0.379,-2.024 0.569,-3.035 1.781,0.776 0.81,3.36 0.283,5.161 1.746,1.878 4.883,1.179 4.543,-2.431 1.182,-0.39 0.668,1.381 1.701,1.216 -0.689,-1.379 1.375,-1.724 1.137,-3.341 -0.485,-0.132 -0.957,-0.334 -1.42,-0.606 0.674,-0.86 6.709,5.78 6.244,-0.911 -1.529,4.094 -4.66,1.068 -3.699,0.141 2.326,-2.242 -2.383,-2.528 -2.828,-2.57 -0.817,-0.765 2.843,-1.989 3.683,-1.41 1.117,0.769 2.26,0.559 3.127,-1.022 1.227,-2.234 -0.154,-1.873 -0.849,-3.335 1.73,-1.651 2.136,2.101 3.406,3.036 -0.258,-4.707 -4.647,-5.216 -6.529,-5.161 1.146,-3.811 10.533,3.642 7.38,-3.037 0.506,-1.389 1.825,0.393 2.555,-0.304 1.785,-2.942 -0.537,-2.674 -1.135,-4.251 2.141,-1.287 3.586,3.468 5.678,0 -0.793,-0.015 -1.553,0.289 -2.271,0.912 2.345,-3.944 -4.858,-4.973 -4.827,-5.464 1.411,-1.364 6.502,0.969 5.678,-3.036 -0.568,0.168 -1.137,0.168 -1.701,0 -0.477,-3.702 5.603,0.705 3.689,3.642 0.022,0.065 3.829,-1.6 4.623,-1.886 4.258,-1.534 -0.214,-3.297 -0.648,-4.489 0.965,-1.766 3.094,-0.377 3.689,1.518 -0.648,-1.51 2.903,-7.743 -1.419,-6.982 1.427,-1.692 3.154,0.128 4.544,0.91 2.651,1.488 2.6,-0.653 2.553,-3.645 4.133,0.233 -0.066,5.439 0.797,7.626 1.922,4.877 6.928,-2.239 4.598,-3.069 1.564,-2.061 2.674,4.318 2.759,4.102 0.092,-0.618 0.022,-1.177 -0.205,-1.674 1.588,-0.234 3.789,-4.168 1.135,-5.466 1.485,-1.593 2.858,2.329 4.543,1.822 -0.361,-0.428 -1.973,-0.05 -1.988,-1.216 0.894,-1.565 1.736,0.923 1.984,-2.205 0.252,-3.137 -1.328,-4.362 -2.836,-4.169 0.186,-1.208 8.694,1.206 4.826,-3.947 0.717,-0.068 4.028,2.21 2.272,3.341 0.211,-0.151 6.15,-0.804 4.258,-2.732 3.162,3.725 -7.049,7.029 -3.854,8.691 1.58,0.821 4.16,-1.838 4.414,-0.334 0.569,3.377 4.836,2.654 4.549,-0.768 2.348,3.044 -6.223,6.558 -7.664,5.768 1.549,0.451 2.473,2.11 2.311,4.948 -0.276,4.833 -1.709,1.194 -2.895,3.814 -0.322,0.712 3.367,-0.498 3.031,-1.105 -0.345,-0.201 -0.498,-0.628 -0.459,-1.281 0.543,0.066 3.524,2.836 1.702,3.946 2.035,-1.932 6.888,3.239 7.382,-3.339 2.887,5.637 -7.601,3.991 -7.097,7.589 1.068,0.256 2.109,0.054 3.121,-0.607 0.496,4.882 -8.852,1.362 -9.934,1.517 -0.232,1.24 -4.006,4.539 -0.869,4.57 1.375,0.013 2.92,-3.694 3.139,0.896 -0.369,0.324 -0.748,0.324 -1.135,0 0.852,1.389 4.918,1.441 5.043,0.722 -0.514,2.936 -4.182,3.345 -5.697,3.442 -2.459,0.156 -5.084,0.968 -7.578,2.515 -3.926,-2.761 -8.004,-0.358 -11.639,-0.305 1.865,1.732 3.767,11.79 6.527,4.858 -0.414,5.716 -8.082,4.761 -10.219,4.857 -0.539,1.697 1.198,1.22 1.104,1.119 -0.418,-0.049 -0.598,-0.423 -0.537,-1.119 0.74,-0.199 1.371,0.136 1.898,1.006 0.914,1.846 1.151,-0.032 2.645,0.209 0.295,1.089 -1.074,2.025 -0.963,3.216 0.262,2.792 3.154,0.125 3.803,-0.483 1.068,3.199 -7.151,5.549 -7.95,5.463 -2.238,2.763 -4.724,4.94 -7.33,6.348 -1.843,0.998 -3.759,1.597 -5.689,1.669 -2.75,0.102 -2.195,2.804 -4.721,2.916 -3.209,0.141 -6.316,1.38 -9.51,1.958 -4.134,0.747 -7.144,-1.507 -11.072,-2.264 C 92.91,48.627 86.229,48.873 78.834,44.406 72.209,40.407 65.471,36.689 59.027,31.823 56.129,29.634 53.498,26.846 50.74,24.189 47.631,21.198 44.053,20.124 41.16,16.388 29.49,1.311 14.738,-13.827 0,-14.877 c 0,4.645 7.178,2.638 9.652,4.556 C 7.76,-10.399 5.867,-10.552 3.975,-10.624 0.512,-10.76 0,-11.735 0,-5.466 3.674,-7.364 8.051,-6.127 11.777,-5.491 14.754,-4.983 20.35,-5.752 22.711,-1.822 19.91,-3.273 0,-6.866 0,0"
         style="fill:#102c56;fill-opacity:1;fill-rule:nonzero;stroke:none"
         id="path3052"
         inkscape:connector-curvature="0" /></g><g
       id="g4229"
       transform="matrix(-0.25153516,0,0,0.25153516,549.22676,235.93725)"><g
         transform="translate(302.22441,308.3316)"
         id="g3927"><path
           id="path3929"
           style="fill:#102c56;fill-opacity:1;fill-rule:nonzero;stroke:none"
           d="m 0,0 c -1.84,0 -3.363,-0.05 -4.565,-0.148 -1.204,-0.1 -2.202,-0.425 -2.994,-0.977 -0.793,-0.553 -1.451,-1.423 -1.975,-2.612 -0.524,-1.189 -1.027,-2.86 -1.508,-5.011 l -2.123,0.212 c 0,0.113 0.007,0.425 0.021,0.934 0.014,0.51 0.043,1.119 0.085,1.827 0.043,0.707 0.085,1.486 0.128,2.336 0.042,0.849 0.091,1.677 0.148,2.484 0.057,0.807 0.113,1.557 0.17,2.25 0.057,0.693 0.113,1.238 0.17,1.635 0.028,0.424 0.283,0.637 0.764,0.637 2.576,-0.057 5.039,-0.099 7.39,-0.128 2.35,-0.028 4.516,-0.042 6.498,-0.042 l 14.141,0 c 1.982,0 4.162,0.014 6.541,0.042 2.377,0.029 4.853,0.071 7.431,0.128 0.395,0 0.621,-0.213 0.678,-0.637 0.057,-0.397 0.107,-0.942 0.15,-1.635 0.041,-0.693 0.084,-1.443 0.127,-2.25 0.043,-0.807 0.078,-1.635 0.106,-2.484 0.027,-0.85 0.049,-1.629 0.064,-2.336 0.014,-0.708 0.028,-1.317 0.043,-1.827 0.014,-0.509 0.02,-0.821 0.02,-0.934 l -2.123,-0.212 c -0.481,2.151 -0.969,3.822 -1.465,5.011 -0.496,1.189 -1.125,2.059 -1.889,2.612 -0.765,0.552 -1.736,0.877 -2.91,0.977 C 21.947,-0.05 20.426,0 18.559,0 l -5.436,0 0,-44.633 c 0,-0.68 -0.34,-1.076 -1.019,-1.188 -0.483,-0.085 -1.014,-0.163 -1.594,-0.235 -0.58,-0.07 -1.147,-0.127 -1.697,-0.17 -0.553,-0.042 -1.063,-0.07 -1.53,-0.085 -0.467,-0.013 -0.814,-0.02 -1.041,-0.02 -0.68,0 -1.019,0.354 -1.019,1.061 L 5.223,0 0,0 Z"
           inkscape:connector-curvature="0" /></g><g
         transform="translate(351.35921,284.2525)"
         id="g3931"><path
           id="path3933"
           style="fill:#102c56;fill-opacity:1;fill-rule:nonzero;stroke:none"
           d="m 0,0 c -0.312,1.048 -0.623,1.996 -0.936,2.846 -0.31,0.849 -0.714,1.578 -1.209,2.187 -0.496,0.609 -1.126,1.075 -1.89,1.402 -0.764,0.325 -1.74,0.488 -2.93,0.488 -0.736,0 -1.473,-0.071 -2.209,-0.213 -0.736,-0.142 -1.4,-0.368 -1.996,-0.679 -0.594,-0.312 -1.076,-0.722 -1.443,-1.232 -0.369,-0.509 -0.553,-1.147 -0.553,-1.91 0,-0.765 0.213,-1.431 0.637,-1.996 0.425,-0.568 0.992,-1.07 1.699,-1.508 0.707,-0.44 1.529,-0.843 2.463,-1.21 0.935,-0.369 1.896,-0.738 2.888,-1.105 1.19,-0.424 2.364,-0.906 3.524,-1.444 1.162,-0.538 2.201,-1.175 3.123,-1.91 0.918,-0.737 1.67,-1.608 2.25,-2.612 0.58,-1.005 0.871,-2.202 0.871,-3.588 0,-1.785 -0.461,-3.313 -1.381,-4.587 -0.92,-1.275 -2.101,-2.315 -3.545,-3.121 -1.445,-0.807 -3.037,-1.402 -4.779,-1.785 -1.74,-0.381 -3.432,-0.573 -5.074,-0.573 -0.99,0 -2.11,0.107 -3.356,0.319 -1.246,0.212 -2.414,0.559 -3.502,1.041 -1.091,0.48 -2.004,1.118 -2.74,1.911 -0.736,0.792 -1.103,1.768 -1.103,2.929 0,1.387 0.466,2.393 1.4,3.016 0.936,0.622 2.125,0.934 3.568,0.934 0.311,0 0.58,-0.007 0.807,-0.021 0.227,-0.015 0.494,-0.05 0.807,-0.106 l 0,-0.722 c 0,-1.869 0.445,-3.306 1.338,-4.311 0.892,-1.004 2.371,-1.507 4.437,-1.507 0.764,0 1.494,0.085 2.188,0.255 0.693,0.169 1.3,0.424 1.826,0.764 0.523,0.34 0.947,0.771 1.273,1.295 0.326,0.524 0.488,1.14 0.488,1.848 0,0.877 -0.218,1.62 -0.658,2.229 -0.439,0.609 -1.019,1.147 -1.74,1.613 -0.723,0.468 -1.551,0.885 -2.484,1.253 -0.936,0.369 -1.899,0.75 -2.889,1.147 -1.16,0.425 -2.322,0.892 -3.483,1.401 -1.16,0.51 -2.201,1.126 -3.121,1.848 -0.92,0.722 -1.67,1.593 -2.25,2.611 -0.582,1.02 -0.871,2.251 -0.871,3.696 0,1.754 0.459,3.233 1.381,4.437 0.92,1.203 2.08,2.18 3.483,2.931 1.4,0.749 2.921,1.287 4.564,1.613 1.641,0.325 3.186,0.488 4.629,0.488 1.387,0 2.732,-0.085 4.035,-0.255 C -1.162,9.938 0.127,9.654 1.4,9.258 1.627,9.201 1.74,9.089 1.74,8.919 1.797,8.437 1.848,7.778 1.889,6.943 1.932,6.108 1.967,5.252 1.996,4.375 2.023,3.497 2.045,2.669 2.059,1.891 2.072,1.111 2.08,0.538 2.08,0.17 L 0,0 Z"
           inkscape:connector-curvature="0" /></g><g
         transform="translate(386.64821,286.2066)"
         id="g3935"><path
           id="path3937"
           style="fill:#102c56;fill-opacity:1;fill-rule:nonzero;stroke:none"
           d="m 0,0 c 0,1.5 -0.24,2.526 -0.723,3.079 -0.48,0.552 -1.23,0.828 -2.25,0.828 -0.312,0 -0.615,-0.008 -0.912,-0.021 C -4.184,3.871 -4.543,3.822 -4.969,3.737 l -0.254,2.038 c 1.528,0.425 2.944,0.786 4.246,1.083 1.303,0.297 2.456,0.545 3.461,0.744 1.004,0.197 1.827,0.339 2.463,0.424 0.637,0.085 1.055,0.127 1.254,0.127 0.904,0 1.358,-0.509 1.358,-1.528 l 0,-24.249 c 0,-0.963 0.064,-1.848 0.191,-2.654 0.127,-0.807 0.277,-1.578 0.445,-2.315 l 0.043,-0.255 c 0,-0.424 -0.283,-0.708 -0.849,-0.848 -0.368,-0.057 -0.785,-0.114 -1.252,-0.17 -0.467,-0.057 -0.95,-0.113 -1.444,-0.17 -0.496,-0.057 -0.992,-0.1 -1.486,-0.128 -0.496,-0.027 -0.928,-0.042 -1.295,-0.042 -0.312,0 -0.547,0.085 -0.701,0.255 -0.156,0.17 -0.277,0.424 -0.361,0.764 l -0.637,2.378 c -1.332,-0.509 -2.654,-0.992 -3.971,-1.444 -1.316,-0.453 -2.57,-0.843 -3.758,-1.168 -1.189,-0.325 -2.279,-0.587 -3.271,-0.785 -0.99,-0.198 -1.826,-0.298 -2.506,-0.298 -1.584,0 -2.951,0.255 -4.098,0.765 -1.146,0.51 -2.088,1.217 -2.824,2.123 -0.736,0.906 -1.281,2.003 -1.635,3.292 -0.353,1.287 -0.531,2.71 -0.531,4.267 L -22.168,0 c 0.027,1.5 -0.205,2.526 -0.701,3.079 -0.494,0.552 -1.252,0.828 -2.272,0.828 -0.312,0 -0.615,-0.008 -0.912,-0.021 -0.299,-0.015 -0.658,-0.064 -1.084,-0.149 l -0.254,2.038 c 1.53,0.425 2.944,0.786 4.246,1.083 1.303,0.297 2.456,0.545 3.461,0.744 1.004,0.197 1.827,0.339 2.463,0.424 0.637,0.085 1.055,0.127 1.254,0.127 0.904,0 1.358,-0.509 1.358,-1.528 l -0.211,-16.52 0,-0.637 c 0,-1.529 0.119,-2.866 0.361,-4.013 0.24,-1.146 0.643,-2.109 1.209,-2.888 0.566,-0.779 1.303,-1.366 2.209,-1.762 0.906,-0.397 2.023,-0.595 3.355,-0.595 0.424,0 0.94,0.05 1.549,0.148 0.61,0.1 1.26,0.241 1.953,0.425 0.694,0.185 1.403,0.404 2.125,0.658 0.721,0.255 1.407,0.524 2.059,0.808 L 0,0 Z"
           inkscape:connector-curvature="0" /></g><g
         transform="translate(400.87481,291.982)"
         id="g3939"><path
           id="path3941"
           style="fill:#102c56;fill-opacity:1;fill-rule:nonzero;stroke:none"
           d="m 0,0 c 1.529,0.425 2.938,0.785 4.225,1.083 1.289,0.297 2.421,0.545 3.398,0.743 0.977,0.197 1.775,0.34 2.398,0.425 0.624,0.085 1.034,0.127 1.233,0.127 0.85,0 1.316,-0.51 1.4,-1.528 l 0.129,-1.785 c 1.301,0.482 2.612,0.935 3.928,1.36 1.316,0.425 2.568,0.8 3.758,1.125 1.189,0.325 2.279,0.58 3.269,0.764 0.992,0.184 1.826,0.277 2.506,0.277 1.615,0 2.994,-0.255 4.141,-0.765 1.146,-0.51 2.088,-1.218 2.824,-2.123 0.736,-0.907 1.273,-2.004 1.613,-3.292 0.34,-1.288 0.51,-2.711 0.51,-4.267 l -0.211,-20.427 c 0,-0.68 -0.34,-1.076 -1.019,-1.189 -0.454,-0.085 -0.956,-0.163 -1.508,-0.234 -0.553,-0.07 -1.09,-0.127 -1.614,-0.17 -0.525,-0.042 -1.005,-0.07 -1.445,-0.085 -0.439,-0.014 -0.758,-0.02 -0.955,-0.02 -0.68,0 -1.019,0.354 -1.019,1.061 l 0.212,16.901 0,0.638 c 0,1.528 -0.121,2.866 -0.361,4.013 -0.24,1.146 -0.644,2.116 -1.209,2.909 -0.568,0.792 -1.303,1.387 -2.209,1.783 -0.906,0.397 -2.039,0.595 -3.398,0.595 -0.508,0 -1.465,-0.142 -2.866,-0.425 -1.402,-0.283 -3.05,-0.835 -4.947,-1.656 l 0,-24.121 c 0,-0.68 -0.34,-1.076 -1.019,-1.189 -0.453,-0.085 -0.955,-0.163 -1.508,-0.234 -0.553,-0.07 -1.09,-0.127 -1.613,-0.17 -0.526,-0.042 -1.006,-0.07 -1.446,-0.085 -0.437,-0.014 -0.756,-0.02 -0.955,-0.02 -0.68,0 -1.019,0.354 -1.019,1.061 l 0,23.145 c 0,1.5 -0.241,2.526 -0.721,3.079 C 4.02,-2.145 3.256,-1.868 2.209,-1.868 1.926,-1.868 1.635,-1.876 1.338,-1.89 1.041,-1.904 0.68,-1.953 0.254,-2.038 L 0,0 Z"
           inkscape:connector-curvature="0" /></g><g
         transform="translate(463.21661,277.6285)"
         id="g3943"><path
           id="path3945"
           style="fill:#102c56;fill-opacity:1;fill-rule:nonzero;stroke:none"
           d="m 0,0 c -1.332,-0.085 -2.576,-0.164 -3.736,-0.234 -1.162,-0.071 -2.225,-0.177 -3.186,-0.319 -0.963,-0.141 -1.812,-0.36 -2.549,-0.658 -0.736,-0.297 -1.33,-0.715 -1.783,-1.253 -0.34,-0.396 -0.623,-0.891 -0.85,-1.486 -0.226,-0.594 -0.339,-1.246 -0.339,-1.953 0,-0.595 0.091,-1.204 0.277,-1.826 0.184,-0.624 0.508,-1.197 0.977,-1.72 0.466,-0.525 1.095,-0.956 1.888,-1.295 0.793,-0.34 1.799,-0.51 3.016,-0.51 0.17,0 0.445,0.027 0.828,0.085 0.383,0.056 0.85,0.148 1.4,0.275 0.553,0.128 1.168,0.305 1.848,0.532 0.68,0.226 1.373,0.509 2.082,0.849 L 0,0 Z m -17.582,13.419 c 1.473,0.595 2.924,1.118 4.353,1.571 1.43,0.453 2.774,0.828 4.036,1.126 1.257,0.297 2.404,0.524 3.439,0.679 1.033,0.155 1.889,0.234 2.568,0.234 2.04,0 3.752,-0.234 5.139,-0.701 1.387,-0.467 2.506,-1.21 3.356,-2.229 0.849,-1.02 1.457,-2.315 1.826,-3.886 C 7.502,8.642 7.672,6.752 7.645,4.544 L 7.432,-9.301 c -0.03,-0.878 0.027,-1.698 0.17,-2.463 0.14,-0.764 0.296,-1.514 0.466,-2.251 0.028,-0.028 0.043,-0.141 0.043,-0.339 0,-0.425 -0.283,-0.68 -0.849,-0.764 -0.369,-0.085 -0.785,-0.163 -1.252,-0.235 -0.469,-0.07 -0.944,-0.126 -1.424,-0.169 -0.481,-0.042 -0.963,-0.071 -1.443,-0.085 -0.483,-0.014 -0.907,-0.021 -1.274,-0.021 -0.312,0 -0.547,0.085 -0.701,0.255 -0.156,0.17 -0.275,0.424 -0.361,0.764 l -0.553,2.039 c -1.076,-0.483 -2.18,-0.928 -3.313,-1.338 -1.132,-0.411 -2.214,-0.765 -3.248,-1.062 -1.033,-0.298 -1.974,-0.531 -2.824,-0.701 -0.849,-0.17 -1.543,-0.255 -2.08,-0.255 -1.502,0 -2.803,0.277 -3.908,0.828 -1.104,0.553 -2.01,1.246 -2.717,2.081 -0.709,0.835 -1.232,1.755 -1.572,2.761 -0.34,1.004 -0.51,1.96 -0.51,2.866 0,1.614 0.291,2.98 0.871,4.098 0.58,1.118 1.365,2.046 2.358,2.782 0.876,0.651 1.904,1.189 3.078,1.614 1.175,0.424 2.47,0.757 3.886,0.998 1.414,0.24 2.944,0.418 4.586,0.531 1.643,0.112 3.369,0.197 5.182,0.255 l 0.041,1.443 c 0.029,1.302 -0.049,2.47 -0.232,3.504 -0.186,1.033 -0.518,1.903 -0.998,2.611 -0.483,0.708 -1.133,1.246 -1.954,1.615 -0.822,0.367 -1.855,0.551 -3.101,0.551 -1.528,0 -3.121,-0.17 -4.778,-0.509 -1.656,-0.34 -3.544,-0.85 -5.667,-1.529 l -0.936,2.845 z"
           inkscape:connector-curvature="0" /></g><g
         transform="translate(476.89241,291.982)"
         id="g3947"><path
           id="path3949"
           style="fill:#102c56;fill-opacity:1;fill-rule:nonzero;stroke:none"
           d="m 0,0 c 1.527,0.425 2.936,0.785 4.225,1.083 1.287,0.297 2.42,0.545 3.396,0.743 0.979,0.197 1.777,0.34 2.4,0.425 0.624,0.085 1.034,0.127 1.231,0.127 0.85,0 1.316,-0.51 1.402,-1.528 l 0.127,-1.827 c 1.276,0.51 2.541,0.984 3.801,1.423 1.26,0.439 2.463,0.814 3.609,1.125 1.147,0.312 2.209,0.559 3.186,0.743 0.977,0.184 1.805,0.277 2.484,0.277 1.869,0 3.405,-0.348 4.608,-1.041 1.203,-0.695 2.131,-1.677 2.781,-2.951 3.002,1.358 5.713,2.363 8.133,3.014 2.422,0.652 4.437,0.978 6.053,0.978 1.613,0 3,-0.255 4.16,-0.765 1.162,-0.51 2.109,-1.218 2.845,-2.123 0.737,-0.907 1.282,-2.004 1.635,-3.292 0.354,-1.288 0.531,-2.711 0.531,-4.267 l -0.212,-20.427 c 0,-0.68 -0.34,-1.076 -1.018,-1.189 -0.453,-0.085 -0.957,-0.163 -1.508,-0.234 -0.553,-0.07 -1.092,-0.127 -1.615,-0.17 -0.524,-0.042 -1.004,-0.07 -1.443,-0.085 -0.44,-0.014 -0.758,-0.02 -0.956,-0.02 -0.679,0 -1.019,0.354 -1.019,1.061 l 0.213,16.901 0,0.638 c 0,1.528 -0.121,2.866 -0.361,4.013 -0.241,1.146 -0.645,2.108 -1.211,2.888 -0.567,0.778 -1.309,1.366 -2.229,1.762 -0.92,0.396 -2.06,0.595 -3.418,0.595 -0.228,0 -0.582,-0.036 -1.062,-0.106 -0.483,-0.072 -1.055,-0.185 -1.721,-0.34 -0.664,-0.157 -1.408,-0.376 -2.229,-0.659 -0.822,-0.283 -1.672,-0.636 -2.548,-1.061 0.283,-1.02 0.425,-2.351 0.425,-3.992 l -0.213,-20.002 c 0,-0.68 -0.339,-1.076 -1.019,-1.189 -0.453,-0.085 -0.955,-0.163 -1.508,-0.234 -0.551,-0.07 -1.09,-0.127 -1.613,-0.17 -0.524,-0.042 -1.006,-0.07 -1.444,-0.085 -0.439,-0.014 -0.757,-0.02 -0.955,-0.02 -0.679,0 -1.019,0.354 -1.019,1.061 l 0.211,16.901 0,0.638 c 0,3.028 -0.51,5.336 -1.528,6.922 -1.019,1.585 -2.802,2.378 -5.351,2.378 -0.483,0 -1.395,-0.142 -2.738,-0.425 -1.346,-0.283 -2.924,-0.835 -4.737,-1.656 l 0,-24.121 c 0,-0.68 -0.34,-1.076 -1.019,-1.189 -0.453,-0.085 -0.955,-0.163 -1.508,-0.234 -0.551,-0.07 -1.09,-0.127 -1.613,-0.17 -0.524,-0.042 -1.004,-0.07 -1.444,-0.085 -0.439,-0.014 -0.758,-0.02 -0.955,-0.02 -0.68,0 -1.019,0.354 -1.019,1.061 l 0,23.145 c 0,1.5 -0.241,2.526 -0.723,3.079 -0.48,0.551 -1.246,0.828 -2.293,0.828 -0.283,0 -0.572,-0.008 -0.871,-0.022 C 1.039,-1.904 0.678,-1.953 0.254,-2.038 L 0,0 Z"
           inkscape:connector-curvature="0" /></g><g
         transform="translate(552.77911,307.568)"
         id="g3951"><path
           id="path3953"
           style="fill:#102c56;fill-opacity:1;fill-rule:nonzero;stroke:none"
           d="m 0,0 c 0,-1.529 -0.402,-2.634 -1.211,-3.313 -0.807,-0.679 -1.975,-1.019 -3.502,-1.019 -1.275,0 -2.252,0.382 -2.932,1.146 -0.677,0.765 -1.017,1.827 -1.017,3.186 0,1.528 0.416,2.625 1.252,3.29 0.834,0.665 2.017,0.998 3.547,0.998 1.273,0 2.234,-0.375 2.886,-1.125 C -0.326,2.412 0,1.358 0,0 m -13.037,-15.586 c 1.529,0.425 2.943,0.785 4.246,1.083 1.303,0.297 2.457,0.545 3.461,0.743 1.006,0.197 1.826,0.34 2.465,0.425 0.636,0.085 1.053,0.127 1.252,0.127 0.906,0 1.359,-0.51 1.359,-1.528 l 0,-29.133 c 0,-0.68 -0.34,-1.076 -1.019,-1.189 -0.483,-0.085 -0.998,-0.163 -1.551,-0.234 -0.551,-0.07 -1.082,-0.127 -1.592,-0.17 -0.51,-0.042 -0.977,-0.07 -1.402,-0.085 -0.424,-0.014 -0.75,-0.02 -0.977,-0.02 -0.68,0 -1.019,0.354 -1.019,1.061 l 0,23.145 c 0,1.5 -0.241,2.526 -0.721,3.079 -0.483,0.552 -1.233,0.828 -2.252,0.828 -0.311,0 -0.615,-0.008 -0.912,-0.022 -0.297,-0.014 -0.658,-0.063 -1.084,-0.148 l -0.254,2.038 z"
           inkscape:connector-curvature="0" /></g></g><text
       xml:space="preserve"
       style="font-style:normal;font-weight:normal;font-size:32px;line-height:125%;font-family:Sans;letter-spacing:0px;word-spacing:0px;fill:#ffffff;fill-opacity:1;stroke:none"
       x="-372.54498"
       y="-191.95607"
       id="text4245"
       sodipodi:linespacing="125%"
       transform="scale(-1,-1)"><tspan
         sodipodi:role="line"
         x="-372.54498"
         y="-191.95607"
         style="font-style:normal;font-variant:normal;font-weight:bold;font-stretch:normal;font-size:6px;font-family:Helvetica;-inkscape-font-specification:'Helvetica Bold';fill:#ffffff;fill-opacity:1"
         id="tspan4274">8legs.io/tsunami/</tspan><tspan
         sodipodi:role="line"
         x="-372.54498"
         y="-184.45607"
         style="font-style:normal;font-variant:normal;font-weight:bold;font-stretch:normal;font-size:6px;font-family:Helvetica;-inkscape-font-specification:'Helvetica Bold';fill:#ffffff;fill-opacity:1"
         id="tspan4270" /><tspan
         sodipodi:role="line"
         x="-372.54498"
         y="-176.95607"
         style="font-style:normal;font-variant:normal;font-weight:bold;font-stretch:normal;font-size:6px;font-family:Helvetica;-inkscape-font-specification:'Helvetica Bold';fill:#ffffff;fill-opacity:1"
         id="tspan4268" /></text>
<text
       xml:space="preserve"
       style="font-style:normal;font-variant:normal;font-weight:bold;font-stretch:normal;font-size:6px;line-height:125%;font-family:Sans;-inkscape-font-specification:'Sans Bold';letter-spacing:0px;word-spacing:0px;fill:#000000;fill-opacity:1;stroke:none"
       x="-473.35736"
       y="-296.54272"
       id="text3021"
       sodipodi:linespacing="125%"
       transform="scale(-1,-1)"><tspan
         sodipodi:role="line"
         id="tspan3023"
         x="-473.35736"
         y="-296.54272"
         style="font-style:normal;font-variant:normal;font-weight:bold;font-stretch:normal;font-size:6px;font-family:Sans;-inkscape-font-specification:'Sans Bold'">by Arachnid Labs</tspan><tspan
         sodipodi:role="line"
         x="-473.35736"
         y="-289.04272"
         style="font-style:normal;font-variant:normal;font-weight:bold;font-stretch:normal;font-size:6px;font-family:Sans;-inkscape-font-specification:'Sans Bold'"
         id="tspan4483" /><tspan
         sodipodi:role="line"
         x="-473.35736"
         y="-281.54272"
         style="font-style:normal;font-variant:normal;font-weight:bold;font-stretch:normal;font-size:6px;font-family:Sans;-inkscape-font-specification:'Sans Bold'"
         id="tspan4481" /></text>
<flowRoot
       xml:space="preserve"
       id="flowRoot4485"
       style="fill:black;stroke:none;stroke-opacity:1;stroke-width:1px;stroke-linejoin:miter;stroke-linecap:butt;fill-opacity:1;font-family:sans-serif;font-style:normal;font-weight:normal;font-size:40px;line-height:125%;letter-spacing:0px;word-spacing:0px"><flowRegion
         id="flowRegion4487"><rect
           id="rect4489"
           width="206.99863"
           height="124.70229"
           x="157.4052"
           y="208.0714" /></flowRegion><flowPara
         id="flowPara4491"></flowPara></flowRoot></g></svg>