G04 DipTrace 2.4.0.2*
%INtsunami.backmask.gbs*%
%MOIN*%
%ADD31R,0.0669X0.0669*%
%ADD33C,0.0669*%
%ADD54C,0.0591*%
%ADD69C,0.0787*%
%ADD70C,0.1378*%
%ADD85R,0.0677X0.1677*%
%ADD88O,0.0433X0.0709*%
%ADD97C,0.1378*%
%ADD131C,0.0748*%
%ADD132R,0.0748X0.0748*%
%FSLAX44Y44*%
G04*
G70*
G90*
G75*
G01*
%LNBotMask*%
%LPD*%
D132*
X8687Y23437D3*
D131*
Y22437D3*
X7687Y23437D3*
Y22437D3*
X6687Y23437D3*
Y22437D3*
D70*
X5906Y27953D3*
X21654D3*
X5906Y11417D3*
X21654D3*
D31*
X18780Y30562D3*
D33*
X17795D3*
D97*
X20787Y32570D3*
X16772D3*
D88*
X10079Y35005D3*
X7480D3*
D85*
X17780Y34377D3*
X19780D3*
D31*
X19937Y23937D3*
D33*
Y22937D3*
Y21937D3*
Y20937D3*
D31*
X20937Y23937D3*
D33*
Y22937D3*
Y21937D3*
Y20937D3*
D31*
X8780Y8812D3*
D33*
X9764D3*
D97*
X6772Y6804D3*
X10787D3*
D31*
X18780Y8812D3*
D33*
X19764D3*
D97*
X16772Y6804D3*
X20787D3*
D85*
X9780Y4987D3*
X7780D3*
X19780D3*
X17780D3*
D132*
X12926Y34687D3*
D131*
X14698D3*
D69*
X12434Y33703D3*
X15190D3*
D54*
X7000Y30752D3*
M02*
