G04 DipTrace 2.4.0.1*
%INtsunami.frontmask.gts*%
%MOIN*%
%ADD32C,0.0591*%
%ADD62C,0.0709*%
%ADD65C,0.1378*%
%ADD69R,0.067X0.0552*%
%ADD73C,0.0749*%
%ADD74C,0.0629*%
%ADD76R,0.0709X0.0709*%
%ADD77R,0.0629X0.0629*%
%ADD78R,0.0552X0.0631*%
%ADD80R,0.0638X0.1638*%
%ADD83O,0.0394X0.067*%
%ADD85R,0.0788X0.067*%
%ADD87R,0.067X0.0591*%
%ADD89R,0.0197X0.0571*%
%ADD93C,0.1339*%
%ADD95R,0.0178X0.0749*%
%ADD97R,0.1005X0.1005*%
%ADD99O,0.0375X0.0158*%
%ADD101O,0.0158X0.0375*%
%ADD103R,0.0827X0.0276*%
%ADD105R,0.0473X0.0276*%
%ADD107R,0.0197X0.0749*%
%ADD109R,0.0237X0.0749*%
%ADD111R,0.0749X0.0237*%
%ADD113R,0.0276X0.0473*%
%ADD115R,0.0194X0.0123*%
%ADD117R,0.0123X0.0223*%
%ADD119R,0.1379X0.067*%
%ADD121R,0.0434X0.0552*%
%ADD123R,0.0296X0.0453*%
%ADD128R,0.0749X0.067*%
%ADD129R,0.067X0.0749*%
%ADD131R,0.0434X0.0473*%
%ADD133R,0.0473X0.0434*%
%FSLAX44Y44*%
G04*
G70*
G90*
G75*
G01*
%LNTopMask*%
%LPD*%
D133*
X15227Y28312D3*
X15897D3*
D131*
X15187Y30772D3*
Y30102D3*
D133*
X14522Y29062D3*
X13852D3*
X11772D3*
X11102D3*
X13147Y28312D3*
X12477D3*
X18647Y27562D3*
X17977D3*
X11727Y27564D3*
X12397D3*
X15897Y27562D3*
X15227D3*
X10625Y24187D3*
X9955D3*
D131*
X16876Y23251D3*
Y22582D3*
D133*
X12251Y21126D3*
X12920D3*
X21272Y17493D3*
X20602D3*
D129*
X8500Y17301D3*
X7397D3*
D133*
X12272Y17312D3*
X11602D3*
X15352D3*
X16022D3*
D128*
X5823Y16227D3*
Y15125D3*
D133*
X20602Y15243D3*
X21272D3*
X14187Y14937D3*
X13518D3*
X10227Y14312D3*
X10897D3*
D129*
X7397Y14051D3*
X8500D3*
D133*
X16022Y14062D3*
X15352D3*
X12272Y13562D3*
X11602D3*
X16022Y13272D3*
X15352D3*
X18102Y12937D3*
X18772D3*
X10897Y12312D3*
X10227D3*
X16022D3*
X15352D3*
X17397D3*
X16727D3*
X18062Y12187D3*
X18731D3*
X11597Y11562D3*
X12267D3*
X14147Y10812D3*
X13477D3*
Y10062D3*
X14147D3*
X13477Y9312D3*
X14147D3*
X16602Y27562D3*
X17272D3*
D77*
X8687Y23437D3*
D74*
Y22437D3*
X7687Y23437D3*
Y22437D3*
X6687Y23437D3*
Y22437D3*
D123*
X10436Y28765D3*
X9688D3*
X10062Y27859D3*
D121*
X20713Y25312D3*
X20161D3*
D119*
X10187Y31937D3*
Y30323D3*
D65*
X5906Y27953D3*
X21654D3*
X5906Y11417D3*
X21654D3*
D117*
X16701Y28405D3*
X16858D3*
X17016D3*
X17173D3*
D115*
X17234Y28608D3*
Y28766D3*
D117*
X17173Y28969D3*
X17016D3*
X16858D3*
X16701D3*
D115*
X16640Y28766D3*
Y28608D3*
D113*
X14561Y30969D3*
X14187D3*
X13813D3*
Y29906D3*
X14561D3*
D111*
X11535Y25947D3*
Y25632D3*
Y25317D3*
Y25002D3*
Y24687D3*
Y24372D3*
Y24057D3*
Y23742D3*
Y23427D3*
Y23112D3*
Y22797D3*
D109*
X12205Y22128D3*
X12520D3*
X12835D3*
X13150D3*
X13465D3*
X13780D3*
X14094D3*
X14409D3*
X14724D3*
X15039D3*
X15354D3*
D111*
X16024Y22797D3*
Y23112D3*
Y23427D3*
Y23742D3*
Y24057D3*
Y24372D3*
Y24687D3*
Y25002D3*
Y25317D3*
Y25632D3*
Y25947D3*
D109*
X15354Y26616D3*
X15039D3*
X14724D3*
X14409D3*
X14094D3*
X13780D3*
X13465D3*
X13150D3*
X12835D3*
X12520D3*
X12205D3*
D107*
X14580Y18079D3*
X14324D3*
X14068D3*
X13812D3*
X13556D3*
X13300D3*
X13044D3*
Y15795D3*
X13300D3*
X13556D3*
X13812D3*
X14068D3*
X14324D3*
X14580D3*
D105*
X20406Y16742D3*
Y16368D3*
Y15994D3*
X21469D3*
Y16742D3*
D103*
X6885Y16426D3*
Y15926D3*
Y15426D3*
Y14926D3*
X9011D3*
Y15426D3*
Y15926D3*
Y16426D3*
D101*
X17043Y13876D3*
X17240D3*
X17437D3*
X17634D3*
X17831D3*
D99*
X18185Y14231D3*
Y14428D3*
Y14625D3*
Y14821D3*
Y15018D3*
D101*
X17831Y15373D3*
X17634D3*
X17437D3*
X17240D3*
X17043D3*
D99*
X16689Y15018D3*
Y14821D3*
Y14625D3*
Y14428D3*
Y14231D3*
D97*
X17437Y14625D3*
D95*
X12937Y11874D3*
X13187D3*
X13437D3*
X13687D3*
X13937D3*
X14187D3*
X14437D3*
X14687D3*
Y14000D3*
X14437D3*
X14187D3*
X13937D3*
X13687D3*
X13437D3*
X13187D3*
X12937D3*
D77*
X18780Y30562D3*
D74*
X17795D3*
D93*
X20787Y32570D3*
X16772D3*
D89*
X9291Y33952D3*
X9035D3*
X8780D3*
X8524D3*
X8268D3*
D87*
X7520D3*
X10039D3*
D85*
X9252Y35005D3*
X8307D3*
D83*
X10079D3*
X7480D3*
D80*
X17780Y34377D3*
X18780D3*
X19780D3*
D77*
X19937Y23937D3*
D74*
Y22937D3*
Y21937D3*
Y20937D3*
D77*
X20937Y23937D3*
D74*
Y22937D3*
Y21937D3*
Y20937D3*
D77*
X8780Y8812D3*
D74*
X9764D3*
D93*
X6772Y6804D3*
X10787D3*
D77*
X18780Y8812D3*
D74*
X19764D3*
D93*
X16772Y6804D3*
X20787D3*
D80*
X9780Y4987D3*
X8780D3*
X7780D3*
X19780D3*
X18780D3*
X17780D3*
D78*
X5688Y32811D3*
X6436D3*
X9937Y26125D3*
X10685D3*
D133*
X15897Y29062D3*
X15227D3*
X12477Y30562D3*
X13147D3*
Y29812D3*
X12477D3*
Y29062D3*
X13147D3*
X14522Y28312D3*
X13852D3*
X11102D3*
X11772D3*
X17977Y26812D3*
X18647D3*
X9977Y25437D3*
X10647D3*
X19522Y25312D3*
X18852D3*
X9977Y24812D3*
X10647D3*
X12272Y16537D3*
X11602D3*
X16022D3*
X15352D3*
X11602Y15812D3*
X12272D3*
X16022D3*
X15352D3*
X11602Y14312D3*
X12272D3*
X10227Y13562D3*
X10897D3*
X11602Y12312D3*
X12272D3*
X10897Y11562D3*
X10227D3*
X16022D3*
X15352D3*
X16727D3*
X17397D3*
X10897Y10812D3*
X10227D3*
X11602D3*
X12272D3*
X16022D3*
X15352D3*
X17397D3*
X16727D3*
X12272Y10062D3*
X11602D3*
X15352D3*
X16022D3*
X13477Y7812D3*
X14147D3*
D76*
X12926Y34687D3*
D62*
X14698D3*
D73*
X12434Y33703D3*
X15190D3*
D32*
X11687Y32437D3*
D69*
X21724Y19486D3*
X20150D3*
Y18501D3*
X21724D3*
D133*
X7477Y32812D3*
X8147D3*
X10397D3*
X9727D3*
X17977Y29062D3*
X18647D3*
X9647Y9937D3*
X8977D3*
X14147Y8562D3*
X13477D3*
M02*
