G04 DipTrace 2.4.0.1*
%INtsunami.frontpaste.gtp*%
%MOIN*%
%ADD54R,0.0669X0.0669*%
%ADD67R,0.0551X0.0433*%
%ADD76R,0.0433X0.0512*%
%ADD78R,0.052X0.152*%
%ADD81R,0.063X0.0669*%
%ADD83R,0.0748X0.0551*%
%ADD85R,0.0079X0.0453*%
%ADD91R,0.0079X0.063*%
%ADD93R,0.0059X0.063*%
%ADD95R,0.0886X0.0886*%
%ADD97O,0.0256X0.0039*%
%ADD99O,0.0039X0.0256*%
%ADD101R,0.0709X0.0157*%
%ADD103R,0.0354X0.0157*%
%ADD105R,0.0118X0.063*%
%ADD107R,0.063X0.0118*%
%ADD109R,0.0157X0.0354*%
%ADD111R,0.126X0.0551*%
%ADD113R,0.0177X0.0335*%
%ADD115R,0.0315X0.0433*%
%ADD120R,0.063X0.0551*%
%ADD122R,0.0551X0.063*%
%ADD124R,0.0315X0.0354*%
%ADD126R,0.0354X0.0315*%
%FSLAX44Y44*%
G04*
G70*
G90*
G75*
G01*
%LNTopPaste*%
%LPD*%
D126*
X12477Y31250D3*
X13147D3*
Y28312D3*
X12477D3*
X11727Y27564D3*
X12397D3*
X15227Y29062D3*
X15897D3*
Y27562D3*
X15227D3*
D124*
X15187Y32647D3*
Y31977D3*
D126*
X10625Y24187D3*
X9955D3*
D124*
X16876Y23251D3*
Y22582D3*
D126*
X12251Y21126D3*
X12920D3*
D124*
X15187Y30772D3*
Y30102D3*
D126*
X15352Y17312D3*
X16022D3*
X21272Y17493D3*
X20602D3*
D122*
X8500Y17301D3*
X7397D3*
D126*
X14522Y29062D3*
X13852D3*
D120*
X5823Y16227D3*
Y15125D3*
D126*
X18647Y28312D3*
X17977D3*
X20602Y15243D3*
X21272D3*
X14187Y14937D3*
X13518D3*
X10227Y14312D3*
X10897D3*
D122*
X7397Y14051D3*
X8500D3*
D126*
X16022Y14062D3*
X15352D3*
X12272Y13562D3*
X11602D3*
X16022Y13272D3*
X15352D3*
X18102Y13062D3*
X18772D3*
X10897Y12312D3*
X10227D3*
X16022D3*
X15352D3*
X17397D3*
X16727D3*
X18102D3*
X18772D3*
X11597Y11562D3*
X12267D3*
X14147Y10812D3*
X13477D3*
Y10062D3*
X14147D3*
X13477Y9312D3*
X14147D3*
X12272Y17312D3*
X11602D3*
D115*
X20713Y25062D3*
X20161D3*
D113*
X16563Y27484D3*
X17311D3*
X16937Y28390D3*
D111*
X10187Y31937D3*
Y30323D3*
D109*
X13813Y31781D3*
X14187D3*
X14561D3*
Y32844D3*
X13813D3*
D107*
X11535Y25947D3*
Y25632D3*
Y25317D3*
Y25002D3*
Y24687D3*
Y24372D3*
Y24057D3*
Y23742D3*
Y23427D3*
Y23112D3*
Y22797D3*
D105*
X12205Y22128D3*
X12520D3*
X12835D3*
X13150D3*
X13465D3*
X13780D3*
X14094D3*
X14409D3*
X14724D3*
X15039D3*
X15354D3*
D107*
X16024Y22797D3*
Y23112D3*
Y23427D3*
Y23742D3*
Y24057D3*
Y24372D3*
Y24687D3*
Y25002D3*
Y25317D3*
Y25632D3*
Y25947D3*
D105*
X15354Y26616D3*
X15039D3*
X14724D3*
X14409D3*
X14094D3*
X13780D3*
X13465D3*
X13150D3*
X12835D3*
X12520D3*
X12205D3*
D109*
X14561Y30969D3*
X14187D3*
X13813D3*
Y29906D3*
X14561D3*
D103*
X20406Y16742D3*
Y16368D3*
Y15994D3*
X21469D3*
Y16742D3*
D101*
X6885Y16426D3*
Y15926D3*
Y15426D3*
Y14926D3*
X9011D3*
Y15426D3*
Y15926D3*
Y16426D3*
D99*
X17043Y13876D3*
X17240D3*
X17437D3*
X17634D3*
X17831D3*
D97*
X18185Y14231D3*
Y14428D3*
Y14625D3*
Y14821D3*
Y15018D3*
D99*
X17831Y15373D3*
X17634D3*
X17437D3*
X17240D3*
X17043D3*
D97*
X16689Y15018D3*
Y14821D3*
Y14625D3*
Y14428D3*
Y14231D3*
D95*
X17437Y14625D3*
D93*
X12937Y11874D3*
X13187D3*
X13437D3*
X13687D3*
X13937D3*
X14187D3*
X14437D3*
X14687D3*
Y14000D3*
X14437D3*
X14187D3*
X13937D3*
X13687D3*
X13437D3*
X13187D3*
X12937D3*
D91*
X14580Y18079D3*
X14324D3*
X14068D3*
X13812D3*
X13556D3*
X13300D3*
X13044D3*
Y15795D3*
X13300D3*
X13556D3*
X13812D3*
X14068D3*
X14324D3*
X14580D3*
D85*
X9291Y33746D3*
X9035D3*
X8780D3*
X8524D3*
X8268D3*
D83*
X10000Y33795D3*
X7559D3*
D81*
X10354Y34799D3*
X7205D3*
D54*
X9252D3*
X8307D3*
D78*
X19780Y4987D3*
X18780D3*
X17780D3*
X9780D3*
X8780D3*
X7780D3*
X17780Y34377D3*
X18780D3*
X19780D3*
D76*
X5688Y32811D3*
X6436D3*
X9937Y26125D3*
X10685D3*
D126*
X15897Y28312D3*
X15227D3*
X13147Y32000D3*
X12477D3*
X9977Y25437D3*
X10647D3*
X19522Y25062D3*
X18852D3*
X9977Y24812D3*
X10647D3*
X12477Y30562D3*
X13147D3*
X12272Y16537D3*
X11602D3*
X13147Y29812D3*
X12477D3*
X17977Y27562D3*
X18647D3*
X11602Y15812D3*
X12272D3*
X14522Y28312D3*
X13852D3*
X16022Y15812D3*
X15352D3*
X12477Y29062D3*
X13147D3*
X16022Y16537D3*
X15352D3*
X11602Y14312D3*
X12272D3*
X10227Y13562D3*
X10897D3*
X11602Y12312D3*
X12272D3*
X10897Y11562D3*
X10227D3*
X16022D3*
X15352D3*
X16727D3*
X17397D3*
X10897Y10812D3*
X10227D3*
X11602D3*
X12272D3*
X16022D3*
X15352D3*
X17397D3*
X16727D3*
X12272Y10062D3*
X11602D3*
X15352D3*
X16022D3*
X13477Y7812D3*
X14147D3*
D67*
X21724Y19486D3*
X20150D3*
Y18501D3*
X21724D3*
D126*
X7477Y32812D3*
X8147D3*
X10397D3*
X9727D3*
X17977Y29062D3*
X18647D3*
X9647Y9937D3*
X8977D3*
X14147Y8562D3*
X13477D3*
M02*
