G04 DipTrace 2.4.0.1*
%INtsunami.frontsilk.gto*%
%MOIN*%
%ADD10C,0.0098*%
%ADD18C,0.0157*%
%ADD22C,0.006*%
%ADD32C,0.0154*%
%ADD36C,0.0236*%
%ADD127C,0.0109*%
%FSLAX44Y44*%
G04*
G70*
G90*
G75*
G01*
%LNTopSilk*%
%LPD*%
X7992Y17615D2*
D10*
Y16986D1*
X8066Y17615D2*
Y16986D1*
Y17615D2*
X7831D1*
X8066Y16986D2*
X7831D1*
X5509Y15719D2*
X6138D1*
X5509Y15793D2*
X6138D1*
X5509D2*
Y15558D1*
X6138Y15793D2*
Y15558D1*
X7905Y13736D2*
Y14365D1*
X7831Y13736D2*
Y14365D1*
Y13736D2*
X8066D1*
X7831Y14365D2*
X8066D1*
X8104Y23937D2*
X6187D1*
X9187D2*
X6187D1*
X9187Y21937D2*
X6187D1*
X9187Y23937D2*
Y21937D1*
X6187Y23937D2*
Y21937D1*
X21028Y25279D2*
Y24846D1*
D32*
X16255Y27337D3*
X16347Y27839D2*
D10*
X17528D1*
Y28035D1*
X16347D1*
Y27839D1*
X9557Y31505D2*
Y30755D1*
X10817Y31505D2*
Y30755D1*
D32*
X13544Y31614D3*
X13596Y32155D2*
D10*
X14778D1*
X13596Y32470D2*
X14778D1*
Y32155D2*
Y32470D1*
X13596Y32155D2*
Y32470D1*
X12067Y26084D2*
X15492D1*
Y22660D1*
X12067D1*
Y26084D1*
D36*
X11417Y26262D3*
G36*
X12075Y26069D2*
X12449Y26061D1*
X12075Y26069D1*
G37*
G36*
X12126Y26104D2*
X12598D1*
X12047Y25553D1*
X12126Y26104D1*
G37*
D32*
X14830Y31135D3*
X14778Y30594D2*
D10*
X13596D1*
X14778Y30279D2*
X13596D1*
Y30594D2*
Y30279D1*
X14778Y30594D2*
Y30279D1*
D32*
X20239Y17012D3*
X20780Y16959D2*
D10*
Y15778D1*
X21095Y16959D2*
Y15778D1*
X20780D2*
X21095D1*
X20780Y16959D2*
X21095D1*
X7436Y16660D2*
Y14691D1*
X8460Y16660D2*
Y14691D1*
X7436D2*
X8460D1*
X7751Y16660D2*
X7436D1*
X8145D2*
X8460D1*
X7751D2*
G03X8145Y16660I197J0D01*
G01*
X16846Y13837D2*
X16650Y14034D1*
X18224Y13837D2*
Y14034D1*
Y13837D2*
X18027D1*
X18224Y15215D2*
Y15412D1*
X18027D1*
X16650D2*
X16847D1*
X16650D2*
Y15215D1*
X17041Y13606D3*
X12828Y12386D2*
X14796D1*
X12828Y13488D2*
X14796D1*
Y12386D2*
Y13488D1*
X12828Y12386D2*
Y12740D1*
Y13134D2*
Y13488D1*
Y12740D2*
G03X12828Y13134I0J197D01*
G01*
X14796Y17567D2*
X12828D1*
X14796Y16307D2*
X12828D1*
Y17567D2*
Y16307D1*
X14796Y17567D2*
Y17134D1*
Y16740D2*
Y16307D1*
Y17134D2*
G03X14796Y16740I0J-197D01*
G01*
X18780Y41548D2*
G02X18780Y41548I0J392D01*
G01*
X15866Y29814D2*
X21693D1*
X15866Y35365D2*
Y29814D1*
Y35365D2*
X16321D1*
Y38869D2*
Y35365D1*
Y38869D2*
X16892D1*
Y43554D2*
Y38869D1*
Y43554D2*
X20667D1*
Y38869D1*
X21238D1*
Y35365D1*
X21693D1*
Y29814D1*
X16321Y35365D2*
X21238D1*
X16892Y38869D2*
X20667D1*
X21238D2*
X16321Y38470D1*
X21238D2*
X16321Y38086D1*
X21238D2*
X16321Y37687D1*
X21238D2*
X16321Y37289D1*
X21238D2*
X16321Y36904D1*
X21238D2*
X16321Y36505D1*
X21238D2*
X16321Y36107D1*
X21238D2*
X16321Y35722D1*
X16455Y34898D2*
X21104D1*
Y33312D1*
X16455Y31738D2*
X21104D1*
X16455Y34898D2*
Y33312D1*
X15866Y35365D2*
X16321D1*
X15866D2*
Y29814D1*
X21693D1*
Y35365D2*
Y29814D1*
X21238Y35365D2*
X21693D1*
X16321Y38869D2*
X16892D1*
X16321D2*
Y35365D1*
X21238D1*
Y38869D2*
Y35365D1*
X20667Y38869D2*
X21238D1*
X20667Y43554D2*
Y38869D1*
X16892D2*
X20667D1*
X16892Y43554D2*
Y38869D1*
Y43554D2*
X20667D1*
X7283Y35352D2*
Y35648D1*
X10374D2*
X7185D1*
X10374D2*
Y35884D1*
D18*
X9291Y33285D3*
X10276Y35352D2*
D10*
Y35648D1*
X7185D2*
Y35884D1*
X10374D2*
X7185D1*
X18937Y20437D2*
X19937D1*
X18937Y24437D2*
Y20437D1*
X19937Y24437D2*
Y20437D1*
X18937Y24437D2*
X19937D1*
X20937Y20437D2*
X21937D1*
X20937Y24437D2*
Y20437D1*
X21937Y24437D2*
Y20437D1*
X20937Y24437D2*
X21937D1*
X8780Y-2174D2*
G02X8780Y-2174I0J-392D01*
G01*
X11693Y9560D2*
X5866D1*
X11693Y4009D2*
Y9560D1*
Y4009D2*
X11238D1*
Y505D2*
Y4009D1*
Y505D2*
X10667D1*
Y-4180D2*
Y505D1*
Y-4180D2*
X6892D1*
Y505D1*
X6321D1*
Y4009D1*
X5866D1*
Y9560D1*
X11238Y4009D2*
X6321D1*
X10667Y505D2*
X6892D1*
X6321D2*
X11238Y904D1*
X6321D2*
X11238Y1288D1*
X6321D2*
X11238Y1687D1*
X6321D2*
X11238Y2085D1*
X6321D2*
X11238Y2470D1*
X6321D2*
X11238Y2869D1*
X6321D2*
X11238Y3267D1*
X6321D2*
X11238Y3652D1*
X11104Y4476D2*
X6455D1*
Y6062D1*
X11104Y7636D2*
X6455D1*
X11104Y4476D2*
Y6062D1*
X11693Y4009D2*
X11238D1*
X11693D2*
Y9560D1*
X5866D1*
Y4009D2*
Y9560D1*
X6321Y4009D2*
X5866D1*
X11238Y505D2*
X10667D1*
X11238D2*
Y4009D1*
X6321D1*
Y505D2*
Y4009D1*
X6892Y505D2*
X6321D1*
X6892Y-4180D2*
Y505D1*
X10667D2*
X6892D1*
X10667Y-4180D2*
Y505D1*
Y-4180D2*
X6892D1*
X18780Y-2174D2*
G02X18780Y-2174I0J-392D01*
G01*
X21693Y9560D2*
X15866D1*
X21693Y4009D2*
Y9560D1*
Y4009D2*
X21238D1*
Y505D2*
Y4009D1*
Y505D2*
X20667D1*
Y-4180D2*
Y505D1*
Y-4180D2*
X16892D1*
Y505D1*
X16321D1*
Y4009D1*
X15866D1*
Y9560D1*
X21238Y4009D2*
X16321D1*
X20667Y505D2*
X16892D1*
X16321D2*
X21238Y904D1*
X16321D2*
X21238Y1288D1*
X16321D2*
X21238Y1687D1*
X16321D2*
X21238Y2085D1*
X16321D2*
X21238Y2470D1*
X16321D2*
X21238Y2869D1*
X16321D2*
X21238Y3267D1*
X16321D2*
X21238Y3652D1*
X21104Y4476D2*
X16455D1*
Y6062D1*
X21104Y7636D2*
X16455D1*
X21104Y4476D2*
Y6062D1*
X21693Y4009D2*
X21238D1*
X21693D2*
Y9560D1*
X15866D1*
Y4009D2*
Y9560D1*
X16321Y4009D2*
X15866D1*
X21238Y505D2*
X20667D1*
X21238D2*
Y4009D1*
X16321D1*
Y505D2*
Y4009D1*
X16892Y505D2*
X16321D1*
X16892Y-4180D2*
Y505D1*
X20667D2*
X16892D1*
X20667Y-4180D2*
Y505D1*
Y-4180D2*
X16892D1*
X15190Y33112D2*
Y33211D1*
Y34136D2*
Y34234D1*
Y33112D2*
X15091D1*
Y33211D1*
X12591Y35415D2*
X15033D1*
X12434Y33112D2*
Y33211D1*
Y33112D2*
X12533D1*
Y33211D1*
X12434Y34136D2*
Y34234D1*
X15033Y35415D2*
Y35002D1*
Y34392D2*
Y34234D1*
X15190D1*
X12434D2*
X12591D1*
Y35169D2*
Y35415D1*
X12533Y34136D2*
Y34215D1*
X15091Y34136D2*
Y34215D1*
X12591Y34234D2*
X15033D1*
X13104Y35927D2*
X14521D1*
Y35415D1*
X13104Y35907D2*
Y35415D1*
X13812Y35228D2*
Y34461D1*
Y34441D2*
X13714Y34638D1*
X13812Y34441D2*
X13910Y34638D1*
X13812Y35287D2*
X13714Y35071D1*
X13812Y35287D2*
X13910Y35071D1*
X12800Y31706D2*
D22*
X12790Y31725D1*
X12771Y31744D1*
X12752Y31754D1*
X12714D1*
X12695Y31744D1*
X12676Y31725D1*
X12666Y31706D1*
X12656Y31677D1*
Y31629D1*
X12666Y31601D1*
X12676Y31582D1*
X12695Y31563D1*
X12714Y31553D1*
X12752D1*
X12771Y31563D1*
X12790Y31582D1*
X12800Y31601D1*
X12920Y31715D2*
X12939Y31725D1*
X12968Y31754D1*
Y31553D1*
X12757Y28831D2*
X12747Y28850D1*
X12728Y28869D1*
X12709Y28879D1*
X12671D1*
X12652Y28869D1*
X12633Y28850D1*
X12623Y28831D1*
X12613Y28802D1*
Y28754D1*
X12623Y28726D1*
X12633Y28707D1*
X12652Y28688D1*
X12671Y28678D1*
X12709D1*
X12728Y28688D1*
X12747Y28707D1*
X12757Y28726D1*
X12886Y28831D2*
Y28840D1*
X12896Y28860D1*
X12906Y28869D1*
X12925Y28879D1*
X12963D1*
X12982Y28869D1*
X12992Y28860D1*
X13001Y28840D1*
Y28821D1*
X12992Y28802D1*
X12972Y28774D1*
X12877Y28678D1*
X13011D1*
X11757Y28083D2*
X11747Y28102D1*
X11728Y28122D1*
X11709Y28131D1*
X11671D1*
X11652Y28122D1*
X11633Y28102D1*
X11623Y28083D1*
X11613Y28055D1*
Y28007D1*
X11623Y27978D1*
X11633Y27959D1*
X11652Y27940D1*
X11671Y27930D1*
X11709D1*
X11728Y27940D1*
X11747Y27959D1*
X11757Y27978D1*
X11896Y28131D2*
X12001D1*
X11944Y28054D1*
X11972D1*
X11992Y28045D1*
X12001Y28035D1*
X12011Y28007D1*
Y27988D1*
X12001Y27959D1*
X11982Y27940D1*
X11953Y27930D1*
X11925D1*
X11896Y27940D1*
X11886Y27949D1*
X11877Y27968D1*
X15502Y29519D2*
X15493Y29538D1*
X15473Y29557D1*
X15454Y29566D1*
X15416D1*
X15397Y29557D1*
X15378Y29538D1*
X15368Y29519D1*
X15359Y29490D1*
Y29442D1*
X15368Y29413D1*
X15378Y29394D1*
X15397Y29375D1*
X15416Y29365D1*
X15454D1*
X15473Y29375D1*
X15493Y29394D1*
X15502Y29413D1*
X15718Y29365D2*
Y29566D1*
X15622Y29432D1*
X15765D1*
X15507Y28019D2*
X15497Y28038D1*
X15478Y28057D1*
X15459Y28066D1*
X15421D1*
X15402Y28057D1*
X15383Y28038D1*
X15373Y28019D1*
X15363Y27990D1*
Y27942D1*
X15373Y27913D1*
X15383Y27894D1*
X15402Y27875D1*
X15421Y27865D1*
X15459D1*
X15478Y27875D1*
X15497Y27894D1*
X15507Y27913D1*
X15742Y28066D2*
X15646D1*
X15636Y27980D1*
X15646Y27990D1*
X15675Y27999D1*
X15703D1*
X15732Y27990D1*
X15751Y27971D1*
X15761Y27942D1*
Y27923D1*
X15751Y27894D1*
X15732Y27875D1*
X15703Y27865D1*
X15675D1*
X15646Y27875D1*
X15636Y27885D1*
X15627Y27904D1*
X14730Y32262D2*
X14711Y32252D1*
X14692Y32233D1*
X14683Y32214D1*
Y32176D1*
X14692Y32156D1*
X14711Y32137D1*
X14730Y32128D1*
X14759Y32118D1*
X14807D1*
X14836Y32128D1*
X14855Y32137D1*
X14874Y32156D1*
X14884Y32176D1*
Y32214D1*
X14874Y32233D1*
X14855Y32252D1*
X14836Y32262D1*
X14711Y32496D2*
X14692Y32487D1*
X14683Y32458D1*
Y32439D1*
X14692Y32410D1*
X14721Y32391D1*
X14769Y32382D1*
X14817D1*
X14855Y32391D1*
X14874Y32410D1*
X14884Y32439D1*
Y32449D1*
X14874Y32477D1*
X14855Y32496D1*
X14826Y32506D1*
X14817D1*
X14788Y32496D1*
X14769Y32477D1*
X14759Y32449D1*
Y32439D1*
X14769Y32410D1*
X14788Y32391D1*
X14817Y32382D1*
X9172Y24268D2*
X9163Y24287D1*
X9143Y24307D1*
X9124Y24316D1*
X9086D1*
X9067Y24307D1*
X9048Y24287D1*
X9038Y24268D1*
X9029Y24240D1*
Y24192D1*
X9038Y24163D1*
X9048Y24144D1*
X9067Y24125D1*
X9086Y24115D1*
X9124D1*
X9143Y24125D1*
X9163Y24144D1*
X9172Y24163D1*
X9330Y24115D2*
X9426Y24316D1*
X9292D1*
X17232Y22862D2*
X17213Y22852D1*
X17194Y22833D1*
X17185Y22814D1*
Y22776D1*
X17194Y22756D1*
X17213Y22737D1*
X17232Y22728D1*
X17261Y22718D1*
X17309D1*
X17338Y22728D1*
X17357Y22737D1*
X17376Y22756D1*
X17386Y22776D1*
Y22814D1*
X17376Y22833D1*
X17357Y22852D1*
X17338Y22862D1*
X17185Y23029D2*
X17194Y23001D1*
X17213Y22991D1*
X17233D1*
X17252Y23001D1*
X17261Y23020D1*
X17271Y23058D1*
X17280Y23087D1*
X17300Y23106D1*
X17319Y23115D1*
X17347D1*
X17366Y23106D1*
X17376Y23096D1*
X17386Y23068D1*
Y23029D1*
X17376Y23001D1*
X17366Y22991D1*
X17347Y22982D1*
X17319D1*
X17300Y22991D1*
X17280Y23010D1*
X17271Y23039D1*
X17261Y23077D1*
X17252Y23096D1*
X17233Y23106D1*
X17213D1*
X17194Y23096D1*
X17185Y23068D1*
Y23029D1*
X11535Y21145D2*
X11526Y21164D1*
X11506Y21184D1*
X11487Y21193D1*
X11449D1*
X11430Y21184D1*
X11411Y21164D1*
X11401Y21145D1*
X11392Y21117D1*
Y21069D1*
X11401Y21040D1*
X11411Y21021D1*
X11430Y21002D1*
X11449Y20992D1*
X11487D1*
X11506Y21002D1*
X11526Y21021D1*
X11535Y21040D1*
X11780Y21126D2*
X11770Y21097D1*
X11751Y21078D1*
X11722Y21069D1*
X11713D1*
X11684Y21078D1*
X11665Y21097D1*
X11655Y21126D1*
Y21136D1*
X11665Y21164D1*
X11684Y21183D1*
X11713Y21193D1*
X11722D1*
X11751Y21183D1*
X11770Y21164D1*
X11780Y21126D1*
Y21078D1*
X11770Y21030D1*
X11751Y21002D1*
X11722Y20992D1*
X11703D1*
X11674Y21002D1*
X11665Y21021D1*
X14480Y30298D2*
X14461Y30288D1*
X14442Y30269D1*
X14433Y30250D1*
Y30212D1*
X14442Y30193D1*
X14461Y30174D1*
X14480Y30164D1*
X14509Y30154D1*
X14557D1*
X14586Y30164D1*
X14605Y30174D1*
X14624Y30193D1*
X14634Y30212D1*
Y30250D1*
X14624Y30269D1*
X14605Y30288D1*
X14586Y30298D1*
X14471Y30418D2*
X14461Y30437D1*
X14433Y30466D1*
X14634D1*
X14433Y30643D2*
X14442Y30614D1*
X14471Y30595D1*
X14519Y30586D1*
X14548D1*
X14595Y30595D1*
X14624Y30614D1*
X14634Y30643D1*
Y30662D1*
X14624Y30691D1*
X14595Y30710D1*
X14548Y30720D1*
X14519D1*
X14471Y30710D1*
X14442Y30691D1*
X14433Y30662D1*
Y30643D1*
X14471Y30710D2*
X14595Y30595D1*
X15591Y17769D2*
X15581Y17788D1*
X15562Y17807D1*
X15543Y17816D1*
X15505D1*
X15486Y17807D1*
X15467Y17788D1*
X15457Y17769D1*
X15447Y17740D1*
Y17692D1*
X15457Y17663D1*
X15467Y17644D1*
X15486Y17625D1*
X15505Y17615D1*
X15543D1*
X15562Y17625D1*
X15581Y17644D1*
X15591Y17663D1*
X15711Y17778D2*
X15730Y17788D1*
X15759Y17816D1*
Y17615D1*
X15879Y17778D2*
X15898Y17788D1*
X15927Y17816D1*
Y17615D1*
X20798Y17950D2*
X20788Y17969D1*
X20769Y17988D1*
X20750Y17998D1*
X20712D1*
X20693Y17988D1*
X20674Y17969D1*
X20664Y17950D1*
X20654Y17921D1*
Y17873D1*
X20664Y17845D1*
X20674Y17826D1*
X20693Y17807D1*
X20712Y17797D1*
X20750D1*
X20769Y17807D1*
X20788Y17826D1*
X20798Y17845D1*
X20918Y17959D2*
X20937Y17969D1*
X20966Y17998D1*
Y17797D1*
X21095Y17950D2*
Y17959D1*
X21105Y17979D1*
X21114Y17988D1*
X21134Y17998D1*
X21172D1*
X21191Y17988D1*
X21200Y17979D1*
X21210Y17959D1*
Y17940D1*
X21200Y17921D1*
X21181Y17893D1*
X21086Y17797D1*
X21220D1*
X7809Y17915D2*
X7800Y17934D1*
X7780Y17953D1*
X7761Y17962D1*
X7723D1*
X7704Y17953D1*
X7685Y17934D1*
X7675Y17915D1*
X7666Y17886D1*
Y17838D1*
X7675Y17809D1*
X7685Y17790D1*
X7704Y17771D1*
X7723Y17762D1*
X7761D1*
X7780Y17771D1*
X7800Y17790D1*
X7809Y17809D1*
X7929Y17924D2*
X7948Y17934D1*
X7977Y17962D1*
Y17762D1*
X8116Y17962D2*
X8221D1*
X8164Y17886D1*
X8193D1*
X8212Y17876D1*
X8221Y17867D1*
X8231Y17838D1*
Y17819D1*
X8221Y17790D1*
X8202Y17771D1*
X8174Y17762D1*
X8145D1*
X8116Y17771D1*
X8107Y17781D1*
X8097Y17800D1*
X14043Y29456D2*
X14034Y29475D1*
X14014Y29494D1*
X13995Y29504D1*
X13957D1*
X13938Y29494D1*
X13919Y29475D1*
X13909Y29456D1*
X13900Y29427D1*
Y29379D1*
X13909Y29351D1*
X13919Y29332D1*
X13938Y29313D1*
X13957Y29303D1*
X13995D1*
X14014Y29313D1*
X14034Y29332D1*
X14043Y29351D1*
X14163Y29465D2*
X14182Y29475D1*
X14211Y29504D1*
Y29303D1*
X14427D2*
Y29504D1*
X14331Y29370D1*
X14474D1*
X5684Y16802D2*
X5675Y16821D1*
X5655Y16840D1*
X5636Y16849D1*
X5598D1*
X5579Y16840D1*
X5560Y16821D1*
X5550Y16802D1*
X5541Y16773D1*
Y16725D1*
X5550Y16696D1*
X5560Y16677D1*
X5579Y16658D1*
X5598Y16648D1*
X5636D1*
X5655Y16658D1*
X5675Y16677D1*
X5684Y16696D1*
X5804Y16811D2*
X5823Y16821D1*
X5852Y16849D1*
Y16648D1*
X6087Y16849D2*
X5991D1*
X5982Y16763D1*
X5991Y16773D1*
X6020Y16782D1*
X6049D1*
X6077Y16773D1*
X6097Y16754D1*
X6106Y16725D1*
Y16706D1*
X6097Y16677D1*
X6077Y16658D1*
X6049Y16648D1*
X6020D1*
X5991Y16658D1*
X5982Y16668D1*
X5972Y16687D1*
X18178Y28769D2*
X18168Y28788D1*
X18149Y28807D1*
X18130Y28816D1*
X18092D1*
X18072Y28807D1*
X18053Y28788D1*
X18044Y28769D1*
X18034Y28740D1*
Y28692D1*
X18044Y28663D1*
X18053Y28644D1*
X18072Y28625D1*
X18092Y28615D1*
X18130D1*
X18149Y28625D1*
X18168Y28644D1*
X18178Y28663D1*
X18298Y28778D2*
X18317Y28788D1*
X18346Y28816D1*
Y28615D1*
X18580Y28788D2*
X18571Y28807D1*
X18542Y28816D1*
X18523D1*
X18494Y28807D1*
X18475Y28778D1*
X18466Y28730D1*
Y28682D1*
X18475Y28644D1*
X18494Y28625D1*
X18523Y28615D1*
X18533D1*
X18561Y28625D1*
X18580Y28644D1*
X18590Y28673D1*
Y28682D1*
X18580Y28711D1*
X18561Y28730D1*
X18533Y28740D1*
X18523D1*
X18494Y28730D1*
X18475Y28711D1*
X18466Y28682D1*
X21913Y15274D2*
X21904Y15293D1*
X21885Y15312D1*
X21866Y15322D1*
X21827D1*
X21808Y15312D1*
X21789Y15293D1*
X21779Y15274D1*
X21770Y15245D1*
Y15197D1*
X21779Y15169D1*
X21789Y15149D1*
X21808Y15130D1*
X21827Y15121D1*
X21866D1*
X21885Y15130D1*
X21904Y15149D1*
X21913Y15169D1*
X22033Y15283D2*
X22053Y15293D1*
X22081Y15321D1*
Y15121D1*
X22240D2*
X22335Y15321D1*
X22201D1*
X13713Y15331D2*
X13704Y15350D1*
X13685Y15369D1*
X13665Y15379D1*
X13627D1*
X13608Y15369D1*
X13589Y15350D1*
X13579Y15331D1*
X13570Y15302D1*
Y15254D1*
X13579Y15226D1*
X13589Y15207D1*
X13608Y15188D1*
X13627Y15178D1*
X13665D1*
X13685Y15188D1*
X13704Y15207D1*
X13713Y15226D1*
X13833Y15340D2*
X13852Y15350D1*
X13881Y15379D1*
Y15178D1*
X14049Y15379D2*
X14020Y15369D1*
X14011Y15350D1*
Y15331D1*
X14020Y15312D1*
X14039Y15302D1*
X14078Y15293D1*
X14106Y15283D1*
X14125Y15264D1*
X14135Y15245D1*
Y15216D1*
X14125Y15197D1*
X14116Y15187D1*
X14087Y15178D1*
X14049D1*
X14020Y15187D1*
X14011Y15197D1*
X14001Y15216D1*
Y15245D1*
X14011Y15264D1*
X14030Y15283D1*
X14058Y15293D1*
X14097Y15302D1*
X14116Y15312D1*
X14125Y15331D1*
Y15350D1*
X14116Y15369D1*
X14087Y15379D1*
X14049D1*
X10428Y14706D2*
X10418Y14725D1*
X10399Y14744D1*
X10380Y14754D1*
X10342D1*
X10322Y14744D1*
X10303Y14725D1*
X10294Y14706D1*
X10284Y14677D1*
Y14629D1*
X10294Y14601D1*
X10303Y14582D1*
X10322Y14563D1*
X10342Y14553D1*
X10380D1*
X10399Y14563D1*
X10418Y14582D1*
X10428Y14601D1*
X10548Y14715D2*
X10567Y14725D1*
X10596Y14754D1*
Y14553D1*
X10840Y14687D2*
X10830Y14658D1*
X10811Y14639D1*
X10782Y14629D1*
X10773D1*
X10744Y14639D1*
X10725Y14658D1*
X10716Y14687D1*
Y14696D1*
X10725Y14725D1*
X10744Y14744D1*
X10773Y14754D1*
X10782D1*
X10811Y14744D1*
X10830Y14725D1*
X10840Y14687D1*
Y14639D1*
X10830Y14591D1*
X10811Y14562D1*
X10782Y14553D1*
X10763D1*
X10735Y14562D1*
X10725Y14582D1*
X7704Y13477D2*
X7694Y13496D1*
X7675Y13515D1*
X7656Y13525D1*
X7618D1*
X7598Y13515D1*
X7579Y13496D1*
X7570Y13477D1*
X7560Y13448D1*
Y13401D1*
X7570Y13372D1*
X7579Y13353D1*
X7598Y13334D1*
X7618Y13324D1*
X7656D1*
X7675Y13334D1*
X7694Y13353D1*
X7704Y13372D1*
X7833Y13477D2*
Y13487D1*
X7843Y13506D1*
X7852Y13515D1*
X7872Y13525D1*
X7910D1*
X7929Y13515D1*
X7938Y13506D1*
X7948Y13487D1*
Y13467D1*
X7938Y13448D1*
X7919Y13420D1*
X7824Y13324D1*
X7958D1*
X8135Y13525D2*
X8106Y13515D1*
X8087Y13487D1*
X8078Y13439D1*
Y13410D1*
X8087Y13362D1*
X8106Y13334D1*
X8135Y13324D1*
X8154D1*
X8183Y13334D1*
X8202Y13362D1*
X8212Y13410D1*
Y13439D1*
X8202Y13487D1*
X8183Y13515D1*
X8154Y13525D1*
X8135D1*
X8202Y13487D2*
X8087Y13362D1*
X15548Y14456D2*
X15538Y14475D1*
X15519Y14494D1*
X15500Y14504D1*
X15462D1*
X15443Y14494D1*
X15424Y14475D1*
X15414Y14456D1*
X15404Y14427D1*
Y14379D1*
X15414Y14351D1*
X15424Y14332D1*
X15443Y14313D1*
X15462Y14303D1*
X15500D1*
X15519Y14313D1*
X15538Y14332D1*
X15548Y14351D1*
X15678Y14456D2*
Y14465D1*
X15687Y14485D1*
X15697Y14494D1*
X15716Y14504D1*
X15754D1*
X15773Y14494D1*
X15783Y14485D1*
X15792Y14465D1*
Y14446D1*
X15783Y14427D1*
X15764Y14399D1*
X15668Y14303D1*
X15802D1*
X15922Y14465D2*
X15941Y14475D1*
X15970Y14504D1*
Y14303D1*
X11755Y13956D2*
X11745Y13975D1*
X11726Y13994D1*
X11707Y14004D1*
X11669D1*
X11650Y13994D1*
X11631Y13975D1*
X11621Y13956D1*
X11611Y13927D1*
Y13879D1*
X11621Y13851D1*
X11631Y13832D1*
X11650Y13813D1*
X11669Y13803D1*
X11707D1*
X11726Y13813D1*
X11745Y13832D1*
X11755Y13851D1*
X11885Y13956D2*
Y13965D1*
X11894Y13985D1*
X11904Y13994D1*
X11923Y14004D1*
X11961D1*
X11980Y13994D1*
X11990Y13985D1*
X11999Y13965D1*
Y13946D1*
X11990Y13927D1*
X11971Y13899D1*
X11875Y13803D1*
X12009D1*
X12138Y13956D2*
Y13965D1*
X12148Y13985D1*
X12157Y13994D1*
X12177Y14004D1*
X12215D1*
X12234Y13994D1*
X12243Y13985D1*
X12253Y13965D1*
Y13946D1*
X12243Y13927D1*
X12224Y13899D1*
X12129Y13803D1*
X12263D1*
X15505Y13728D2*
X15495Y13747D1*
X15476Y13766D1*
X15457Y13776D1*
X15419D1*
X15400Y13766D1*
X15381Y13747D1*
X15371Y13728D1*
X15361Y13699D1*
Y13651D1*
X15371Y13623D1*
X15381Y13604D1*
X15400Y13585D1*
X15419Y13575D1*
X15457D1*
X15476Y13585D1*
X15495Y13604D1*
X15505Y13623D1*
X15635Y13728D2*
Y13737D1*
X15644Y13757D1*
X15654Y13766D1*
X15673Y13776D1*
X15711D1*
X15730Y13766D1*
X15740Y13757D1*
X15749Y13737D1*
Y13718D1*
X15740Y13699D1*
X15721Y13671D1*
X15625Y13575D1*
X15759D1*
X15898Y13776D2*
X16003D1*
X15946Y13699D1*
X15974D1*
X15993Y13690D1*
X16003Y13680D1*
X16013Y13651D1*
Y13632D1*
X16003Y13604D1*
X15984Y13585D1*
X15955Y13575D1*
X15927D1*
X15898Y13585D1*
X15888Y13594D1*
X15879Y13613D1*
X18250Y13519D2*
X18241Y13538D1*
X18221Y13557D1*
X18202Y13566D1*
X18164D1*
X18145Y13557D1*
X18126Y13538D1*
X18116Y13519D1*
X18107Y13490D1*
Y13442D1*
X18116Y13413D1*
X18126Y13394D1*
X18145Y13375D1*
X18164Y13365D1*
X18202D1*
X18221Y13375D1*
X18241Y13394D1*
X18250Y13413D1*
X18380Y13518D2*
Y13528D1*
X18389Y13547D1*
X18399Y13557D1*
X18418Y13566D1*
X18456D1*
X18475Y13557D1*
X18485Y13547D1*
X18494Y13528D1*
Y13509D1*
X18485Y13490D1*
X18466Y13461D1*
X18370Y13365D1*
X18504D1*
X18720D2*
Y13566D1*
X18624Y13432D1*
X18767D1*
X10380Y12706D2*
X10370Y12725D1*
X10351Y12744D1*
X10332Y12754D1*
X10294D1*
X10275Y12744D1*
X10256Y12725D1*
X10246Y12706D1*
X10236Y12677D1*
Y12629D1*
X10246Y12601D1*
X10256Y12582D1*
X10275Y12563D1*
X10294Y12553D1*
X10332D1*
X10351Y12563D1*
X10370Y12582D1*
X10380Y12601D1*
X10510Y12706D2*
Y12715D1*
X10519Y12735D1*
X10529Y12744D1*
X10548Y12754D1*
X10586D1*
X10605Y12744D1*
X10615Y12735D1*
X10624Y12715D1*
Y12696D1*
X10615Y12677D1*
X10596Y12649D1*
X10500Y12553D1*
X10634D1*
X10868Y12754D2*
X10773D1*
X10763Y12668D1*
X10773Y12677D1*
X10802Y12687D1*
X10830D1*
X10859Y12677D1*
X10878Y12658D1*
X10888Y12629D1*
Y12610D1*
X10878Y12582D1*
X10859Y12562D1*
X10830Y12553D1*
X10802D1*
X10773Y12562D1*
X10763Y12572D1*
X10754Y12591D1*
X15510Y12706D2*
X15500Y12725D1*
X15481Y12744D1*
X15462Y12754D1*
X15424D1*
X15404Y12744D1*
X15385Y12725D1*
X15376Y12706D1*
X15366Y12677D1*
Y12629D1*
X15376Y12601D1*
X15385Y12582D1*
X15404Y12563D1*
X15424Y12553D1*
X15462D1*
X15481Y12563D1*
X15500Y12582D1*
X15510Y12601D1*
X15639Y12706D2*
Y12715D1*
X15649Y12735D1*
X15658Y12744D1*
X15678Y12754D1*
X15716D1*
X15735Y12744D1*
X15744Y12735D1*
X15754Y12715D1*
Y12696D1*
X15744Y12677D1*
X15725Y12649D1*
X15630Y12553D1*
X15764D1*
X15998Y12725D2*
X15989Y12744D1*
X15960Y12754D1*
X15941D1*
X15912Y12744D1*
X15893Y12715D1*
X15884Y12668D1*
Y12620D1*
X15893Y12582D1*
X15912Y12562D1*
X15941Y12553D1*
X15951D1*
X15979Y12562D1*
X15998Y12582D1*
X16008Y12610D1*
Y12620D1*
X15998Y12649D1*
X15979Y12668D1*
X15951Y12677D1*
X15941D1*
X15912Y12668D1*
X15893Y12649D1*
X15884Y12620D1*
X16880Y12706D2*
X16870Y12725D1*
X16851Y12744D1*
X16832Y12754D1*
X16794D1*
X16775Y12744D1*
X16756Y12725D1*
X16746Y12706D1*
X16736Y12677D1*
Y12629D1*
X16746Y12601D1*
X16756Y12582D1*
X16775Y12563D1*
X16794Y12553D1*
X16832D1*
X16851Y12563D1*
X16870Y12582D1*
X16880Y12601D1*
X17010Y12706D2*
Y12715D1*
X17019Y12735D1*
X17029Y12744D1*
X17048Y12754D1*
X17086D1*
X17105Y12744D1*
X17115Y12735D1*
X17124Y12715D1*
Y12696D1*
X17115Y12677D1*
X17096Y12649D1*
X17000Y12553D1*
X17134D1*
X17292D2*
X17388Y12754D1*
X17254D1*
X18192Y12706D2*
X18183Y12725D1*
X18164Y12744D1*
X18145Y12754D1*
X18106D1*
X18087Y12744D1*
X18068Y12725D1*
X18058Y12706D1*
X18049Y12677D1*
Y12629D1*
X18058Y12601D1*
X18068Y12582D1*
X18087Y12563D1*
X18106Y12553D1*
X18145D1*
X18164Y12563D1*
X18183Y12582D1*
X18192Y12601D1*
X18322Y12706D2*
Y12715D1*
X18332Y12735D1*
X18341Y12744D1*
X18360Y12754D1*
X18399D1*
X18418Y12744D1*
X18427Y12735D1*
X18437Y12715D1*
Y12696D1*
X18427Y12677D1*
X18408Y12649D1*
X18312Y12553D1*
X18446D1*
X18614Y12754D2*
X18586Y12744D1*
X18576Y12725D1*
Y12706D1*
X18586Y12687D1*
X18605Y12677D1*
X18643Y12668D1*
X18672Y12658D1*
X18691Y12639D1*
X18700Y12620D1*
Y12591D1*
X18691Y12572D1*
X18681Y12562D1*
X18652Y12553D1*
X18614D1*
X18586Y12562D1*
X18576Y12572D1*
X18566Y12591D1*
Y12620D1*
X18576Y12639D1*
X18595Y12658D1*
X18624Y12668D1*
X18662Y12677D1*
X18681Y12687D1*
X18691Y12706D1*
Y12725D1*
X18681Y12744D1*
X18652Y12754D1*
X18614D1*
X11755Y11956D2*
X11745Y11975D1*
X11726Y11994D1*
X11707Y12004D1*
X11669D1*
X11649Y11994D1*
X11630Y11975D1*
X11621Y11956D1*
X11611Y11927D1*
Y11879D1*
X11621Y11851D1*
X11630Y11832D1*
X11649Y11813D1*
X11669Y11803D1*
X11707D1*
X11726Y11813D1*
X11745Y11832D1*
X11755Y11851D1*
X11884Y11956D2*
Y11965D1*
X11894Y11985D1*
X11903Y11994D1*
X11923Y12004D1*
X11961D1*
X11980Y11994D1*
X11989Y11985D1*
X11999Y11965D1*
Y11946D1*
X11989Y11927D1*
X11970Y11899D1*
X11875Y11803D1*
X12009D1*
X12253Y11937D2*
X12243Y11908D1*
X12224Y11889D1*
X12195Y11879D1*
X12186D1*
X12157Y11889D1*
X12138Y11908D1*
X12129Y11937D1*
Y11946D1*
X12138Y11975D1*
X12157Y11994D1*
X12186Y12004D1*
X12195D1*
X12224Y11994D1*
X12243Y11975D1*
X12253Y11937D1*
Y11889D1*
X12243Y11841D1*
X12224Y11812D1*
X12195Y11803D1*
X12176D1*
X12148Y11812D1*
X12138Y11832D1*
X13630Y11206D2*
X13620Y11225D1*
X13601Y11244D1*
X13582Y11254D1*
X13544D1*
X13525Y11244D1*
X13506Y11225D1*
X13496Y11206D1*
X13486Y11177D1*
Y11129D1*
X13496Y11101D1*
X13506Y11082D1*
X13525Y11063D1*
X13544Y11053D1*
X13582D1*
X13601Y11063D1*
X13620Y11082D1*
X13630Y11101D1*
X13769Y11254D2*
X13874D1*
X13817Y11177D1*
X13846D1*
X13865Y11168D1*
X13874Y11158D1*
X13884Y11129D1*
Y11110D1*
X13874Y11082D1*
X13855Y11062D1*
X13826Y11053D1*
X13798D1*
X13769Y11062D1*
X13760Y11072D1*
X13750Y11091D1*
X14061Y11254D2*
X14032Y11244D1*
X14013Y11215D1*
X14004Y11168D1*
Y11139D1*
X14013Y11091D1*
X14032Y11062D1*
X14061Y11053D1*
X14080D1*
X14109Y11062D1*
X14128Y11091D1*
X14138Y11139D1*
Y11168D1*
X14128Y11215D1*
X14109Y11244D1*
X14080Y11254D1*
X14061D1*
X14128Y11215D2*
X14013Y11091D1*
X13673Y10456D2*
X13663Y10475D1*
X13644Y10494D1*
X13625Y10504D1*
X13587D1*
X13568Y10494D1*
X13549Y10475D1*
X13539Y10456D1*
X13529Y10427D1*
Y10379D1*
X13539Y10351D1*
X13549Y10332D1*
X13568Y10313D1*
X13587Y10303D1*
X13625D1*
X13644Y10313D1*
X13663Y10332D1*
X13673Y10351D1*
X13812Y10504D2*
X13917D1*
X13860Y10427D1*
X13889D1*
X13908Y10418D1*
X13917Y10408D1*
X13927Y10379D1*
Y10360D1*
X13917Y10332D1*
X13898Y10312D1*
X13869Y10303D1*
X13841D1*
X13812Y10312D1*
X13803Y10322D1*
X13793Y10341D1*
X14047Y10465D2*
X14066Y10475D1*
X14095Y10504D1*
Y10303D1*
X13630Y9706D2*
X13620Y9725D1*
X13601Y9744D1*
X13582Y9754D1*
X13544D1*
X13525Y9744D1*
X13506Y9725D1*
X13496Y9706D1*
X13486Y9677D1*
Y9629D1*
X13496Y9601D1*
X13506Y9582D1*
X13525Y9563D1*
X13544Y9553D1*
X13582D1*
X13601Y9563D1*
X13620Y9582D1*
X13630Y9601D1*
X13769Y9754D2*
X13874D1*
X13817Y9677D1*
X13846D1*
X13865Y9668D1*
X13874Y9658D1*
X13884Y9629D1*
Y9610D1*
X13874Y9582D1*
X13855Y9562D1*
X13826Y9553D1*
X13798D1*
X13769Y9562D1*
X13760Y9572D1*
X13750Y9591D1*
X14013Y9706D2*
Y9715D1*
X14023Y9735D1*
X14032Y9744D1*
X14052Y9754D1*
X14090D1*
X14109Y9744D1*
X14118Y9735D1*
X14128Y9715D1*
Y9696D1*
X14118Y9677D1*
X14099Y9649D1*
X14004Y9553D1*
X14138D1*
X11755Y17769D2*
X11745Y17788D1*
X11726Y17807D1*
X11707Y17816D1*
X11669D1*
X11650Y17807D1*
X11631Y17788D1*
X11621Y17769D1*
X11611Y17740D1*
Y17692D1*
X11621Y17663D1*
X11631Y17644D1*
X11650Y17625D1*
X11669Y17615D1*
X11707D1*
X11726Y17625D1*
X11745Y17644D1*
X11755Y17663D1*
X11894Y17816D2*
X11999D1*
X11942Y17740D1*
X11971D1*
X11990Y17730D1*
X11999Y17721D1*
X12009Y17692D1*
Y17673D1*
X11999Y17644D1*
X11980Y17625D1*
X11951Y17615D1*
X11923D1*
X11894Y17625D1*
X11885Y17635D1*
X11875Y17654D1*
X12148Y17816D2*
X12253D1*
X12196Y17740D1*
X12224D1*
X12243Y17730D1*
X12253Y17721D1*
X12263Y17692D1*
Y17673D1*
X12253Y17644D1*
X12234Y17625D1*
X12205Y17615D1*
X12177D1*
X12148Y17625D1*
X12138Y17635D1*
X12129Y17654D1*
X7548Y24197D2*
X7538Y24216D1*
X7519Y24235D1*
X7500Y24244D1*
X7462D1*
X7443Y24235D1*
X7424Y24216D1*
X7414Y24197D1*
X7404Y24168D1*
Y24120D1*
X7414Y24091D1*
X7424Y24072D1*
X7443Y24053D1*
X7462Y24044D1*
X7500D1*
X7519Y24053D1*
X7538Y24072D1*
X7548Y24091D1*
X7802Y24244D2*
Y24044D1*
X7668Y24244D1*
Y24044D1*
X7922Y24206D2*
X7941Y24216D1*
X7970Y24244D1*
Y24044D1*
X20240Y25625D2*
Y25424D1*
X20307D1*
X20335Y25434D1*
X20355Y25453D1*
X20364Y25472D1*
X20374Y25501D1*
Y25549D1*
X20364Y25578D1*
X20355Y25597D1*
X20335Y25616D1*
X20307Y25625D1*
X20240D1*
X20503Y25577D2*
Y25587D1*
X20513Y25606D1*
X20522Y25616D1*
X20542Y25625D1*
X20580D1*
X20599Y25616D1*
X20608Y25606D1*
X20618Y25587D1*
Y25568D1*
X20608Y25549D1*
X20589Y25520D1*
X20494Y25424D1*
X20628D1*
X16659Y28904D2*
Y28703D1*
X16726D1*
X16754Y28713D1*
X16774Y28732D1*
X16783Y28751D1*
X16793Y28779D1*
Y28827D1*
X16783Y28856D1*
X16774Y28875D1*
X16754Y28894D1*
X16726Y28904D1*
X16659D1*
X16932D2*
X17037D1*
X16980Y28827D1*
X17008D1*
X17027Y28818D1*
X17037Y28808D1*
X17046Y28779D1*
Y28760D1*
X17037Y28732D1*
X17018Y28712D1*
X16989Y28703D1*
X16960D1*
X16932Y28712D1*
X16922Y28722D1*
X16913Y28741D1*
X10165Y29747D2*
X10041D1*
Y29546D1*
Y29651D2*
X10117D1*
X10285Y29708D2*
X10304Y29718D1*
X10333Y29747D1*
Y29546D1*
X13906Y33367D2*
Y33167D1*
X14170Y33320D2*
X14160Y33339D1*
X14141Y33358D1*
X14122Y33367D1*
X14084D1*
X14065Y33358D1*
X14046Y33339D1*
X14036Y33320D1*
X14026Y33291D1*
Y33243D1*
X14036Y33215D1*
X14046Y33195D1*
X14065Y33176D1*
X14084Y33167D1*
X14122D1*
X14141Y33176D1*
X14160Y33195D1*
X14170Y33215D1*
X14290Y33329D2*
X14309Y33339D1*
X14338Y33367D1*
Y33167D1*
X13521Y27278D2*
Y27077D1*
X13784Y27230D2*
X13775Y27249D1*
X13756Y27268D1*
X13737Y27278D1*
X13698D1*
X13679Y27268D1*
X13660Y27249D1*
X13650Y27230D1*
X13641Y27201D1*
Y27153D1*
X13650Y27125D1*
X13660Y27106D1*
X13679Y27087D1*
X13698Y27077D1*
X13737D1*
X13756Y27087D1*
X13775Y27106D1*
X13784Y27125D1*
X13914Y27230D2*
Y27239D1*
X13924Y27259D1*
X13933Y27268D1*
X13952Y27278D1*
X13991D1*
X14010Y27268D1*
X14019Y27259D1*
X14029Y27239D1*
Y27220D1*
X14019Y27201D1*
X14000Y27173D1*
X13904Y27077D1*
X14038D1*
X13868Y31457D2*
Y31256D1*
X14132Y31409D2*
X14122Y31428D1*
X14103Y31447D1*
X14084Y31457D1*
X14046D1*
X14026Y31447D1*
X14007Y31428D1*
X13998Y31409D1*
X13988Y31380D1*
Y31332D1*
X13998Y31304D1*
X14007Y31284D1*
X14026Y31265D1*
X14046Y31256D1*
X14084D1*
X14103Y31265D1*
X14122Y31284D1*
X14132Y31304D1*
X14271Y31456D2*
X14376D1*
X14319Y31380D1*
X14347D1*
X14366Y31370D1*
X14376Y31361D1*
X14386Y31332D1*
Y31313D1*
X14376Y31284D1*
X14357Y31265D1*
X14328Y31256D1*
X14299D1*
X14271Y31265D1*
X14261Y31275D1*
X14252Y31294D1*
X21790Y16459D2*
Y16258D1*
X22053Y16411D2*
X22044Y16430D1*
X22025Y16449D1*
X22006Y16459D1*
X21967D1*
X21948Y16449D1*
X21929Y16430D1*
X21919Y16411D1*
X21910Y16382D1*
Y16334D1*
X21919Y16306D1*
X21929Y16286D1*
X21948Y16267D1*
X21967Y16258D1*
X22006D1*
X22025Y16267D1*
X22044Y16286D1*
X22053Y16306D1*
X22288Y16458D2*
X22193D1*
X22183Y16372D1*
X22193Y16382D1*
X22221Y16392D1*
X22250D1*
X22279Y16382D1*
X22298Y16363D1*
X22307Y16334D1*
Y16315D1*
X22298Y16286D1*
X22279Y16267D1*
X22250Y16258D1*
X22221D1*
X22193Y16267D1*
X22183Y16277D1*
X22173Y16296D1*
X6569Y16905D2*
Y16704D1*
X6833Y16857D2*
X6823Y16876D1*
X6804Y16895D1*
X6785Y16905D1*
X6747D1*
X6728Y16895D1*
X6709Y16876D1*
X6699Y16857D1*
X6689Y16828D1*
Y16780D1*
X6699Y16752D1*
X6709Y16733D1*
X6728Y16714D1*
X6747Y16704D1*
X6785D1*
X6804Y16714D1*
X6823Y16733D1*
X6833Y16752D1*
X7068Y16876D2*
X7058Y16895D1*
X7029Y16905D1*
X7010D1*
X6982Y16895D1*
X6962Y16866D1*
X6953Y16819D1*
Y16771D1*
X6962Y16733D1*
X6982Y16713D1*
X7010Y16704D1*
X7020D1*
X7048Y16713D1*
X7068Y16733D1*
X7077Y16761D1*
Y16771D1*
X7068Y16800D1*
X7048Y16819D1*
X7020Y16828D1*
X7010D1*
X6982Y16819D1*
X6962Y16800D1*
X6953Y16771D1*
X17178Y16222D2*
Y16021D1*
X17442Y16175D2*
X17432Y16194D1*
X17413Y16213D1*
X17394Y16222D1*
X17356D1*
X17337Y16213D1*
X17318Y16194D1*
X17308Y16175D1*
X17298Y16146D1*
Y16098D1*
X17308Y16069D1*
X17318Y16050D1*
X17337Y16031D1*
X17356Y16021D1*
X17394D1*
X17413Y16031D1*
X17432Y16050D1*
X17442Y16069D1*
X17600Y16021D2*
X17696Y16222D1*
X17562D1*
X13553Y14662D2*
Y14461D1*
X13817Y14614D2*
X13807Y14633D1*
X13788Y14652D1*
X13769Y14662D1*
X13731D1*
X13712Y14652D1*
X13693Y14633D1*
X13683Y14614D1*
X13673Y14585D1*
Y14537D1*
X13683Y14509D1*
X13693Y14490D1*
X13712Y14471D1*
X13731Y14461D1*
X13769D1*
X13788Y14471D1*
X13807Y14490D1*
X13817Y14509D1*
X13985Y14662D2*
X13956Y14652D1*
X13946Y14633D1*
Y14614D1*
X13956Y14595D1*
X13975Y14585D1*
X14013Y14576D1*
X14042Y14566D1*
X14061Y14547D1*
X14071Y14528D1*
Y14499D1*
X14061Y14480D1*
X14052Y14470D1*
X14023Y14461D1*
X13985D1*
X13956Y14470D1*
X13946Y14480D1*
X13937Y14499D1*
Y14528D1*
X13946Y14547D1*
X13966Y14566D1*
X13994Y14576D1*
X14032Y14585D1*
X14052Y14595D1*
X14061Y14614D1*
Y14633D1*
X14052Y14652D1*
X14023Y14662D1*
X13985D1*
X13558Y18741D2*
Y18540D1*
X13822Y18693D2*
X13812Y18712D1*
X13793Y18731D1*
X13774Y18741D1*
X13736D1*
X13716Y18731D1*
X13697Y18712D1*
X13688Y18693D1*
X13678Y18664D1*
Y18616D1*
X13688Y18588D1*
X13697Y18568D1*
X13716Y18549D1*
X13736Y18540D1*
X13774D1*
X13793Y18549D1*
X13812Y18568D1*
X13822Y18588D1*
X14066Y18674D2*
X14056Y18645D1*
X14037Y18626D1*
X14009Y18616D1*
X13999D1*
X13970Y18626D1*
X13951Y18645D1*
X13942Y18674D1*
Y18683D1*
X13951Y18712D1*
X13970Y18731D1*
X13999Y18740D1*
X14009D1*
X14037Y18731D1*
X14056Y18712D1*
X14066Y18674D1*
Y18626D1*
X14056Y18578D1*
X14037Y18549D1*
X14009Y18540D1*
X13989D1*
X13961Y18549D1*
X13951Y18568D1*
X19368Y29612D2*
Y29459D1*
X19359Y29430D1*
X19349Y29420D1*
X19330Y29411D1*
X19311D1*
X19292Y29420D1*
X19282Y29430D1*
X19273Y29459D1*
Y29478D1*
X19488Y29573D2*
X19508Y29583D1*
X19536Y29611D1*
Y29411D1*
X8700Y33191D2*
Y33038D1*
X8691Y33010D1*
X8681Y33000D1*
X8662Y32990D1*
X8643D1*
X8624Y33000D1*
X8614Y33010D1*
X8605Y33038D1*
Y33057D1*
X8830Y33143D2*
Y33153D1*
X8840Y33172D1*
X8849Y33182D1*
X8868Y33191D1*
X8907D1*
X8926Y33182D1*
X8935Y33172D1*
X8945Y33153D1*
Y33134D1*
X8935Y33115D1*
X8916Y33086D1*
X8820Y32990D1*
X8954D1*
X19358Y24744D2*
Y24591D1*
X19348Y24563D1*
X19339Y24553D1*
X19320Y24544D1*
X19300D1*
X19281Y24553D1*
X19272Y24563D1*
X19262Y24591D1*
Y24610D1*
X19497Y24744D2*
X19602D1*
X19545Y24668D1*
X19574D1*
X19593Y24658D1*
X19602Y24649D1*
X19612Y24620D1*
Y24601D1*
X19602Y24572D1*
X19583Y24553D1*
X19554Y24544D1*
X19526D1*
X19497Y24553D1*
X19488Y24563D1*
X19478Y24582D1*
X21353Y24744D2*
Y24591D1*
X21344Y24563D1*
X21334Y24553D1*
X21315Y24544D1*
X21296D1*
X21277Y24553D1*
X21267Y24563D1*
X21257Y24591D1*
Y24610D1*
X21569Y24544D2*
Y24744D1*
X21473Y24610D1*
X21617D1*
X8388Y9930D2*
Y9777D1*
X8378Y9748D1*
X8369Y9739D1*
X8350Y9729D1*
X8330D1*
X8311Y9739D1*
X8302Y9748D1*
X8292Y9777D1*
Y9796D1*
X8623Y9930D2*
X8527D1*
X8518Y9844D1*
X8527Y9853D1*
X8556Y9863D1*
X8584D1*
X8613Y9853D1*
X8632Y9834D1*
X8642Y9806D1*
Y9787D1*
X8632Y9758D1*
X8613Y9739D1*
X8584Y9729D1*
X8556D1*
X8527Y9739D1*
X8518Y9748D1*
X8508Y9767D1*
X18330Y9867D2*
Y9715D1*
X18321Y9686D1*
X18311Y9676D1*
X18292Y9667D1*
X18273D1*
X18254Y9676D1*
X18244Y9686D1*
X18235Y9715D1*
Y9734D1*
X18565Y9839D2*
X18556Y9858D1*
X18527Y9867D1*
X18508D1*
X18479Y9858D1*
X18460Y9829D1*
X18450Y9781D1*
Y9734D1*
X18460Y9695D1*
X18479Y9676D1*
X18508Y9667D1*
X18517D1*
X18546Y9676D1*
X18565Y9695D1*
X18575Y9724D1*
Y9734D1*
X18565Y9762D1*
X18546Y9781D1*
X18517Y9791D1*
X18508D1*
X18479Y9781D1*
X18460Y9762D1*
X18450Y9734D1*
X18700Y6094D2*
Y5941D1*
X18691Y5912D1*
X18681Y5902D1*
X18662Y5893D1*
X18643D1*
X18624Y5902D1*
X18614Y5912D1*
X18605Y5941D1*
Y5960D1*
X18859Y5893D2*
X18954Y6093D1*
X18820D1*
X8705Y6094D2*
Y5941D1*
X8696Y5912D1*
X8686Y5902D1*
X8667Y5893D1*
X8648D1*
X8629Y5902D1*
X8619Y5912D1*
X8609Y5941D1*
Y5960D1*
X8950Y6027D2*
X8940Y5998D1*
X8921Y5979D1*
X8892Y5969D1*
X8883D1*
X8854Y5979D1*
X8835Y5998D1*
X8825Y6027D1*
Y6036D1*
X8835Y6065D1*
X8854Y6084D1*
X8883Y6093D1*
X8892D1*
X8921Y6084D1*
X8940Y6065D1*
X8950Y6027D1*
Y5979D1*
X8940Y5931D1*
X8921Y5902D1*
X8892Y5893D1*
X8873D1*
X8844Y5902D1*
X8835Y5921D1*
X18616Y35484D2*
Y35331D1*
X18607Y35302D1*
X18597Y35292D1*
X18578Y35283D1*
X18559D1*
X18540Y35292D1*
X18530Y35302D1*
X18521Y35331D1*
Y35350D1*
X18736Y35445D2*
X18756Y35455D1*
X18784Y35483D1*
Y35283D1*
X18962Y35483D2*
X18933Y35474D1*
X18914Y35445D1*
X18904Y35397D1*
Y35369D1*
X18914Y35321D1*
X18933Y35292D1*
X18962Y35283D1*
X18981D1*
X19010Y35292D1*
X19029Y35321D1*
X19038Y35369D1*
Y35397D1*
X19029Y35445D1*
X19010Y35474D1*
X18981Y35483D1*
X18962D1*
X19029Y35445D2*
X18914Y35321D1*
X5921Y33414D2*
Y33213D1*
X6035D1*
X6155Y33375D2*
X6175Y33385D1*
X6203Y33414D1*
Y33213D1*
X9252Y26227D2*
Y26026D1*
X9366D1*
X9496Y26179D2*
Y26189D1*
X9506Y26208D1*
X9515Y26218D1*
X9534Y26227D1*
X9573D1*
X9592Y26218D1*
X9601Y26208D1*
X9611Y26189D1*
Y26170D1*
X9601Y26151D1*
X9582Y26122D1*
X9486Y26026D1*
X9620D1*
X15411Y28721D2*
X15497D1*
X15526Y28730D1*
X15536Y28740D1*
X15545Y28759D1*
Y28778D1*
X15536Y28797D1*
X15526Y28807D1*
X15497Y28816D1*
X15411D1*
Y28615D1*
X15478Y28721D2*
X15545Y28615D1*
X15665Y28778D2*
X15684Y28788D1*
X15713Y28816D1*
Y28615D1*
X12618Y32408D2*
X12704D1*
X12733Y32418D1*
X12743Y32427D1*
X12752Y32446D1*
Y32466D1*
X12743Y32485D1*
X12733Y32494D1*
X12704Y32504D1*
X12618D1*
Y32303D1*
X12685Y32408D2*
X12752Y32303D1*
X12882Y32456D2*
Y32465D1*
X12891Y32485D1*
X12901Y32494D1*
X12920Y32504D1*
X12958D1*
X12977Y32494D1*
X12987Y32485D1*
X12996Y32465D1*
Y32446D1*
X12987Y32427D1*
X12968Y32399D1*
X12872Y32303D1*
X13006D1*
X9181Y25408D2*
X9267D1*
X9295Y25418D1*
X9305Y25427D1*
X9315Y25446D1*
Y25466D1*
X9305Y25485D1*
X9295Y25494D1*
X9267Y25504D1*
X9181D1*
Y25303D1*
X9248Y25408D2*
X9315Y25303D1*
X9454Y25504D2*
X9559D1*
X9501Y25427D1*
X9530D1*
X9549Y25418D1*
X9559Y25408D1*
X9568Y25379D1*
Y25360D1*
X9559Y25332D1*
X9540Y25312D1*
X9511Y25303D1*
X9482D1*
X9454Y25312D1*
X9444Y25322D1*
X9435Y25341D1*
X19051Y25471D2*
X19137D1*
X19166Y25480D1*
X19175Y25490D1*
X19185Y25509D1*
Y25528D1*
X19175Y25547D1*
X19166Y25557D1*
X19137Y25566D1*
X19051D1*
Y25365D1*
X19118Y25471D2*
X19185Y25365D1*
X19400D2*
Y25566D1*
X19305Y25432D1*
X19448D1*
X9181Y24846D2*
X9267D1*
X9295Y24855D1*
X9305Y24865D1*
X9315Y24884D1*
Y24903D1*
X9305Y24922D1*
X9295Y24932D1*
X9267Y24941D1*
X9181D1*
Y24740D1*
X9248Y24846D2*
X9315Y24740D1*
X9549Y24941D2*
X9454D1*
X9444Y24855D1*
X9454Y24865D1*
X9482Y24874D1*
X9511D1*
X9540Y24865D1*
X9559Y24846D1*
X9568Y24817D1*
Y24798D1*
X9559Y24769D1*
X9540Y24750D1*
X9511Y24740D1*
X9482D1*
X9454Y24750D1*
X9444Y24760D1*
X9435Y24779D1*
X12623Y30908D2*
X12709D1*
X12738Y30918D1*
X12747Y30927D1*
X12757Y30946D1*
Y30966D1*
X12747Y30985D1*
X12738Y30994D1*
X12709Y31004D1*
X12623D1*
Y30803D1*
X12690Y30908D2*
X12757Y30803D1*
X12992Y30975D2*
X12982Y30994D1*
X12953Y31004D1*
X12934D1*
X12906Y30994D1*
X12886Y30965D1*
X12877Y30918D1*
Y30870D1*
X12886Y30832D1*
X12906Y30812D1*
X12934Y30803D1*
X12944D1*
X12972Y30812D1*
X12992Y30832D1*
X13001Y30860D1*
Y30870D1*
X12992Y30899D1*
X12972Y30918D1*
X12944Y30927D1*
X12934D1*
X12906Y30918D1*
X12886Y30899D1*
X12877Y30870D1*
X11743Y16946D2*
X11829D1*
X11858Y16955D1*
X11868Y16965D1*
X11877Y16984D1*
Y17003D1*
X11868Y17022D1*
X11858Y17032D1*
X11829Y17041D1*
X11743D1*
Y16840D1*
X11810Y16946D2*
X11877Y16840D1*
X12035D2*
X12131Y17041D1*
X11997D1*
X12618Y30158D2*
X12704D1*
X12733Y30168D1*
X12743Y30177D1*
X12752Y30196D1*
Y30216D1*
X12743Y30235D1*
X12733Y30244D1*
X12704Y30254D1*
X12618D1*
Y30053D1*
X12685Y30158D2*
X12752Y30053D1*
X12920Y30254D2*
X12891Y30244D1*
X12882Y30225D1*
Y30206D1*
X12891Y30187D1*
X12910Y30177D1*
X12949Y30168D1*
X12977Y30158D1*
X12996Y30139D1*
X13006Y30120D1*
Y30091D1*
X12996Y30072D1*
X12987Y30062D1*
X12958Y30053D1*
X12920D1*
X12891Y30062D1*
X12882Y30072D1*
X12872Y30091D1*
Y30120D1*
X12882Y30139D1*
X12901Y30158D1*
X12929Y30168D1*
X12968Y30177D1*
X12987Y30187D1*
X12996Y30206D1*
Y30225D1*
X12987Y30244D1*
X12958Y30254D1*
X12920D1*
X18123Y27971D2*
X18209D1*
X18238Y27980D1*
X18247Y27990D1*
X18257Y28009D1*
Y28028D1*
X18247Y28047D1*
X18238Y28057D1*
X18209Y28066D1*
X18123D1*
Y27865D1*
X18190Y27971D2*
X18257Y27865D1*
X18501Y27999D2*
X18492Y27971D1*
X18472Y27951D1*
X18444Y27942D1*
X18434D1*
X18406Y27951D1*
X18386Y27971D1*
X18377Y27999D1*
Y28009D1*
X18386Y28038D1*
X18406Y28057D1*
X18434Y28066D1*
X18444D1*
X18472Y28057D1*
X18492Y28038D1*
X18501Y27999D1*
Y27951D1*
X18492Y27904D1*
X18472Y27875D1*
X18444Y27865D1*
X18425D1*
X18396Y27875D1*
X18386Y27894D1*
X11659Y16221D2*
X11745D1*
X11774Y16230D1*
X11784Y16240D1*
X11793Y16259D1*
Y16278D1*
X11784Y16297D1*
X11774Y16307D1*
X11745Y16316D1*
X11659D1*
Y16115D1*
X11726Y16221D2*
X11793Y16115D1*
X11913Y16278D2*
X11932Y16288D1*
X11961Y16316D1*
Y16115D1*
X12138Y16316D2*
X12110Y16307D1*
X12091Y16278D1*
X12081Y16230D1*
Y16201D1*
X12091Y16154D1*
X12110Y16125D1*
X12138Y16115D1*
X12157D1*
X12186Y16125D1*
X12205Y16154D1*
X12215Y16201D1*
Y16230D1*
X12205Y16278D1*
X12186Y16307D1*
X12157Y16316D1*
X12138D1*
X12205Y16278D2*
X12091Y16154D1*
X13952Y28596D2*
X14038D1*
X14067Y28605D1*
X14077Y28615D1*
X14086Y28634D1*
Y28653D1*
X14077Y28672D1*
X14067Y28682D1*
X14038Y28691D1*
X13952D1*
Y28490D1*
X14019Y28596D2*
X14086Y28490D1*
X14206Y28653D2*
X14225Y28663D1*
X14254Y28691D1*
Y28490D1*
X14374Y28653D2*
X14393Y28663D1*
X14422Y28691D1*
Y28490D1*
X15409Y16158D2*
X15495D1*
X15524Y16168D1*
X15534Y16177D1*
X15543Y16196D1*
Y16216D1*
X15534Y16235D1*
X15524Y16244D1*
X15495Y16254D1*
X15409D1*
Y16053D1*
X15476Y16158D2*
X15543Y16053D1*
X15663Y16215D2*
X15682Y16225D1*
X15711Y16254D1*
Y16053D1*
X15841Y16206D2*
Y16215D1*
X15850Y16235D1*
X15860Y16244D1*
X15879Y16254D1*
X15917D1*
X15936Y16244D1*
X15946Y16235D1*
X15956Y16215D1*
Y16196D1*
X15946Y16177D1*
X15927Y16149D1*
X15831Y16053D1*
X15965D1*
X12534Y29408D2*
X12620D1*
X12649Y29418D1*
X12659Y29427D1*
X12668Y29446D1*
Y29466D1*
X12659Y29485D1*
X12649Y29494D1*
X12620Y29504D1*
X12534D1*
Y29303D1*
X12601Y29408D2*
X12668Y29303D1*
X12788Y29465D2*
X12807Y29475D1*
X12836Y29504D1*
Y29303D1*
X12975Y29504D2*
X13080D1*
X13023Y29427D1*
X13052D1*
X13071Y29418D1*
X13080Y29408D1*
X13090Y29379D1*
Y29360D1*
X13080Y29332D1*
X13061Y29312D1*
X13032Y29303D1*
X13004D1*
X12975Y29312D1*
X12966Y29322D1*
X12956Y29341D1*
X15404Y16946D2*
X15490D1*
X15519Y16955D1*
X15529Y16965D1*
X15538Y16984D1*
Y17003D1*
X15529Y17022D1*
X15519Y17032D1*
X15490Y17041D1*
X15404D1*
Y16840D1*
X15471Y16946D2*
X15538Y16840D1*
X15658Y17003D2*
X15678Y17013D1*
X15706Y17041D1*
Y16840D1*
X15922D2*
Y17041D1*
X15826Y16907D1*
X15970D1*
X11659Y14658D2*
X11745D1*
X11774Y14668D1*
X11784Y14677D1*
X11793Y14696D1*
Y14716D1*
X11784Y14735D1*
X11774Y14744D1*
X11745Y14754D1*
X11659D1*
Y14553D1*
X11726Y14658D2*
X11793Y14553D1*
X11913Y14715D2*
X11932Y14725D1*
X11961Y14754D1*
Y14553D1*
X12196Y14754D2*
X12100D1*
X12091Y14668D1*
X12100Y14677D1*
X12129Y14687D1*
X12157D1*
X12186Y14677D1*
X12205Y14658D1*
X12215Y14629D1*
Y14610D1*
X12205Y14582D1*
X12186Y14562D1*
X12157Y14553D1*
X12129D1*
X12100Y14562D1*
X12091Y14572D1*
X12081Y14591D1*
X10289Y13908D2*
X10375D1*
X10404Y13918D1*
X10413Y13927D1*
X10423Y13946D1*
Y13966D1*
X10413Y13985D1*
X10404Y13994D1*
X10375Y14004D1*
X10289D1*
Y13803D1*
X10356Y13908D2*
X10423Y13803D1*
X10543Y13965D2*
X10562Y13975D1*
X10591Y14004D1*
Y13803D1*
X10826Y13975D2*
X10816Y13994D1*
X10787Y14004D1*
X10768D1*
X10740Y13994D1*
X10720Y13965D1*
X10711Y13918D1*
Y13870D1*
X10720Y13832D1*
X10740Y13812D1*
X10768Y13803D1*
X10778D1*
X10806Y13812D1*
X10826Y13832D1*
X10835Y13860D1*
Y13870D1*
X10826Y13899D1*
X10806Y13918D1*
X10778Y13927D1*
X10768D1*
X10740Y13918D1*
X10720Y13899D1*
X10711Y13870D1*
X11659Y12658D2*
X11745D1*
X11774Y12668D1*
X11784Y12677D1*
X11793Y12696D1*
Y12716D1*
X11784Y12735D1*
X11774Y12744D1*
X11745Y12754D1*
X11659D1*
Y12553D1*
X11726Y12658D2*
X11793Y12553D1*
X11913Y12715D2*
X11932Y12725D1*
X11961Y12754D1*
Y12553D1*
X12119D2*
X12215Y12754D1*
X12081D1*
X10284Y11908D2*
X10370D1*
X10399Y11918D1*
X10409Y11927D1*
X10418Y11946D1*
Y11966D1*
X10409Y11985D1*
X10399Y11994D1*
X10370Y12004D1*
X10284D1*
Y11803D1*
X10351Y11908D2*
X10418Y11803D1*
X10538Y11965D2*
X10557Y11975D1*
X10586Y12004D1*
Y11803D1*
X10754Y12004D2*
X10725Y11994D1*
X10716Y11975D1*
Y11956D1*
X10725Y11937D1*
X10744Y11927D1*
X10783Y11918D1*
X10811Y11908D1*
X10830Y11889D1*
X10840Y11870D1*
Y11841D1*
X10830Y11822D1*
X10821Y11812D1*
X10792Y11803D1*
X10754D1*
X10725Y11812D1*
X10716Y11822D1*
X10706Y11841D1*
Y11870D1*
X10716Y11889D1*
X10735Y11908D1*
X10763Y11918D1*
X10802Y11927D1*
X10821Y11937D1*
X10830Y11956D1*
Y11975D1*
X10821Y11994D1*
X10792Y12004D1*
X10754D1*
X15414Y11908D2*
X15500D1*
X15529Y11918D1*
X15538Y11927D1*
X15548Y11946D1*
Y11966D1*
X15538Y11985D1*
X15529Y11994D1*
X15500Y12004D1*
X15414D1*
Y11803D1*
X15481Y11908D2*
X15548Y11803D1*
X15668Y11965D2*
X15687Y11975D1*
X15716Y12004D1*
Y11803D1*
X15960Y11937D2*
X15950Y11908D1*
X15931Y11889D1*
X15903Y11879D1*
X15893D1*
X15864Y11889D1*
X15845Y11908D1*
X15836Y11937D1*
Y11946D1*
X15845Y11975D1*
X15864Y11994D1*
X15893Y12004D1*
X15903D1*
X15931Y11994D1*
X15950Y11975D1*
X15960Y11937D1*
Y11889D1*
X15950Y11841D1*
X15931Y11812D1*
X15903Y11803D1*
X15884D1*
X15855Y11812D1*
X15845Y11832D1*
X16741Y11908D2*
X16827D1*
X16856Y11918D1*
X16866Y11927D1*
X16875Y11946D1*
Y11966D1*
X16866Y11985D1*
X16856Y11994D1*
X16827Y12004D1*
X16741D1*
Y11803D1*
X16808Y11908D2*
X16875Y11803D1*
X17005Y11956D2*
Y11965D1*
X17014Y11985D1*
X17024Y11994D1*
X17043Y12004D1*
X17081D1*
X17100Y11994D1*
X17110Y11985D1*
X17119Y11965D1*
Y11946D1*
X17110Y11927D1*
X17091Y11899D1*
X16995Y11803D1*
X17129D1*
X17306Y12004D2*
X17278Y11994D1*
X17259Y11965D1*
X17249Y11918D1*
Y11889D1*
X17259Y11841D1*
X17278Y11812D1*
X17306Y11803D1*
X17325D1*
X17354Y11812D1*
X17373Y11841D1*
X17383Y11889D1*
Y11918D1*
X17373Y11965D1*
X17354Y11994D1*
X17325Y12004D1*
X17306D1*
X17373Y11965D2*
X17259Y11841D1*
X10284Y11158D2*
X10370D1*
X10399Y11168D1*
X10409Y11177D1*
X10418Y11196D1*
Y11216D1*
X10409Y11235D1*
X10399Y11244D1*
X10370Y11254D1*
X10284D1*
Y11053D1*
X10351Y11158D2*
X10418Y11053D1*
X10548Y11206D2*
Y11215D1*
X10557Y11235D1*
X10567Y11244D1*
X10586Y11254D1*
X10624D1*
X10643Y11244D1*
X10653Y11235D1*
X10662Y11215D1*
Y11196D1*
X10653Y11177D1*
X10634Y11149D1*
X10538Y11053D1*
X10672D1*
X10792Y11215D2*
X10811Y11225D1*
X10840Y11254D1*
Y11053D1*
X11616Y11158D2*
X11702D1*
X11731Y11168D1*
X11741Y11177D1*
X11750Y11196D1*
Y11216D1*
X11741Y11235D1*
X11731Y11244D1*
X11702Y11254D1*
X11616D1*
Y11053D1*
X11683Y11158D2*
X11750Y11053D1*
X11880Y11206D2*
Y11215D1*
X11889Y11235D1*
X11899Y11244D1*
X11918Y11254D1*
X11956D1*
X11975Y11244D1*
X11985Y11235D1*
X11994Y11215D1*
Y11196D1*
X11985Y11177D1*
X11966Y11149D1*
X11870Y11053D1*
X12004D1*
X12134Y11206D2*
Y11215D1*
X12143Y11235D1*
X12153Y11244D1*
X12172Y11254D1*
X12210D1*
X12229Y11244D1*
X12239Y11235D1*
X12248Y11215D1*
Y11196D1*
X12239Y11177D1*
X12220Y11149D1*
X12124Y11053D1*
X12258D1*
X15366Y11158D2*
X15452D1*
X15481Y11168D1*
X15491Y11177D1*
X15500Y11196D1*
Y11216D1*
X15491Y11235D1*
X15481Y11244D1*
X15452Y11254D1*
X15366D1*
Y11053D1*
X15433Y11158D2*
X15500Y11053D1*
X15630Y11206D2*
Y11215D1*
X15639Y11235D1*
X15649Y11244D1*
X15668Y11254D1*
X15706D1*
X15725Y11244D1*
X15735Y11235D1*
X15744Y11215D1*
Y11196D1*
X15735Y11177D1*
X15716Y11149D1*
X15620Y11053D1*
X15754D1*
X15893Y11254D2*
X15998D1*
X15941Y11177D1*
X15970D1*
X15989Y11168D1*
X15998Y11158D1*
X16008Y11129D1*
Y11110D1*
X15998Y11082D1*
X15979Y11062D1*
X15950Y11053D1*
X15922D1*
X15893Y11062D1*
X15884Y11072D1*
X15874Y11091D1*
X16736Y11158D2*
X16822D1*
X16851Y11168D1*
X16861Y11177D1*
X16870Y11196D1*
Y11216D1*
X16861Y11235D1*
X16851Y11244D1*
X16822Y11254D1*
X16736D1*
Y11053D1*
X16803Y11158D2*
X16870Y11053D1*
X17000Y11206D2*
Y11215D1*
X17010Y11235D1*
X17019Y11244D1*
X17038Y11254D1*
X17076D1*
X17096Y11244D1*
X17105Y11235D1*
X17115Y11215D1*
Y11196D1*
X17105Y11177D1*
X17086Y11149D1*
X16990Y11053D1*
X17124D1*
X17340D2*
Y11254D1*
X17244Y11120D1*
X17388D1*
X11616Y10408D2*
X11702D1*
X11731Y10418D1*
X11741Y10427D1*
X11750Y10446D1*
Y10466D1*
X11741Y10485D1*
X11731Y10494D1*
X11702Y10504D1*
X11616D1*
Y10303D1*
X11683Y10408D2*
X11750Y10303D1*
X11880Y10456D2*
Y10465D1*
X11889Y10485D1*
X11899Y10494D1*
X11918Y10504D1*
X11956D1*
X11975Y10494D1*
X11985Y10485D1*
X11994Y10465D1*
Y10446D1*
X11985Y10427D1*
X11966Y10399D1*
X11870Y10303D1*
X12004D1*
X12239Y10504D2*
X12143D1*
X12134Y10418D1*
X12143Y10427D1*
X12172Y10437D1*
X12200D1*
X12229Y10427D1*
X12248Y10408D1*
X12258Y10379D1*
Y10360D1*
X12248Y10332D1*
X12229Y10312D1*
X12200Y10303D1*
X12172D1*
X12143Y10312D1*
X12134Y10322D1*
X12124Y10341D1*
X15371Y10408D2*
X15457D1*
X15486Y10418D1*
X15495Y10427D1*
X15505Y10446D1*
Y10466D1*
X15495Y10485D1*
X15486Y10494D1*
X15457Y10504D1*
X15371D1*
Y10303D1*
X15438Y10408D2*
X15505Y10303D1*
X15635Y10456D2*
Y10465D1*
X15644Y10485D1*
X15654Y10494D1*
X15673Y10504D1*
X15711D1*
X15730Y10494D1*
X15740Y10485D1*
X15749Y10465D1*
Y10446D1*
X15740Y10427D1*
X15721Y10399D1*
X15625Y10303D1*
X15759D1*
X15994Y10475D2*
X15984Y10494D1*
X15955Y10504D1*
X15936D1*
X15908Y10494D1*
X15888Y10465D1*
X15879Y10418D1*
Y10370D1*
X15888Y10332D1*
X15908Y10312D1*
X15936Y10303D1*
X15946D1*
X15974Y10312D1*
X15994Y10332D1*
X16003Y10360D1*
Y10370D1*
X15994Y10399D1*
X15974Y10418D1*
X15946Y10427D1*
X15936D1*
X15908Y10418D1*
X15888Y10399D1*
X15879Y10370D1*
X13491Y8221D2*
X13577D1*
X13606Y8230D1*
X13616Y8240D1*
X13625Y8259D1*
Y8278D1*
X13616Y8297D1*
X13606Y8307D1*
X13577Y8316D1*
X13491D1*
Y8115D1*
X13558Y8221D2*
X13625Y8115D1*
X13755Y8268D2*
Y8278D1*
X13764Y8297D1*
X13774Y8307D1*
X13793Y8316D1*
X13831D1*
X13850Y8307D1*
X13860Y8297D1*
X13869Y8278D1*
Y8259D1*
X13860Y8240D1*
X13841Y8211D1*
X13745Y8115D1*
X13879D1*
X14037D2*
X14133Y8316D1*
X13999D1*
X13795Y36206D2*
X13776Y36225D1*
X13747Y36235D1*
X13709D1*
X13680Y36225D1*
X13661Y36206D1*
Y36187D1*
X13671Y36168D1*
X13680Y36158D1*
X13699Y36149D1*
X13757Y36129D1*
X13776Y36120D1*
X13786Y36110D1*
X13795Y36091D1*
Y36062D1*
X13776Y36043D1*
X13747Y36034D1*
X13709D1*
X13680Y36043D1*
X13661Y36062D1*
X13915Y36196D2*
X13934Y36206D1*
X13963Y36234D1*
Y36034D1*
X11476Y33040D2*
Y32839D1*
X11409Y33040D2*
X11543D1*
X11663Y32935D2*
X11749D1*
X11778Y32944D1*
X11787Y32954D1*
X11797Y32973D1*
Y33001D1*
X11787Y33021D1*
X11778Y33030D1*
X11749Y33040D1*
X11663D1*
Y32839D1*
X11917Y33001D2*
X11936Y33011D1*
X11965Y33040D1*
Y32839D1*
X20786Y20049D2*
X20920Y19848D1*
Y20049D2*
X20786Y19848D1*
X21040Y20010D2*
X21059Y20020D1*
X21088Y20049D1*
Y19848D1*
X7599Y33316D2*
X7733D1*
X7599Y33115D1*
X7733D1*
X7853Y33278D2*
X7872Y33288D1*
X7900Y33316D1*
Y33115D1*
X9931Y33316D2*
X10065D1*
X9931Y33115D1*
X10065D1*
X10194Y33268D2*
Y33278D1*
X10204Y33297D1*
X10213Y33307D1*
X10232Y33316D1*
X10271D1*
X10290Y33307D1*
X10299Y33297D1*
X10309Y33278D1*
Y33259D1*
X10299Y33240D1*
X10280Y33211D1*
X10185Y33115D1*
X10318D1*
X18118Y28754D2*
X18252D1*
X18118Y28553D1*
X18252D1*
X18391Y28754D2*
X18496D1*
X18439Y28677D1*
X18468D1*
X18487Y28668D1*
X18496Y28658D1*
X18506Y28629D1*
Y28610D1*
X18496Y28582D1*
X18477Y28562D1*
X18449Y28553D1*
X18420D1*
X18391Y28562D1*
X18382Y28572D1*
X18372Y28591D1*
X9113Y10441D2*
X9247D1*
X9113Y10240D1*
X9247D1*
X9463D2*
Y10441D1*
X9367Y10307D1*
X9511D1*
X13618Y9066D2*
X13752D1*
X13618Y8865D1*
X13752D1*
X13987Y9066D2*
X13891D1*
X13882Y8980D1*
X13891Y8990D1*
X13920Y8999D1*
X13949D1*
X13977Y8990D1*
X13996Y8971D1*
X14006Y8942D1*
Y8923D1*
X13996Y8894D1*
X13977Y8875D1*
X13949Y8865D1*
X13920D1*
X13891Y8875D1*
X13882Y8885D1*
X13872Y8904D1*
X13228Y20926D2*
D127*
X13203Y20975D1*
X13132Y21046D1*
X13634D1*
X19854Y16046D2*
X19902Y16070D1*
X19974Y16142D1*
Y15640D1*
X20268Y24024D2*
D22*
X20258Y24043D1*
X20239Y24063D1*
X20220Y24072D1*
X20182D1*
X20163Y24063D1*
X20144Y24043D1*
X20134Y24024D1*
X20125Y23996D1*
Y23948D1*
X20134Y23919D1*
X20144Y23900D1*
X20163Y23881D1*
X20182Y23871D1*
X20220D1*
X20239Y23881D1*
X20258Y23900D1*
X20268Y23919D1*
Y23948D1*
X20220D1*
X20522Y24072D2*
Y23871D1*
X20388Y24072D1*
Y23871D1*
X20642Y24072D2*
Y23871D1*
X20709D1*
X20738Y23881D1*
X20757Y23900D1*
X20766Y23919D1*
X20776Y23948D1*
Y23996D1*
X20766Y24024D1*
X20757Y24043D1*
X20738Y24063D1*
X20709Y24072D1*
X20642D1*
X20336Y23058D2*
Y22885D1*
X20250Y22971D2*
X20422D1*
X20656Y23072D2*
X20561D1*
X20551Y22986D1*
X20561Y22995D1*
X20590Y23005D1*
X20618D1*
X20647Y22995D1*
X20666Y22976D1*
X20676Y22948D1*
Y22929D1*
X20666Y22900D1*
X20647Y22881D1*
X20618Y22871D1*
X20590D1*
X20561Y22881D1*
X20551Y22890D1*
X20542Y22909D1*
X18321Y21918D2*
X18302Y21938D1*
X18273Y21947D1*
X18235D1*
X18206Y21938D1*
X18187Y21918D1*
Y21899D1*
X18197Y21880D1*
X18206Y21871D1*
X18225Y21861D1*
X18283Y21842D1*
X18302Y21832D1*
X18311Y21823D1*
X18321Y21804D1*
Y21775D1*
X18302Y21756D1*
X18273Y21746D1*
X18235D1*
X18206Y21756D1*
X18187Y21775D1*
X18441Y21947D2*
Y21746D1*
X18508D1*
X18537Y21756D1*
X18556Y21775D1*
X18565Y21794D1*
X18575Y21823D1*
Y21871D1*
X18565Y21899D1*
X18556Y21918D1*
X18537Y21938D1*
X18508Y21947D1*
X18441D1*
X18848Y21746D2*
X18771Y21947D1*
X18695Y21746D1*
X18724Y21813D2*
X18819D1*
X18321Y21043D2*
X18302Y21063D1*
X18273Y21072D1*
X18235D1*
X18206Y21063D1*
X18187Y21043D1*
Y21024D1*
X18197Y21005D1*
X18206Y20996D1*
X18225Y20986D1*
X18283Y20967D1*
X18302Y20957D1*
X18311Y20948D1*
X18321Y20929D1*
Y20900D1*
X18302Y20881D1*
X18273Y20871D1*
X18235D1*
X18206Y20881D1*
X18187Y20900D1*
X18584Y21024D2*
X18575Y21043D1*
X18556Y21063D1*
X18537Y21072D1*
X18498D1*
X18479Y21063D1*
X18460Y21043D1*
X18450Y21024D1*
X18441Y20996D1*
Y20948D1*
X18450Y20919D1*
X18460Y20900D1*
X18479Y20881D1*
X18498Y20871D1*
X18537D1*
X18556Y20881D1*
X18575Y20900D1*
X18584Y20919D1*
X18704Y21072D2*
Y20871D1*
X18819D1*
X22062Y21914D2*
X22148D1*
X22177Y21924D1*
X22186Y21933D1*
X22196Y21952D1*
Y21971D1*
X22186Y21990D1*
X22177Y22000D1*
X22148Y22010D1*
X22062D1*
Y21809D1*
X22129Y21914D2*
X22196Y21809D1*
X22316Y22010D2*
X22450Y21809D1*
Y22010D2*
X22316Y21809D1*
X22129Y21135D2*
Y20934D1*
X22062Y21135D2*
X22196D1*
X22316D2*
X22450Y20934D1*
Y21135D2*
X22316Y20934D1*
M02*
