G04 DipTrace 2.4.0.2*
%INtsunami.frontmask.gts*%
%MOIN*%
%ADD30R,0.0709X0.063*%
%ADD31R,0.0669X0.0669*%
%ADD33C,0.0669*%
%ADD54C,0.0591*%
%ADD69C,0.0787*%
%ADD70C,0.1378*%
%ADD77R,0.0709X0.0591*%
%ADD83R,0.0591X0.0669*%
%ADD85R,0.0677X0.1677*%
%ADD88O,0.0433X0.0709*%
%ADD90R,0.0827X0.0709*%
%ADD93R,0.0236X0.061*%
%ADD97C,0.1378*%
%ADD101R,0.0217X0.0787*%
%ADD103R,0.1043X0.1043*%
%ADD105O,0.0413X0.0197*%
%ADD107O,0.0197X0.0413*%
%ADD109R,0.0866X0.0315*%
%ADD111R,0.0512X0.0315*%
%ADD113R,0.0236X0.0787*%
%ADD115R,0.0276X0.0787*%
%ADD117R,0.0787X0.0276*%
%ADD119R,0.0232X0.0161*%
%ADD121R,0.0161X0.0262*%
%ADD123R,0.0236X0.063*%
%ADD125R,0.1417X0.0709*%
%ADD127R,0.0472X0.0591*%
%ADD129R,0.0709X0.0394*%
%ADD131C,0.0748*%
%ADD132R,0.0748X0.0748*%
%ADD133R,0.0787X0.0709*%
%ADD134R,0.0709X0.0787*%
%ADD136R,0.0512X0.0472*%
%ADD138R,0.0472X0.0512*%
%FSLAX44Y44*%
G04*
G70*
G90*
G75*
G01*
%LNTopMask*%
%LPD*%
D138*
X15187Y31834D3*
Y31165D3*
D136*
X14522Y29062D3*
X13852D3*
X11772Y28312D3*
X11102D3*
X13147D3*
X12477D3*
X15227D3*
X15897D3*
X11727Y27564D3*
X12397D3*
X15897Y27562D3*
X15227D3*
X16602Y27312D3*
X17272D3*
X18647D3*
X17977D3*
X10625Y24187D3*
X9955D3*
D138*
X16876Y23251D3*
Y22582D3*
D136*
X12251Y21126D3*
X12920D3*
X21272Y17493D3*
X20602D3*
D134*
X8500Y17301D3*
X7397D3*
D136*
X12272Y17312D3*
X11602D3*
X15352D3*
X16022D3*
D133*
X5823Y16227D3*
Y15125D3*
D136*
X20602Y15243D3*
X21272D3*
X14187Y14937D3*
X13518D3*
X10227Y14312D3*
X10897D3*
D134*
X7397Y14051D3*
X8500D3*
D136*
X16022Y14062D3*
X15352D3*
X12272Y13562D3*
X11602D3*
X16022Y13272D3*
X15352D3*
X18102Y12937D3*
X18772D3*
X10897Y12312D3*
X10227D3*
X16022D3*
X15352D3*
X17397D3*
X16727D3*
X18062Y12187D3*
X18731D3*
X11597Y11562D3*
X12267D3*
X14147Y10812D3*
X13477D3*
Y10062D3*
X14147D3*
X13477Y9312D3*
X14147D3*
D132*
X8687Y23437D3*
D131*
Y22437D3*
X7687Y23437D3*
Y22437D3*
X6687Y23437D3*
Y22437D3*
D129*
X11437Y29893D3*
Y31231D3*
D127*
X20713Y25312D3*
X20161D3*
D125*
X10187Y31937D3*
Y30323D3*
D70*
X5906Y27953D3*
X21654D3*
X5906Y11417D3*
X21654D3*
D123*
X13803Y30633D3*
X14059D3*
X14315D3*
X14571D3*
Y32366D3*
X14315D3*
X14059D3*
X13803D3*
D121*
X16701Y28405D3*
X16858D3*
X17016D3*
X17173D3*
D119*
X17234Y28608D3*
Y28766D3*
D121*
X17173Y28969D3*
X17016D3*
X16858D3*
X16701D3*
D119*
X16640Y28766D3*
Y28608D3*
D117*
X11535Y25947D3*
Y25632D3*
Y25317D3*
Y25002D3*
Y24687D3*
Y24372D3*
Y24057D3*
Y23742D3*
Y23427D3*
Y23112D3*
Y22797D3*
D115*
X12205Y22128D3*
X12520D3*
X12835D3*
X13150D3*
X13465D3*
X13780D3*
X14094D3*
X14409D3*
X14724D3*
X15039D3*
X15354D3*
D117*
X16024Y22797D3*
Y23112D3*
Y23427D3*
Y23742D3*
Y24057D3*
Y24372D3*
Y24687D3*
Y25002D3*
Y25317D3*
Y25632D3*
Y25947D3*
D115*
X15354Y26616D3*
X15039D3*
X14724D3*
X14409D3*
X14094D3*
X13780D3*
X13465D3*
X13150D3*
X12835D3*
X12520D3*
X12205D3*
D113*
X14580Y18079D3*
X14324D3*
X14068D3*
X13812D3*
X13556D3*
X13300D3*
X13044D3*
Y15795D3*
X13300D3*
X13556D3*
X13812D3*
X14068D3*
X14324D3*
X14580D3*
D111*
X20406Y16742D3*
Y16368D3*
Y15994D3*
X21469D3*
Y16742D3*
D109*
X6885Y16426D3*
Y15926D3*
Y15426D3*
Y14926D3*
X9011D3*
Y15426D3*
Y15926D3*
Y16426D3*
D107*
X17043Y13876D3*
X17240D3*
X17437D3*
X17634D3*
X17831D3*
D105*
X18185Y14231D3*
Y14428D3*
Y14625D3*
Y14821D3*
Y15018D3*
D107*
X17831Y15373D3*
X17634D3*
X17437D3*
X17240D3*
X17043D3*
D105*
X16689Y15018D3*
Y14821D3*
Y14625D3*
Y14428D3*
Y14231D3*
D103*
X17437Y14625D3*
D101*
X12937Y11874D3*
X13187D3*
X13437D3*
X13687D3*
X13937D3*
X14187D3*
X14437D3*
X14687D3*
Y14000D3*
X14437D3*
X14187D3*
X13937D3*
X13687D3*
X13437D3*
X13187D3*
X12937D3*
D31*
X18780Y30562D3*
D33*
X17795D3*
D97*
X20787Y32570D3*
X16772D3*
D93*
X9291Y33952D3*
X9035D3*
X8780D3*
X8524D3*
X8268D3*
D30*
X7520D3*
X10039D3*
D90*
X9252Y35005D3*
X8307D3*
D88*
X10079D3*
X7480D3*
D85*
X17780Y34377D3*
X18780D3*
X19780D3*
D31*
X19937Y23937D3*
D33*
Y22937D3*
Y21937D3*
Y20937D3*
D31*
X20937Y23937D3*
D33*
Y22937D3*
Y21937D3*
Y20937D3*
D31*
X8780Y8812D3*
D33*
X9764D3*
D97*
X6772Y6804D3*
X10787D3*
D31*
X18780Y8812D3*
D33*
X19764D3*
D97*
X16772Y6804D3*
X20787D3*
D85*
X9780Y4987D3*
X8780D3*
X7780D3*
X19780D3*
X18780D3*
X17780D3*
D83*
X5688Y32811D3*
X6436D3*
X9937Y26125D3*
X10685D3*
D136*
X12477Y31252D3*
X13147D3*
X12477Y30562D3*
X13147D3*
X14522Y29815D3*
X13852D3*
X13147Y29812D3*
X12477D3*
X11102Y29062D3*
X11772D3*
X12477D3*
X13147D3*
X15897D3*
X15227D3*
X14522Y28312D3*
X13852D3*
X17977Y26562D3*
X18647D3*
X9977Y25437D3*
X10647D3*
X19522Y25312D3*
X18852D3*
X9977Y24812D3*
X10647D3*
X12272Y16537D3*
X11602D3*
X16022D3*
X15352D3*
X11602Y15812D3*
X12272D3*
X16022D3*
X15352D3*
X11602Y14312D3*
X12272D3*
X10227Y13562D3*
X10897D3*
X11602Y12312D3*
X12272D3*
X10897Y11562D3*
X10227D3*
X16022D3*
X15352D3*
X16727D3*
X17397D3*
X10897Y10812D3*
X10227D3*
X11602D3*
X12272D3*
X16022D3*
X15352D3*
X17397D3*
X16727D3*
X12272Y10062D3*
X11602D3*
X15352D3*
X16022D3*
X13477Y7812D3*
X14147D3*
D132*
X12926Y34687D3*
D131*
X14698D3*
D69*
X12434Y33703D3*
X15190D3*
D54*
X7000Y30752D3*
D77*
X21724Y19486D3*
X20150D3*
Y18501D3*
X21724D3*
D136*
X7665Y32812D3*
X8334D3*
X10209D3*
X9540D3*
X17977Y29062D3*
X18647D3*
X9647Y9937D3*
X8977D3*
X14147Y8562D3*
X13477D3*
D69*
X17688Y27940D3*
M02*
