G04 DipTrace 2.4.0.1*
%INtsunami.frontpaste.gtp*%
%MOIN*%
%ADD60R,0.0551X0.0433*%
%ADD62R,0.0531X0.0433*%
%ADD64R,0.0433X0.0512*%
%ADD66R,0.0669X0.0669*%
%ADD68R,0.063X0.0669*%
%ADD70R,0.0748X0.0551*%
%ADD72R,0.0079X0.0453*%
%ADD78R,0.0059X0.063*%
%ADD80R,0.0886X0.0886*%
%ADD82O,0.0256X0.0039*%
%ADD84O,0.0039X0.0256*%
%ADD86R,0.0709X0.0157*%
%ADD88R,0.0354X0.0157*%
%ADD90R,0.0079X0.063*%
%ADD92R,0.0118X0.063*%
%ADD94R,0.063X0.0118*%
%ADD96R,0.0157X0.0354*%
%ADD98R,0.126X0.0551*%
%ADD100R,0.0315X0.0433*%
%ADD102R,0.0177X0.0335*%
%ADD109R,0.063X0.0551*%
%ADD111R,0.0551X0.063*%
%ADD113R,0.0315X0.0354*%
%ADD115R,0.0354X0.0315*%
%FSLAX44Y44*%
G04*
G70*
G90*
G75*
G01*
%LNTopPaste*%
%LPD*%
D115*
X15102Y29062D3*
X15772D3*
X13086Y28337D3*
X12416D3*
X11751Y27564D3*
X12420D3*
X14397Y27562D3*
X13727D3*
X15772D3*
X15102D3*
D113*
X16625Y27312D3*
Y26643D3*
D115*
X10625Y24187D3*
X9955D3*
D113*
X16876Y23251D3*
Y22582D3*
D115*
X12376Y21251D3*
X13045D3*
D113*
X10312Y19018D3*
Y18348D3*
D115*
X14147Y18937D3*
X13477D3*
X21272Y17493D3*
X20602D3*
D111*
X8500Y17301D3*
X7397D3*
D115*
X12272Y17312D3*
X11602D3*
D109*
X5823Y16227D3*
Y15125D3*
D115*
X10227Y15812D3*
X10897D3*
X20602Y15243D3*
X21272D3*
X14187Y14937D3*
X13518D3*
X10227Y14312D3*
X10897D3*
D111*
X7397Y14051D3*
X8500D3*
D115*
X16022Y14062D3*
X15352D3*
X12272Y13562D3*
X11602D3*
X16022Y13272D3*
X15352D3*
X18102Y13062D3*
X18772D3*
X10897Y12312D3*
X10227D3*
X16022D3*
X15352D3*
X17397D3*
X16727D3*
X18102D3*
X18772D3*
X11597Y11562D3*
X12267D3*
X14147Y10812D3*
X13477D3*
Y10062D3*
X14147D3*
X13477Y9312D3*
X14147D3*
D102*
X14436Y30015D3*
X13688D3*
X14062Y29109D3*
D100*
X20713Y25062D3*
X20161D3*
D98*
X11750Y34744D3*
Y33130D3*
D96*
X17281Y26406D3*
X17656D3*
X18030D3*
Y27469D3*
X17281D3*
D94*
X11535Y25947D3*
Y25632D3*
Y25317D3*
Y25002D3*
Y24687D3*
Y24372D3*
Y24057D3*
Y23742D3*
Y23427D3*
Y23112D3*
Y22797D3*
D92*
X12205Y22128D3*
X12520D3*
X12835D3*
X13150D3*
X13465D3*
X13780D3*
X14094D3*
X14409D3*
X14724D3*
X15039D3*
X15354D3*
D94*
X16024Y22797D3*
Y23112D3*
Y23427D3*
Y23742D3*
Y24057D3*
Y24372D3*
Y24687D3*
Y25002D3*
Y25317D3*
Y25632D3*
Y25947D3*
D92*
X15354Y26616D3*
X15039D3*
X14724D3*
X14409D3*
X14094D3*
X13780D3*
X13465D3*
X13150D3*
X12835D3*
X12520D3*
X12205D3*
D96*
X11616Y19153D3*
X11242D3*
X10868D3*
Y18090D3*
X11616D3*
D90*
X13044Y15795D3*
X13300D3*
X13556D3*
X13812D3*
X14068D3*
X14324D3*
X14580D3*
Y18079D3*
X14324D3*
X14068D3*
X13812D3*
X13556D3*
X13300D3*
X13044D3*
D88*
X20406Y16742D3*
Y16368D3*
Y15994D3*
X21469D3*
Y16742D3*
D86*
X6885Y16426D3*
Y15926D3*
Y15426D3*
Y14926D3*
X9011D3*
Y15426D3*
Y15926D3*
Y16426D3*
D84*
X17043Y13876D3*
X17240D3*
X17437D3*
X17634D3*
X17831D3*
D82*
X18185Y14231D3*
Y14428D3*
Y14625D3*
Y14821D3*
Y15018D3*
D84*
X17831Y15373D3*
X17634D3*
X17437D3*
X17240D3*
X17043D3*
D82*
X16689Y15018D3*
Y14821D3*
Y14625D3*
Y14428D3*
Y14231D3*
D80*
X17437Y14625D3*
D78*
X12937Y11812D3*
X13187D3*
X13437D3*
X13687D3*
X13937D3*
X14187D3*
X14437D3*
X14687D3*
Y13938D3*
X14437D3*
X14187D3*
X13937D3*
X13687D3*
X13437D3*
X13187D3*
X12937D3*
D72*
X9291Y33746D3*
X9035D3*
X8780D3*
X8524D3*
X8268D3*
D70*
X10000Y33795D3*
X7559D3*
D68*
X10354Y34799D3*
X7205D3*
D66*
X9252D3*
X8307D3*
D64*
X5688Y32811D3*
X6436D3*
X9937Y26125D3*
X10685D3*
D115*
X13727Y28312D3*
X14397D3*
X15772D3*
X15102D3*
X9977Y25437D3*
X10647D3*
X19522Y25062D3*
X18852D3*
X9977Y24812D3*
X10647D3*
X10897Y17312D3*
X10227D3*
X15352D3*
X16022D3*
X10227Y16562D3*
X10897D3*
X12272D3*
X11602D3*
X15352D3*
X16022D3*
X12272Y15812D3*
X11602D3*
X16022D3*
X15352D3*
X10897Y15062D3*
X10227D3*
X11602D3*
X12272D3*
X11602Y14312D3*
X12272D3*
X10227Y13562D3*
X10897D3*
X11602Y12312D3*
X12272D3*
X10897Y11562D3*
X10227D3*
X16022D3*
X15352D3*
X16727D3*
X17397D3*
X10897Y10812D3*
X10227D3*
X11602D3*
X12272D3*
X16022D3*
X15352D3*
X17397D3*
X16727D3*
X12272Y10062D3*
X11602D3*
X15352D3*
X16022D3*
D62*
X9187Y18687D3*
X6057D3*
X9187Y20459D3*
X6057D3*
D60*
X21724Y19486D3*
X20150D3*
Y18501D3*
X21724D3*
D115*
X7477Y32812D3*
X8147D3*
X10397D3*
X9727D3*
X18165Y29272D3*
X18834D3*
X9647Y9937D3*
X8977D3*
X19647D3*
X18977D3*
M02*
