G04 DipTrace 2.4.0.1*
%INtsunami.frontmask.gts*%
%MOIN*%
%ADD30C,0.0591*%
%ADD58C,0.0709*%
%ADD61C,0.1378*%
%ADD66R,0.067X0.0552*%
%ADD70C,0.0749*%
%ADD71C,0.0629*%
%ADD73R,0.0709X0.0709*%
%ADD74R,0.0629X0.0629*%
%ADD75R,0.0552X0.0631*%
%ADD77R,0.0638X0.1638*%
%ADD80O,0.0394X0.067*%
%ADD82R,0.0788X0.067*%
%ADD84R,0.067X0.0591*%
%ADD86R,0.0197X0.0571*%
%ADD90C,0.1339*%
%ADD92R,0.0178X0.0749*%
%ADD94R,0.1005X0.1005*%
%ADD96O,0.0375X0.0158*%
%ADD98O,0.0158X0.0375*%
%ADD100R,0.0827X0.0276*%
%ADD102R,0.0473X0.0276*%
%ADD104R,0.0197X0.0749*%
%ADD106R,0.0237X0.0749*%
%ADD108R,0.0749X0.0237*%
%ADD110R,0.0276X0.0473*%
%ADD112R,0.1379X0.067*%
%ADD114R,0.0434X0.0552*%
%ADD116R,0.0296X0.0453*%
%ADD121R,0.0749X0.067*%
%ADD122R,0.067X0.0749*%
%ADD124R,0.0473X0.0434*%
%ADD126R,0.0434X0.0473*%
%FSLAX44Y44*%
G04*
G70*
G90*
G75*
G01*
%LNTopMask*%
%LPD*%
D126*
X15187Y32647D3*
Y31977D3*
D124*
X12477Y31250D3*
X13147D3*
D126*
X15187Y30772D3*
Y30102D3*
D124*
X14522Y29062D3*
X13852D3*
X15227D3*
X15897D3*
X13147Y28312D3*
X12477D3*
X18647D3*
X17977D3*
X11727Y27564D3*
X12397D3*
X15897Y27562D3*
X15227D3*
X10625Y24187D3*
X9955D3*
D126*
X16876Y23251D3*
Y22582D3*
D124*
X12251Y21126D3*
X12920D3*
X21272Y17493D3*
X20602D3*
D122*
X8500Y17301D3*
X7397D3*
D124*
X12272Y17312D3*
X11602D3*
X15352D3*
X16022D3*
D121*
X5823Y16227D3*
Y15125D3*
D124*
X20602Y15243D3*
X21272D3*
X14187Y14937D3*
X13518D3*
X10227Y14312D3*
X10897D3*
D122*
X7397Y14051D3*
X8500D3*
D124*
X16022Y14062D3*
X15352D3*
X12272Y13562D3*
X11602D3*
X16022Y13272D3*
X15352D3*
X18102Y12937D3*
X18772D3*
X10897Y12312D3*
X10227D3*
X16022D3*
X15352D3*
X17397D3*
X16727D3*
X18062Y12187D3*
X18731D3*
X11597Y11562D3*
X12267D3*
X14147Y10812D3*
X13477D3*
Y10062D3*
X14147D3*
X13477Y9312D3*
X14147D3*
D74*
X8687Y23437D3*
D71*
Y22437D3*
X7687Y23437D3*
Y22437D3*
X6687Y23437D3*
Y22437D3*
D116*
X16563Y27484D3*
X17311D3*
X16937Y28390D3*
D114*
X20713Y25312D3*
X20161D3*
D112*
X10187Y31937D3*
Y30323D3*
D110*
X13813Y31781D3*
X14187D3*
X14561D3*
Y32844D3*
X13813D3*
X14561Y30969D3*
X14187D3*
X13813D3*
Y29906D3*
X14561D3*
D108*
X11535Y25947D3*
Y25632D3*
Y25317D3*
Y25002D3*
Y24687D3*
Y24372D3*
Y24057D3*
Y23742D3*
Y23427D3*
Y23112D3*
Y22797D3*
D106*
X12205Y22128D3*
X12520D3*
X12835D3*
X13150D3*
X13465D3*
X13780D3*
X14094D3*
X14409D3*
X14724D3*
X15039D3*
X15354D3*
D108*
X16024Y22797D3*
Y23112D3*
Y23427D3*
Y23742D3*
Y24057D3*
Y24372D3*
Y24687D3*
Y25002D3*
Y25317D3*
Y25632D3*
Y25947D3*
D106*
X15354Y26616D3*
X15039D3*
X14724D3*
X14409D3*
X14094D3*
X13780D3*
X13465D3*
X13150D3*
X12835D3*
X12520D3*
X12205D3*
D104*
X14580Y18079D3*
X14324D3*
X14068D3*
X13812D3*
X13556D3*
X13300D3*
X13044D3*
Y15795D3*
X13300D3*
X13556D3*
X13812D3*
X14068D3*
X14324D3*
X14580D3*
D102*
X20406Y16742D3*
Y16368D3*
Y15994D3*
X21469D3*
Y16742D3*
D100*
X6885Y16426D3*
Y15926D3*
Y15426D3*
Y14926D3*
X9011D3*
Y15426D3*
Y15926D3*
Y16426D3*
D98*
X17043Y13876D3*
X17240D3*
X17437D3*
X17634D3*
X17831D3*
D96*
X18185Y14231D3*
Y14428D3*
Y14625D3*
Y14821D3*
Y15018D3*
D98*
X17831Y15373D3*
X17634D3*
X17437D3*
X17240D3*
X17043D3*
D96*
X16689Y15018D3*
Y14821D3*
Y14625D3*
Y14428D3*
Y14231D3*
D94*
X17437Y14625D3*
D92*
X12937Y11874D3*
X13187D3*
X13437D3*
X13687D3*
X13937D3*
X14187D3*
X14437D3*
X14687D3*
Y14000D3*
X14437D3*
X14187D3*
X13937D3*
X13687D3*
X13437D3*
X13187D3*
X12937D3*
D74*
X18780Y30562D3*
D71*
X17795D3*
D90*
X20787Y32570D3*
X16772D3*
D86*
X9291Y33952D3*
X9035D3*
X8780D3*
X8524D3*
X8268D3*
D84*
X7520D3*
X10039D3*
D82*
X9252Y35005D3*
X8307D3*
D80*
X10079D3*
X7480D3*
D77*
X17780Y34377D3*
X18780D3*
X19780D3*
D74*
X19937Y23937D3*
D71*
Y22937D3*
Y21937D3*
Y20937D3*
D74*
X20937Y23937D3*
D71*
Y22937D3*
Y21937D3*
Y20937D3*
D74*
X8780Y8812D3*
D71*
X9764D3*
D90*
X6772Y6804D3*
X10787D3*
D74*
X18780Y8812D3*
D71*
X19764D3*
D90*
X16772Y6804D3*
X20787D3*
D77*
X9780Y4987D3*
X8780D3*
X7780D3*
X19780D3*
X18780D3*
X17780D3*
D75*
X5688Y32811D3*
X6436D3*
X9937Y26125D3*
X10685D3*
D124*
X13147Y32000D3*
X12477D3*
Y30562D3*
X13147D3*
Y29812D3*
X12477D3*
Y29062D3*
X13147D3*
X14522Y28312D3*
X13852D3*
X15897D3*
X15227D3*
X17977Y27562D3*
X18647D3*
X9977Y25437D3*
X10647D3*
X19522Y25312D3*
X18852D3*
X9977Y24812D3*
X10647D3*
X12272Y16537D3*
X11602D3*
X16022D3*
X15352D3*
X11602Y15812D3*
X12272D3*
X16022D3*
X15352D3*
X11602Y14312D3*
X12272D3*
X10227Y13562D3*
X10897D3*
X11602Y12312D3*
X12272D3*
X10897Y11562D3*
X10227D3*
X16022D3*
X15352D3*
X16727D3*
X17397D3*
X10897Y10812D3*
X10227D3*
X11602D3*
X12272D3*
X16022D3*
X15352D3*
X17397D3*
X16727D3*
X12272Y10062D3*
X11602D3*
X15352D3*
X16022D3*
X13477Y7812D3*
X14147D3*
D73*
X12926Y34687D3*
D58*
X14698D3*
D70*
X12434Y33703D3*
X15190D3*
D30*
X11687Y32437D3*
D66*
X21724Y19486D3*
X20150D3*
Y18501D3*
X21724D3*
D124*
X7477Y32812D3*
X8147D3*
X10397D3*
X9727D3*
X17977Y29062D3*
X18647D3*
X9647Y9937D3*
X8977D3*
X14147Y8562D3*
X13477D3*
D61*
X21654Y27953D3*
X5906Y11417D3*
X21654D3*
X5906Y27953D3*
M02*
