M48
INCH
T01C0.0118
T02C0.0354
T03C0.0787
T04C0.1378
%
T01
X+015875Y+019437
X+015437Y+019000
X+014562Y+018937
X+014750Y+019687
X+015187Y+020125
X+014625Y+020687
X+014187Y+020250
X+013562Y+020187
X+013312Y+019937
X+013625Y+020812
X+014062Y+021375
X+013500Y+021562
X+012437Y+020937
X+011937Y+019562
X+012812Y+018937
X+013562Y+016937
X+013312Y+016562
X+013062Y+016375
X+013187Y+014937
X+014562Y+014937
X+015352Y+013687
X+016437Y+012687
X+016812Y+013312
X+018062Y+013625
X+018772Y+012687
X+018062Y+011937
X+017812Y+010812
X+018250Y+008875
X+018250Y+008375
X+016750Y+008375
X+016750Y+008875
X+015187Y+008875
X+015187Y+008375
X+013562Y+008375
X+013562Y+008875
X+012062Y+008875
X+012062Y+008375
X+010812Y+009312
X+011187Y+009687
X+010625Y+010375
X+010125Y+010375
X+009312Y+010312
X+008812Y+010312
X+008812Y+011812
X+009312Y+011812
X+009312Y+013062
X+008812Y+013062
X+009750Y+013312
X+009750Y+013812
X+009687Y+014937
X+010562Y+015437
X+011187Y+015437
X+011312Y+016187
X+011312Y+016937
X+010187Y+017687
X+009937Y+018312
X+009937Y+018937
X+008687Y+018687
X+009011Y+016789
X+007687Y+015687
X+011937Y+013937
X+013937Y+012687
X+014562Y+010812
X+013062Y+010812
X+016437Y+015312
X+016687Y+015562
X+017062Y+016062
X+017312Y+015812
X+017687Y+016562
X+017687Y+016937
X+017437Y+017500
X+017687Y+017750
X+017937Y+017562
X+018187Y+017750
X+018437Y+017562
X+018750Y+018187
X+018750Y+018687
X+019375Y+018187
X+019562Y+018687
X+020062Y+017937
X+019375Y+017250
X+019375Y+016312
X+019375Y+015312
X+020000Y+015312
X+020562Y+014937
X+020000Y+013625
X+019375Y+014125
X+022937Y+015812
X+017187Y+018187
X+017187Y+018687
X+016562Y+018750
X+016250Y+018187
X+016876Y+022187
X+017437Y+022125
X+017687Y+022312
X+017937Y+022125
X+018187Y+022312
X+018437Y+022125
X+020750Y+024687
X+017584Y+026937
X+017000Y+026406
X+016625Y+027687
X+015812Y+027937
X+015062Y+027937
X+016125Y+029062
X+014062Y+029562
X+012437Y+028687
X+013312Y+027562
X+013812Y+026062
X+012062Y+025562
X+011081Y+024062
X+010687Y+023062
X+010937Y+022437
X+010937Y+021562
X+010187Y+021562
X+012437Y+022687
X+013187Y+023687
X+009562Y+024187
X+009562Y+026562
X+010812Y+032812
X+011750Y+032750
X+010000Y+034318
X+007062Y+032812
X+005688Y+034688
T02
X+008687Y+023437
X+007687Y+023437
X+006687Y+023437
X+006687Y+022437
X+007687Y+022437
X+008687Y+022437
X+019437Y+022937
X+019437Y+023937
X+021437Y+023937
X+021437Y+022937
X+021437Y+021937
X+021437Y+020937
X+019437Y+020937
X+019437Y+021937
X+018780Y+030562
X+017795Y+030562
X+014062Y+033877
X+009764Y+008812
X+008780Y+008812
X+018780Y+008812
X+019764Y+008812
T03
X+020787Y+032570
X+016772Y+032570
X+016772Y+006804
X+020787Y+006804
X+010787Y+006804
X+006772Y+006804
T04
X+021654Y+027953
X+005906Y+011417
T00
M30
