G04 DipTrace 2.4.0.1*
%INtsunami.inner2.g3*%
%MOIN*%
%ADD15C,0.02*%
%ADD20C,0.025*%
%ADD27C,0.0512*%
%ADD34C,0.0236*%
%ADD45C,0.0945*%
%FSLAX44Y44*%
G04*
G70*
G90*
G75*
G01*
%LNInner2_Plane*%
%LPD*%
X14562Y10812D2*
D15*
X14687D1*
X18062Y11937D2*
Y12062D1*
X11312Y16187D2*
X11187D1*
X9937Y18937D2*
X9812D1*
X14562D2*
X14437D1*
X9011Y16789D2*
Y16738D1*
X9062Y16687D1*
X11750Y32750D2*
X11687Y32687D1*
X12437Y20937D2*
Y20812D1*
X9562Y26562D2*
X9937D1*
Y26812D1*
X15812Y27937D2*
Y28062D1*
X12062Y25562D2*
X11937D1*
X16625Y27687D2*
X16562D1*
X11081Y24062D2*
X10937D1*
X16812Y13312D2*
Y13437D1*
D34*
X14562Y10812D3*
X18062Y11937D3*
X11312Y16187D3*
X9937Y18937D3*
X14562D3*
X9011Y16789D3*
X11750Y32750D3*
X12437Y20937D3*
X20562Y14937D3*
X9562Y26562D3*
X15812Y27937D3*
X12062Y25562D3*
X16625Y27687D3*
X11081Y24062D3*
X16812Y13312D3*
X13187Y14937D3*
X9687D3*
X18437Y17562D3*
Y22125D3*
X18187Y17750D3*
Y22312D3*
X13062Y16375D3*
X12437Y22687D3*
X11937Y19562D3*
X13187Y23687D3*
X17000Y26406D3*
X13062Y10812D3*
X11937Y13937D3*
X11187Y15437D3*
X14562Y14937D3*
X15352Y13687D3*
X17812Y10812D3*
X18772Y12687D3*
X11312Y16937D3*
X9937Y18312D3*
X12812Y18937D3*
X7687Y15687D3*
X17062Y16062D3*
X8687Y18687D3*
X9562Y24187D3*
X16876Y22187D3*
X5688Y34688D3*
X10000Y34318D3*
X7062Y32812D3*
X10812D3*
X12437Y28687D3*
X15062Y27937D3*
X13312Y27562D3*
X16125Y29062D3*
X17584Y26937D3*
X20750Y24687D3*
X17437Y22125D3*
Y17500D3*
X17687Y22312D3*
Y17750D3*
X17937Y22125D3*
Y17562D3*
X10937Y22437D3*
X13562Y20187D3*
X17687Y16937D3*
X13562D3*
X10687Y23062D3*
X16437Y12687D3*
Y15312D3*
X13937Y12687D3*
X16687Y15562D3*
X14062Y29562D3*
X10562Y15437D3*
X10937Y21562D3*
X10187D3*
X17687Y16562D3*
X13312Y19937D3*
Y16562D3*
X17312Y15812D3*
X22937D3*
X13812Y26062D3*
X10187Y17687D3*
X15875Y19437D3*
X13500Y21562D3*
X14062Y21375D3*
X16562Y18750D3*
X19562Y18687D3*
X16250Y18187D3*
X19375D3*
X20062Y17937D3*
X19375Y14125D3*
X20000Y13625D3*
X15187Y20125D3*
X14750Y19687D3*
X14625Y20687D3*
X14187Y20250D3*
X13625Y20812D3*
X15437Y19000D3*
X17187Y18187D3*
Y18687D3*
X18750D3*
Y18187D3*
X19375Y16312D3*
Y17250D3*
Y15312D3*
X20000D3*
X18062Y13625D3*
X9750Y13312D3*
Y13812D3*
X9312Y13062D3*
X8812D3*
Y10312D3*
X9312D3*
X8812Y11812D3*
X9312D3*
X10125Y10375D3*
X10625D3*
X12062Y8875D3*
Y8375D3*
X11187Y9687D3*
X10812Y9312D3*
X18250Y8875D3*
Y8375D3*
X15187Y8875D3*
Y8375D3*
X16750Y8875D3*
Y8375D3*
X13562Y8875D3*
Y8375D3*
X4347Y34800D2*
D20*
X5330D1*
X6048D2*
X23213D1*
X4347Y34551D2*
X5338D1*
X6036D2*
X9709D1*
X10290D2*
X23213D1*
X4347Y34302D2*
X9623D1*
X10376D2*
X13791D1*
X14333D2*
X23213D1*
X4347Y34053D2*
X9740D1*
X10259D2*
X13580D1*
X14544D2*
X23213D1*
X4347Y33805D2*
X13553D1*
X14571D2*
X23213D1*
X4347Y33556D2*
X13666D1*
X14458D2*
X23213D1*
X4347Y33307D2*
X23213D1*
X4347Y33059D2*
X6783D1*
X7341D2*
X10533D1*
X11091D2*
X16193D1*
X17349D2*
X20209D1*
X21364D2*
X23213D1*
X4347Y32810D2*
X6686D1*
X7439D2*
X10436D1*
X11189D2*
X16049D1*
X17493D2*
X20064D1*
X21509D2*
X23213D1*
X4347Y32561D2*
X6787D1*
X7337D2*
X10537D1*
X11087D2*
X16010D1*
X17532D2*
X20025D1*
X21548D2*
X23213D1*
X4347Y32313D2*
X16057D1*
X17489D2*
X20072D1*
X21505D2*
X23213D1*
X4347Y32064D2*
X16209D1*
X17333D2*
X20225D1*
X21349D2*
X23213D1*
X4347Y31815D2*
X23213D1*
X4347Y31567D2*
X23213D1*
X4347Y31318D2*
X23213D1*
X4347Y31069D2*
X23213D1*
X4347Y30821D2*
X17353D1*
X18236D2*
X18389D1*
X19173D2*
X23213D1*
X4347Y30572D2*
X17279D1*
X19255D2*
X23213D1*
X4347Y30323D2*
X17342D1*
X18247D2*
X18369D1*
X19189D2*
X23213D1*
X4347Y30074D2*
X17713D1*
X17877D2*
X23213D1*
X4347Y29826D2*
X13850D1*
X14275D2*
X23213D1*
X4347Y29577D2*
X13713D1*
X14411D2*
X21002D1*
X22302D2*
X23213D1*
X4347Y29328D2*
X13814D1*
X14310D2*
X15869D1*
X16380D2*
X20564D1*
X22743D2*
X23213D1*
X4347Y29080D2*
X15748D1*
X16501D2*
X20303D1*
X23005D2*
X23213D1*
X4347Y28831D2*
X12088D1*
X12782D2*
X15834D1*
X16415D2*
X20127D1*
X4347Y28582D2*
X12076D1*
X12798D2*
X20006D1*
X4347Y28334D2*
X19932D1*
X4347Y28085D2*
X14717D1*
X15407D2*
X19893D1*
X4347Y27836D2*
X13064D1*
X13560D2*
X14697D1*
X15427D2*
X19893D1*
X4347Y27588D2*
X12936D1*
X13689D2*
X14986D1*
X15138D2*
X19928D1*
X4347Y27339D2*
X13014D1*
X13611D2*
X20002D1*
X4347Y27090D2*
X17240D1*
X17927D2*
X20115D1*
X4347Y26842D2*
X17221D1*
X17950D2*
X20291D1*
X23017D2*
X23213D1*
X4347Y26593D2*
X16709D1*
X17290D2*
X17482D1*
X17689D2*
X20541D1*
X22763D2*
X23213D1*
X4347Y26344D2*
X13627D1*
X13997D2*
X16658D1*
X17341D2*
X20963D1*
X22341D2*
X23213D1*
X4347Y26095D2*
X13467D1*
X14157D2*
X16881D1*
X17118D2*
X23213D1*
X4347Y25847D2*
X13545D1*
X14079D2*
X23213D1*
X4347Y25598D2*
X23213D1*
X4347Y25349D2*
X23213D1*
X4347Y25101D2*
X23213D1*
X4347Y24852D2*
X20412D1*
X21087D2*
X23213D1*
X4347Y24603D2*
X20381D1*
X21118D2*
X23213D1*
X4347Y24355D2*
X9225D1*
X9900D2*
X19154D1*
X19720D2*
X20607D1*
X20892D2*
X21154D1*
X21720D2*
X23213D1*
X4347Y24106D2*
X9193D1*
X9931D2*
X18951D1*
X19923D2*
X20951D1*
X21923D2*
X23213D1*
X4347Y23857D2*
X6498D1*
X6876D2*
X7498D1*
X7876D2*
X8498D1*
X8876D2*
X9412D1*
X9712D2*
X12885D1*
X13486D2*
X18928D1*
X19946D2*
X20928D1*
X21946D2*
X23213D1*
X4347Y23609D2*
X6244D1*
X7130D2*
X7246D1*
X8130D2*
X8246D1*
X9130D2*
X12850D1*
X13525D2*
X19049D1*
X19825D2*
X21049D1*
X21825D2*
X23213D1*
X4347Y23360D2*
X6217D1*
X9157D2*
X10533D1*
X10837D2*
X23213D1*
X4347Y23111D2*
X6350D1*
X7025D2*
X7350D1*
X8025D2*
X8350D1*
X9025D2*
X10342D1*
X11032D2*
X23213D1*
X4347Y22863D2*
X6416D1*
X6958D2*
X7514D1*
X7861D2*
X10408D1*
X10966D2*
X12139D1*
X12736D2*
X23213D1*
X4347Y22614D2*
X6205D1*
X7169D2*
X7250D1*
X8126D2*
X10643D1*
X11232D2*
X12096D1*
X12778D2*
X17545D1*
X17829D2*
X18045D1*
X18329D2*
X23213D1*
X4347Y22365D2*
X6178D1*
X8157D2*
X10596D1*
X11278D2*
X12377D1*
X12499D2*
X16545D1*
X18677D2*
X19271D1*
X19603D2*
X21271D1*
X21603D2*
X23213D1*
X4347Y22116D2*
X6291D1*
X7083D2*
X7346D1*
X8028D2*
X10865D1*
X11009D2*
X16506D1*
X18786D2*
X18998D1*
X19876D2*
X20998D1*
X21876D2*
X23213D1*
X4347Y21868D2*
X10057D1*
X10321D2*
X10807D1*
X11071D2*
X13299D1*
X13700D2*
X16701D1*
X17052D2*
X17213D1*
X18661D2*
X18967D1*
X19907D2*
X20967D1*
X21907D2*
X23213D1*
X4347Y21619D2*
X9842D1*
X11282D2*
X13127D1*
X14341D2*
X19092D1*
X19782D2*
X21092D1*
X21782D2*
X23213D1*
X4347Y21370D2*
X9900D1*
X10474D2*
X10652D1*
X11224D2*
X13178D1*
X14439D2*
X19287D1*
X19587D2*
X21287D1*
X21587D2*
X23213D1*
X4347Y21122D2*
X13432D1*
X14333D2*
X19002D1*
X19872D2*
X21002D1*
X21872D2*
X23213D1*
X4347Y20873D2*
X13252D1*
X13997D2*
X14299D1*
X14950D2*
X18967D1*
X19907D2*
X20967D1*
X21907D2*
X23213D1*
X4347Y20624D2*
X13299D1*
X13950D2*
X14252D1*
X14997D2*
X19088D1*
X19786D2*
X21088D1*
X21786D2*
X23213D1*
X4347Y20376D2*
X13275D1*
X14818D2*
X14915D1*
X15458D2*
X23213D1*
X4347Y20127D2*
X13025D1*
X14544D2*
X14811D1*
X15564D2*
X23213D1*
X4347Y19878D2*
X11842D1*
X12030D2*
X12967D1*
X13685D2*
X14428D1*
X15466D2*
X23213D1*
X4347Y19630D2*
X11596D1*
X12278D2*
X13186D1*
X13439D2*
X14377D1*
X15122D2*
X15553D1*
X16196D2*
X23213D1*
X4347Y19381D2*
X11643D1*
X12232D2*
X14549D1*
X14950D2*
X15502D1*
X16247D2*
X23213D1*
X4347Y19132D2*
X12494D1*
X13130D2*
X15084D1*
X16079D2*
X23213D1*
X4347Y18884D2*
X8369D1*
X9005D2*
X12439D1*
X13185D2*
X15080D1*
X15794D2*
X16209D1*
X17505D2*
X18432D1*
X19068D2*
X19244D1*
X19880D2*
X23213D1*
X4347Y18635D2*
X8314D1*
X9060D2*
X9768D1*
X10107D2*
X12603D1*
X13021D2*
X16205D1*
X17560D2*
X18377D1*
X19935D2*
X23213D1*
X4347Y18386D2*
X8478D1*
X8896D2*
X9568D1*
X10306D2*
X15932D1*
X16568D2*
X16869D1*
X17505D2*
X18432D1*
X19771D2*
X23213D1*
X4347Y18137D2*
X9603D1*
X10271D2*
X15877D1*
X16622D2*
X16814D1*
X17560D2*
X18377D1*
X20376D2*
X23213D1*
X4347Y17889D2*
X9908D1*
X10466D2*
X16037D1*
X16462D2*
X16975D1*
X18962D2*
X19162D1*
X19587D2*
X19686D1*
X20435D2*
X23213D1*
X4347Y17640D2*
X9842D1*
X10532D2*
X17119D1*
X18775D2*
X19846D1*
X20278D2*
X23213D1*
X4347Y17391D2*
X10029D1*
X10345D2*
X17107D1*
X18736D2*
X19025D1*
X19724D2*
X23213D1*
X4347Y17143D2*
X11002D1*
X11622D2*
X13287D1*
X13837D2*
X17412D1*
X17962D2*
X19014D1*
X19736D2*
X23213D1*
X4347Y16894D2*
X10936D1*
X11689D2*
X13217D1*
X13907D2*
X17342D1*
X18032D2*
X23213D1*
X4347Y16645D2*
X11088D1*
X11536D2*
X12861D1*
X13728D2*
X17350D1*
X18025D2*
X19232D1*
X19517D2*
X23213D1*
X4347Y16397D2*
X12713D1*
X13614D2*
X16924D1*
X17202D2*
X17385D1*
X17989D2*
X19006D1*
X19743D2*
X23213D1*
X4347Y16148D2*
X12807D1*
X13318D2*
X16693D1*
X17431D2*
X19037D1*
X19712D2*
X23213D1*
X4347Y15899D2*
X7381D1*
X7993D2*
X16725D1*
X17650D2*
X22600D1*
X4347Y15651D2*
X7311D1*
X8064D2*
X10295D1*
X11493D2*
X16350D1*
X17618D2*
X19248D1*
X19501D2*
X19873D1*
X20126D2*
X22631D1*
X4347Y15402D2*
X7455D1*
X7919D2*
X10217D1*
X11564D2*
X16100D1*
X16993D2*
X19010D1*
X20364D2*
X23213D1*
X4347Y15153D2*
X9385D1*
X9989D2*
X10381D1*
X10743D2*
X10951D1*
X11423D2*
X12885D1*
X13489D2*
X14260D1*
X14864D2*
X16131D1*
X16743D2*
X19033D1*
X20341D2*
X23213D1*
X4347Y14905D2*
X9311D1*
X10064D2*
X12811D1*
X13564D2*
X14186D1*
X14939D2*
X23213D1*
X4347Y14656D2*
X9447D1*
X9927D2*
X12947D1*
X13427D2*
X14322D1*
X14802D2*
X23213D1*
X4347Y14407D2*
X19139D1*
X19611D2*
X23213D1*
X4347Y14158D2*
X9658D1*
X9840D2*
X11639D1*
X12236D2*
X18998D1*
X19751D2*
X23213D1*
X4347Y13910D2*
X9385D1*
X10114D2*
X11561D1*
X12314D2*
X15053D1*
X15650D2*
X17830D1*
X18294D2*
X19068D1*
X19681D2*
X19768D1*
X20232D2*
X23213D1*
X4347Y13661D2*
X9404D1*
X10095D2*
X11693D1*
X12181D2*
X14975D1*
X15728D2*
X17686D1*
X18439D2*
X19623D1*
X20376D2*
X23213D1*
X4347Y13412D2*
X8744D1*
X8880D2*
X9244D1*
X10114D2*
X15107D1*
X15599D2*
X17756D1*
X18368D2*
X19693D1*
X20306D2*
X23213D1*
X4347Y13164D2*
X8447D1*
X10095D2*
X23213D1*
X4347Y12915D2*
X4994D1*
X6818D2*
X8467D1*
X9657D2*
X13682D1*
X14193D2*
X16182D1*
X16693D2*
X18478D1*
X19068D2*
X23213D1*
X4347Y12666D2*
X4670D1*
X7142D2*
X13588D1*
X14286D2*
X16088D1*
X16786D2*
X18393D1*
X19150D2*
X23213D1*
X4347Y12418D2*
X4455D1*
X7353D2*
X13732D1*
X14142D2*
X16232D1*
X16642D2*
X18518D1*
X19025D2*
X23213D1*
X7501Y12169D2*
X23213D1*
X7595Y11920D2*
X8451D1*
X9673D2*
X23213D1*
X7653Y11672D2*
X8463D1*
X9661D2*
X23213D1*
X7669Y11423D2*
X23213D1*
X7653Y11174D2*
X23213D1*
X7599Y10926D2*
X12701D1*
X13423D2*
X17451D1*
X18173D2*
X23213D1*
X7505Y10677D2*
X9916D1*
X10333D2*
X10415D1*
X10833D2*
X12713D1*
X13411D2*
X17463D1*
X18161D2*
X23213D1*
X4347Y10428D2*
X4447D1*
X7361D2*
X8455D1*
X9669D2*
X9750D1*
X10997D2*
X23213D1*
X4347Y10179D2*
X4658D1*
X7153D2*
X8459D1*
X9665D2*
X9807D1*
X10943D2*
X23213D1*
X4347Y9931D2*
X4975D1*
X6837D2*
X10908D1*
X11466D2*
X23213D1*
X4347Y9682D2*
X5748D1*
X6064D2*
X10811D1*
X11564D2*
X23213D1*
X4347Y9433D2*
X10455D1*
X11458D2*
X23213D1*
X4347Y9185D2*
X8502D1*
X9060D2*
X9420D1*
X10107D2*
X10459D1*
X11165D2*
X11869D1*
X12255D2*
X13369D1*
X13755D2*
X14994D1*
X15380D2*
X16557D1*
X16943D2*
X18057D1*
X19060D2*
X19420D1*
X20107D2*
X23213D1*
X4347Y8936D2*
X8322D1*
X10263D2*
X11689D1*
X12435D2*
X13189D1*
X13935D2*
X14814D1*
X15560D2*
X16377D1*
X17122D2*
X17877D1*
X20263D2*
X23213D1*
X4347Y8687D2*
X8322D1*
X10263D2*
X11736D1*
X12388D2*
X13236D1*
X13888D2*
X14861D1*
X15513D2*
X16424D1*
X17075D2*
X17924D1*
X20263D2*
X23213D1*
X4347Y8439D2*
X8502D1*
X9056D2*
X9420D1*
X10107D2*
X11689D1*
X12435D2*
X13189D1*
X13935D2*
X14814D1*
X15560D2*
X16377D1*
X17122D2*
X17877D1*
X19056D2*
X19420D1*
X20107D2*
X23213D1*
X4347Y8190D2*
X11736D1*
X12388D2*
X13236D1*
X13888D2*
X14861D1*
X15513D2*
X16424D1*
X17075D2*
X17924D1*
X18575D2*
X23213D1*
X4347Y7941D2*
X23213D1*
X4347Y7693D2*
X23213D1*
X4347Y7444D2*
X6381D1*
X7161D2*
X10396D1*
X11177D2*
X16381D1*
X17161D2*
X20396D1*
X21177D2*
X23213D1*
X4347Y7195D2*
X6123D1*
X7423D2*
X10139D1*
X11439D2*
X16123D1*
X17423D2*
X20139D1*
X21439D2*
X23213D1*
X4347Y6947D2*
X6021D1*
X7521D2*
X10041D1*
X11536D2*
X16021D1*
X17521D2*
X20041D1*
X21536D2*
X23213D1*
X4347Y6698D2*
X6018D1*
X7525D2*
X10033D1*
X11540D2*
X16018D1*
X17525D2*
X20033D1*
X21540D2*
X23213D1*
X4347Y6449D2*
X6100D1*
X7443D2*
X10115D1*
X11458D2*
X16100D1*
X17443D2*
X20115D1*
X21458D2*
X23213D1*
X4347Y6200D2*
X6322D1*
X7220D2*
X10338D1*
X11236D2*
X16322D1*
X17220D2*
X20338D1*
X21236D2*
X23213D1*
X4347Y5952D2*
X23213D1*
X4347Y5703D2*
X23213D1*
X4347Y5454D2*
X23213D1*
X4347Y5206D2*
X23213D1*
X4347Y4957D2*
X23213D1*
X4347Y4708D2*
X23213D1*
X4347Y4460D2*
X23213D1*
X9121Y23314D2*
X9070Y23200D1*
X8991Y23104D1*
X8888Y23033D1*
X8770Y22994D1*
X8645Y22988D1*
X8524Y23017D1*
X8415Y23077D1*
X8327Y23165D1*
X8267Y23274D1*
X8238Y23396D1*
X8244Y23520D1*
X8283Y23638D1*
X8354Y23741D1*
X8450Y23820D1*
X8564Y23871D1*
X8687Y23888D1*
X8811Y23871D1*
X8925Y23820D1*
X9020Y23741D1*
X9091Y23638D1*
X9130Y23520D1*
X9138Y23437D1*
X9121Y23314D1*
X8121D2*
X8070Y23200D1*
X7991Y23104D1*
X7888Y23033D1*
X7770Y22994D1*
X7645Y22988D1*
X7524Y23017D1*
X7415Y23077D1*
X7327Y23165D1*
X7267Y23274D1*
X7238Y23396D1*
X7244Y23520D1*
X7283Y23638D1*
X7354Y23741D1*
X7450Y23820D1*
X7564Y23871D1*
X7687Y23888D1*
X7811Y23871D1*
X7925Y23820D1*
X8020Y23741D1*
X8091Y23638D1*
X8130Y23520D1*
X8138Y23437D1*
X8121Y23314D1*
Y22314D2*
X8070Y22200D1*
X7991Y22104D1*
X7888Y22033D1*
X7770Y21994D1*
X7645Y21988D1*
X7524Y22017D1*
X7415Y22077D1*
X7327Y22165D1*
X7267Y22274D1*
X7238Y22396D1*
X7244Y22520D1*
X7283Y22638D1*
X7354Y22741D1*
X7450Y22820D1*
X7564Y22871D1*
X7687Y22888D1*
X7811Y22871D1*
X7925Y22820D1*
X8020Y22741D1*
X8091Y22638D1*
X8130Y22520D1*
X8138Y22437D1*
X8121Y22314D1*
X7121Y23314D2*
X7070Y23200D1*
X6991Y23104D1*
X6888Y23033D1*
X6770Y22994D1*
X6645Y22988D1*
X6524Y23017D1*
X6415Y23077D1*
X6327Y23165D1*
X6267Y23274D1*
X6238Y23396D1*
X6244Y23520D1*
X6283Y23638D1*
X6354Y23741D1*
X6450Y23820D1*
X6564Y23871D1*
X6687Y23888D1*
X6811Y23871D1*
X6925Y23820D1*
X7020Y23741D1*
X7091Y23638D1*
X7130Y23520D1*
X7138Y23437D1*
X7121Y23314D1*
X7162Y22313D2*
X7116Y22198D1*
X7042Y22097D1*
X6945Y22019D1*
X6831Y21968D1*
X6708Y21947D1*
X6584Y21957D1*
X6466Y21999D1*
X6363Y22068D1*
X6281Y22162D1*
X6224Y22273D1*
X6198Y22395D1*
X6203Y22519D1*
X6239Y22639D1*
X6305Y22745D1*
X6395Y22831D1*
X6503Y22892D1*
X6624Y22924D1*
X6749D1*
X6869Y22893D1*
X6978Y22832D1*
X7068Y22746D1*
X7134Y22640D1*
X7171Y22521D1*
X7178Y22437D1*
X7162Y22313D1*
X19213Y30439D2*
X19163Y30325D1*
X19083Y30229D1*
X18980Y30158D1*
X18862Y30119D1*
X18738Y30113D1*
X18617Y30142D1*
X18508Y30202D1*
X18420Y30290D1*
X18359Y30399D1*
X18331Y30521D1*
X18336Y30645D1*
X18376Y30763D1*
X18446Y30866D1*
X18542Y30945D1*
X18656Y30996D1*
X18780Y31013D1*
X18903Y30996D1*
X19017Y30945D1*
X19113Y30866D1*
X19183Y30763D1*
X19223Y30645D1*
X19230Y30562D1*
X19213Y30439D1*
X18270Y30438D2*
X18224Y30323D1*
X18150Y30222D1*
X18053Y30144D1*
X17939Y30093D1*
X17816Y30072D1*
X17692Y30082D1*
X17575Y30124D1*
X17471Y30193D1*
X17389Y30287D1*
X17333Y30398D1*
X17306Y30520D1*
X17311Y30644D1*
X17348Y30764D1*
X17413Y30870D1*
X17503Y30956D1*
X17612Y31017D1*
X17732Y31049D1*
X17857D1*
X17977Y31018D1*
X18086Y30957D1*
X18177Y30871D1*
X18242Y30765D1*
X18279Y30646D1*
X18286Y30562D1*
X18270Y30438D1*
X21514Y32445D2*
X21483Y32325D1*
X21431Y32211D1*
X21362Y32107D1*
X21275Y32017D1*
X21175Y31943D1*
X21064Y31886D1*
X20944Y31849D1*
X20821Y31833D1*
X20696Y31838D1*
X20574Y31864D1*
X20458Y31910D1*
X20351Y31975D1*
X20257Y32057D1*
X20178Y32154D1*
X20117Y32263D1*
X20075Y32381D1*
X20053Y32503D1*
X20052Y32628D1*
X20073Y32752D1*
X20114Y32869D1*
X20174Y32979D1*
X20252Y33076D1*
X20345Y33160D1*
X20451Y33226D1*
X20566Y33273D1*
X20688Y33301D1*
X20813Y33307D1*
X20937Y33292D1*
X21056Y33256D1*
X21168Y33201D1*
X21269Y33128D1*
X21357Y33039D1*
X21428Y32936D1*
X21480Y32823D1*
X21513Y32702D1*
X21525Y32570D1*
X21514Y32445D1*
X17498D2*
X17467Y32325D1*
X17416Y32211D1*
X17346Y32107D1*
X17260Y32017D1*
X17159Y31943D1*
X17048Y31886D1*
X16929Y31849D1*
X16805Y31833D1*
X16680Y31838D1*
X16558Y31864D1*
X16442Y31910D1*
X16335Y31975D1*
X16241Y32057D1*
X16163Y32154D1*
X16101Y32263D1*
X16059Y32381D1*
X16037Y32503D1*
Y32628D1*
X16057Y32752D1*
X16098Y32869D1*
X16158Y32979D1*
X16236Y33076D1*
X16329Y33160D1*
X16435Y33226D1*
X16550Y33273D1*
X16672Y33301D1*
X16797Y33307D1*
X16921Y33292D1*
X17041Y33256D1*
X17153Y33201D1*
X17254Y33128D1*
X17341Y33039D1*
X17412Y32936D1*
X17464Y32823D1*
X17497Y32702D1*
X17509Y32570D1*
X17498Y32445D1*
X19912Y23813D2*
X19866Y23698D1*
X19792Y23597D1*
X19695Y23519D1*
X19581Y23468D1*
X19458Y23447D1*
X19334Y23457D1*
X19216Y23499D1*
X19113Y23568D1*
X19031Y23662D1*
X18974Y23773D1*
X18948Y23895D1*
X18953Y24019D1*
X18989Y24139D1*
X19055Y24245D1*
X19145Y24331D1*
X19253Y24392D1*
X19374Y24424D1*
X19499D1*
X19619Y24393D1*
X19728Y24332D1*
X19818Y24246D1*
X19884Y24140D1*
X19921Y24021D1*
X19928Y23937D1*
X19912Y23813D1*
X19871Y21814D2*
X19820Y21700D1*
X19741Y21604D1*
X19638Y21533D1*
X19520Y21494D1*
X19395Y21488D1*
X19274Y21517D1*
X19165Y21577D1*
X19077Y21665D1*
X19017Y21774D1*
X18988Y21896D1*
X18994Y22020D1*
X19033Y22138D1*
X19104Y22241D1*
X19200Y22320D1*
X19314Y22371D1*
X19437Y22388D1*
X19561Y22371D1*
X19675Y22320D1*
X19770Y22241D1*
X19841Y22138D1*
X19880Y22020D1*
X19888Y21937D1*
X19871Y21814D1*
Y20814D2*
X19820Y20700D1*
X19741Y20604D1*
X19638Y20533D1*
X19520Y20494D1*
X19395Y20488D1*
X19274Y20517D1*
X19165Y20577D1*
X19077Y20665D1*
X19017Y20774D1*
X18988Y20896D1*
X18994Y21020D1*
X19033Y21138D1*
X19104Y21241D1*
X19200Y21320D1*
X19314Y21371D1*
X19437Y21388D1*
X19561Y21371D1*
X19675Y21320D1*
X19770Y21241D1*
X19841Y21138D1*
X19880Y21020D1*
X19888Y20937D1*
X19871Y20814D1*
X21912Y23813D2*
X21866Y23698D1*
X21792Y23597D1*
X21695Y23519D1*
X21581Y23468D1*
X21458Y23447D1*
X21334Y23457D1*
X21216Y23499D1*
X21113Y23568D1*
X21031Y23662D1*
X20974Y23773D1*
X20948Y23895D1*
X20953Y24019D1*
X20989Y24139D1*
X21055Y24245D1*
X21145Y24331D1*
X21253Y24392D1*
X21374Y24424D1*
X21499D1*
X21619Y24393D1*
X21728Y24332D1*
X21818Y24246D1*
X21884Y24140D1*
X21921Y24021D1*
X21928Y23937D1*
X21912Y23813D1*
X21871Y21814D2*
X21820Y21700D1*
X21741Y21604D1*
X21638Y21533D1*
X21520Y21494D1*
X21395Y21488D1*
X21274Y21517D1*
X21165Y21577D1*
X21077Y21665D1*
X21017Y21774D1*
X20988Y21896D1*
X20994Y22020D1*
X21033Y22138D1*
X21104Y22241D1*
X21200Y22320D1*
X21314Y22371D1*
X21437Y22388D1*
X21561Y22371D1*
X21675Y22320D1*
X21770Y22241D1*
X21841Y22138D1*
X21880Y22020D1*
X21888Y21937D1*
X21871Y21814D1*
Y20814D2*
X21820Y20700D1*
X21741Y20604D1*
X21638Y20533D1*
X21520Y20494D1*
X21395Y20488D1*
X21274Y20517D1*
X21165Y20577D1*
X21077Y20665D1*
X21017Y20774D1*
X20988Y20896D1*
X20994Y21020D1*
X21033Y21138D1*
X21104Y21241D1*
X21200Y21320D1*
X21314Y21371D1*
X21437Y21388D1*
X21561Y21371D1*
X21675Y21320D1*
X21770Y21241D1*
X21841Y21138D1*
X21880Y21020D1*
X21888Y20937D1*
X21871Y20814D1*
X9213Y8689D2*
X9163Y8575D1*
X9083Y8479D1*
X8980Y8408D1*
X8862Y8369D1*
X8738Y8363D1*
X8617Y8392D1*
X8508Y8452D1*
X8420Y8540D1*
X8359Y8649D1*
X8331Y8771D1*
X8336Y8895D1*
X8376Y9013D1*
X8446Y9116D1*
X8542Y9195D1*
X8656Y9246D1*
X8780Y9263D1*
X8903Y9246D1*
X9017Y9195D1*
X9113Y9116D1*
X9183Y9013D1*
X9223Y8895D1*
X9230Y8812D1*
X9213Y8689D1*
X10239Y8688D2*
X10192Y8573D1*
X10118Y8472D1*
X10021Y8394D1*
X9908Y8343D1*
X9785Y8322D1*
X9661Y8332D1*
X9543Y8374D1*
X9440Y8443D1*
X9357Y8537D1*
X9301Y8648D1*
X9275Y8770D1*
X9280Y8894D1*
X9316Y9014D1*
X9381Y9120D1*
X9471Y9206D1*
X9580Y9267D1*
X9701Y9299D1*
X9825D1*
X9946Y9268D1*
X10055Y9207D1*
X10145Y9121D1*
X10211Y9015D1*
X10247Y8896D1*
X10255Y8812D1*
X10239Y8688D1*
X7498Y6680D2*
X7467Y6559D1*
X7416Y6445D1*
X7346Y6342D1*
X7260Y6251D1*
X7159Y6177D1*
X7048Y6121D1*
X6929Y6084D1*
X6805Y6068D1*
X6680Y6072D1*
X6558Y6098D1*
X6442Y6145D1*
X6335Y6210D1*
X6241Y6292D1*
X6163Y6389D1*
X6101Y6497D1*
X6059Y6615D1*
X6037Y6738D1*
Y6863D1*
X6057Y6986D1*
X6098Y7104D1*
X6158Y7213D1*
X6236Y7311D1*
X6329Y7394D1*
X6435Y7460D1*
X6550Y7508D1*
X6672Y7535D1*
X6797Y7541D1*
X6921Y7526D1*
X7041Y7491D1*
X7153Y7436D1*
X7254Y7362D1*
X7341Y7273D1*
X7412Y7170D1*
X7464Y7057D1*
X7497Y6936D1*
X7509Y6804D1*
X7498Y6680D1*
X11514D2*
X11483Y6559D1*
X11431Y6445D1*
X11362Y6342D1*
X11275Y6251D1*
X11175Y6177D1*
X11064Y6121D1*
X10944Y6084D1*
X10821Y6068D1*
X10696Y6072D1*
X10574Y6098D1*
X10458Y6145D1*
X10351Y6210D1*
X10257Y6292D1*
X10178Y6389D1*
X10117Y6497D1*
X10075Y6615D1*
X10053Y6738D1*
X10052Y6863D1*
X10073Y6986D1*
X10114Y7104D1*
X10174Y7213D1*
X10252Y7311D1*
X10345Y7394D1*
X10451Y7460D1*
X10566Y7508D1*
X10688Y7535D1*
X10813Y7541D1*
X10937Y7526D1*
X11056Y7491D1*
X11168Y7436D1*
X11269Y7362D1*
X11357Y7273D1*
X11428Y7170D1*
X11480Y7057D1*
X11513Y6936D1*
X11525Y6804D1*
X11514Y6680D1*
X19213Y8689D2*
X19163Y8575D1*
X19083Y8479D1*
X18980Y8408D1*
X18862Y8369D1*
X18738Y8363D1*
X18600Y8401D1*
X18603Y8375D1*
X18581Y8252D1*
X18518Y8145D1*
X18422Y8066D1*
X18304Y8026D1*
X18180Y8028D1*
X18064Y8074D1*
X17971Y8157D1*
X17913Y8267D1*
X17897Y8390D1*
X17924Y8511D1*
X18001Y8623D1*
X17971Y8657D1*
X17913Y8767D1*
X17897Y8890D1*
X17924Y9011D1*
X17992Y9116D1*
X18091Y9190D1*
X18211Y9225D1*
X18335Y9217D1*
X18448Y9166D1*
X18473Y9142D1*
X18542Y9195D1*
X18656Y9246D1*
X18780Y9263D1*
X18903Y9246D1*
X19017Y9195D1*
X19113Y9116D1*
X19183Y9013D1*
X19223Y8895D1*
X19230Y8812D1*
X19213Y8689D1*
X20239Y8688D2*
X20192Y8573D1*
X20118Y8472D1*
X20021Y8394D1*
X19908Y8343D1*
X19785Y8322D1*
X19661Y8332D1*
X19543Y8374D1*
X19440Y8443D1*
X19357Y8537D1*
X19301Y8648D1*
X19275Y8770D1*
X19280Y8894D1*
X19316Y9014D1*
X19381Y9120D1*
X19471Y9206D1*
X19580Y9267D1*
X19701Y9299D1*
X19825D1*
X19946Y9268D1*
X20055Y9207D1*
X20145Y9121D1*
X20211Y9015D1*
X20247Y8896D1*
X20255Y8812D1*
X20239Y8688D1*
X17498Y6680D2*
X17467Y6559D1*
X17416Y6445D1*
X17346Y6342D1*
X17260Y6251D1*
X17159Y6177D1*
X17048Y6121D1*
X16929Y6084D1*
X16805Y6068D1*
X16680Y6072D1*
X16558Y6098D1*
X16442Y6145D1*
X16335Y6210D1*
X16241Y6292D1*
X16163Y6389D1*
X16101Y6497D1*
X16059Y6615D1*
X16037Y6738D1*
Y6863D1*
X16057Y6986D1*
X16098Y7104D1*
X16158Y7213D1*
X16236Y7311D1*
X16329Y7394D1*
X16435Y7460D1*
X16550Y7508D1*
X16672Y7535D1*
X16797Y7541D1*
X16921Y7526D1*
X17041Y7491D1*
X17153Y7436D1*
X17254Y7362D1*
X17341Y7273D1*
X17412Y7170D1*
X17464Y7057D1*
X17497Y6936D1*
X17509Y6804D1*
X17498Y6680D1*
X21514D2*
X21483Y6559D1*
X21431Y6445D1*
X21362Y6342D1*
X21275Y6251D1*
X21175Y6177D1*
X21064Y6121D1*
X20944Y6084D1*
X20821Y6068D1*
X20696Y6072D1*
X20574Y6098D1*
X20458Y6145D1*
X20351Y6210D1*
X20257Y6292D1*
X20178Y6389D1*
X20117Y6497D1*
X20075Y6615D1*
X20053Y6738D1*
X20052Y6863D1*
X20073Y6986D1*
X20114Y7104D1*
X20174Y7213D1*
X20252Y7311D1*
X20345Y7394D1*
X20451Y7460D1*
X20566Y7508D1*
X20688Y7535D1*
X20813Y7541D1*
X20937Y7526D1*
X21056Y7491D1*
X21168Y7436D1*
X21269Y7362D1*
X21357Y7273D1*
X21428Y7170D1*
X21480Y7057D1*
X21513Y6936D1*
X21525Y6804D1*
X21514Y6680D1*
X14537Y33754D2*
X14491Y33638D1*
X14417Y33538D1*
X14320Y33460D1*
X14206Y33408D1*
X14083Y33387D1*
X13959Y33397D1*
X13841Y33439D1*
X13738Y33509D1*
X13656Y33602D1*
X13599Y33713D1*
X13573Y33835D1*
X13578Y33960D1*
X13614Y34079D1*
X13680Y34185D1*
X13770Y34272D1*
X13878Y34333D1*
X13999Y34364D1*
X14124D1*
X14244Y34333D1*
X14353Y34273D1*
X14443Y34187D1*
X14509Y34081D1*
X14546Y33961D1*
X14553Y33877D1*
X14537Y33754D1*
X23236Y27229D2*
X23115Y27007D1*
X22964Y26807D1*
X22787Y26632D1*
X22586Y26483D1*
X22366Y26365D1*
X22131Y26279D1*
X21887Y26228D1*
X21637Y26212D1*
X21389Y26233D1*
X21145Y26288D1*
X20912Y26378D1*
X20694Y26501D1*
X20496Y26653D1*
X20322Y26832D1*
X20175Y27034D1*
X20059Y27255D1*
X19976Y27490D1*
X19927Y27735D1*
X19913Y27985D1*
X19936Y28234D1*
X19994Y28477D1*
X20086Y28709D1*
X20210Y28925D1*
X20364Y29122D1*
X20545Y29295D1*
X20748Y29439D1*
X20971Y29554D1*
X21207Y29635D1*
X21452Y29682D1*
X21702Y29693D1*
X21950Y29668D1*
X22193Y29608D1*
X22424Y29513D1*
X22639Y29387D1*
X22835Y29231D1*
X23005Y29049D1*
X23148Y28844D1*
X23236Y28674D1*
X23237Y35048D1*
X4322D1*
Y12138D1*
X4396Y12284D1*
X4536Y12491D1*
X4704Y12676D1*
X4896Y12835D1*
X5109Y12965D1*
X5339Y13063D1*
X5581Y13127D1*
X5829Y13156D1*
X6078Y13149D1*
X6325Y13107D1*
X6562Y13029D1*
X6786Y12919D1*
X6992Y12777D1*
X7175Y12608D1*
X7333Y12414D1*
X7461Y12199D1*
X7556Y11968D1*
X7618Y11726D1*
X7645Y11478D1*
X7642Y11292D1*
X7606Y11045D1*
X7535Y10806D1*
X7431Y10579D1*
X7295Y10369D1*
X7131Y10181D1*
X6941Y10018D1*
X6730Y9885D1*
X6502Y9782D1*
X6262Y9714D1*
X6014Y9680D1*
X5765Y9683D1*
X5518Y9721D1*
X5279Y9794D1*
X5053Y9900D1*
X4844Y10038D1*
X4658Y10204D1*
X4497Y10395D1*
X4365Y10607D1*
X4323Y10695D1*
X4322Y4322D1*
X23237D1*
Y15690D1*
X23169Y15586D1*
X23067Y15515D1*
X22946Y15488D1*
X22823Y15509D1*
X22718Y15574D1*
X22644Y15674D1*
X22614Y15794D1*
X22631Y15917D1*
X22693Y16025D1*
X22791Y16101D1*
X22910Y16135D1*
X23034Y16121D1*
X23143Y16062D1*
X23222Y15966D1*
X23237Y15918D1*
Y27232D1*
X13717Y21291D2*
X13672Y21254D1*
X13554Y21213D1*
X13430Y21216D1*
X13314Y21262D1*
X13221Y21345D1*
X13163Y21454D1*
X13147Y21578D1*
X13174Y21699D1*
X13242Y21803D1*
X13341Y21878D1*
X13461Y21913D1*
X13585Y21905D1*
X13698Y21854D1*
X13787Y21767D1*
X13841Y21652D1*
X13904Y21690D1*
X14023Y21725D1*
X14147Y21717D1*
X14261Y21666D1*
X14350Y21579D1*
X14403Y21467D1*
X14415Y21375D1*
X14393Y21252D1*
X14330Y21145D1*
X14234Y21066D1*
X14116Y21026D1*
X13992Y21028D1*
X13876Y21074D1*
X13784Y21157D1*
X13723Y21286D1*
X13710Y21155D1*
X13823Y21104D1*
X13912Y21017D1*
X13965Y20905D1*
X13978Y20812D1*
X13956Y20690D1*
X13893Y20582D1*
X13797Y20504D1*
X13712Y20475D1*
X13768Y20437D1*
X13845Y20344D1*
X13862Y20386D1*
X13929Y20491D1*
X14029Y20565D1*
X14148Y20600D1*
X14283Y20587D1*
X14272Y20703D1*
X14299Y20824D1*
X14367Y20928D1*
X14466Y21003D1*
X14586Y21038D1*
X14710Y21030D1*
X14823Y20979D1*
X14912Y20892D1*
X14965Y20780D1*
X14978Y20687D1*
X14956Y20565D1*
X14893Y20457D1*
X14797Y20379D1*
X14679Y20338D1*
X14555Y20341D1*
X14522Y20354D1*
X14540Y20250D1*
X14518Y20127D1*
X14455Y20020D1*
X14359Y19941D1*
X14241Y19901D1*
X14117Y19903D1*
X14001Y19949D1*
X13909Y20032D1*
X13874Y20097D1*
X13794Y19961D1*
X13692Y19890D1*
X13628Y19876D1*
X13612Y19815D1*
X13544Y19711D1*
X13442Y19640D1*
X13321Y19613D1*
X13198Y19634D1*
X13093Y19699D1*
X13019Y19799D1*
X12989Y19919D1*
X13006Y20042D1*
X13068Y20150D1*
X13166Y20226D1*
X13244Y20248D1*
X13256Y20292D1*
X13318Y20400D1*
X13416Y20476D1*
X13472Y20492D1*
X13346Y20595D1*
X13288Y20704D1*
X13272Y20828D1*
X13299Y20949D1*
X13367Y21053D1*
X13466Y21128D1*
X13586Y21163D1*
X13710Y21155D1*
X16856Y18563D2*
X16830Y18520D1*
X16734Y18441D1*
X16616Y18401D1*
X16527Y18403D1*
X16590Y18280D1*
X16603Y18187D1*
X16581Y18065D1*
X16518Y17957D1*
X16422Y17879D1*
X16304Y17838D1*
X16180Y17841D1*
X16064Y17887D1*
X15971Y17970D1*
X15913Y18079D1*
X15897Y18203D1*
X15924Y18324D1*
X15992Y18428D1*
X16091Y18503D1*
X16211Y18538D1*
X16284Y18533D1*
X16226Y18642D1*
X16209Y18765D1*
X16237Y18886D1*
X16304Y18991D1*
X16404Y19065D1*
X16523Y19100D1*
X16647Y19092D1*
X16761Y19041D1*
X16850Y18954D1*
X16888Y18874D1*
X16929Y18928D1*
X17029Y19003D1*
X17148Y19038D1*
X17272Y19030D1*
X17386Y18979D1*
X17475Y18892D1*
X17528Y18780D1*
X17540Y18687D1*
X17518Y18565D1*
X17455Y18457D1*
X17434Y18440D1*
X17475Y18392D1*
X17528Y18280D1*
X17540Y18187D1*
X17518Y18065D1*
X17481Y18001D1*
X17541Y18039D1*
X17660Y18072D1*
X17784Y18059D1*
X17893Y18000D1*
X17935Y17949D1*
X18041Y18039D1*
X18160Y18072D1*
X18284Y18059D1*
X18393Y18000D1*
X18472Y17904D1*
X18478Y17885D1*
X18534Y17871D1*
X18643Y17812D1*
X18722Y17716D1*
X18759Y17598D1*
X18761Y17562D1*
X18737Y17440D1*
X18669Y17336D1*
X18567Y17265D1*
X18446Y17238D1*
X18323Y17259D1*
X18218Y17324D1*
X18192Y17358D1*
X18067Y17265D1*
X17946Y17238D1*
X17823Y17259D1*
X17711Y17333D1*
X17669Y17274D1*
X17647Y17258D1*
X17784Y17246D1*
X17893Y17187D1*
X17972Y17091D1*
X18009Y16973D1*
X18011Y16937D1*
X17987Y16815D1*
X17947Y16753D1*
X17972Y16716D1*
X18009Y16598D1*
X18011Y16562D1*
X17987Y16440D1*
X17919Y16336D1*
X17817Y16265D1*
X17696Y16238D1*
X17573Y16259D1*
X17468Y16324D1*
X17394Y16424D1*
X17364Y16544D1*
X17381Y16667D1*
X17425Y16745D1*
X17394Y16799D1*
X17364Y16919D1*
X17381Y17042D1*
X17443Y17150D1*
X17483Y17181D1*
X17446Y17176D1*
X17323Y17196D1*
X17218Y17261D1*
X17144Y17361D1*
X17114Y17482D1*
X17131Y17605D1*
X17193Y17712D1*
X17291Y17789D1*
X17369Y17811D1*
X17381Y17855D1*
X17417Y17919D1*
X17359Y17879D1*
X17241Y17838D1*
X17117Y17841D1*
X17001Y17887D1*
X16909Y17970D1*
X16851Y18079D1*
X16834Y18203D1*
X16862Y18324D1*
X16939Y18435D1*
X16909Y18470D1*
X16860Y18562D1*
X19893Y18565D2*
X19830Y18457D1*
X19734Y18379D1*
X19679Y18360D1*
X19715Y18280D1*
X19728Y18187D1*
X19706Y18065D1*
X19643Y17957D1*
X19547Y17879D1*
X19429Y17838D1*
X19305Y17841D1*
X19189Y17887D1*
X19096Y17970D1*
X19065Y18028D1*
X19018Y17957D1*
X18922Y17879D1*
X18804Y17838D1*
X18680Y17841D1*
X18564Y17887D1*
X18471Y17970D1*
X18413Y18079D1*
X18397Y18203D1*
X18424Y18324D1*
X18501Y18435D1*
X18471Y18470D1*
X18413Y18579D1*
X18397Y18703D1*
X18424Y18824D1*
X18492Y18928D1*
X18591Y19003D1*
X18711Y19038D1*
X18835Y19030D1*
X18948Y18979D1*
X19037Y18892D1*
X19090Y18780D1*
X19103Y18687D1*
X19081Y18565D1*
X19018Y18457D1*
X18997Y18440D1*
X19037Y18392D1*
X19059Y18346D1*
X19117Y18428D1*
X19216Y18503D1*
X19257Y18515D1*
X19226Y18579D1*
X19209Y18703D1*
X19237Y18824D1*
X19304Y18928D1*
X19404Y19003D1*
X19523Y19038D1*
X19647Y19030D1*
X19761Y18979D1*
X19850Y18892D1*
X19903Y18780D1*
X19915Y18687D1*
X19893Y18565D1*
X20393Y17815D2*
X20330Y17707D1*
X20234Y17629D1*
X20116Y17588D1*
X19992Y17591D1*
X19876Y17637D1*
X19784Y17720D1*
X19726Y17829D1*
X19709Y17953D1*
X19737Y18074D1*
X19804Y18178D1*
X19904Y18253D1*
X20023Y18288D1*
X20147Y18280D1*
X20261Y18229D1*
X20350Y18142D1*
X20403Y18030D1*
X20415Y17937D1*
X20393Y17815D1*
X19706Y14002D2*
X19643Y13895D1*
X19547Y13816D1*
X19429Y13776D1*
X19305Y13778D1*
X19189Y13824D1*
X19096Y13907D1*
X19038Y14017D1*
X19022Y14140D1*
X19049Y14261D1*
X19117Y14366D1*
X19216Y14440D1*
X19336Y14475D1*
X19460Y14467D1*
X19573Y14416D1*
X19662Y14329D1*
X19715Y14217D1*
X19728Y14125D1*
X19706Y14002D1*
X20331Y13502D2*
X20268Y13395D1*
X20172Y13316D1*
X20054Y13276D1*
X19930Y13278D1*
X19814Y13324D1*
X19721Y13407D1*
X19663Y13517D1*
X19647Y13640D1*
X19674Y13761D1*
X19742Y13866D1*
X19841Y13940D1*
X19961Y13975D1*
X20085Y13967D1*
X20198Y13916D1*
X20287Y13829D1*
X20340Y13717D1*
X20353Y13625D1*
X20331Y13502D1*
X15518Y20002D2*
X15455Y19895D1*
X15359Y19816D1*
X15241Y19776D1*
X15117Y19778D1*
X15085Y19791D1*
X15103Y19687D1*
X15081Y19565D1*
X15018Y19457D1*
X14922Y19379D1*
X14804Y19338D1*
X14680Y19341D1*
X14564Y19387D1*
X14471Y19470D1*
X14413Y19579D1*
X14397Y19703D1*
X14424Y19824D1*
X14492Y19928D1*
X14591Y20003D1*
X14711Y20038D1*
X14845Y20025D1*
X14834Y20140D1*
X14862Y20261D1*
X14929Y20366D1*
X15029Y20440D1*
X15148Y20475D1*
X15272Y20467D1*
X15386Y20416D1*
X15475Y20329D1*
X15528Y20217D1*
X15540Y20125D1*
X15518Y20002D1*
X16206Y19315D2*
X16143Y19207D1*
X16047Y19129D1*
X15929Y19088D1*
X15805Y19091D1*
X15772Y19104D1*
X15790Y19000D1*
X15768Y18877D1*
X15705Y18770D1*
X15609Y18691D1*
X15491Y18651D1*
X15367Y18653D1*
X15251Y18699D1*
X15159Y18782D1*
X15101Y18892D1*
X15084Y19015D1*
X15112Y19136D1*
X15179Y19241D1*
X15279Y19315D1*
X15398Y19350D1*
X15533Y19337D1*
X15522Y19453D1*
X15549Y19574D1*
X15617Y19678D1*
X15716Y19753D1*
X15836Y19788D1*
X15960Y19780D1*
X16073Y19729D1*
X16162Y19642D1*
X16215Y19530D1*
X16228Y19437D1*
X16206Y19315D1*
X19706Y16190D2*
X19643Y16082D1*
X19547Y16004D1*
X19429Y15963D1*
X19305Y15966D1*
X19189Y16012D1*
X19096Y16095D1*
X19038Y16204D1*
X19022Y16328D1*
X19049Y16449D1*
X19117Y16553D1*
X19216Y16628D1*
X19336Y16663D1*
X19460Y16655D1*
X19573Y16604D1*
X19662Y16517D1*
X19715Y16405D1*
X19728Y16312D1*
X19706Y16190D1*
Y17127D2*
X19643Y17020D1*
X19547Y16941D1*
X19429Y16901D1*
X19305Y16903D1*
X19189Y16949D1*
X19096Y17032D1*
X19038Y17142D1*
X19022Y17265D1*
X19049Y17386D1*
X19117Y17491D1*
X19216Y17565D1*
X19336Y17600D1*
X19460Y17592D1*
X19573Y17541D1*
X19662Y17454D1*
X19715Y17342D1*
X19728Y17250D1*
X19706Y17127D1*
X19684Y15153D2*
X19643Y15082D1*
X19547Y15004D1*
X19429Y14963D1*
X19305Y14966D1*
X19189Y15012D1*
X19096Y15095D1*
X19038Y15204D1*
X19022Y15328D1*
X19049Y15449D1*
X19117Y15553D1*
X19216Y15628D1*
X19336Y15663D1*
X19460Y15655D1*
X19573Y15604D1*
X19662Y15517D1*
X19684Y15471D1*
X19742Y15553D1*
X19841Y15628D1*
X19961Y15663D1*
X20085Y15655D1*
X20198Y15604D1*
X20287Y15517D1*
X20340Y15405D1*
X20353Y15312D1*
X20331Y15190D1*
X20268Y15082D1*
X20172Y15004D1*
X20054Y14963D1*
X19930Y14966D1*
X19814Y15012D1*
X19721Y15095D1*
X19690Y15153D1*
X18393Y13502D2*
X18330Y13395D1*
X18234Y13316D1*
X18116Y13276D1*
X17992Y13278D1*
X17876Y13324D1*
X17784Y13407D1*
X17726Y13517D1*
X17709Y13640D1*
X17737Y13761D1*
X17804Y13866D1*
X17904Y13940D1*
X18023Y13975D1*
X18147Y13967D1*
X18261Y13916D1*
X18350Y13829D1*
X18403Y13717D1*
X18415Y13625D1*
X18393Y13502D1*
X10081Y13190D2*
X10018Y13082D1*
X9922Y13004D1*
X9804Y12963D1*
X9680Y12966D1*
X9654Y12976D1*
X9643Y12940D1*
X9580Y12832D1*
X9484Y12754D1*
X9366Y12713D1*
X9242Y12716D1*
X9126Y12762D1*
X9066Y12816D1*
X8984Y12754D1*
X8866Y12713D1*
X8742Y12716D1*
X8626Y12762D1*
X8534Y12845D1*
X8476Y12954D1*
X8459Y13078D1*
X8487Y13199D1*
X8554Y13303D1*
X8654Y13378D1*
X8773Y13413D1*
X8897Y13405D1*
X9011Y13354D1*
X9058Y13308D1*
X9154Y13378D1*
X9273Y13413D1*
X9408Y13400D1*
X9424Y13449D1*
X9501Y13560D1*
X9471Y13595D1*
X9413Y13704D1*
X9397Y13828D1*
X9424Y13949D1*
X9492Y14053D1*
X9591Y14128D1*
X9711Y14163D1*
X9835Y14155D1*
X9948Y14104D1*
X10037Y14017D1*
X10090Y13905D1*
X10103Y13812D1*
X10081Y13690D1*
X10018Y13582D1*
X9997Y13565D1*
X10037Y13517D1*
X10090Y13405D1*
X10103Y13312D1*
X10081Y13190D1*
X9059Y10065D2*
X8984Y10004D1*
X8866Y9963D1*
X8742Y9966D1*
X8626Y10012D1*
X8534Y10095D1*
X8476Y10204D1*
X8459Y10328D1*
X8487Y10449D1*
X8554Y10553D1*
X8654Y10628D1*
X8773Y10663D1*
X8897Y10655D1*
X9011Y10604D1*
X9058Y10558D1*
X9154Y10628D1*
X9273Y10663D1*
X9397Y10655D1*
X9511Y10604D1*
X9600Y10517D1*
X9653Y10405D1*
X9665Y10312D1*
X9643Y10190D1*
X9580Y10082D1*
X9484Y10004D1*
X9366Y9963D1*
X9242Y9966D1*
X9126Y10012D1*
X9066Y10066D1*
X9059Y11565D2*
X8984Y11504D1*
X8866Y11463D1*
X8742Y11466D1*
X8626Y11512D1*
X8534Y11595D1*
X8476Y11704D1*
X8459Y11828D1*
X8487Y11949D1*
X8554Y12053D1*
X8654Y12128D1*
X8773Y12163D1*
X8897Y12155D1*
X9011Y12104D1*
X9058Y12058D1*
X9154Y12128D1*
X9273Y12163D1*
X9397Y12155D1*
X9511Y12104D1*
X9600Y12017D1*
X9653Y11905D1*
X9665Y11812D1*
X9643Y11690D1*
X9580Y11582D1*
X9484Y11504D1*
X9366Y11463D1*
X9242Y11466D1*
X9126Y11512D1*
X9066Y11566D1*
X10372Y10128D2*
X10297Y10066D1*
X10179Y10026D1*
X10055Y10028D1*
X9939Y10074D1*
X9846Y10157D1*
X9788Y10267D1*
X9772Y10390D1*
X9799Y10511D1*
X9867Y10616D1*
X9966Y10690D1*
X10086Y10725D1*
X10210Y10717D1*
X10323Y10666D1*
X10370Y10620D1*
X10466Y10690D1*
X10586Y10725D1*
X10710Y10717D1*
X10823Y10666D1*
X10912Y10579D1*
X10965Y10467D1*
X10978Y10375D1*
X10956Y10252D1*
X10893Y10145D1*
X10797Y10066D1*
X10679Y10026D1*
X10555Y10028D1*
X10439Y10074D1*
X10378Y10129D1*
X12393Y8752D2*
X12330Y8645D1*
X12309Y8628D1*
X12350Y8579D1*
X12403Y8467D1*
X12415Y8375D1*
X12393Y8252D1*
X12330Y8145D1*
X12234Y8066D1*
X12116Y8026D1*
X11992Y8028D1*
X11876Y8074D1*
X11784Y8157D1*
X11726Y8267D1*
X11709Y8390D1*
X11737Y8511D1*
X11814Y8623D1*
X11784Y8657D1*
X11726Y8767D1*
X11709Y8890D1*
X11737Y9011D1*
X11804Y9116D1*
X11904Y9190D1*
X12023Y9225D1*
X12147Y9217D1*
X12261Y9166D1*
X12350Y9079D1*
X12403Y8967D1*
X12415Y8875D1*
X12393Y8752D1*
X11518Y9565D2*
X11455Y9457D1*
X11359Y9379D1*
X11241Y9338D1*
X11168Y9340D1*
X11143Y9190D1*
X11080Y9082D1*
X10984Y9004D1*
X10866Y8963D1*
X10742Y8966D1*
X10626Y9012D1*
X10534Y9095D1*
X10476Y9204D1*
X10459Y9328D1*
X10487Y9449D1*
X10554Y9553D1*
X10654Y9628D1*
X10773Y9663D1*
X10839Y9659D1*
X10834Y9703D1*
X10862Y9824D1*
X10929Y9928D1*
X11029Y10003D1*
X11148Y10038D1*
X11272Y10030D1*
X11386Y9979D1*
X11475Y9892D1*
X11528Y9780D1*
X11540Y9687D1*
X11518Y9565D1*
X15518Y8752D2*
X15455Y8645D1*
X15434Y8628D1*
X15475Y8579D1*
X15528Y8467D1*
X15540Y8375D1*
X15518Y8252D1*
X15455Y8145D1*
X15359Y8066D1*
X15241Y8026D1*
X15117Y8028D1*
X15001Y8074D1*
X14909Y8157D1*
X14851Y8267D1*
X14834Y8390D1*
X14862Y8511D1*
X14939Y8623D1*
X14909Y8657D1*
X14851Y8767D1*
X14834Y8890D1*
X14862Y9011D1*
X14929Y9116D1*
X15029Y9190D1*
X15148Y9225D1*
X15272Y9217D1*
X15386Y9166D1*
X15475Y9079D1*
X15528Y8967D1*
X15540Y8875D1*
X15518Y8752D1*
X17081D2*
X17018Y8645D1*
X16997Y8628D1*
X17037Y8579D1*
X17090Y8467D1*
X17103Y8375D1*
X17081Y8252D1*
X17018Y8145D1*
X16922Y8066D1*
X16804Y8026D1*
X16680Y8028D1*
X16564Y8074D1*
X16471Y8157D1*
X16413Y8267D1*
X16397Y8390D1*
X16424Y8511D1*
X16501Y8623D1*
X16471Y8657D1*
X16413Y8767D1*
X16397Y8890D1*
X16424Y9011D1*
X16492Y9116D1*
X16591Y9190D1*
X16711Y9225D1*
X16835Y9217D1*
X16948Y9166D1*
X17037Y9079D1*
X17090Y8967D1*
X17103Y8875D1*
X17081Y8752D1*
X13893D2*
X13830Y8645D1*
X13809Y8628D1*
X13850Y8579D1*
X13903Y8467D1*
X13915Y8375D1*
X13893Y8252D1*
X13830Y8145D1*
X13734Y8066D1*
X13616Y8026D1*
X13492Y8028D1*
X13376Y8074D1*
X13284Y8157D1*
X13226Y8267D1*
X13209Y8390D1*
X13237Y8511D1*
X13314Y8623D1*
X13284Y8657D1*
X13226Y8767D1*
X13209Y8890D1*
X13237Y9011D1*
X13304Y9116D1*
X13404Y9190D1*
X13523Y9225D1*
X13647Y9217D1*
X13761Y9166D1*
X13850Y9079D1*
X13903Y8967D1*
X13915Y8875D1*
X13893Y8752D1*
X13518Y14815D2*
X13455Y14707D1*
X13359Y14629D1*
X13241Y14588D1*
X13117Y14591D1*
X13001Y14637D1*
X12909Y14720D1*
X12851Y14829D1*
X12834Y14953D1*
X12862Y15074D1*
X12929Y15178D1*
X13029Y15253D1*
X13148Y15288D1*
X13272Y15280D1*
X13386Y15229D1*
X13475Y15142D1*
X13528Y15030D1*
X13540Y14937D1*
X13518Y14815D1*
X10018D2*
X9955Y14707D1*
X9859Y14629D1*
X9741Y14588D1*
X9617Y14591D1*
X9501Y14637D1*
X9409Y14720D1*
X9351Y14829D1*
X9334Y14953D1*
X9362Y15074D1*
X9429Y15178D1*
X9529Y15253D1*
X9648Y15288D1*
X9772Y15280D1*
X9886Y15229D1*
X9975Y15142D1*
X10028Y15030D1*
X10040Y14937D1*
X10018Y14815D1*
X18737Y22003D2*
X18669Y21899D1*
X18567Y21828D1*
X18446Y21801D1*
X18323Y21821D1*
X18218Y21886D1*
X18192Y21921D1*
X18067Y21828D1*
X17946Y21801D1*
X17823Y21821D1*
X17718Y21886D1*
X17692Y21921D1*
X17567Y21828D1*
X17446Y21801D1*
X17323Y21821D1*
X17218Y21886D1*
X17155Y21971D1*
X17048Y21879D1*
X16931Y21838D1*
X16806Y21841D1*
X16691Y21887D1*
X16598Y21970D1*
X16540Y22079D1*
X16524Y22203D1*
X16551Y22324D1*
X16619Y22428D1*
X16718Y22503D1*
X16837Y22538D1*
X16962Y22530D1*
X17075Y22479D1*
X17164Y22392D1*
X17192Y22332D1*
X17291Y22414D1*
X17392Y22442D1*
X17443Y22525D1*
X17541Y22601D1*
X17660Y22635D1*
X17784Y22621D1*
X17893Y22562D1*
X17935Y22511D1*
X18041Y22601D1*
X18160Y22635D1*
X18284Y22621D1*
X18393Y22562D1*
X18472Y22466D1*
X18478Y22448D1*
X18534Y22434D1*
X18643Y22375D1*
X18722Y22279D1*
X18759Y22160D1*
X18761Y22125D1*
X18737Y22003D1*
X13356Y16243D2*
X13294Y16149D1*
X13192Y16078D1*
X13071Y16051D1*
X12948Y16071D1*
X12843Y16136D1*
X12769Y16236D1*
X12739Y16357D1*
X12756Y16480D1*
X12818Y16587D1*
X12916Y16664D1*
X13017Y16692D1*
X13068Y16775D1*
X13166Y16851D1*
X13244Y16873D1*
X13239Y16919D1*
X13256Y17042D1*
X13318Y17150D1*
X13416Y17226D1*
X13535Y17260D1*
X13659Y17246D1*
X13768Y17187D1*
X13847Y17091D1*
X13884Y16973D1*
X13886Y16937D1*
X13862Y16815D1*
X13794Y16711D1*
X13692Y16640D1*
X13628Y16626D1*
X13636Y16562D1*
X13612Y16440D1*
X13544Y16336D1*
X13442Y16265D1*
X13363Y16247D1*
X12737Y22565D2*
X12669Y22461D1*
X12567Y22390D1*
X12446Y22363D1*
X12323Y22384D1*
X12218Y22449D1*
X12144Y22549D1*
X12114Y22669D1*
X12131Y22792D1*
X12193Y22900D1*
X12291Y22976D1*
X12410Y23010D1*
X12534Y22996D1*
X12643Y22937D1*
X12722Y22841D1*
X12759Y22723D1*
X12761Y22687D1*
X12737Y22565D1*
X12237Y19440D2*
X12169Y19336D1*
X12067Y19265D1*
X11946Y19238D1*
X11823Y19259D1*
X11718Y19324D1*
X11644Y19424D1*
X11614Y19544D1*
X11631Y19667D1*
X11693Y19775D1*
X11791Y19851D1*
X11910Y19885D1*
X12034Y19871D1*
X12143Y19812D1*
X12222Y19716D1*
X12259Y19598D1*
X12261Y19562D1*
X12237Y19440D1*
X13487Y23565D2*
X13419Y23461D1*
X13317Y23390D1*
X13196Y23363D1*
X13073Y23384D1*
X12968Y23449D1*
X12894Y23549D1*
X12864Y23669D1*
X12881Y23792D1*
X12943Y23900D1*
X13041Y23976D1*
X13160Y24010D1*
X13284Y23996D1*
X13393Y23937D1*
X13472Y23841D1*
X13509Y23723D1*
X13511Y23687D1*
X13487Y23565D1*
X17300Y26284D2*
X17232Y26180D1*
X17130Y26109D1*
X17008Y26082D1*
X16886Y26102D1*
X16780Y26167D1*
X16706Y26267D1*
X16676Y26388D1*
X16693Y26511D1*
X16755Y26618D1*
X16853Y26695D1*
X16973Y26728D1*
X17096Y26715D1*
X17206Y26656D1*
X17284Y26560D1*
X17322Y26441D1*
X17323Y26406D1*
X17300Y26284D1*
X13393Y10690D2*
X13330Y10582D1*
X13234Y10504D1*
X13116Y10463D1*
X12992Y10466D1*
X12876Y10512D1*
X12784Y10595D1*
X12726Y10704D1*
X12709Y10828D1*
X12737Y10949D1*
X12804Y11053D1*
X12904Y11128D1*
X13023Y11163D1*
X13147Y11155D1*
X13261Y11104D1*
X13350Y11017D1*
X13403Y10905D1*
X13415Y10812D1*
X13393Y10690D1*
X12268Y13815D2*
X12205Y13707D1*
X12109Y13629D1*
X11991Y13588D1*
X11867Y13591D1*
X11751Y13637D1*
X11659Y13720D1*
X11601Y13829D1*
X11584Y13953D1*
X11612Y14074D1*
X11679Y14178D1*
X11779Y14253D1*
X11898Y14288D1*
X12022Y14280D1*
X12136Y14229D1*
X12225Y14142D1*
X12278Y14030D1*
X12290Y13937D1*
X12268Y13815D1*
X11518Y15315D2*
X11455Y15207D1*
X11359Y15129D1*
X11241Y15088D1*
X11117Y15091D1*
X11001Y15137D1*
X10909Y15220D1*
X10860Y15312D1*
X10794Y15211D1*
X10692Y15140D1*
X10571Y15113D1*
X10448Y15134D1*
X10343Y15199D1*
X10269Y15299D1*
X10239Y15419D1*
X10256Y15542D1*
X10318Y15650D1*
X10416Y15726D1*
X10535Y15760D1*
X10659Y15746D1*
X10768Y15687D1*
X10847Y15591D1*
X10857Y15558D1*
X10929Y15678D1*
X11029Y15753D1*
X11148Y15788D1*
X11272Y15780D1*
X11386Y15729D1*
X11475Y15642D1*
X11528Y15530D1*
X11540Y15437D1*
X11518Y15315D1*
X14893Y14815D2*
X14830Y14707D1*
X14734Y14629D1*
X14616Y14588D1*
X14492Y14591D1*
X14376Y14637D1*
X14284Y14720D1*
X14226Y14829D1*
X14209Y14953D1*
X14237Y15074D1*
X14304Y15178D1*
X14404Y15253D1*
X14523Y15288D1*
X14647Y15280D1*
X14761Y15229D1*
X14850Y15142D1*
X14903Y15030D1*
X14915Y14937D1*
X14893Y14815D1*
X15684Y13565D2*
X15621Y13457D1*
X15524Y13379D1*
X15407Y13338D1*
X15282Y13341D1*
X15167Y13387D1*
X15074Y13470D1*
X15016Y13579D1*
X15000Y13703D1*
X15027Y13824D1*
X15095Y13928D1*
X15194Y14003D1*
X15313Y14038D1*
X15438Y14030D1*
X15551Y13979D1*
X15640Y13892D1*
X15693Y13780D1*
X15705Y13687D1*
X15684Y13565D1*
X18143Y10690D2*
X18080Y10582D1*
X17984Y10504D1*
X17866Y10463D1*
X17742Y10466D1*
X17626Y10512D1*
X17534Y10595D1*
X17476Y10704D1*
X17459Y10828D1*
X17487Y10949D1*
X17554Y11053D1*
X17654Y11128D1*
X17773Y11163D1*
X17897Y11155D1*
X18011Y11104D1*
X18100Y11017D1*
X18153Y10905D1*
X18165Y10812D1*
X18143Y10690D1*
X19103Y12565D2*
X19040Y12457D1*
X18944Y12379D1*
X18826Y12338D1*
X18702Y12341D1*
X18586Y12387D1*
X18493Y12470D1*
X18435Y12579D1*
X18419Y12703D1*
X18446Y12824D1*
X18514Y12928D1*
X18613Y13003D1*
X18733Y13038D1*
X18857Y13030D1*
X18970Y12979D1*
X19059Y12892D1*
X19112Y12780D1*
X19125Y12687D1*
X19103Y12565D1*
X11643Y16815D2*
X11580Y16707D1*
X11484Y16629D1*
X11366Y16588D1*
X11242Y16591D1*
X11126Y16637D1*
X11034Y16720D1*
X10976Y16829D1*
X10959Y16953D1*
X10987Y17074D1*
X11054Y17178D1*
X11154Y17253D1*
X11273Y17288D1*
X11397Y17280D1*
X11511Y17229D1*
X11600Y17142D1*
X11653Y17030D1*
X11665Y16937D1*
X11643Y16815D1*
X10268Y18190D2*
X10205Y18082D1*
X10109Y18004D1*
X9991Y17963D1*
X9867Y17966D1*
X9751Y18012D1*
X9659Y18095D1*
X9601Y18204D1*
X9584Y18328D1*
X9612Y18449D1*
X9679Y18553D1*
X9779Y18628D1*
X9898Y18663D1*
X10022Y18655D1*
X10136Y18604D1*
X10225Y18517D1*
X10278Y18405D1*
X10290Y18312D1*
X10268Y18190D1*
X13143Y18815D2*
X13080Y18707D1*
X12984Y18629D1*
X12866Y18588D1*
X12742Y18591D1*
X12626Y18637D1*
X12534Y18720D1*
X12476Y18829D1*
X12459Y18953D1*
X12487Y19074D1*
X12554Y19178D1*
X12654Y19253D1*
X12773Y19288D1*
X12897Y19280D1*
X13011Y19229D1*
X13100Y19142D1*
X13153Y19030D1*
X13165Y18937D1*
X13143Y18815D1*
X8018Y15565D2*
X7955Y15457D1*
X7859Y15379D1*
X7741Y15338D1*
X7617Y15341D1*
X7501Y15387D1*
X7409Y15470D1*
X7351Y15579D1*
X7334Y15703D1*
X7362Y15824D1*
X7429Y15928D1*
X7529Y16003D1*
X7648Y16038D1*
X7772Y16030D1*
X7886Y15979D1*
X7975Y15892D1*
X8028Y15780D1*
X8040Y15687D1*
X8018Y15565D1*
X17004Y15716D2*
X16967Y15726D1*
X17009Y15598D1*
X17011Y15562D1*
X16987Y15440D1*
X16919Y15336D1*
X16817Y15265D1*
X16753Y15251D1*
X16737Y15190D1*
X16669Y15086D1*
X16567Y15015D1*
X16446Y14988D1*
X16323Y15009D1*
X16218Y15074D1*
X16144Y15174D1*
X16114Y15294D1*
X16131Y15417D1*
X16193Y15525D1*
X16291Y15601D1*
X16369Y15623D1*
X16381Y15667D1*
X16443Y15775D1*
X16541Y15851D1*
X16660Y15885D1*
X16765Y15873D1*
X16726Y15954D1*
X16709Y16078D1*
X16737Y16199D1*
X16804Y16303D1*
X16904Y16378D1*
X17023Y16413D1*
X17147Y16405D1*
X17261Y16354D1*
X17350Y16267D1*
X17403Y16155D1*
X17407Y16123D1*
X17518Y16062D1*
X17597Y15966D1*
X17634Y15848D1*
X17636Y15812D1*
X17612Y15690D1*
X17544Y15586D1*
X17442Y15515D1*
X17321Y15488D1*
X17198Y15509D1*
X17093Y15574D1*
X17019Y15674D1*
X17009Y15715D1*
X9018Y18565D2*
X8955Y18457D1*
X8859Y18379D1*
X8741Y18338D1*
X8617Y18341D1*
X8501Y18387D1*
X8409Y18470D1*
X8351Y18579D1*
X8334Y18703D1*
X8362Y18824D1*
X8429Y18928D1*
X8529Y19003D1*
X8648Y19038D1*
X8772Y19030D1*
X8886Y18979D1*
X8975Y18892D1*
X9028Y18780D1*
X9040Y18687D1*
X9018Y18565D1*
X9893Y24065D2*
X9830Y23957D1*
X9734Y23879D1*
X9616Y23838D1*
X9492Y23841D1*
X9376Y23887D1*
X9284Y23970D1*
X9226Y24079D1*
X9209Y24203D1*
X9237Y24324D1*
X9304Y24428D1*
X9404Y24503D1*
X9523Y24538D1*
X9647Y24530D1*
X9761Y24479D1*
X9850Y24392D1*
X9903Y24280D1*
X9915Y24187D1*
X9893Y24065D1*
X6019Y34566D2*
X5956Y34458D1*
X5860Y34380D1*
X5742Y34339D1*
X5618Y34342D1*
X5502Y34388D1*
X5410Y34470D1*
X5352Y34580D1*
X5335Y34704D1*
X5363Y34825D1*
X5430Y34929D1*
X5530Y35004D1*
X5649Y35039D1*
X5773Y35031D1*
X5887Y34980D1*
X5976Y34893D1*
X6029Y34781D1*
X6041Y34688D1*
X6019Y34566D1*
X10331Y34195D2*
X10268Y34088D1*
X10172Y34009D1*
X10054Y33969D1*
X9930Y33971D1*
X9814Y34017D1*
X9722Y34100D1*
X9664Y34210D1*
X9647Y34333D1*
X9675Y34455D1*
X9742Y34559D1*
X9842Y34633D1*
X9961Y34669D1*
X10085Y34660D1*
X10199Y34610D1*
X10288Y34523D1*
X10341Y34410D1*
X10353Y34318D1*
X10331Y34195D1*
X7393Y32690D2*
X7330Y32582D1*
X7234Y32504D1*
X7116Y32463D1*
X6992Y32466D1*
X6876Y32512D1*
X6784Y32595D1*
X6726Y32704D1*
X6709Y32828D1*
X6737Y32949D1*
X6804Y33053D1*
X6904Y33128D1*
X7023Y33163D1*
X7147Y33155D1*
X7261Y33104D1*
X7350Y33017D1*
X7403Y32905D1*
X7415Y32812D1*
X7393Y32690D1*
X11143D2*
X11080Y32582D1*
X10984Y32504D1*
X10866Y32463D1*
X10742Y32466D1*
X10626Y32512D1*
X10534Y32595D1*
X10476Y32704D1*
X10459Y32828D1*
X10487Y32949D1*
X10554Y33053D1*
X10654Y33128D1*
X10773Y33163D1*
X10897Y33155D1*
X11011Y33104D1*
X11100Y33017D1*
X11153Y32905D1*
X11165Y32812D1*
X11143Y32690D1*
X12768Y28565D2*
X12705Y28457D1*
X12609Y28379D1*
X12491Y28338D1*
X12367Y28341D1*
X12251Y28387D1*
X12159Y28470D1*
X12101Y28579D1*
X12084Y28703D1*
X12112Y28824D1*
X12179Y28928D1*
X12279Y29003D1*
X12398Y29038D1*
X12522Y29030D1*
X12636Y28979D1*
X12725Y28892D1*
X12778Y28780D1*
X12790Y28687D1*
X12768Y28565D1*
X15393Y27815D2*
X15330Y27707D1*
X15234Y27629D1*
X15116Y27588D1*
X14992Y27591D1*
X14876Y27637D1*
X14784Y27720D1*
X14726Y27829D1*
X14709Y27953D1*
X14737Y28074D1*
X14804Y28178D1*
X14904Y28253D1*
X15023Y28288D1*
X15147Y28280D1*
X15261Y28229D1*
X15350Y28142D1*
X15403Y28030D1*
X15415Y27937D1*
X15393Y27815D1*
X13643Y27440D2*
X13580Y27332D1*
X13484Y27254D1*
X13366Y27213D1*
X13242Y27216D1*
X13126Y27262D1*
X13034Y27345D1*
X12976Y27454D1*
X12959Y27578D1*
X12987Y27699D1*
X13054Y27803D1*
X13154Y27878D1*
X13273Y27913D1*
X13397Y27905D1*
X13511Y27854D1*
X13600Y27767D1*
X13653Y27655D1*
X13665Y27562D1*
X13643Y27440D1*
X16456Y28940D2*
X16393Y28832D1*
X16297Y28754D1*
X16179Y28713D1*
X16055Y28716D1*
X15939Y28762D1*
X15846Y28845D1*
X15788Y28954D1*
X15772Y29078D1*
X15799Y29199D1*
X15867Y29303D1*
X15966Y29378D1*
X16086Y29413D1*
X16210Y29405D1*
X16323Y29354D1*
X16412Y29267D1*
X16465Y29155D1*
X16478Y29062D1*
X16456Y28940D1*
X17915Y26815D2*
X17852Y26707D1*
X17756Y26629D1*
X17639Y26588D1*
X17514Y26591D1*
X17399Y26637D1*
X17306Y26720D1*
X17248Y26829D1*
X17231Y26953D1*
X17259Y27074D1*
X17326Y27178D1*
X17426Y27253D1*
X17545Y27288D1*
X17669Y27280D1*
X17783Y27229D1*
X17872Y27142D1*
X17925Y27030D1*
X17937Y26937D1*
X17915Y26815D1*
X21081Y24565D2*
X21018Y24457D1*
X20922Y24379D1*
X20804Y24338D1*
X20680Y24341D1*
X20564Y24387D1*
X20471Y24470D1*
X20413Y24579D1*
X20397Y24703D1*
X20424Y24824D1*
X20492Y24928D1*
X20591Y25003D1*
X20711Y25038D1*
X20835Y25030D1*
X20948Y24979D1*
X21037Y24892D1*
X21090Y24780D1*
X21103Y24687D1*
X21081Y24565D1*
X11237Y22315D2*
X11169Y22211D1*
X11067Y22140D1*
X10946Y22113D1*
X10823Y22134D1*
X10718Y22199D1*
X10644Y22299D1*
X10614Y22419D1*
X10631Y22542D1*
X10693Y22650D1*
X10791Y22726D1*
X10910Y22760D1*
X11034Y22746D1*
X11143Y22687D1*
X11222Y22591D1*
X11259Y22473D1*
X11261Y22437D1*
X11237Y22315D1*
X10987Y22940D2*
X10919Y22836D1*
X10817Y22765D1*
X10696Y22738D1*
X10573Y22759D1*
X10468Y22824D1*
X10394Y22924D1*
X10364Y23044D1*
X10381Y23167D1*
X10443Y23275D1*
X10541Y23351D1*
X10660Y23385D1*
X10784Y23371D1*
X10893Y23312D1*
X10972Y23216D1*
X11009Y23098D1*
X11011Y23062D1*
X10987Y22940D1*
X16737Y12565D2*
X16669Y12461D1*
X16567Y12390D1*
X16446Y12363D1*
X16323Y12384D1*
X16218Y12449D1*
X16144Y12549D1*
X16114Y12669D1*
X16131Y12792D1*
X16193Y12900D1*
X16291Y12976D1*
X16410Y13010D1*
X16534Y12996D1*
X16643Y12937D1*
X16722Y12841D1*
X16759Y12723D1*
X16761Y12687D1*
X16737Y12565D1*
X14237D2*
X14169Y12461D1*
X14067Y12390D1*
X13946Y12363D1*
X13823Y12384D1*
X13718Y12449D1*
X13644Y12549D1*
X13614Y12669D1*
X13631Y12792D1*
X13693Y12900D1*
X13791Y12976D1*
X13910Y13010D1*
X14034Y12996D1*
X14143Y12937D1*
X14222Y12841D1*
X14259Y12723D1*
X14261Y12687D1*
X14237Y12565D1*
X14362Y29440D2*
X14294Y29336D1*
X14192Y29265D1*
X14071Y29238D1*
X13948Y29259D1*
X13843Y29324D1*
X13769Y29424D1*
X13739Y29544D1*
X13756Y29667D1*
X13818Y29775D1*
X13916Y29851D1*
X14035Y29885D1*
X14159Y29871D1*
X14268Y29812D1*
X14347Y29716D1*
X14384Y29598D1*
X14386Y29562D1*
X14362Y29440D1*
X11237Y21440D2*
X11169Y21336D1*
X11067Y21265D1*
X10946Y21238D1*
X10823Y21259D1*
X10718Y21324D1*
X10644Y21424D1*
X10614Y21544D1*
X10631Y21667D1*
X10693Y21775D1*
X10791Y21851D1*
X10910Y21885D1*
X11034Y21871D1*
X11143Y21812D1*
X11222Y21716D1*
X11259Y21598D1*
X11261Y21562D1*
X11237Y21440D1*
X10487D2*
X10419Y21336D1*
X10317Y21265D1*
X10196Y21238D1*
X10073Y21259D1*
X9968Y21324D1*
X9894Y21424D1*
X9864Y21544D1*
X9881Y21667D1*
X9943Y21775D1*
X10041Y21851D1*
X10160Y21885D1*
X10284Y21871D1*
X10393Y21812D1*
X10472Y21716D1*
X10509Y21598D1*
X10511Y21562D1*
X10487Y21440D1*
X14112Y25940D2*
X14044Y25836D1*
X13942Y25765D1*
X13821Y25738D1*
X13698Y25759D1*
X13593Y25824D1*
X13519Y25924D1*
X13489Y26044D1*
X13506Y26167D1*
X13568Y26275D1*
X13666Y26351D1*
X13785Y26385D1*
X13909Y26371D1*
X14018Y26312D1*
X14097Y26216D1*
X14134Y26098D1*
X14136Y26062D1*
X14112Y25940D1*
X10487Y17565D2*
X10419Y17461D1*
X10317Y17390D1*
X10196Y17363D1*
X10073Y17384D1*
X9968Y17449D1*
X9894Y17549D1*
X9864Y17669D1*
X9881Y17792D1*
X9943Y17900D1*
X10038Y17974D1*
X10160Y18010D1*
X10284Y17996D1*
X10393Y17937D1*
X10472Y17841D1*
X10509Y17723D1*
X10511Y17687D1*
X10487Y17565D1*
D27*
X8687Y23437D3*
Y22437D3*
X7687Y23437D3*
Y22437D3*
X6687Y23437D3*
Y22437D3*
X18780Y30562D3*
X17795D3*
D45*
X20787Y32570D3*
X16772D3*
D27*
X19437Y23937D3*
Y22937D3*
Y21937D3*
Y20937D3*
X21437Y23937D3*
Y22937D3*
Y21937D3*
Y20937D3*
X8780Y8812D3*
X9764D3*
D45*
X6772Y6804D3*
X10787D3*
D27*
X18780Y8812D3*
X19764D3*
D45*
X16772Y6804D3*
X20787D3*
D27*
X14062Y33877D3*
M02*
